<svg width="678" height="509" viewBox="0 0 678 509" fill="none" xmlns="http://www.w3.org/2000/svg">
    <path
      d="M190.8 179.153L190.794 179.148L190.499 179.551C156.724 225.836 89.9256 236.418 43.5024 202.838C-2.77936 169.064 -13.3574 102.266 20.2241 55.8402C54.0088 9.56235 120.807 -1.01906 167.229 32.5607C213.377 66.2365 224.027 132.745 190.8 179.153Z"
      fill="#FFE647"
      fill-opacity="0.3"
      stroke="#FFE229"
    />
    <path
      d="M209.656 0.730469L209.465 1.35938C209.146 1.46419 208.872 1.63509 208.645 1.87207C208.417 2.10449 208.139 2.49414 207.811 3.04102L203.483 10.1709H202.431L202.629 3.29395L198.165 10.1709H197.112L197.563 2.14551C197.563 1.79915 197.497 1.58268 197.365 1.49609C197.233 1.40495 197.023 1.35938 196.736 1.35938L196.935 0.730469H200.701L200.517 1.35938C200.116 1.35938 199.828 1.41634 199.655 1.53027C199.482 1.63965 199.386 1.86751 199.368 2.21387L199.061 7.60742L203.483 0.730469H204.461L204.283 7.60742L207.223 2.69238C207.264 2.62402 207.307 2.54883 207.353 2.4668C207.398 2.38021 207.435 2.30046 207.462 2.22754C207.489 2.15007 207.503 2.07715 207.503 2.00879C207.503 1.7627 207.398 1.59408 207.188 1.50293C206.983 1.40723 206.751 1.35938 206.491 1.35938L206.689 0.730469H209.656ZM214.072 5.33789C214.072 5.52474 214.015 5.74121 213.901 5.9873C213.787 6.22884 213.578 6.48633 213.272 6.75977C212.972 7.0332 212.539 7.27474 211.974 7.48438C211.413 7.69401 210.707 7.83757 209.854 7.91504L209.69 7.92871C209.654 8.111 209.636 8.27962 209.636 8.43457C209.636 8.77181 209.715 9.01562 209.875 9.16602C210.039 9.31185 210.276 9.38477 210.586 9.38477C211.27 9.38477 211.924 9.01562 212.548 8.27734H213.272C212.99 8.71029 212.562 9.13867 211.987 9.5625C211.413 9.98633 210.732 10.1982 209.943 10.1982C209.396 10.1982 208.927 10.0524 208.535 9.76074C208.148 9.46452 207.954 9.03158 207.954 8.46191C207.954 7.76465 208.148 7.08789 208.535 6.43164C208.923 5.77083 209.451 5.23535 210.121 4.8252C210.791 4.41048 211.52 4.20312 212.309 4.20312C212.942 4.20312 213.393 4.31022 213.662 4.52441C213.936 4.73861 214.072 5.00977 214.072 5.33789ZM212.63 5.31055C212.63 5.16016 212.577 5.02344 212.473 4.90039C212.368 4.77279 212.224 4.70898 212.042 4.70898C211.723 4.70898 211.429 4.82064 211.16 5.04395C210.896 5.2627 210.673 5.52246 210.49 5.82324C210.308 6.12402 210.158 6.42936 210.039 6.73926C209.925 7.04915 209.854 7.24056 209.827 7.31348C210.752 7.15853 211.45 6.89648 211.919 6.52734C212.393 6.1582 212.63 5.7526 212.63 5.31055ZM221.517 8.35938C221.384 8.62826 221.236 8.87435 221.072 9.09766C220.908 9.32096 220.726 9.51693 220.525 9.68555C220.325 9.85417 220.122 9.98177 219.917 10.0684C219.716 10.1549 219.507 10.1982 219.288 10.1982C218.81 10.1982 218.502 10.0547 218.365 9.76758C218.233 9.47591 218.167 9.12956 218.167 8.72852C217.802 9.16146 217.442 9.51465 217.087 9.78809C216.731 10.0615 216.326 10.1982 215.87 10.1982C215.601 10.1982 215.378 10.1253 215.2 9.97949C215.022 9.8291 214.89 9.62858 214.804 9.37793C214.722 9.12728 214.681 8.8584 214.681 8.57129C214.681 7.95605 214.838 7.30664 215.152 6.62305C215.467 5.93945 215.893 5.36523 216.431 4.90039C216.973 4.43555 217.556 4.20312 218.181 4.20312C218.468 4.20312 218.693 4.26009 218.857 4.37402C219.021 4.48796 219.133 4.61556 219.192 4.75684C219.256 4.89811 219.311 5.05534 219.356 5.22852L219.609 4.37402H221.12L219.849 8.54395C219.757 8.84473 219.712 9.02702 219.712 9.09082C219.712 9.15007 219.73 9.2002 219.767 9.24121C219.808 9.28223 219.853 9.30273 219.903 9.30273C220.2 9.30273 220.516 8.98828 220.854 8.35938H221.517ZM218.967 5.63184C218.967 5.40853 218.924 5.21712 218.837 5.05762C218.755 4.89811 218.602 4.81836 218.379 4.81836C218.037 4.81836 217.704 5.0166 217.381 5.41309C217.062 5.80501 216.802 6.28125 216.602 6.8418C216.406 7.39779 216.308 7.86719 216.308 8.25C216.308 8.80143 216.481 9.07715 216.827 9.07715C217.069 9.07715 217.315 8.96777 217.565 8.74902C217.821 8.52572 218.055 8.22949 218.27 7.86035C218.493 7.47754 218.664 7.09017 218.782 6.69824C218.905 6.30632 218.967 5.95085 218.967 5.63184ZM226.35 0.566406L223.957 8.40723C223.834 8.7946 223.772 9.03613 223.772 9.13184C223.772 9.20931 223.791 9.27083 223.827 9.31641C223.864 9.36198 223.911 9.38477 223.971 9.38477C224.089 9.38477 224.253 9.27767 224.463 9.06348C224.673 8.84928 224.839 8.60547 224.962 8.33203H225.604C225.381 8.75586 225.083 9.17285 224.709 9.58301C224.335 9.99316 223.868 10.1982 223.308 10.1982C222.966 10.1982 222.69 10.1048 222.48 9.91797C222.275 9.72656 222.173 9.49642 222.173 9.22754C222.173 9.0179 222.243 8.67383 222.385 8.19531L224.135 2.49414C224.249 2.12044 224.306 1.87207 224.306 1.74902C224.306 1.58952 224.24 1.4847 224.107 1.43457C223.98 1.38444 223.738 1.35938 223.383 1.35938L223.547 0.730469H224.278C224.593 0.730469 224.88 0.719076 225.14 0.696289C225.399 0.673503 225.648 0.630208 225.885 0.566406H226.35ZM230.916 4.40137L230.725 5.03027H229.364L228.332 8.40723C228.255 8.64876 228.216 8.82422 228.216 8.93359C228.216 9.0293 228.248 9.11816 228.312 9.2002C228.375 9.27767 228.455 9.31641 228.551 9.31641C228.815 9.31641 229.048 9.1888 229.248 8.93359C229.449 8.67383 229.629 8.39355 229.788 8.09277H230.431C230.175 8.65788 229.886 9.09993 229.562 9.41895C229.243 9.7334 228.943 9.94076 228.66 10.041C228.382 10.1458 228.127 10.1982 227.895 10.1982C227.503 10.1982 227.197 10.0843 226.979 9.85645C226.76 9.62858 226.65 9.32552 226.65 8.94727C226.65 8.6875 226.719 8.33431 226.855 7.8877L227.744 5.03027H226.466L226.664 4.40137H227.936L228.564 2.31641H230.191L229.562 4.40137H230.916ZM238.606 8.19531C238.319 8.73307 237.966 9.18424 237.547 9.54883C237.128 9.91341 236.667 10.0957 236.166 10.0957C235.792 10.0957 235.512 10.0137 235.325 9.84961C235.143 9.68099 235.052 9.47363 235.052 9.22754C235.052 9.11816 235.063 9.01562 235.086 8.91992C235.113 8.81966 235.161 8.65788 235.229 8.43457L235.749 6.69824C235.854 6.35189 235.906 6.07617 235.906 5.87109C235.906 5.78451 235.89 5.70247 235.858 5.625C235.831 5.54753 235.785 5.48828 235.722 5.44727C235.662 5.40169 235.587 5.37891 235.496 5.37891C235.141 5.37891 234.737 5.66374 234.286 6.2334C233.84 6.7985 233.516 7.32031 233.315 7.79883C232.933 8.73763 232.712 9.31641 232.652 9.53516L232.529 10H230.902L233.24 2.34375C233.345 2.05208 233.397 1.85612 233.397 1.75586C233.397 1.59635 233.331 1.49154 233.199 1.44141C233.072 1.38672 232.889 1.35938 232.652 1.35938H232.447L232.652 0.730469C233.746 0.716797 234.512 0.662109 234.949 0.566406H235.414L233.637 6.37695C233.951 5.94401 234.225 5.59082 234.457 5.31738C234.689 5.04395 234.993 4.79102 235.366 4.55859C235.744 4.32161 236.161 4.20312 236.617 4.20312C236.95 4.20312 237.223 4.28743 237.438 4.45605C237.656 4.62012 237.766 4.82975 237.766 5.08496C237.766 5.30371 237.681 5.67741 237.513 6.20605L236.829 8.46191C236.752 8.70345 236.713 8.86979 236.713 8.96094C236.713 9.01107 236.724 9.0612 236.747 9.11133C236.774 9.16146 236.82 9.18652 236.884 9.18652C237.157 9.18652 237.497 8.85612 237.902 8.19531H238.606ZM252.695 4.20312L252.497 4.83203C252.196 4.89583 251.943 5.00749 251.738 5.16699C251.538 5.3265 251.305 5.56576 251.041 5.88477C250.954 5.99414 250.793 6.19238 250.556 6.47949C250.319 6.76204 250.12 6.99674 249.961 7.18359C249.806 7.36589 249.678 7.514 249.578 7.62793C249.478 7.7373 249.368 7.85124 249.25 7.96973C249.683 8.4847 250.089 8.74219 250.467 8.74219C250.727 8.74219 250.938 8.66016 251.103 8.49609C251.267 8.33203 251.424 8.12467 251.574 7.87402H252.326C252.194 8.18392 252.021 8.51204 251.807 8.8584C251.592 9.2002 251.317 9.50553 250.979 9.77441C250.647 10.0387 250.275 10.1709 249.865 10.1709C249.505 10.1709 249.198 10.0775 248.942 9.89062C248.687 9.70378 248.421 9.42806 248.143 9.06348C248.138 9.06348 248.127 9.0498 248.108 9.02246C248.095 8.99056 248.088 8.98145 248.088 8.99512C247.732 9.24577 247.423 9.45312 247.158 9.61719C246.894 9.77669 246.607 9.90885 246.297 10.0137C245.987 10.1185 245.654 10.1709 245.299 10.1709C244.993 10.1709 244.697 10.1139 244.41 10C244.123 9.88607 243.875 9.72656 243.665 9.52148C243.46 9.31641 243.296 9.06576 243.173 8.76953C243.05 8.47331 242.988 8.15658 242.988 7.81934C242.988 7.47754 243.057 7.15169 243.193 6.8418C243.33 6.5319 243.601 6.19922 244.007 5.84375C244.412 5.48372 245.003 5.09635 245.777 4.68164C245.636 4.05729 245.565 3.51042 245.565 3.04102C245.565 2.55794 245.661 2.13184 245.853 1.7627C246.049 1.389 246.315 1.09733 246.652 0.887695C246.994 0.673503 247.375 0.566406 247.794 0.566406C248.163 0.566406 248.482 0.646159 248.751 0.805664C249.02 0.960612 249.223 1.16341 249.359 1.41406C249.501 1.66471 249.571 1.9222 249.571 2.18652C249.571 2.57389 249.46 2.92025 249.236 3.22559C249.018 3.52637 248.765 3.77474 248.478 3.9707C248.195 4.16667 247.808 4.40365 247.315 4.68164C247.716 5.64323 248.225 6.56152 248.84 7.43652C249.163 7.10384 249.464 6.73014 249.742 6.31543C250.02 5.90072 250.159 5.5612 250.159 5.29688C250.159 4.98698 249.986 4.83203 249.64 4.83203L249.838 4.20312H252.695ZM248.771 2.17285C248.771 1.96777 248.728 1.79688 248.642 1.66016C248.555 1.51888 248.446 1.41406 248.313 1.3457C248.181 1.27279 248.04 1.23633 247.89 1.23633C247.603 1.23633 247.356 1.35938 247.151 1.60547C246.946 1.84701 246.844 2.17741 246.844 2.59668C246.844 3.0752 246.93 3.55599 247.104 4.03906C247.691 3.69727 248.115 3.38965 248.375 3.11621C248.639 2.83822 248.771 2.52376 248.771 2.17285ZM247.691 8.43457C246.949 7.36361 246.381 6.32227 245.989 5.31055C245.602 5.52018 245.244 5.7959 244.916 6.1377C244.592 6.47493 244.431 6.8623 244.431 7.2998C244.431 7.56868 244.504 7.84212 244.649 8.12012C244.8 8.39811 245.007 8.62826 245.271 8.81055C245.536 8.98828 245.834 9.07715 246.167 9.07715C246.413 9.07715 246.659 9.02246 246.905 8.91309C247.156 8.80371 247.418 8.64421 247.691 8.43457ZM204.775 21.7305L204.577 22.3594C204.39 22.3639 204.235 22.4027 204.112 22.4756C203.989 22.5485 203.889 22.6556 203.812 22.7969C203.739 22.9336 203.661 23.1341 203.579 23.3984L201.843 29.1133C201.761 29.373 201.72 29.5736 201.72 29.7148C201.72 29.9473 201.813 30.1159 202 30.2207C202.191 30.321 202.415 30.3711 202.67 30.3711L202.492 31H198.637L198.835 30.3711C199.163 30.3711 199.396 30.2822 199.532 30.1045C199.669 29.9222 199.787 29.6647 199.888 29.332L201.638 23.624C201.72 23.3369 201.761 23.1364 201.761 23.0225C201.761 22.7581 201.676 22.5872 201.508 22.5098C201.344 22.4277 201.161 22.3776 200.961 22.3594L201.159 21.7305H204.775ZM211.851 29.209C211.723 29.4505 211.545 29.7148 211.317 30.002C211.094 30.2891 210.814 30.5443 210.477 30.7676C210.139 30.9863 209.777 31.0957 209.39 31.0957C209.052 31.0957 208.786 31.0137 208.59 30.8496C208.394 30.6855 208.296 30.4691 208.296 30.2002C208.296 29.9906 208.353 29.7057 208.467 29.3457L208.966 27.6982C209.107 27.2516 209.178 26.944 209.178 26.7754C209.178 26.6751 209.146 26.584 209.082 26.502C209.023 26.4199 208.938 26.3789 208.829 26.3789C208.583 26.3789 208.282 26.5863 207.927 27.001C207.571 27.4157 207.209 27.9762 206.84 28.6826C206.475 29.389 206.159 30.1615 205.89 31H204.263L205.5 26.9941C205.609 26.5931 205.664 26.3607 205.664 26.2969C205.664 26.2422 205.65 26.1875 205.623 26.1328C205.596 26.0736 205.543 26.0439 205.466 26.0439C205.288 26.0439 205.117 26.1556 204.953 26.3789C204.794 26.6022 204.657 26.846 204.543 27.1104H203.969C204.142 26.6227 204.409 26.1829 204.769 25.791C205.129 25.3991 205.587 25.2031 206.143 25.2031C206.498 25.2031 206.762 25.2988 206.936 25.4902C207.113 25.6816 207.202 25.8844 207.202 26.0986C207.202 26.2171 207.177 26.3971 207.127 26.6387C207.077 26.8802 207.02 27.1058 206.956 27.3154L206.717 28.0195C207.282 27.1491 207.813 26.4632 208.31 25.9619C208.806 25.4561 209.358 25.2031 209.964 25.2031C210.315 25.2031 210.57 25.3057 210.729 25.5107C210.889 25.7113 210.969 25.93 210.969 26.167C210.969 26.3128 210.914 26.5885 210.805 26.9941L210.087 29.373C210.005 29.6693 209.964 29.8766 209.964 29.9951C209.964 30.0407 209.978 30.084 210.005 30.125C210.037 30.166 210.078 30.1865 210.128 30.1865C210.256 30.1865 210.417 30.0977 210.613 29.9199C210.814 29.7376 210.998 29.5007 211.167 29.209H211.851ZM218.29 26.6318C218.29 26.9098 218.208 27.1423 218.044 27.3291C217.884 27.516 217.673 27.6094 217.408 27.6094C217.212 27.6094 217.053 27.5547 216.93 27.4453C216.811 27.3359 216.752 27.1947 216.752 27.0215C216.752 26.9212 216.77 26.8005 216.807 26.6592C216.848 26.5361 216.868 26.4245 216.868 26.3242C216.868 26.11 216.795 25.9665 216.649 25.8936C216.508 25.8161 216.369 25.7773 216.232 25.7773C215.831 25.7773 215.458 25.9961 215.111 26.4336C214.765 26.8665 214.489 27.3792 214.284 27.9717C214.084 28.5596 213.983 29.0426 213.983 29.4209C213.983 29.8356 214.081 30.0999 214.277 30.2139C214.478 30.3278 214.683 30.3848 214.893 30.3848C215.303 30.3848 215.676 30.2754 216.014 30.0566C216.351 29.8333 216.636 29.5781 216.868 29.291H217.606C217.283 29.7786 216.829 30.2184 216.246 30.6104C215.663 31.0023 215.011 31.1982 214.291 31.1982C213.658 31.1982 213.168 31.041 212.821 30.7266C212.475 30.4121 212.302 29.986 212.302 29.4482C212.302 28.8148 212.484 28.1654 212.849 27.5C213.213 26.8301 213.719 26.2809 214.366 25.8525C215.013 25.4196 215.729 25.2031 216.513 25.2031C216.8 25.2031 217.05 25.2419 217.265 25.3193C217.483 25.3968 217.67 25.5039 217.825 25.6406C217.98 25.7728 218.096 25.9255 218.174 26.0986C218.251 26.2718 218.29 26.4495 218.29 26.6318ZM225.263 27.6094C225.263 28.0651 225.172 28.5094 224.989 28.9424C224.812 29.3753 224.552 29.7627 224.21 30.1045C223.868 30.4463 223.469 30.7152 223.014 30.9111C222.558 31.1025 222.057 31.1982 221.51 31.1982C220.977 31.1982 220.507 31.0957 220.102 30.8906C219.696 30.681 219.382 30.3893 219.158 30.0156C218.935 29.6374 218.823 29.209 218.823 28.7305C218.823 28.1198 218.992 27.541 219.329 26.9941C219.666 26.4473 220.124 26.012 220.703 25.6885C221.286 25.3649 221.915 25.2031 222.59 25.2031C223.15 25.2031 223.633 25.3148 224.039 25.5381C224.445 25.7568 224.75 26.0508 224.955 26.4199C225.16 26.7891 225.263 27.1855 225.263 27.6094ZM223.643 27.1377C223.643 26.7139 223.551 26.3812 223.369 26.1396C223.191 25.8981 222.927 25.7773 222.576 25.7773C222.234 25.7773 221.929 25.9049 221.66 26.1602C221.391 26.4154 221.168 26.7367 220.99 27.124C220.812 27.5068 220.678 27.8942 220.587 28.2861C220.496 28.6735 220.45 29.0085 220.45 29.291C220.45 29.6829 220.539 30.0042 220.717 30.2549C220.895 30.501 221.145 30.624 221.469 30.624C221.829 30.624 222.148 30.4987 222.426 30.248C222.704 29.9974 222.932 29.6807 223.109 29.2979C223.292 28.9105 223.426 28.5186 223.513 28.1221C223.599 27.7256 223.643 27.3975 223.643 27.1377ZM239.017 29.1953C238.328 30.4622 237.492 31.0957 236.508 31.0957C236.161 31.0957 235.89 31 235.694 30.8086C235.503 30.6172 235.407 30.4007 235.407 30.1592C235.407 29.9814 235.457 29.7308 235.558 29.4072L236.091 27.6982C236.214 27.3018 236.275 27.0397 236.275 26.9121C236.275 26.748 236.225 26.6182 236.125 26.5225C236.025 26.4268 235.893 26.3789 235.729 26.3789C235.346 26.3789 234.936 26.5908 234.498 27.0146C234.065 27.4339 233.662 27.9831 233.288 28.6621C232.914 29.3366 232.625 30.0088 232.42 30.6787L232.324 31H230.697L231.75 27.5684C231.832 27.2812 231.873 27.0625 231.873 26.9121C231.873 26.7617 231.834 26.6364 231.757 26.5361C231.679 26.4313 231.552 26.3789 231.374 26.3789C231.064 26.3789 230.741 26.5133 230.403 26.7822C230.071 27.0511 229.754 27.402 229.453 27.835C229.157 28.2679 228.883 28.7419 228.633 29.2568C228.387 29.7673 228.184 30.2731 228.024 30.7744L227.956 31H226.329L227.525 27.083C227.653 26.6455 227.717 26.3789 227.717 26.2832C227.717 26.2103 227.692 26.1533 227.642 26.1123C227.596 26.0667 227.546 26.0439 227.491 26.0439C227.427 26.0439 227.345 26.0758 227.245 26.1396C227.145 26.1989 227.033 26.306 226.91 26.4609C226.792 26.6159 226.664 26.8324 226.527 27.1104H225.926C226.117 26.6182 226.4 26.1784 226.773 25.791C227.152 25.3991 227.621 25.2031 228.182 25.2031C228.368 25.2031 228.549 25.2373 228.722 25.3057C228.895 25.374 229.032 25.4834 229.132 25.6338C229.237 25.7842 229.289 25.9733 229.289 26.2012C229.289 26.4473 229.214 26.8346 229.063 27.3633L228.865 28.0195C229.125 27.582 229.398 27.1878 229.686 26.8369C229.977 26.486 230.28 26.1852 230.595 25.9346C230.909 25.6794 231.21 25.4948 231.497 25.3809C231.784 25.2624 232.069 25.2031 232.352 25.2031C232.734 25.2031 233.044 25.3011 233.281 25.4971C233.523 25.693 233.644 25.9551 233.644 26.2832C233.644 26.5202 233.573 26.8802 233.432 27.3633L233.247 27.9648C233.521 27.5 233.83 27.0625 234.177 26.6523C234.528 26.2422 234.924 25.8981 235.366 25.6201C235.813 25.3421 236.282 25.2031 236.774 25.2031C237.071 25.2031 237.312 25.2624 237.499 25.3809C237.686 25.4993 237.823 25.6452 237.909 25.8184C237.996 25.987 238.039 26.151 238.039 26.3105C238.039 26.4473 238.028 26.568 238.005 26.6729C237.982 26.7731 237.923 26.9827 237.827 27.3018L237.171 29.4209C237.084 29.6943 237.041 29.8743 237.041 29.9609C237.041 30.1113 237.112 30.1865 237.253 30.1865C237.376 30.1865 237.533 30.1182 237.725 29.9814C237.916 29.8402 238.123 29.5781 238.347 29.1953H239.017ZM245.518 26.3379C245.518 26.5247 245.461 26.7412 245.347 26.9873C245.233 27.2288 245.023 27.4863 244.718 27.7598C244.417 28.0332 243.984 28.2747 243.419 28.4844C242.858 28.694 242.152 28.8376 241.3 28.915L241.136 28.9287C241.099 29.111 241.081 29.2796 241.081 29.4346C241.081 29.7718 241.161 30.0156 241.32 30.166C241.484 30.3118 241.721 30.3848 242.031 30.3848C242.715 30.3848 243.369 30.0156 243.993 29.2773H244.718C244.435 29.7103 244.007 30.1387 243.433 30.5625C242.858 30.9863 242.177 31.1982 241.389 31.1982C240.842 31.1982 240.372 31.0524 239.98 30.7607C239.593 30.4645 239.399 30.0316 239.399 29.4619C239.399 28.7646 239.593 28.0879 239.98 27.4316C240.368 26.7708 240.896 26.2354 241.566 25.8252C242.236 25.4105 242.965 25.2031 243.754 25.2031C244.387 25.2031 244.839 25.3102 245.107 25.5244C245.381 25.7386 245.518 26.0098 245.518 26.3379ZM244.075 26.3105C244.075 26.1602 244.023 26.0234 243.918 25.9004C243.813 25.7728 243.67 25.709 243.487 25.709C243.168 25.709 242.874 25.8206 242.605 26.0439C242.341 26.2627 242.118 26.5225 241.936 26.8232C241.753 27.124 241.603 27.4294 241.484 27.7393C241.37 28.0492 241.3 28.2406 241.272 28.3135C242.198 28.1585 242.895 27.8965 243.364 27.5273C243.838 27.1582 244.075 26.7526 244.075 26.3105Z"
      fill="#FFE229"
    />
</svg>
