<svg width="327" height="274" viewBox="0 0 327 274" fill="none" xmlns="http://www.w3.org/2000/svg">
<line x1="68" y1="238.667" x2="85" y2="238.667" stroke="black"/>
<rect x="172" y="204.917" width="150" height="8" fill="#FFE229"/>
<path d="M1.35884 62.2036L1.35884 53.4763H4.69975C5.33043 53.4763 5.85458 53.5758 6.27219 53.7746C6.69265 53.9707 7.00657 54.2391 7.21396 54.58C7.42418 54.9209 7.5293 55.3073 7.5293 55.7391C7.5293 56.0942 7.46111 56.3982 7.32475 56.6511C7.18839 56.9011 7.00515 57.1042 6.77504 57.2604C6.54492 57.4167 6.28782 57.5289 6.00373 57.5971L6.00373 57.6823C6.31339 57.6994 6.61026 57.7945 6.89435 57.9678C7.18129 58.1383 7.41566 58.3797 7.59748 58.6922C7.7793 59.0047 7.87021 59.3826 7.87021 59.8258C7.87021 60.2775 7.76083 60.6837 7.54208 61.0445C7.32333 61.4025 6.99379 61.6851 6.55344 61.8925C6.1131 62.0999 5.55913 62.2036 4.89151 62.2036H1.35884ZM2.93981 60.8826H4.64009C5.21396 60.8826 5.62731 60.7732 5.88015 60.5545C6.13583 60.3329 6.26367 60.0488 6.26367 59.7022C6.26367 59.4437 6.19975 59.2107 6.07191 59.0033C5.94407 58.7931 5.76225 58.6283 5.52646 58.509C5.29066 58.3869 5.00941 58.3258 4.68271 58.3258H2.93981L2.93981 60.8826ZM2.93981 57.188H4.50373C4.77646 57.188 5.02219 57.1383 5.24094 57.0388C5.45969 56.9366 5.63157 56.7931 5.75657 56.6084C5.88441 56.4209 5.94833 56.1994 5.94833 55.9437C5.94833 55.6056 5.82901 55.3272 5.59038 55.1084C5.35458 54.8897 5.00373 54.7803 4.53782 54.7803H2.93981L2.93981 57.188ZM12.0325 62.3315C11.3933 62.3315 10.8393 62.1908 10.3706 61.9096C9.90181 61.6283 9.53817 61.2349 9.27965 60.7292C9.02397 60.2235 8.89613 59.6326 8.89613 58.9565C8.89613 58.2803 9.02397 57.688 9.27965 57.1795C9.53817 56.6709 9.90181 56.2761 10.3706 55.9948C10.8393 55.7136 11.3933 55.5729 12.0325 55.5729C12.6717 55.5729 13.2257 55.7136 13.6944 55.9948C14.1632 56.2761 14.5254 56.6709 14.7811 57.1795C15.0396 57.688 15.1689 58.2803 15.1689 58.9565C15.1689 59.6326 15.0396 60.2235 14.7811 60.7292C14.5254 61.2349 14.1632 61.6283 13.6944 61.9096C13.2257 62.1908 12.6717 62.3315 12.0325 62.3315ZM12.041 61.0957C12.3876 61.0957 12.6774 61.0005 12.9103 60.8101C13.1433 60.617 13.3166 60.3584 13.4302 60.0346C13.5467 59.7107 13.6049 59.3499 13.6049 58.9522C13.6049 58.5516 13.5467 58.1894 13.4302 57.8655C13.3166 57.5388 13.1433 57.2789 12.9103 57.0857C12.6774 56.8925 12.3876 56.7959 12.041 56.7959C11.6859 56.7959 11.3904 56.8925 11.1547 57.0857C10.9217 57.2789 10.747 57.5388 10.6305 57.8655C10.5169 58.1894 10.46 58.5516 10.46 58.9522C10.46 59.3499 10.5169 59.7107 10.6305 60.0346C10.747 60.3584 10.9217 60.617 11.1547 60.8101C11.3904 61.0005 11.6859 61.0957 12.041 61.0957ZM19.7466 55.6582L19.7466 56.8513H15.9838L15.9838 55.6582H19.7466ZM16.9128 54.09H18.4554L18.4554 60.2349C18.4554 60.4422 18.4867 60.6013 18.5492 60.7121C18.6145 60.8201 18.6998 60.894 18.8049 60.9337C18.91 60.9735 19.0265 60.9934 19.1543 60.9934C19.2509 60.9934 19.339 60.9863 19.4185 60.9721C19.5009 60.9579 19.5634 60.9451 19.606 60.9337L19.8659 62.1397C19.7836 62.1681 19.6657 62.1994 19.5123 62.2334C19.3617 62.2675 19.177 62.2874 18.9583 62.2931C18.5719 62.3045 18.2239 62.2462 17.9142 62.1184C17.6046 61.9877 17.3588 61.786 17.177 61.5133C16.998 61.2405 16.91 60.8996 16.9128 60.4905L16.9128 54.09ZM24.3052 55.6582L24.3052 56.8513L20.5424 56.8513L20.5424 55.6582L24.3052 55.6582ZM21.4714 54.09H23.014L23.014 60.2349C23.014 60.4422 23.0453 60.6013 23.1078 60.7121C23.1731 60.8201 23.2583 60.894 23.3635 60.9337C23.4686 60.9735 23.585 60.9934 23.7129 60.9934C23.8095 60.9934 23.8975 60.9863 23.9771 60.9721C24.0595 60.9579 24.122 60.9451 24.1646 60.9337L24.4245 62.1397C24.3422 62.1681 24.2243 62.1994 24.0708 62.2334C23.9203 62.2675 23.7356 62.2874 23.5169 62.2931C23.1305 62.3045 22.7825 62.2462 22.4728 62.1184C22.1632 61.9877 21.9174 61.786 21.7356 61.5133C21.5566 61.2405 21.4686 60.8996 21.4714 60.4905L21.4714 54.09ZM28.3801 62.3315C27.7409 62.3315 27.187 62.1908 26.7182 61.9096C26.2495 61.6283 25.8858 61.2349 25.6273 60.7292C25.3716 60.2235 25.2438 59.6326 25.2438 58.9565C25.2438 58.2803 25.3716 57.688 25.6273 57.1795C25.8858 56.6709 26.2495 56.2761 26.7182 55.9948C27.187 55.7136 27.7409 55.5729 28.3801 55.5729C29.0194 55.5729 29.5733 55.7136 30.0421 55.9948C30.5108 56.2761 30.873 56.6709 31.1287 57.1795C31.3873 57.688 31.5165 58.2803 31.5165 58.9565C31.5165 59.6326 31.3873 60.2235 31.1287 60.7292C30.873 61.2349 30.5108 61.6283 30.0421 61.9096C29.5733 62.1908 29.0194 62.3315 28.3801 62.3315ZM28.3887 61.0957C28.7353 61.0957 29.025 61.0005 29.258 60.8101C29.4909 60.617 29.6642 60.3584 29.7779 60.0346C29.8944 59.7107 29.9526 59.3499 29.9526 58.9522C29.9526 58.5516 29.8944 58.1894 29.7779 57.8655C29.6642 57.5388 29.4909 57.2789 29.258 57.0857C29.025 56.8925 28.7353 56.7959 28.3887 56.7959C28.0336 56.7959 27.7381 56.8925 27.5023 57.0857C27.2694 57.2789 27.0946 57.5388 26.9782 57.8655C26.8645 58.1894 26.8077 58.5516 26.8077 58.9522C26.8077 59.3499 26.8645 59.7107 26.9782 60.0346C27.0946 60.3584 27.2694 60.617 27.5023 60.8101C27.7381 61.0005 28.0336 61.0957 28.3887 61.0957ZM32.8258 62.2036L32.8258 55.6582H34.3002L34.3002 56.7704H34.377C34.5133 56.3954 34.7392 56.1028 35.0545 55.8925C35.3699 55.6795 35.7463 55.5729 36.1838 55.5729C36.627 55.5729 37.0005 55.6809 37.3045 55.8968C37.6113 56.1099 37.8272 56.4011 37.9522 56.7704H38.0204C38.1653 56.4067 38.4096 56.117 38.7534 55.9011C39.1 55.6823 39.5105 55.5729 39.9849 55.5729C40.5872 55.5729 41.0787 55.7633 41.4593 56.144C41.84 56.5246 42.0304 57.08 42.0304 57.8101L42.0304 62.2036H40.4835L40.4835 58.0488C40.4835 57.6425 40.3755 57.3457 40.1596 57.1582C39.9437 56.9678 39.6795 56.8726 39.367 56.8726C38.9949 56.8726 38.7037 56.9891 38.4934 57.2221C38.286 57.4522 38.1824 57.7519 38.1824 58.1212L38.1824 62.2036H36.6696L36.6696 57.9849C36.6696 57.6468 36.5673 57.3769 36.3627 57.1752C36.161 56.9735 35.8968 56.8726 35.5701 56.8726C35.3485 56.8726 35.1468 56.9295 34.965 57.0431C34.7832 57.1539 34.6383 57.3116 34.5304 57.5161C34.4224 57.7178 34.3684 57.9536 34.3684 58.2235L34.3684 62.2036H32.8258ZM49.589 62.3229C49.0208 62.3229 48.5123 62.2164 48.0634 62.0033C47.6145 61.7874 47.258 61.492 46.9938 61.117C46.7324 60.742 46.5932 60.313 46.5762 59.83H48.1103C48.1387 60.188 48.2935 60.4806 48.5748 60.7079C48.856 60.9323 49.1941 61.0445 49.589 61.0445C49.8986 61.0445 50.1742 60.9735 50.4157 60.8315C50.6571 60.6894 50.8475 60.492 50.9867 60.2391C51.1259 59.9863 51.1941 59.6979 51.1912 59.3741C51.1941 59.0445 51.1245 58.7519 50.9824 58.4962C50.8404 58.2405 50.6458 58.0403 50.3986 57.8954C50.1515 57.7476 49.8674 57.6738 49.5463 57.6738C49.285 57.6709 49.0279 57.7192 48.775 57.8187C48.5222 57.9181 48.3219 58.0488 48.1742 58.2107L46.7466 57.9763L47.2026 53.4763L52.2651 53.4763L52.2651 54.7974L48.5108 54.7974L48.2594 57.1113H48.3105C48.4725 56.9209 48.7012 56.7633 48.9966 56.6383C49.2921 56.5104 49.6159 56.4465 49.9682 56.4465C50.4966 56.4465 50.9682 56.5715 51.383 56.8215C51.7978 57.0687 52.1245 57.4096 52.3631 57.8442C52.6017 58.2789 52.7211 58.7761 52.7211 59.3357C52.7211 59.9124 52.5875 60.4266 52.3205 60.8783C52.0563 61.3272 51.6884 61.6809 51.2168 61.9394C50.748 62.1951 50.2054 62.3229 49.589 62.3229ZM57.3745 62.3698C56.6728 62.3698 56.0705 62.1922 55.5676 61.8371C55.0676 61.4792 54.6827 60.9636 54.4128 60.2903C54.1458 59.6141 54.0123 58.8002 54.0123 57.8485C54.0151 56.8968 54.15 56.0871 54.4171 55.4195C54.687 54.7491 55.0719 54.2377 55.5719 53.8854C56.0748 53.5332 56.6756 53.357 57.3745 53.357C58.0733 53.357 58.6742 53.5332 59.177 53.8854C59.6799 54.2377 60.0648 54.7491 60.3319 55.4195C60.6017 56.09 60.7367 56.8996 60.7367 57.8485C60.7367 58.803 60.6017 59.6184 60.3319 60.2945C60.0648 60.9678 59.6799 61.482 59.177 61.8371C58.677 62.1922 58.0762 62.3698 57.3745 62.3698ZM57.3745 61.036C57.9199 61.036 58.3503 60.7675 58.6657 60.2306C58.9838 59.6908 59.1429 58.8968 59.1429 57.8485C59.1429 57.1553 59.0705 56.5729 58.9256 56.1013C58.7807 55.6297 58.5762 55.2746 58.312 55.036C58.0478 54.7945 57.7353 54.6738 57.3745 54.6738C56.8319 54.6738 56.4029 54.9437 56.0875 55.4834C55.7722 56.0204 55.6131 56.8087 55.6103 57.8485C55.6074 58.5445 55.677 59.1297 55.8191 59.6042C55.964 60.0786 56.1685 60.4366 56.4327 60.678C56.6969 60.9167 57.0108 61.036 57.3745 61.036ZM66.8187 60.5672L66.8187 60.107C66.8187 59.769 66.8897 59.4579 67.0318 59.1738C67.1767 58.8897 67.3869 58.661 67.6625 58.4877C67.938 58.3144 68.2718 58.2278 68.6639 58.2278C69.0673 58.2278 69.4054 58.3144 69.6781 58.4877C69.9508 58.6582 70.1568 58.8854 70.296 59.1695C70.438 59.4536 70.5091 59.7661 70.5091 60.107L70.5091 60.5672C70.5091 60.9053 70.438 61.2164 70.296 61.5005C70.1539 61.7846 69.9451 62.0133 69.6696 62.1866C69.3968 62.3599 69.0616 62.4465 68.6639 62.4465C68.2662 62.4465 67.9295 62.3599 67.6539 62.1866C67.3784 62.0133 67.1696 61.7846 67.0275 61.5005C66.8883 61.2164 66.8187 60.9053 66.8187 60.5672ZM67.9309 60.107L67.9309 60.5672C67.9309 60.7917 67.9849 60.9976 68.0929 61.1851C68.2008 61.3726 68.3912 61.4664 68.6639 61.4664C68.9395 61.4664 69.1284 61.3741 69.2306 61.1894C69.3358 61.0019 69.3883 60.7945 69.3883 60.5672L69.3883 60.107C69.3883 59.8797 69.3386 59.6724 69.2392 59.4849C69.1397 59.2945 68.948 59.1994 68.6639 59.1994C68.3968 59.1994 68.2079 59.2945 68.0971 59.4849C67.9863 59.6724 67.9309 59.8797 67.9309 60.107ZM62.3826 55.5729L62.3826 55.1127C62.3826 54.7718 62.4551 54.4593 62.6 54.1752C62.7449 53.8911 62.9551 53.6638 63.2306 53.4934C63.5062 53.3201 63.84 53.2334 64.2321 53.2334C64.6326 53.2334 64.9693 53.3201 65.242 53.4934C65.5176 53.6638 65.725 53.8911 65.8642 54.1752C66.0034 54.4593 66.073 54.7718 66.073 55.1127L66.073 55.5729C66.073 55.9138 66.002 56.2263 65.8599 56.5104C65.7207 56.7917 65.5133 57.0175 65.2377 57.188C64.9622 57.3584 64.627 57.4437 64.2321 57.4437C63.8315 57.4437 63.4934 57.3584 63.2179 57.188C62.9451 57.0175 62.7377 56.7903 62.5957 56.5062C62.4537 56.2221 62.3826 55.911 62.3826 55.5729ZM63.5034 55.1127L63.5034 55.5729C63.5034 55.8002 63.5559 56.0076 63.661 56.1951C63.769 56.3797 63.9593 56.4721 64.2321 56.4721C64.5048 56.4721 64.6923 56.3797 64.7946 56.1951C64.8997 56.0076 64.9522 55.8002 64.9522 55.5729L64.9522 55.1127C64.9522 54.8854 64.9025 54.678 64.8031 54.4905C64.7037 54.3002 64.5133 54.205 64.2321 54.205C63.9622 54.205 63.7733 54.3002 63.6653 54.4905C63.5574 54.6809 63.5034 54.8883 63.5034 55.1127ZM62.8684 62.2036L68.8684 53.4763H69.9338L63.9338 62.2036H62.8684Z" fill="white"/>
<path d="M11.6534 221.273L11.6534 230H10.0724L10.0724 222.811H10.0213L7.98011 224.115L7.98011 222.666L10.1491 221.273H11.6534ZM13.8693 230L13.8693 228.858L16.8991 225.888C17.1889 225.595 17.4304 225.335 17.6236 225.108C17.8168 224.881 17.9616 224.661 18.0582 224.447C18.1548 224.234 18.2031 224.007 18.2031 223.766C18.2031 223.49 18.1406 223.254 18.0156 223.058C17.8906 222.859 17.7188 222.706 17.5 222.598C17.2813 222.49 17.0327 222.436 16.7543 222.436C16.4673 222.436 16.2159 222.496 16 222.615C15.7841 222.732 15.6165 222.898 15.4972 223.114C15.3807 223.33 15.3224 223.587 15.3224 223.885H13.8182C13.8182 223.331 13.9446 222.849 14.1974 222.44C14.4503 222.031 14.7983 221.714 15.2415 221.49C15.6875 221.266 16.1989 221.153 16.7756 221.153C17.3608 221.153 17.875 221.263 18.3182 221.482C18.7614 221.7 19.1051 222 19.3494 222.381C19.5966 222.761 19.7202 223.196 19.7202 223.685C19.7202 224.011 19.6577 224.332 19.5327 224.648C19.4077 224.963 19.1875 225.312 18.8722 225.696C18.5597 226.08 18.1207 226.544 17.5554 227.089L16.0511 228.619L16.0511 228.679H19.8523L19.8523 230H13.8693ZM25.9886 228.364L25.9886 227.903C25.9886 227.565 26.0597 227.254 26.2017 226.97C26.3466 226.686 26.5568 226.457 26.8324 226.284C27.108 226.111 27.4418 226.024 27.8338 226.024C28.2372 226.024 28.5753 226.111 28.848 226.284C29.1207 226.455 29.3267 226.682 29.4659 226.966C29.608 227.25 29.679 227.562 29.679 227.903L29.679 228.364C29.679 228.702 29.608 229.013 29.4659 229.297C29.3239 229.581 29.1151 229.81 28.8395 229.983C28.5668 230.156 28.2315 230.243 27.8338 230.243C27.4361 230.243 27.0994 230.156 26.8239 229.983C26.5483 229.81 26.3395 229.581 26.1974 229.297C26.0582 229.013 25.9886 228.702 25.9886 228.364ZM27.1009 227.903L27.1009 228.364C27.1009 228.588 27.1548 228.794 27.2628 228.982C27.3707 229.169 27.5611 229.263 27.8338 229.263C28.1094 229.263 28.2983 229.17 28.4006 228.986C28.5057 228.798 28.5582 228.591 28.5582 228.364L28.5582 227.903C28.5582 227.676 28.5085 227.469 28.4091 227.281C28.3097 227.091 28.1179 226.996 27.8338 226.996C27.5668 226.996 27.3778 227.091 27.267 227.281C27.1563 227.469 27.1009 227.676 27.1009 227.903ZM21.5526 223.369L21.5526 222.909C21.5526 222.568 21.625 222.256 21.7699 221.972C21.9148 221.687 22.125 221.46 22.4006 221.29C22.6761 221.116 23.0099 221.03 23.402 221.03C23.8026 221.03 24.1392 221.116 24.4119 221.29C24.6875 221.46 24.8949 221.687 25.0341 221.972C25.1733 222.256 25.2429 222.568 25.2429 222.909L25.2429 223.369C25.2429 223.71 25.1719 224.023 25.0298 224.307C24.8906 224.588 24.6832 224.814 24.4077 224.984C24.1321 225.155 23.7969 225.24 23.402 225.24C23.0014 225.24 22.6634 225.155 22.3878 224.984C22.1151 224.814 21.9077 224.587 21.7656 224.303C21.6236 224.018 21.5526 223.707 21.5526 223.369ZM22.6733 222.909L22.6733 223.369C22.6733 223.597 22.7259 223.804 22.831 223.991C22.9389 224.176 23.1293 224.268 23.402 224.268C23.6747 224.268 23.8622 224.176 23.9645 223.991C24.0696 223.804 24.1222 223.597 24.1222 223.369L24.1222 222.909C24.1222 222.682 24.0724 222.474 23.973 222.287C23.8736 222.097 23.6832 222.001 23.402 222.001C23.1321 222.001 22.9432 222.097 22.8352 222.287C22.7273 222.477 22.6733 222.685 22.6733 222.909ZM22.0384 230L28.0384 221.273H29.1037L23.1037 230H22.0384Z" fill="white"/>
<path d="M86.9909 228.381L86.9909 227.124L90.6941 221.273H91.7424L91.7424 223.062H91.1032L88.6103 227.013L88.6103 227.081H93.7793L93.7793 228.381H86.9909ZM91.1543 230L91.1543 227.997L91.1713 227.435L91.1713 221.273H92.6628L92.6628 230H91.1543ZM98.3667 230.166C97.665 230.166 97.0627 229.989 96.5598 229.634C96.0598 229.276 95.6749 228.76 95.405 228.087C95.138 227.411 95.0044 226.597 95.0044 225.645C95.0073 224.693 95.1422 223.884 95.4093 223.216C95.6792 222.545 96.0641 222.034 96.5641 221.682C97.0669 221.33 97.6678 221.153 98.3667 221.153C99.0655 221.153 99.6664 221.33 100.169 221.682C100.672 222.034 101.057 222.545 101.324 223.216C101.594 223.886 101.729 224.696 101.729 225.645C101.729 226.599 101.594 227.415 101.324 228.091C101.057 228.764 100.672 229.278 100.169 229.634C99.6692 229.989 99.0684 230.166 98.3667 230.166ZM98.3667 228.832C98.9121 228.832 99.3425 228.564 99.6578 228.027C99.976 227.487 100.135 226.693 100.135 225.645C100.135 224.952 100.063 224.369 99.9178 223.898C99.7729 223.426 99.5684 223.071 99.3042 222.832C99.04 222.591 98.7275 222.47 98.3667 222.47C97.824 222.47 97.3951 222.74 97.0797 223.28C96.7644 223.817 96.6053 224.605 96.6025 225.645C96.5996 226.341 96.6692 226.926 96.8113 227.401C96.9561 227.875 97.1607 228.233 97.4249 228.474C97.6891 228.713 98.003 228.832 98.3667 228.832ZM103.772 230.094C103.514 230.094 103.292 230.003 103.107 229.821C102.923 229.639 102.832 229.418 102.835 229.156C102.832 228.901 102.923 228.682 103.107 228.5C103.292 228.318 103.514 228.227 103.772 228.227C104.022 228.227 104.24 228.318 104.424 228.5C104.612 228.682 104.707 228.901 104.71 229.156C104.707 229.33 104.661 229.487 104.573 229.629C104.488 229.771 104.374 229.885 104.232 229.97C104.093 230.053 103.94 230.094 103.772 230.094ZM106.128 228.381L106.128 227.124L109.831 221.273H110.879L110.879 223.062H110.24L107.747 227.013L107.747 227.081H112.916L112.916 228.381H106.128ZM110.291 230L110.291 227.997L110.308 227.435L110.308 221.273H111.8L111.8 230H110.291ZM118.944 228.364L118.944 227.903C118.944 227.565 119.015 227.254 119.157 226.97C119.302 226.686 119.512 226.457 119.787 226.284C120.063 226.111 120.397 226.024 120.789 226.024C121.192 226.024 121.53 226.111 121.803 226.284C122.076 226.455 122.282 226.682 122.421 226.966C122.563 227.25 122.634 227.562 122.634 227.903L122.634 228.364C122.634 228.702 122.563 229.013 122.421 229.297C122.279 229.581 122.07 229.81 121.795 229.983C121.522 230.156 121.187 230.243 120.789 230.243C120.391 230.243 120.055 230.156 119.779 229.983C119.503 229.81 119.295 229.581 119.153 229.297C119.013 229.013 118.944 228.702 118.944 228.364ZM120.056 227.903L120.056 228.364C120.056 228.588 120.11 228.794 120.218 228.982C120.326 229.169 120.516 229.263 120.789 229.263C121.064 229.263 121.253 229.17 121.356 228.986C121.461 228.798 121.513 228.591 121.513 228.364L121.513 227.903C121.513 227.676 121.464 227.469 121.364 227.281C121.265 227.091 121.073 226.996 120.789 226.996C120.522 226.996 120.333 227.091 120.222 227.281C120.111 227.469 120.056 227.676 120.056 227.903ZM114.508 223.369L114.508 222.909C114.508 222.568 114.58 222.256 114.725 221.972C114.87 221.687 115.08 221.46 115.356 221.29C115.631 221.116 115.965 221.03 116.357 221.03C116.758 221.03 117.094 221.116 117.367 221.29C117.643 221.46 117.85 221.687 117.989 221.972C118.128 222.256 118.198 222.568 118.198 222.909L118.198 223.369C118.198 223.71 118.127 224.023 117.985 224.307C117.846 224.588 117.638 224.814 117.363 224.984C117.087 225.155 116.752 225.24 116.357 225.24C115.956 225.24 115.618 225.155 115.343 224.984C115.07 224.814 114.863 224.587 114.721 224.303C114.579 224.018 114.508 223.707 114.508 223.369ZM115.628 222.909L115.628 223.369C115.628 223.597 115.681 223.804 115.786 223.991C115.894 224.176 116.084 224.268 116.357 224.268C116.63 224.268 116.817 224.176 116.92 223.991C117.025 223.804 117.077 223.597 117.077 223.369L117.077 222.909C117.077 222.682 117.028 222.474 116.928 222.287C116.829 222.097 116.638 222.001 116.357 222.001C116.087 222.001 115.898 222.097 115.79 222.287C115.682 222.477 115.628 222.685 115.628 222.909ZM114.993 230L120.993 221.273H122.059L116.059 230H114.993Z" fill="white"/>
<path d="M230.327 228.381L230.327 227.124L234.03 221.273H235.078L235.078 223.062H234.439L231.946 227.013L231.946 227.081H237.115L237.115 228.381H230.327ZM234.49 230L234.49 227.997L234.507 227.435L234.507 221.273H235.999L235.999 230H234.49ZM238.796 230L242.508 222.653L242.508 222.594H238.2L238.2 221.273H244.144L244.144 222.624L240.437 230H238.796ZM244.987 230.094C244.729 230.094 244.507 230.003 244.322 229.821C244.138 229.639 244.047 229.418 244.05 229.156C244.047 228.901 244.138 228.682 244.322 228.5C244.507 228.318 244.729 228.227 244.987 228.227C245.237 228.227 245.454 228.318 245.639 228.5C245.827 228.682 245.922 228.901 245.925 229.156C245.922 229.33 245.876 229.487 245.788 229.629C245.703 229.771 245.589 229.885 245.447 229.97C245.308 230.053 245.155 230.094 244.987 230.094ZM250.356 230.119C249.939 230.116 249.531 230.044 249.133 229.902C248.736 229.757 248.378 229.523 248.059 229.199C247.741 228.872 247.488 228.439 247.301 227.899C247.113 227.357 247.021 226.685 247.024 225.884C247.024 225.136 247.104 224.47 247.263 223.885C247.422 223.3 247.65 222.805 247.949 222.402C248.247 221.996 248.606 221.686 249.027 221.473C249.45 221.26 249.923 221.153 250.446 221.153C250.994 221.153 251.48 221.261 251.903 221.477C252.329 221.693 252.673 221.989 252.934 222.364C253.196 222.736 253.358 223.156 253.42 223.625H251.865C251.785 223.29 251.622 223.023 251.375 222.824C251.131 222.622 250.821 222.521 250.446 222.521C249.841 222.521 249.375 222.784 249.048 223.31C248.724 223.835 248.561 224.557 248.558 225.474H248.618C248.757 225.224 248.937 225.01 249.159 224.831C249.381 224.652 249.631 224.514 249.909 224.418C250.19 224.318 250.487 224.268 250.8 224.268C251.311 224.268 251.77 224.391 252.176 224.635C252.585 224.879 252.909 225.216 253.148 225.645C253.386 226.071 253.504 226.56 253.501 227.111C253.504 227.685 253.373 228.2 253.109 228.658C252.845 229.112 252.477 229.47 252.006 229.732C251.534 229.993 250.984 230.122 250.356 230.119ZM250.348 228.841C250.657 228.841 250.934 228.766 251.179 228.615C251.423 228.464 251.616 228.261 251.758 228.006C251.9 227.75 251.97 227.463 251.967 227.145C251.97 226.832 251.902 226.55 251.763 226.297C251.626 226.044 251.437 225.844 251.196 225.696C250.954 225.548 250.679 225.474 250.369 225.474C250.139 225.474 249.925 225.518 249.726 225.607C249.527 225.695 249.354 225.817 249.206 225.973C249.058 226.126 248.942 226.305 248.856 226.51C248.774 226.712 248.731 226.928 248.729 227.158C248.731 227.462 248.802 227.741 248.942 227.997C249.081 228.253 249.273 228.457 249.517 228.611C249.761 228.764 250.038 228.841 250.348 228.841ZM259.608 228.364L259.608 227.903C259.608 227.565 259.679 227.254 259.821 226.97C259.966 226.686 260.176 226.457 260.452 226.284C260.727 226.111 261.061 226.024 261.453 226.024C261.856 226.024 262.194 226.111 262.467 226.284C262.74 226.455 262.946 226.682 263.085 226.966C263.227 227.25 263.298 227.562 263.298 227.903L263.298 228.364C263.298 228.702 263.227 229.013 263.085 229.297C262.943 229.581 262.734 229.81 262.459 229.983C262.186 230.156 261.851 230.243 261.453 230.243C261.055 230.243 260.719 230.156 260.443 229.983C260.167 229.81 259.959 229.581 259.817 229.297C259.677 229.013 259.608 228.702 259.608 228.364ZM260.72 227.903L260.72 228.364C260.72 228.588 260.774 228.794 260.882 228.982C260.99 229.169 261.18 229.263 261.453 229.263C261.729 229.263 261.917 229.17 262.02 228.986C262.125 228.798 262.177 228.591 262.177 228.364L262.177 227.903C262.177 227.676 262.128 227.469 262.028 227.281C261.929 227.091 261.737 226.996 261.453 226.996C261.186 226.996 260.997 227.091 260.886 227.281C260.775 227.469 260.72 227.676 260.72 227.903ZM255.172 223.369L255.172 222.909C255.172 222.568 255.244 222.256 255.389 221.972C255.534 221.687 255.744 221.46 256.02 221.29C256.295 221.116 256.629 221.03 257.021 221.03C257.422 221.03 257.758 221.116 258.031 221.29C258.307 221.46 258.514 221.687 258.653 221.972C258.792 222.256 258.862 222.568 258.862 222.909L258.862 223.369C258.862 223.71 258.791 224.023 258.649 224.307C258.51 224.588 258.302 224.814 258.027 224.984C257.751 225.155 257.416 225.24 257.021 225.24C256.621 225.24 256.282 225.155 256.007 224.984C255.734 224.814 255.527 224.587 255.385 224.303C255.243 224.018 255.172 223.707 255.172 223.369ZM256.292 222.909L256.292 223.369C256.292 223.597 256.345 223.804 256.45 223.991C256.558 224.176 256.748 224.268 257.021 224.268C257.294 224.268 257.481 224.176 257.584 223.991C257.689 223.804 257.741 223.597 257.741 223.369L257.741 222.909C257.741 222.682 257.692 222.474 257.592 222.287C257.493 222.097 257.302 222.001 257.021 222.001C256.751 222.001 256.562 222.097 256.454 222.287C256.346 222.477 256.292 222.685 256.292 222.909ZM255.657 230L261.657 221.273H262.723L256.723 230H255.657Z" fill="white"/>
<path d="M116.545 254.866L116.545 252.311H116.838C117.17 253.975 117.957 254.807 119.199 254.807C119.758 254.807 120.189 254.649 120.494 254.333C120.803 254.012 120.957 253.655 120.957 253.26C120.957 252.862 120.822 252.528 120.553 252.259C120.283 251.993 119.791 251.708 119.076 251.403C118.439 251.13 117.959 250.891 117.635 250.688C117.311 250.481 117.057 250.214 116.873 249.885C116.693 249.557 116.604 249.208 116.604 248.837C116.604 248.27 116.799 247.8 117.189 247.425C117.584 247.046 118.082 246.856 118.684 246.856C119.02 246.856 119.336 246.911 119.633 247.02C119.93 247.13 120.234 247.356 120.547 247.7C120.727 247.485 120.828 247.253 120.852 247.003H121.109L121.109 249.083H120.852C120.703 248.477 120.439 248.001 120.061 247.653C119.686 247.305 119.25 247.132 118.754 247.132C118.281 247.132 117.934 247.26 117.711 247.518C117.492 247.772 117.383 248.052 117.383 248.356C117.383 248.723 117.522 249.034 117.799 249.288C118.072 249.546 118.566 249.835 119.281 250.155C119.965 250.46 120.461 250.706 120.77 250.893C121.082 251.077 121.332 251.333 121.52 251.661C121.707 251.989 121.801 252.368 121.801 252.798C121.801 253.477 121.574 254.03 121.121 254.456C120.668 254.882 120.063 255.094 119.305 255.094C118.434 255.094 117.707 254.76 117.125 254.093C116.996 254.276 116.9 254.534 116.838 254.866H116.545ZM124.314 250.94C124.549 250.612 124.811 250.366 125.1 250.202C125.393 250.038 125.713 249.956 126.061 249.956C126.455 249.956 126.781 250.038 127.039 250.202C127.301 250.366 127.471 250.569 127.549 250.811C127.627 251.05 127.666 251.438 127.666 251.977L127.666 253.302C127.666 253.864 127.676 254.206 127.695 254.327C127.719 254.448 127.783 254.538 127.889 254.596C127.994 254.651 128.189 254.678 128.475 254.678L128.475 254.948H125.996L125.996 254.678H126.107C126.393 254.678 126.576 254.637 126.658 254.555C126.744 254.473 126.793 254.378 126.805 254.268C126.82 254.155 126.828 253.833 126.828 253.302L126.828 251.86C126.828 251.462 126.805 251.167 126.758 250.975C126.711 250.784 126.6 250.626 126.424 250.501C126.252 250.376 126.035 250.313 125.773 250.313C125.469 250.313 125.195 250.403 124.953 250.583C124.711 250.759 124.498 251.024 124.314 251.38L124.314 253.302C124.314 253.841 124.322 254.173 124.338 254.298C124.357 254.423 124.418 254.518 124.52 254.585C124.621 254.647 124.807 254.678 125.076 254.678L125.076 254.948H122.639L122.639 254.678H122.762C123.043 254.678 123.225 254.639 123.307 254.561C123.393 254.479 123.441 254.384 123.453 254.274C123.469 254.161 123.477 253.837 123.477 253.302L123.477 248.52C123.477 248.036 123.43 247.729 123.336 247.6C123.246 247.471 123.027 247.407 122.68 247.407L122.68 247.137C123.285 247.137 123.789 247.055 124.191 246.891H124.314L124.314 250.94ZM134.018 254.069H134.234C134.199 254.737 133.871 255.071 133.25 255.071C132.984 255.071 132.773 255.001 132.617 254.86C132.465 254.719 132.365 254.51 132.318 254.233C131.928 254.51 131.57 254.719 131.246 254.86C130.926 255.001 130.639 255.071 130.385 255.071C130.061 255.071 129.781 254.977 129.547 254.79C129.313 254.602 129.195 254.354 129.195 254.046C129.195 253.643 129.391 253.292 129.781 252.991C130.176 252.69 130.719 252.397 131.41 252.112L132.318 251.743L132.318 251.509C132.318 251.177 132.297 250.936 132.254 250.788C132.211 250.639 132.1 250.507 131.92 250.389C131.74 250.272 131.504 250.214 131.211 250.214C130.625 250.214 130.299 250.409 130.232 250.8C130.17 251.198 130.006 251.397 129.74 251.397C129.502 251.397 129.383 251.284 129.383 251.057C129.383 250.835 129.541 250.596 129.857 250.343C130.174 250.085 130.666 249.956 131.334 249.956C131.83 249.956 132.215 250.034 132.488 250.19C132.762 250.346 132.941 250.524 133.027 250.723C133.117 250.923 133.162 251.227 133.162 251.637L133.162 253.577C133.162 254.03 133.186 254.321 133.232 254.45C133.279 254.579 133.381 254.643 133.537 254.643C133.795 254.643 133.955 254.452 134.018 254.069ZM132.318 252.018L131.68 252.276C130.672 252.686 130.168 253.202 130.168 253.823C130.168 254.069 130.232 254.268 130.361 254.421C130.49 254.569 130.658 254.643 130.865 254.643C131.049 254.643 131.262 254.583 131.504 254.462C131.746 254.341 132.018 254.159 132.318 253.917L132.318 252.018ZM136.355 251.18C136.488 250.833 136.703 250.542 137 250.307C137.301 250.073 137.594 249.956 137.879 249.956C138.137 249.956 138.34 250.036 138.488 250.196C138.637 250.356 138.711 250.52 138.711 250.688C138.711 250.802 138.672 250.899 138.594 250.981C138.52 251.063 138.428 251.104 138.318 251.104C138.123 251.104 137.975 250.96 137.873 250.671C137.803 250.475 137.697 250.378 137.557 250.378C137.389 250.378 137.188 250.493 136.953 250.723C136.719 250.95 136.568 251.186 136.502 251.432C136.436 251.678 136.402 252.016 136.402 252.446L136.402 253.302C136.402 253.813 136.408 254.135 136.42 254.268C136.436 254.401 136.492 254.503 136.59 254.573C136.688 254.643 136.861 254.678 137.111 254.678H137.275L137.275 254.948H134.727L134.727 254.678H134.85C135.084 254.678 135.25 254.647 135.348 254.585C135.449 254.518 135.51 254.427 135.529 254.309C135.549 254.192 135.559 253.856 135.559 253.302L135.559 251.948C135.559 251.432 135.551 251.11 135.535 250.981C135.523 250.848 135.469 250.747 135.371 250.677C135.273 250.602 135.1 250.565 134.85 250.565H134.727L134.727 250.302C135.094 250.259 135.574 250.143 136.168 249.956C136.281 250.264 136.344 250.673 136.355 251.18ZM143.416 251.772H140.07C140.055 252.003 140.047 252.175 140.047 252.288C140.047 253.132 140.178 253.766 140.439 254.192C140.705 254.614 141.1 254.825 141.623 254.825C142.334 254.825 142.838 254.507 143.135 253.87H143.416C143.291 254.268 143.043 254.581 142.672 254.807C142.301 255.03 141.897 255.141 141.459 255.141C141.053 255.141 140.668 255.04 140.305 254.837C139.945 254.63 139.65 254.339 139.42 253.964C139.189 253.589 139.074 253.134 139.074 252.598C139.074 251.841 139.297 251.212 139.742 250.712C140.188 250.208 140.744 249.956 141.412 249.956C142.041 249.956 142.527 250.147 142.871 250.53C143.215 250.913 143.397 251.327 143.416 251.772ZM142.391 251.538C142.402 251.448 142.408 251.368 142.408 251.298C142.408 250.954 142.307 250.688 142.104 250.501C141.904 250.309 141.658 250.214 141.365 250.214C140.654 250.214 140.23 250.655 140.094 251.538H142.391ZM147.318 252.54C147.318 251.805 147.564 251.192 148.057 250.7C148.549 250.204 149.154 249.956 149.873 249.956C150.596 249.956 151.203 250.204 151.695 250.7C152.188 251.196 152.434 251.809 152.434 252.54C152.434 253.348 152.184 253.985 151.684 254.45C151.184 254.911 150.58 255.141 149.873 255.141C149.166 255.141 148.563 254.907 148.063 254.438C147.566 253.966 147.318 253.333 147.318 252.54ZM148.291 252.569C148.291 253.421 148.43 254.018 148.707 254.362C148.984 254.702 149.373 254.872 149.873 254.872C150.385 254.872 150.775 254.702 151.045 254.362C151.318 254.018 151.455 253.421 151.455 252.569C151.455 251.725 151.32 251.124 151.051 250.764C150.781 250.405 150.389 250.225 149.873 250.225C149.361 250.225 148.969 250.405 148.695 250.764C148.426 251.12 148.291 251.721 148.291 252.569ZM155.791 250.149L155.791 250.419H154.789L154.789 253.302C154.789 253.813 154.795 254.135 154.807 254.268C154.822 254.401 154.879 254.503 154.977 254.573C155.074 254.643 155.248 254.678 155.498 254.678H155.75L155.75 254.948H153.154L153.154 254.678C153.424 254.678 153.609 254.651 153.711 254.596C153.816 254.542 153.881 254.46 153.904 254.35C153.932 254.237 153.945 253.887 153.945 253.302L153.945 250.419H153.049L153.049 250.149H153.945L153.945 249.716C153.945 249.231 153.965 248.856 154.004 248.591C154.043 248.325 154.152 248.052 154.332 247.77C154.516 247.485 154.744 247.266 155.018 247.114C155.295 246.962 155.623 246.885 156.002 246.885C156.463 246.885 156.832 246.981 157.109 247.173C157.387 247.364 157.525 247.559 157.525 247.759C157.525 247.872 157.486 247.966 157.408 248.04C157.33 248.114 157.238 248.151 157.133 248.151C156.926 248.151 156.736 247.991 156.564 247.671C156.373 247.319 156.125 247.143 155.82 247.143C155.574 247.143 155.357 247.233 155.17 247.413C154.986 247.589 154.877 247.809 154.842 248.075C154.807 248.341 154.789 248.911 154.789 249.786L154.789 250.149H155.791ZM165.658 251.772H162.313C162.297 252.003 162.289 252.175 162.289 252.288C162.289 253.132 162.42 253.766 162.682 254.192C162.947 254.614 163.342 254.825 163.865 254.825C164.576 254.825 165.08 254.507 165.377 253.87H165.658C165.533 254.268 165.285 254.581 164.914 254.807C164.543 255.03 164.139 255.141 163.701 255.141C163.295 255.141 162.91 255.04 162.547 254.837C162.188 254.63 161.893 254.339 161.662 253.964C161.432 253.589 161.316 253.134 161.316 252.598C161.316 251.841 161.539 251.212 161.984 250.712C162.43 250.208 162.986 249.956 163.654 249.956C164.283 249.956 164.77 250.147 165.113 250.53C165.457 250.913 165.639 251.327 165.658 251.772ZM164.633 251.538C164.645 251.448 164.65 251.368 164.65 251.298C164.65 250.954 164.549 250.688 164.346 250.501C164.147 250.309 163.9 250.214 163.607 250.214C162.897 250.214 162.473 250.655 162.336 251.538H164.633ZM167.797 249.956H167.855C167.969 250.218 168.025 250.553 168.025 250.964C168.287 250.628 168.568 250.376 168.869 250.208C169.174 250.04 169.5 249.956 169.848 249.956C170.242 249.956 170.563 250.046 170.809 250.225C171.055 250.405 171.227 250.675 171.324 251.034C171.621 250.675 171.926 250.405 172.238 250.225C172.551 250.046 172.869 249.956 173.193 249.956C173.564 249.956 173.879 250.042 174.137 250.214C174.395 250.385 174.551 250.581 174.605 250.8C174.66 251.018 174.688 251.372 174.688 251.86L174.688 253.302C174.688 253.86 174.697 254.2 174.717 254.321C174.74 254.442 174.803 254.532 174.904 254.591C175.01 254.649 175.203 254.678 175.484 254.678L175.484 254.948H173.088L173.088 254.678C173.342 254.678 173.52 254.651 173.621 254.596C173.727 254.538 173.791 254.452 173.814 254.339C173.838 254.221 173.85 253.876 173.85 253.302L173.85 251.702C173.85 251.378 173.83 251.134 173.791 250.969C173.756 250.805 173.66 250.665 173.504 250.548C173.348 250.43 173.145 250.372 172.895 250.372C172.641 250.372 172.385 250.458 172.127 250.63C171.873 250.802 171.617 251.061 171.359 251.409L171.359 253.302C171.359 253.813 171.365 254.135 171.377 254.268C171.393 254.397 171.447 254.499 171.541 254.573C171.639 254.643 171.811 254.678 172.057 254.678L172.057 254.948H169.736L169.736 254.678C169.998 254.678 170.18 254.651 170.281 254.596C170.387 254.542 170.451 254.458 170.475 254.344C170.502 254.231 170.516 253.884 170.516 253.302L170.516 251.971C170.516 251.55 170.498 251.245 170.463 251.057C170.432 250.866 170.332 250.704 170.164 250.571C169.996 250.434 169.787 250.366 169.537 250.366C169.295 250.366 169.047 250.444 168.793 250.6C168.543 250.757 168.287 250.991 168.025 251.303L168.025 253.302C168.025 253.829 168.033 254.157 168.049 254.286C168.064 254.415 168.123 254.512 168.225 254.579C168.326 254.645 168.508 254.678 168.77 254.678L168.77 254.948H166.42L166.42 254.678C166.678 254.678 166.857 254.651 166.959 254.596C167.064 254.538 167.129 254.452 167.152 254.339C167.176 254.225 167.188 253.88 167.188 253.302L167.188 251.866C167.188 251.319 167.178 250.985 167.158 250.864C167.143 250.739 167.082 250.645 166.977 250.583C166.875 250.52 166.689 250.489 166.42 250.489L166.42 250.219C166.975 250.165 167.434 250.077 167.797 249.956ZM176.551 247.507C176.551 247.339 176.609 247.194 176.727 247.073C176.848 246.952 176.992 246.891 177.16 246.891C177.328 246.891 177.471 246.952 177.588 247.073C177.705 247.194 177.764 247.339 177.764 247.507C177.764 247.678 177.705 247.825 177.588 247.946C177.471 248.067 177.328 248.128 177.16 248.128C176.992 248.128 176.848 248.067 176.727 247.946C176.609 247.825 176.551 247.678 176.551 247.507ZM177.682 249.956L177.682 253.302C177.682 253.813 177.689 254.135 177.705 254.268C177.721 254.401 177.777 254.503 177.875 254.573C177.973 254.643 178.147 254.678 178.397 254.678H178.52L178.52 254.948H175.936L175.936 254.678H176.135C176.412 254.678 176.592 254.639 176.674 254.561C176.76 254.479 176.809 254.384 176.82 254.274C176.836 254.161 176.844 253.837 176.844 253.302L176.844 251.848C176.844 251.286 176.816 250.942 176.762 250.817C176.711 250.692 176.641 250.614 176.551 250.583C176.465 250.552 176.313 250.536 176.094 250.536H175.936L175.936 250.266C176.631 250.196 177.17 250.093 177.553 249.956H177.682ZM179.234 255.1L179.234 253.524H179.463C179.729 254.434 180.203 254.889 180.887 254.889C181.184 254.889 181.404 254.8 181.549 254.62C181.697 254.44 181.772 254.243 181.772 254.028C181.772 253.778 181.693 253.573 181.537 253.413C181.377 253.253 181.066 253.059 180.605 252.833C180.121 252.594 179.773 252.36 179.563 252.13C179.352 251.903 179.246 251.624 179.246 251.292C179.246 250.975 179.359 250.675 179.586 250.389C179.813 250.1 180.131 249.956 180.541 249.956C180.959 249.956 181.305 250.126 181.578 250.466C181.637 250.407 181.713 250.264 181.807 250.038H182.023L182.023 251.52H181.807C181.729 251.165 181.576 250.86 181.35 250.606C181.127 250.348 180.863 250.219 180.559 250.219C180.324 250.219 180.135 250.292 179.99 250.436C179.846 250.581 179.773 250.749 179.773 250.94C179.773 251.151 179.854 251.333 180.014 251.485C180.17 251.641 180.469 251.819 180.91 252.018C181.574 252.319 181.98 252.612 182.129 252.897C182.277 253.186 182.352 253.464 182.352 253.729C182.352 254.147 182.213 254.487 181.936 254.749C181.662 255.01 181.316 255.141 180.898 255.141C180.457 255.141 180.064 254.96 179.721 254.596C179.615 254.714 179.529 254.882 179.463 255.1H179.234ZM183.242 255.1L183.242 253.524H183.471C183.736 254.434 184.211 254.889 184.895 254.889C185.191 254.889 185.412 254.8 185.557 254.62C185.705 254.44 185.779 254.243 185.779 254.028C185.779 253.778 185.701 253.573 185.545 253.413C185.385 253.253 185.074 253.059 184.613 252.833C184.129 252.594 183.781 252.36 183.57 252.13C183.359 251.903 183.254 251.624 183.254 251.292C183.254 250.975 183.367 250.675 183.594 250.389C183.82 250.1 184.139 249.956 184.549 249.956C184.967 249.956 185.313 250.126 185.586 250.466C185.645 250.407 185.721 250.264 185.814 250.038H186.031L186.031 251.52H185.814C185.736 251.165 185.584 250.86 185.357 250.606C185.135 250.348 184.871 250.219 184.566 250.219C184.332 250.219 184.143 250.292 183.998 250.436C183.854 250.581 183.781 250.749 183.781 250.94C183.781 251.151 183.861 251.333 184.022 251.485C184.178 251.641 184.477 251.819 184.918 252.018C185.582 252.319 185.988 252.612 186.137 252.897C186.285 253.186 186.359 253.464 186.359 253.729C186.359 254.147 186.221 254.487 185.943 254.749C185.67 255.01 185.324 255.141 184.906 255.141C184.465 255.141 184.072 254.96 183.729 254.596C183.623 254.714 183.537 254.882 183.471 255.1H183.242ZM187.566 247.507C187.566 247.339 187.625 247.194 187.742 247.073C187.863 246.952 188.008 246.891 188.176 246.891C188.344 246.891 188.486 246.952 188.604 247.073C188.721 247.194 188.779 247.339 188.779 247.507C188.779 247.678 188.721 247.825 188.604 247.946C188.486 248.067 188.344 248.128 188.176 248.128C188.008 248.128 187.863 248.067 187.742 247.946C187.625 247.825 187.566 247.678 187.566 247.507ZM188.697 249.956L188.697 253.302C188.697 253.813 188.705 254.135 188.721 254.268C188.736 254.401 188.793 254.503 188.891 254.573C188.988 254.643 189.162 254.678 189.412 254.678H189.535L189.535 254.948H186.951L186.951 254.678H187.15C187.428 254.678 187.607 254.639 187.689 254.561C187.775 254.479 187.824 254.384 187.836 254.274C187.852 254.161 187.859 253.837 187.859 253.302L187.859 251.848C187.859 251.286 187.832 250.942 187.777 250.817C187.727 250.692 187.656 250.614 187.566 250.583C187.48 250.552 187.328 250.536 187.109 250.536H186.951L186.951 250.266C187.647 250.196 188.186 250.093 188.568 249.956H188.697ZM190.209 252.54C190.209 251.805 190.455 251.192 190.947 250.7C191.439 250.204 192.045 249.956 192.764 249.956C193.486 249.956 194.094 250.204 194.586 250.7C195.078 251.196 195.324 251.809 195.324 252.54C195.324 253.348 195.074 253.985 194.574 254.45C194.074 254.911 193.471 255.141 192.764 255.141C192.057 255.141 191.453 254.907 190.953 254.438C190.457 253.966 190.209 253.333 190.209 252.54ZM191.182 252.569C191.182 253.421 191.32 254.018 191.598 254.362C191.875 254.702 192.264 254.872 192.764 254.872C193.275 254.872 193.666 254.702 193.936 254.362C194.209 254.018 194.346 253.421 194.346 252.569C194.346 251.725 194.211 251.124 193.941 250.764C193.672 250.405 193.279 250.225 192.764 250.225C192.252 250.225 191.859 250.405 191.586 250.764C191.316 251.12 191.182 251.721 191.182 252.569ZM197.416 249.956H197.574C197.664 250.198 197.715 250.528 197.727 250.946C198.008 250.614 198.303 250.366 198.611 250.202C198.92 250.038 199.242 249.956 199.578 249.956C199.961 249.956 200.273 250.036 200.516 250.196C200.762 250.356 200.92 250.553 200.99 250.788C201.061 251.018 201.096 251.356 201.096 251.802L201.096 253.302C201.096 253.856 201.105 254.194 201.125 254.315C201.145 254.436 201.205 254.528 201.307 254.591C201.412 254.649 201.604 254.678 201.881 254.678L201.881 254.948H199.426L199.426 254.678H199.537C199.818 254.678 200.002 254.637 200.088 254.555C200.174 254.473 200.223 254.378 200.234 254.268C200.246 254.159 200.252 253.837 200.252 253.302L200.252 251.755C200.252 251.376 200.232 251.106 200.193 250.946C200.158 250.782 200.059 250.637 199.895 250.512C199.734 250.387 199.529 250.325 199.279 250.325C198.994 250.325 198.721 250.411 198.459 250.583C198.201 250.751 197.957 251.005 197.727 251.344L197.727 253.302C197.727 253.856 197.736 254.194 197.756 254.315C197.779 254.436 197.842 254.528 197.943 254.591C198.049 254.649 198.242 254.678 198.523 254.678L198.523 254.948H196.098L196.098 254.678C196.367 254.678 196.555 254.651 196.66 254.596C196.766 254.542 196.83 254.46 196.854 254.35C196.881 254.237 196.895 253.887 196.895 253.302L196.895 251.872C196.895 251.313 196.883 250.975 196.859 250.858C196.84 250.737 196.777 250.647 196.672 250.589C196.57 250.526 196.379 250.495 196.098 250.495L196.098 250.225C196.527 250.178 196.967 250.089 197.416 249.956ZM202.625 255.1L202.625 253.524H202.854C203.119 254.434 203.594 254.889 204.277 254.889C204.574 254.889 204.795 254.8 204.939 254.62C205.088 254.44 205.162 254.243 205.162 254.028C205.162 253.778 205.084 253.573 204.928 253.413C204.768 253.253 204.457 253.059 203.996 252.833C203.512 252.594 203.164 252.36 202.953 252.13C202.742 251.903 202.637 251.624 202.637 251.292C202.637 250.975 202.75 250.675 202.977 250.389C203.203 250.1 203.522 249.956 203.932 249.956C204.35 249.956 204.695 250.126 204.969 250.466C205.027 250.407 205.104 250.264 205.197 250.038H205.414L205.414 251.52H205.197C205.119 251.165 204.967 250.86 204.74 250.606C204.518 250.348 204.254 250.219 203.949 250.219C203.715 250.219 203.525 250.292 203.381 250.436C203.236 250.581 203.164 250.749 203.164 250.94C203.164 251.151 203.244 251.333 203.404 251.485C203.561 251.641 203.859 251.819 204.301 252.018C204.965 252.319 205.371 252.612 205.52 252.897C205.668 253.186 205.742 253.464 205.742 253.729C205.742 254.147 205.604 254.487 205.326 254.749C205.053 255.01 204.707 255.141 204.289 255.141C203.848 255.141 203.455 254.96 203.111 254.596C203.006 254.714 202.92 254.882 202.854 255.1H202.625Z" fill="white"/>
<path d="M162.13 53.4763H164.065L166.656 59.8002H166.758L169.349 53.4763H171.284L171.284 62.2036H169.767L169.767 56.2079H169.686L167.274 62.178H166.14L163.728 56.1951H163.647L163.647 62.2036H162.13L162.13 53.4763ZM172.937 62.2036L172.937 55.6582H174.48L174.48 62.2036H172.937ZM173.713 54.7292C173.468 54.7292 173.258 54.6482 173.082 54.4863C172.906 54.3215 172.818 54.1241 172.818 53.894C172.818 53.661 172.906 53.4636 173.082 53.3016C173.258 53.1369 173.468 53.0545 173.713 53.0545C173.96 53.0545 174.17 53.1369 174.343 53.3016C174.52 53.4636 174.608 53.661 174.608 53.894C174.608 54.1241 174.52 54.3215 174.343 54.4863C174.17 54.6482 173.96 54.7292 173.713 54.7292ZM178.495 62.3187C177.981 62.3187 177.521 62.1866 177.114 61.9224C176.708 61.6582 176.387 61.2746 176.151 60.7718C175.915 60.269 175.798 59.6582 175.798 58.9394C175.798 58.2121 175.917 57.5985 176.156 57.0985C176.397 56.5957 176.722 56.2164 177.131 55.9607C177.54 55.7022 177.996 55.5729 178.499 55.5729C178.883 55.5729 179.198 55.6383 179.445 55.769C179.692 55.8968 179.888 56.0516 180.033 56.2334C180.178 56.4124 180.29 56.5815 180.37 56.7405H180.434L180.434 53.4763L181.981 53.4763L181.981 62.2036H180.464L180.464 61.1724H180.37C180.29 61.3315 180.175 61.5005 180.025 61.6795C179.874 61.8556 179.675 62.0062 179.428 62.1312C179.181 62.2562 178.87 62.3187 178.495 62.3187ZM178.925 61.053C179.252 61.053 179.531 60.965 179.761 60.7888C179.991 60.6099 180.165 60.3613 180.285 60.0431C180.404 59.7249 180.464 59.3542 180.464 58.9309C180.464 58.5076 180.404 58.1397 180.285 57.8272C180.168 57.5147 179.995 57.2718 179.765 57.0985C179.538 56.9252 179.258 56.8386 178.925 56.8386C178.582 56.8386 178.295 56.928 178.065 57.107C177.835 57.286 177.661 57.5332 177.545 57.8485C177.428 58.1638 177.37 58.5246 177.37 58.9309C177.37 59.34 177.428 59.705 177.545 60.0261C177.664 60.3442 177.839 60.5957 178.069 60.7803C178.302 60.9621 178.587 61.053 178.925 61.053ZM186.054 62.3187C185.539 62.3187 185.079 62.1866 184.673 61.9224C184.267 61.6582 183.946 61.2746 183.71 60.7718C183.474 60.269 183.356 59.6582 183.356 58.9394C183.356 58.2121 183.475 57.5985 183.714 57.0985C183.956 56.5957 184.281 56.2164 184.69 55.9607C185.099 55.7022 185.555 55.5729 186.058 55.5729C186.441 55.5729 186.757 55.6383 187.004 55.769C187.251 55.8968 187.447 56.0516 187.592 56.2334C187.737 56.4124 187.849 56.5815 187.929 56.7405H187.993L187.993 53.4763H189.539L189.539 62.2036H188.022L188.022 61.1724H187.929C187.849 61.3315 187.734 61.5005 187.583 61.6795C187.433 61.8556 187.234 62.0062 186.987 62.1312C186.74 62.2562 186.429 62.3187 186.054 62.3187ZM186.484 61.053C186.811 61.053 187.089 60.965 187.319 60.7888C187.549 60.6099 187.724 60.3613 187.843 60.0431C187.963 59.7249 188.022 59.3542 188.022 58.9309C188.022 58.5076 187.963 58.1397 187.843 57.8272C187.727 57.5147 187.554 57.2718 187.324 57.0985C187.096 56.9252 186.816 56.8386 186.484 56.8386C186.14 56.8386 185.853 56.928 185.623 57.107C185.393 57.286 185.22 57.5332 185.103 57.8485C184.987 58.1638 184.929 58.5246 184.929 58.9309C184.929 59.34 184.987 59.705 185.103 60.0261C185.223 60.3442 185.397 60.5957 185.627 60.7803C185.86 60.9621 186.146 61.053 186.484 61.053ZM192.726 53.4763L192.726 62.2036H191.183L191.183 53.4763H192.726ZM197.21 62.3315C196.554 62.3315 195.987 62.1951 195.51 61.9224C195.035 61.6468 194.67 61.2576 194.414 60.7547C194.159 60.2491 194.031 59.6539 194.031 58.9692C194.031 58.2959 194.159 57.705 194.414 57.1965C194.673 56.6851 195.034 56.2874 195.497 56.0033C195.96 55.7164 196.504 55.5729 197.129 55.5729C197.532 55.5729 197.913 55.6383 198.271 55.769C198.632 55.8968 198.95 56.0957 199.225 56.3655C199.504 56.6354 199.723 56.9792 199.882 57.3968C200.041 57.8116 200.12 58.3059 200.12 58.8797L200.12 59.3528H194.755L194.755 58.313H198.642C198.639 58.0175 198.575 57.7547 198.45 57.5246C198.325 57.2917 198.15 57.1084 197.926 56.9749C197.704 56.8414 197.446 56.7746 197.15 56.7746C196.835 56.7746 196.558 56.8513 196.319 57.0047C196.081 57.1553 195.895 57.3542 195.761 57.6013C195.63 57.8457 195.564 58.1141 195.561 58.4067L195.561 59.3144C195.561 59.6951 195.63 60.0218 195.77 60.2945C195.909 60.5644 196.103 60.7718 196.353 60.9167C196.603 61.0587 196.896 61.1297 197.231 61.1297C197.456 61.1297 197.659 61.0985 197.841 61.036C198.022 60.9707 198.18 60.8755 198.314 60.7505C198.447 60.6255 198.548 60.4707 198.616 60.286L200.056 60.4479C199.966 60.8286 199.792 61.161 199.537 61.4451C199.284 61.7263 198.96 61.9451 198.565 62.1013C198.17 62.2547 197.718 62.3315 197.21 62.3315ZM204.227 60.5843L204.227 59.3272L207.93 53.4763H208.979L208.979 55.2661H208.339L205.847 59.2164L205.847 59.2846L211.016 59.2846L211.016 60.5843L204.227 60.5843ZM208.391 62.2036L208.391 60.2008L208.408 59.6383L208.408 53.4763H209.899L209.899 62.2036L208.391 62.2036ZM215.603 62.3698C214.901 62.3698 214.299 62.1922 213.796 61.8371C213.296 61.4792 212.911 60.9636 212.641 60.2903C212.374 59.6141 212.241 58.8002 212.241 57.8485C212.244 56.8968 212.379 56.0871 212.646 55.4195C212.915 54.7491 213.3 54.2377 213.8 53.8854C214.303 53.5332 214.904 53.357 215.603 53.357C216.302 53.357 216.903 53.5332 217.406 53.8854C217.908 54.2377 218.293 54.7491 218.56 55.4195C218.83 56.09 218.965 56.8996 218.965 57.8485C218.965 58.803 218.83 59.6184 218.56 60.2945C218.293 60.9678 217.908 61.482 217.406 61.8371C216.906 62.1922 216.305 62.3698 215.603 62.3698ZM215.603 61.036C216.148 61.036 216.579 60.7675 216.894 60.2306C217.212 59.6908 217.371 58.8968 217.371 57.8485C217.371 57.1553 217.299 56.5729 217.154 56.1013C217.009 55.6297 216.805 55.2746 216.54 55.036C216.276 54.7945 215.964 54.6738 215.603 54.6738C215.06 54.6738 214.631 54.9437 214.316 55.4834C214.001 56.0204 213.842 56.8087 213.839 57.8485C213.836 58.5445 213.906 59.1297 214.048 59.6042C214.192 60.0786 214.397 60.4366 214.661 60.678C214.925 60.9167 215.239 61.036 215.603 61.036ZM225.047 60.5672L225.047 60.107C225.047 59.769 225.118 59.4579 225.26 59.1738C225.405 58.8897 225.615 58.661 225.891 58.4877C226.167 58.3144 226.5 58.2278 226.892 58.2278C227.296 58.2278 227.634 58.3144 227.907 58.4877C228.179 58.6582 228.385 58.8854 228.525 59.1695C228.667 59.4536 228.738 59.7661 228.738 60.107L228.738 60.5672C228.738 60.9053 228.667 61.2164 228.525 61.5005C228.382 61.7846 228.174 62.0133 227.898 62.1866C227.625 62.3599 227.29 62.4465 226.892 62.4465C226.495 62.4465 226.158 62.3599 225.882 62.1866C225.607 62.0133 225.398 61.7846 225.256 61.5005C225.117 61.2164 225.047 60.9053 225.047 60.5672ZM226.159 60.107L226.159 60.5672C226.159 60.7917 226.213 60.9976 226.321 61.1851C226.429 61.3726 226.62 61.4664 226.892 61.4664C227.168 61.4664 227.357 61.3741 227.459 61.1894C227.564 61.0019 227.617 60.7945 227.617 60.5672L227.617 60.107C227.617 59.8797 227.567 59.6724 227.468 59.4849C227.368 59.2945 227.176 59.1994 226.892 59.1994C226.625 59.1994 226.436 59.2945 226.326 59.4849C226.215 59.6724 226.159 59.8797 226.159 60.107ZM220.611 55.5729L220.611 55.1127C220.611 54.7718 220.684 54.4593 220.828 54.1752C220.973 53.8911 221.184 53.6638 221.459 53.4934C221.735 53.3201 222.069 53.2334 222.461 53.2334C222.861 53.2334 223.198 53.3201 223.471 53.4934C223.746 53.6638 223.953 53.8911 224.093 54.1752C224.232 54.4593 224.301 54.7718 224.301 55.1127L224.301 55.5729C224.301 55.9138 224.23 56.2263 224.088 56.5104C223.949 56.7917 223.742 57.0175 223.466 57.188C223.191 57.3584 222.855 57.4437 222.461 57.4437C222.06 57.4437 221.722 57.3584 221.446 57.188C221.174 57.0175 220.966 56.7903 220.824 56.5062C220.682 56.2221 220.611 55.911 220.611 55.5729ZM221.732 55.1127L221.732 55.5729C221.732 55.8002 221.784 56.0076 221.89 56.1951C221.998 56.3797 222.188 56.4721 222.461 56.4721C222.733 56.4721 222.921 56.3797 223.023 56.1951C223.128 56.0076 223.181 55.8002 223.181 55.5729L223.181 55.1127C223.181 54.8854 223.131 54.678 223.032 54.4905C222.932 54.3002 222.742 54.205 222.461 54.205C222.191 54.205 222.002 54.3002 221.894 54.4905C221.786 54.6809 221.732 54.8883 221.732 55.1127ZM221.097 62.2036L227.097 53.4763H228.162L222.162 62.2036H221.097Z" fill="white"/>
<path d="M278.655 54.8016L278.655 53.4763H285.618L285.618 54.8016H282.921L282.921 62.2036H281.352L281.352 54.8016H278.655ZM288.798 62.3315C288.159 62.3315 287.605 62.1908 287.136 61.9096C286.667 61.6283 286.304 61.2349 286.045 60.7292C285.79 60.2235 285.662 59.6326 285.662 58.9565C285.662 58.2803 285.79 57.688 286.045 57.1795C286.304 56.6709 286.667 56.2761 287.136 55.9948C287.605 55.7136 288.159 55.5729 288.798 55.5729C289.437 55.5729 289.991 55.7136 290.46 55.9948C290.929 56.2761 291.291 56.6709 291.547 57.1795C291.805 57.688 291.934 58.2803 291.934 58.9565C291.934 59.6326 291.805 60.2235 291.547 60.7292C291.291 61.2349 290.929 61.6283 290.46 61.9096C289.991 62.1908 289.437 62.3315 288.798 62.3315ZM288.807 61.0957C289.153 61.0957 289.443 61.0005 289.676 60.8101C289.909 60.617 290.082 60.3584 290.196 60.0346C290.312 59.7107 290.371 59.3499 290.371 58.9522C290.371 58.5516 290.312 58.1894 290.196 57.8655C290.082 57.5388 289.909 57.2789 289.676 57.0857C289.443 56.8925 289.153 56.7959 288.807 56.7959C288.452 56.7959 288.156 56.8925 287.92 57.0857C287.687 57.2789 287.513 57.5388 287.396 57.8655C287.282 58.1894 287.226 58.5516 287.226 58.9522C287.226 59.3499 287.282 59.7107 287.396 60.0346C287.513 60.3584 287.687 60.617 287.92 60.8101C288.156 61.0005 288.452 61.0957 288.807 61.0957ZM293.244 64.6582L293.244 55.6582H294.761L294.761 56.7405H294.85C294.93 56.5815 295.042 56.4124 295.187 56.2334C295.332 56.0516 295.528 55.8968 295.775 55.769C296.022 55.6383 296.338 55.5729 296.721 55.5729C297.227 55.5729 297.683 55.7022 298.089 55.9607C298.498 56.2164 298.822 56.5957 299.061 57.0985C299.302 57.5985 299.423 58.2121 299.423 58.9394C299.423 59.6582 299.305 60.269 299.069 60.7718C298.833 61.2746 298.512 61.6582 298.106 61.9224C297.7 62.1866 297.24 62.3187 296.725 62.3187C296.35 62.3187 296.039 62.2562 295.792 62.1312C295.545 62.0062 295.346 61.8556 295.195 61.6795C295.048 61.5005 294.933 61.3315 294.85 61.1724H294.786L294.786 64.6582H293.244ZM294.757 58.9309C294.757 59.3542 294.816 59.7249 294.936 60.0431C295.058 60.3613 295.232 60.6099 295.46 60.7888C295.69 60.965 295.968 61.053 296.295 61.053C296.636 61.053 296.921 60.9621 297.151 60.7803C297.382 60.5957 297.555 60.3442 297.671 60.0261C297.791 59.705 297.85 59.34 297.85 58.9309C297.85 58.5246 297.792 58.1638 297.676 57.8485C297.559 57.5332 297.386 57.286 297.156 57.107C296.926 56.928 296.639 56.8386 296.295 56.8386C295.965 56.8386 295.686 56.9252 295.455 57.0985C295.225 57.2718 295.051 57.5147 294.931 57.8272C294.815 58.1397 294.757 58.5076 294.757 58.9309ZM307.253 53.4763L307.253 62.2036H305.672L305.672 55.0147H305.621L303.58 56.3187L303.58 54.8698L305.749 53.4763H307.253ZM312.695 62.3698C311.993 62.3698 311.391 62.1922 310.888 61.8371C310.388 61.4792 310.003 60.9636 309.733 60.2903C309.466 59.6141 309.333 58.8002 309.333 57.8485C309.335 56.8968 309.47 56.0871 309.737 55.4195C310.007 54.7491 310.392 54.2377 310.892 53.8854C311.395 53.5332 311.996 53.357 312.695 53.357C313.394 53.357 313.994 53.5332 314.497 53.8854C315 54.2377 315.385 54.7491 315.652 55.4195C315.922 56.09 316.057 56.8996 316.057 57.8485C316.057 58.803 315.922 59.6184 315.652 60.2945C315.385 60.9678 315 61.482 314.497 61.8371C313.997 62.1922 313.396 62.3698 312.695 62.3698ZM312.695 61.036C313.24 61.036 313.671 60.7675 313.986 60.2306C314.304 59.6908 314.463 58.8968 314.463 57.8485C314.463 57.1553 314.391 56.5729 314.246 56.1013C314.101 55.6297 313.896 55.2746 313.632 55.036C313.368 54.7945 313.056 54.6738 312.695 54.6738C312.152 54.6738 311.723 54.9437 311.408 55.4834C311.093 56.0204 310.933 56.8087 310.931 57.8485C310.928 58.5445 310.997 59.1297 311.139 59.6042C311.284 60.0786 311.489 60.4366 311.753 60.678C312.017 60.9167 312.331 61.036 312.695 61.036ZM322.139 60.5672L322.139 60.107C322.139 59.769 322.21 59.4579 322.352 59.1738C322.497 58.8897 322.707 58.661 322.983 58.4877C323.258 58.3144 323.592 58.2278 323.984 58.2278C324.388 58.2278 324.726 58.3144 324.998 58.4877C325.271 58.6582 325.477 58.8854 325.616 59.1695C325.758 59.4536 325.829 59.7661 325.829 60.107L325.829 60.5672C325.829 60.9053 325.758 61.2164 325.616 61.5005C325.474 61.7846 325.265 62.0133 324.99 62.1866C324.717 62.3599 324.382 62.4465 323.984 62.4465C323.586 62.4465 323.25 62.3599 322.974 62.1866C322.699 62.0133 322.49 61.7846 322.348 61.5005C322.209 61.2164 322.139 60.9053 322.139 60.5672ZM323.251 60.107L323.251 60.5672C323.251 60.7917 323.305 60.9976 323.413 61.1851C323.521 61.3726 323.711 61.4664 323.984 61.4664C324.26 61.4664 324.449 61.3741 324.551 61.1894C324.656 61.0019 324.709 60.7945 324.709 60.5672L324.709 60.107C324.709 59.8797 324.659 59.6724 324.559 59.4849C324.46 59.2945 324.268 59.1994 323.984 59.1994C323.717 59.1994 323.528 59.2945 323.417 59.4849C323.307 59.6724 323.251 59.8797 323.251 60.107ZM317.703 55.5729L317.703 55.1127C317.703 54.7718 317.775 54.4593 317.92 54.1752C318.065 53.8911 318.275 53.6638 318.551 53.4934C318.827 53.3201 319.16 53.2334 319.552 53.2334C319.953 53.2334 320.29 53.3201 320.562 53.4934C320.838 53.6638 321.045 53.8911 321.184 54.1752C321.324 54.4593 321.393 54.7718 321.393 55.1127L321.393 55.5729C321.393 55.9138 321.322 56.2263 321.18 56.5104C321.041 56.7917 320.834 57.0175 320.558 57.188C320.282 57.3584 319.947 57.4437 319.552 57.4437C319.152 57.4437 318.814 57.3584 318.538 57.188C318.265 57.0175 318.058 56.7903 317.916 56.5062C317.774 56.2221 317.703 55.911 317.703 55.5729ZM318.824 55.1127L318.824 55.5729C318.824 55.8002 318.876 56.0076 318.981 56.1951C319.089 56.3797 319.28 56.4721 319.552 56.4721C319.825 56.4721 320.013 56.3797 320.115 56.1951C320.22 56.0076 320.273 55.8002 320.273 55.5729L320.273 55.1127C320.273 54.8854 320.223 54.678 320.123 54.4905C320.024 54.3002 319.834 54.205 319.552 54.205C319.282 54.205 319.094 54.3002 318.986 54.4905C318.878 54.6809 318.824 54.8883 318.824 55.1127ZM318.189 62.2036L324.189 53.4763H325.254L319.254 62.2036H318.189Z" fill="white" fill-opacity="0.5"/>
<path d="M277.837 32.9684L277.837 31.6431H284.8L284.8 32.9684H282.102L282.102 40.3704H280.534L280.534 32.9684H277.837ZM287.98 40.4982C287.341 40.4982 286.787 40.3576 286.318 40.0763C285.849 39.7951 285.485 39.4016 285.227 38.8959C284.971 38.3902 284.843 37.7993 284.843 37.1232C284.843 36.4471 284.971 35.8547 285.227 35.3462C285.485 34.8377 285.849 34.4428 286.318 34.1616C286.787 33.8803 287.341 33.7397 287.98 33.7397C288.619 33.7397 289.173 33.8803 289.642 34.1616C290.11 34.4428 290.473 34.8377 290.728 35.3462C290.987 35.8547 291.116 36.4471 291.116 37.1232C291.116 37.7993 290.987 38.3902 290.728 38.8959C290.473 39.4016 290.11 39.7951 289.642 40.0763C289.173 40.3576 288.619 40.4982 287.98 40.4982ZM287.988 39.2624C288.335 39.2624 288.625 39.1672 288.858 38.9769C289.091 38.7837 289.264 38.5252 289.377 38.2013C289.494 37.8775 289.552 37.5167 289.552 37.1189C289.552 36.7184 289.494 36.3562 289.377 36.0323C289.264 35.7056 289.091 35.4456 288.858 35.2525C288.625 35.0593 288.335 34.9627 287.988 34.9627C287.633 34.9627 287.338 35.0593 287.102 35.2525C286.869 35.4456 286.694 35.7056 286.578 36.0323C286.464 36.3562 286.407 36.7184 286.407 37.1189C286.407 37.5167 286.464 37.8775 286.578 38.2013C286.694 38.5252 286.869 38.7837 287.102 38.9769C287.338 39.1672 287.633 39.2624 287.988 39.2624ZM292.425 42.8249L292.425 33.8249H293.942L293.942 34.9073H294.032C294.112 34.7482 294.224 34.5792 294.369 34.4002C294.513 34.2184 294.71 34.0635 294.957 33.9357C295.204 33.805 295.519 33.7397 295.903 33.7397C296.408 33.7397 296.864 33.8689 297.271 34.1275C297.68 34.3831 298.004 34.7624 298.242 35.2652C298.484 35.7652 298.604 36.3789 298.604 37.1062C298.604 37.8249 298.487 38.4357 298.251 38.9385C298.015 39.4414 297.694 39.8249 297.288 40.0891C296.881 40.3533 296.421 40.4854 295.907 40.4854C295.532 40.4854 295.221 40.4229 294.974 40.2979C294.727 40.1729 294.528 40.0223 294.377 39.8462C294.229 39.6672 294.114 39.4982 294.032 39.3391H293.968L293.968 42.8249H292.425ZM293.938 37.0976C293.938 37.5209 293.998 37.8917 294.117 38.2098C294.239 38.528 294.414 38.7766 294.641 38.9556C294.871 39.1317 295.15 39.2198 295.477 39.2198C295.817 39.2198 296.103 39.1289 296.333 38.9471C296.563 38.7624 296.737 38.511 296.853 38.1928C296.972 37.8718 297.032 37.5067 297.032 37.0976C297.032 36.6914 296.974 36.3306 296.857 36.0152C296.741 35.6999 296.567 35.4527 296.337 35.2738C296.107 35.0948 295.82 35.0053 295.477 35.0053C295.147 35.0053 294.867 35.092 294.637 35.2652C294.407 35.4385 294.232 35.6814 294.113 35.9939C293.996 36.3064 293.938 36.6743 293.938 37.0976ZM306.435 31.6431L306.435 40.3704H304.854L304.854 33.1814H304.803L302.761 34.4854L302.761 33.0366L304.93 31.6431H306.435ZM313.317 38.734L313.317 38.2738C313.317 37.9357 313.388 37.6246 313.53 37.3405C313.675 37.0564 313.885 36.8277 314.161 36.6545C314.436 36.4812 314.77 36.3945 315.162 36.3945C315.565 36.3945 315.903 36.4812 316.176 36.6545C316.449 36.8249 316.655 37.0522 316.794 37.3363C316.936 37.6204 317.007 37.9329 317.007 38.2738L317.007 38.734C317.007 39.0721 316.936 39.3831 316.794 39.6672C316.652 39.9513 316.443 40.18 316.168 40.3533C315.895 40.5266 315.56 40.6133 315.162 40.6133C314.764 40.6133 314.428 40.5266 314.152 40.3533C313.876 40.18 313.668 39.9513 313.526 39.6672C313.386 39.3831 313.317 39.0721 313.317 38.734ZM314.429 38.2738L314.429 38.734C314.429 38.9584 314.483 39.1644 314.591 39.3519C314.699 39.5394 314.889 39.6331 315.162 39.6331C315.438 39.6331 315.626 39.5408 315.729 39.3562C315.834 39.1687 315.886 38.9613 315.886 38.734L315.886 38.2738C315.886 38.0465 315.837 37.8391 315.737 37.6516C315.638 37.4613 315.446 37.3661 315.162 37.3661C314.895 37.3661 314.706 37.4613 314.595 37.6516C314.484 37.8391 314.429 38.0465 314.429 38.2738ZM308.881 33.7397L308.881 33.2795C308.881 32.9385 308.953 32.626 309.098 32.342C309.243 32.0579 309.453 31.8306 309.729 31.6601C310.004 31.4868 310.338 31.4002 310.73 31.4002C311.131 31.4002 311.467 31.4868 311.74 31.6601C312.016 31.8306 312.223 32.0579 312.362 32.342C312.501 32.626 312.571 32.9385 312.571 33.2795L312.571 33.7397C312.571 34.0806 312.5 34.3931 312.358 34.6772C312.219 34.9584 312.011 35.1843 311.736 35.3547C311.46 35.5252 311.125 35.6104 310.73 35.6104C310.33 35.6104 309.991 35.5252 309.716 35.3547C309.443 35.1843 309.236 34.957 309.094 34.6729C308.952 34.3888 308.881 34.0777 308.881 33.7397ZM310.001 33.2795L310.001 33.7397C310.001 33.967 310.054 34.1743 310.159 34.3618C310.267 34.5465 310.457 34.6388 310.73 34.6388C311.003 34.6388 311.19 34.5465 311.293 34.3618C311.398 34.1743 311.45 33.967 311.45 33.7397L311.45 33.2795C311.45 33.0522 311.401 32.8448 311.301 32.6573C311.202 32.467 311.011 32.3718 310.73 32.3718C310.46 32.3718 310.271 32.467 310.163 32.6573C310.055 32.8476 310.001 33.055 310.001 33.2795ZM309.366 40.3704L315.366 31.6431H316.432L310.432 40.3704H309.366Z" fill="white"/>
<path d="M271.77 7.59801L271.77 6.27273L278.733 6.27273L278.733 7.59801H276.036L276.036 15H274.468L274.468 7.59801L271.77 7.59801ZM281.913 15.1278C281.274 15.1278 280.72 14.9872 280.251 14.706C279.783 14.4247 279.419 14.0312 279.161 13.5256C278.905 13.0199 278.777 12.429 278.777 11.7528C278.777 11.0767 278.905 10.4844 279.161 9.97585C279.419 9.46733 279.783 9.07244 280.251 8.79119C280.72 8.50994 281.274 8.36932 281.913 8.36932C282.553 8.36932 283.107 8.50994 283.575 8.79119C284.044 9.07244 284.406 9.46733 284.662 9.97585C284.92 10.4844 285.05 11.0767 285.05 11.7528C285.05 12.429 284.92 13.0199 284.662 13.5256C284.406 14.0312 284.044 14.4247 283.575 14.706C283.107 14.9872 282.553 15.1278 281.913 15.1278ZM281.922 13.892C282.268 13.892 282.558 13.7969 282.791 13.6065C283.024 13.4134 283.197 13.1548 283.311 12.831C283.428 12.5071 283.486 12.1463 283.486 11.7486C283.486 11.348 283.428 10.9858 283.311 10.6619C283.197 10.3352 283.024 10.0753 282.791 9.8821C282.558 9.68892 282.268 9.59233 281.922 9.59233C281.567 9.59233 281.271 9.68892 281.036 9.8821C280.803 10.0753 280.628 10.3352 280.511 10.6619C280.398 10.9858 280.341 11.348 280.341 11.7486C280.341 12.1463 280.398 12.5071 280.511 12.831C280.628 13.1548 280.803 13.4134 281.036 13.6065C281.271 13.7969 281.567 13.892 281.922 13.892ZM286.359 17.4545L286.359 8.45455H287.876L287.876 9.53693H287.966C288.045 9.37784 288.157 9.20881 288.302 9.02983C288.447 8.84801 288.643 8.69318 288.89 8.56534C289.137 8.43466 289.453 8.36932 289.836 8.36932C290.342 8.36932 290.798 8.49858 291.204 8.7571C291.613 9.01278 291.937 9.39205 292.176 9.89489C292.417 10.3949 292.538 11.0085 292.538 11.7358C292.538 12.4545 292.42 13.0653 292.184 13.5682C291.949 14.071 291.627 14.4545 291.221 14.7187C290.815 14.983 290.355 15.1151 289.841 15.1151C289.466 15.1151 289.154 15.0526 288.907 14.9276C288.66 14.8026 288.461 14.652 288.311 14.4759C288.163 14.2969 288.048 14.1278 287.966 13.9687H287.902L287.902 17.4545H286.359ZM287.872 11.7273C287.872 12.1506 287.931 12.5213 288.051 12.8395C288.173 13.1577 288.348 13.4062 288.575 13.5852C288.805 13.7614 289.083 13.8494 289.41 13.8494C289.751 13.8494 290.037 13.7585 290.267 13.5767C290.497 13.392 290.67 13.1406 290.787 12.8224C290.906 12.5014 290.966 12.1364 290.966 11.7273C290.966 11.321 290.907 10.9602 290.791 10.6449C290.674 10.3295 290.501 10.0824 290.271 9.90341C290.041 9.72443 289.754 9.63494 289.41 9.63494C289.081 9.63494 288.801 9.72159 288.571 9.89489C288.341 10.0682 288.166 10.3111 288.047 10.6236C287.93 10.9361 287.872 11.304 287.872 11.7273ZM300.044 15.1662C299.343 15.1662 298.74 14.9886 298.238 14.6335C297.738 14.2756 297.353 13.7599 297.083 13.0866C296.816 12.4105 296.682 11.5966 296.682 10.6449C296.685 9.69318 296.82 8.88352 297.087 8.21591C297.357 7.54545 297.742 7.03409 298.242 6.68182C298.745 6.32955 299.346 6.15341 300.044 6.15341C300.743 6.15341 301.344 6.32955 301.847 6.68182C302.35 7.03409 302.735 7.54545 303.002 8.21591C303.272 8.88636 303.407 9.69602 303.407 10.6449C303.407 11.5994 303.272 12.4148 303.002 13.0909C302.735 13.7642 302.35 14.2784 301.847 14.6335C301.347 14.9886 300.746 15.1662 300.044 15.1662ZM300.044 13.8324C300.59 13.8324 301.02 13.5639 301.336 13.027C301.654 12.4872 301.813 11.6932 301.813 10.6449C301.813 9.9517 301.74 9.36932 301.596 8.89773C301.451 8.42614 301.246 8.07102 300.982 7.83239C300.718 7.59091 300.405 7.47017 300.044 7.47017C299.502 7.47017 299.073 7.74006 298.757 8.27983C298.442 8.81676 298.283 9.60511 298.28 10.6449C298.277 11.3409 298.347 11.9261 298.489 12.4006C298.634 12.875 298.838 13.233 299.103 13.4744C299.367 13.7131 299.681 13.8324 300.044 13.8324ZM305.45 15.0937C305.191 15.0937 304.97 15.0028 304.785 14.821C304.6 14.6392 304.51 14.4176 304.512 14.1562C304.51 13.9006 304.6 13.6818 304.785 13.5C304.97 13.3182 305.191 13.2273 305.45 13.2273C305.7 13.2273 305.917 13.3182 306.102 13.5C306.289 13.6818 306.385 13.9006 306.387 14.1562C306.385 14.3295 306.339 14.4872 306.251 14.6293C306.166 14.7713 306.052 14.8849 305.91 14.9702C305.771 15.0526 305.618 15.0937 305.45 15.0937ZM310.435 6.27273L310.435 15H308.854L308.854 7.81108H308.803L306.761 9.11506L306.761 7.66619L308.93 6.27273H310.435ZM317.317 13.3636L317.317 12.9034C317.317 12.5653 317.388 12.2543 317.53 11.9702C317.675 11.6861 317.885 11.4574 318.161 11.2841C318.436 11.1108 318.77 11.0241 319.162 11.0241C319.565 11.0241 319.903 11.1108 320.176 11.2841C320.449 11.4545 320.655 11.6818 320.794 11.9659C320.936 12.25 321.007 12.5625 321.007 12.9034L321.007 13.3636C321.007 13.7017 320.936 14.0128 320.794 14.2969C320.652 14.581 320.443 14.8097 320.168 14.983C319.895 15.1563 319.56 15.2429 319.162 15.2429C318.764 15.2429 318.428 15.1563 318.152 14.983C317.876 14.8097 317.668 14.581 317.526 14.2969C317.386 14.0128 317.317 13.7017 317.317 13.3636ZM318.429 12.9034L318.429 13.3636C318.429 13.5881 318.483 13.794 318.591 13.9815C318.699 14.169 318.889 14.2628 319.162 14.2628C319.438 14.2628 319.626 14.1705 319.729 13.9858C319.834 13.7983 319.886 13.5909 319.886 13.3636L319.886 12.9034C319.886 12.6761 319.837 12.4687 319.737 12.2812C319.638 12.0909 319.446 11.9957 319.162 11.9957C318.895 11.9957 318.706 12.0909 318.595 12.2812C318.484 12.4687 318.429 12.6761 318.429 12.9034ZM312.881 8.36932L312.881 7.90909C312.881 7.56818 312.953 7.25568 313.098 6.97159C313.243 6.6875 313.453 6.46023 313.729 6.28977C314.004 6.11648 314.338 6.02983 314.73 6.02983C315.131 6.02983 315.467 6.11648 315.74 6.28977C316.016 6.46023 316.223 6.6875 316.362 6.97159C316.501 7.25568 316.571 7.56818 316.571 7.90909L316.571 8.36932C316.571 8.71023 316.5 9.02273 316.358 9.30682C316.219 9.58807 316.011 9.81392 315.736 9.98437C315.46 10.1548 315.125 10.2401 314.73 10.2401C314.33 10.2401 313.991 10.1548 313.716 9.98437C313.443 9.81392 313.236 9.58665 313.094 9.30256C312.952 9.01847 312.881 8.70739 312.881 8.36932ZM314.001 7.90909L314.001 8.36932C314.001 8.59659 314.054 8.80398 314.159 8.99148C314.267 9.17614 314.457 9.26847 314.73 9.26847C315.003 9.26847 315.19 9.17614 315.293 8.99148C315.398 8.80398 315.45 8.59659 315.45 8.36932L315.45 7.90909C315.45 7.68182 315.401 7.47443 315.301 7.28693C315.202 7.09659 315.011 7.00142 314.73 7.00142C314.46 7.00142 314.271 7.09659 314.163 7.28693C314.055 7.47727 314.001 7.68466 314.001 7.90909ZM313.366 15L319.366 6.27273H320.432L314.432 15L313.366 15Z" fill="white"/>
<rect x="1.52588e-05" y="72.9907" width="158" height="8" fill="#FFE229"/>
<rect x="161" y="72.9907" width="126" height="8" fill="#FFE229"/>
<rect x="290" y="72.9907" width="32" height="8" fill="#FFE229"/>
<g style="mix-blend-mode:lighten">
<rect x="319" y="72.9907" width="3" height="8" fill="#FFF3A9"/>
</g>
<rect x="1.52588e-05" y="204.917" width="38" height="8" fill="#FFE229"/>
<rect x="42" y="204.917" width="126" height="8" fill="#FFE229"/>
<g style="mix-blend-mode:lighten">
<rect x="268" y="204.917" width="54" height="8" fill="#FFF3A9"/>
</g>
<g style="mix-blend-mode:lighten">
<rect x="299" y="204.917" width="23" height="8" fill="#FFF9D4"/>
</g>
<path opacity="0.25" fill-rule="evenodd" clip-rule="evenodd" d="M322 78.0647L290.531 78.0647C290.531 129.807 172 158.979 172 204.917L321.476 204.917C321.476 158.979 322 124.002 322 78.0647Z" fill="#FFE647" fill-opacity="0.4"/>
<g style="mix-blend-mode:screen" opacity="0.2" filter="url(#filter0_d_412_32394)">
<path fill-rule="evenodd" clip-rule="evenodd" d="M322 78.0647L318.834 78.0647C318.834 124.002 268 158.979 268 204.917L321.471 204.917C321.471 158.979 322 124.002 322 78.0647Z" fill="#CCB420"/>
</g>
<g style="mix-blend-mode:screen" opacity="0.25" filter="url(#filter1_d_412_32394)">
<path fill-rule="evenodd" clip-rule="evenodd" d="M322 78.0647L321.657 78.0647C321.657 124.002 299 158.979 299 204.917L321.481 204.917C321.481 158.979 322 124.002 322 78.0647Z" fill="#998718"/>
</g>
<path opacity="0.25" fill-rule="evenodd" clip-rule="evenodd" d="M287 78.0647L160.571 78.0647C160.571 133.145 42 158.979 42 204.917L167.641 204.917C167.641 158.979 281.236 124.8 287 78.0647Z" fill="#FFE647" fill-opacity="0.4"/>
<path opacity="0.25" fill-rule="evenodd" clip-rule="evenodd" d="M158 78.0647L0 78.0647C-2.40449e-06 124.002 -4.23531e-06 158.979 -6.6398e-06 204.917L37.7857 204.917C37.7856 155.122 158 126.191 158 78.0647Z" fill="#FFE647" fill-opacity="0.4"/>
<line x1="318.5" y1="71.7222" x2="318.5" y2="42.5462" stroke="white" stroke-dasharray="1 1"/>
<line x1="321.5" y1="71.7222" x2="321.5" y2="17.1759" stroke="white" stroke-dasharray="1 1"/>
<defs>
<filter id="filter0_d_412_32394" x="264" y="78.0647" width="62" height="134.852" filterUnits="userSpaceOnUse" color-interpolation-filters="sRGB">
<feFlood flood-opacity="0" result="BackgroundImageFix"/>
<feColorMatrix in="SourceAlpha" type="matrix" values="0 0 0 0 0 0 0 0 0 0 0 0 0 0 0 0 0 0 127 0" result="hardAlpha"/>
<feOffset dy="4"/>
<feGaussianBlur stdDeviation="2"/>
<feComposite in2="hardAlpha" operator="out"/>
<feColorMatrix type="matrix" values="0 0 0 0 0 0 0 0 0 0 0 0 0 0 0 0 0 0 0.25 0"/>
<feBlend mode="normal" in2="BackgroundImageFix" result="effect1_dropShadow_412_32394"/>
<feBlend mode="normal" in="SourceGraphic" in2="effect1_dropShadow_412_32394" result="shape"/>
</filter>
<filter id="filter1_d_412_32394" x="295" y="78.0647" width="31" height="134.852" filterUnits="userSpaceOnUse" color-interpolation-filters="sRGB">
<feFlood flood-opacity="0" result="BackgroundImageFix"/>
<feColorMatrix in="SourceAlpha" type="matrix" values="0 0 0 0 0 0 0 0 0 0 0 0 0 0 0 0 0 0 127 0" result="hardAlpha"/>
<feOffset dy="4"/>
<feGaussianBlur stdDeviation="2"/>
<feComposite in2="hardAlpha" operator="out"/>
<feColorMatrix type="matrix" values="0 0 0 0 0 0 0 0 0 0 0 0 0 0 0 0 0 0 0.25 0"/>
<feBlend mode="normal" in2="BackgroundImageFix" result="effect1_dropShadow_412_32394"/>
<feBlend mode="normal" in="SourceGraphic" in2="effect1_dropShadow_412_32394" result="shape"/>
</filter>
</defs>
</svg>
