<svg width="323" height="284" viewBox="0 0 323 284" fill="none" xmlns="http://www.w3.org/2000/svg">
<rect x="172" y="215" width="150" height="8" fill="#FFE229"/>
<rect x="290" y="82.9907" width="32" height="8" fill="#FFE229"/>
<path opacity="0.6" fill-rule="evenodd" clip-rule="evenodd" d="M322 91L290.531 91C290.531 141.579 172 170.096 172 215L322 215C322 170.096 322 135.904 322 91Z" fill="#FFE229"/>
<path d="M318.834 83V88C318.834 134.715 268 170.285 268 217L268 223" stroke="black"/>
<path d="M299 223.5L299 217C299 170.285 321.657 134.715 321.657 88V83" stroke="black"/>
<line x1="68" y1="248.667" x2="85" y2="248.667" stroke="black"/>
<path d="M1.35884 72.2036L1.35884 63.4763H4.69975C5.33043 63.4763 5.85458 63.5758 6.27219 63.7746C6.69265 63.9707 7.00657 64.2391 7.21396 64.58C7.42418 64.9209 7.5293 65.3073 7.5293 65.7391C7.5293 66.0942 7.46111 66.3982 7.32475 66.6511C7.18839 66.9011 7.00515 67.1042 6.77504 67.2604C6.54492 67.4167 6.28782 67.5289 6.00373 67.5971L6.00373 67.6823C6.31339 67.6994 6.61026 67.7945 6.89435 67.9678C7.18129 68.1383 7.41566 68.3797 7.59748 68.6922C7.7793 69.0047 7.87021 69.3826 7.87021 69.8258C7.87021 70.2775 7.76083 70.6837 7.54208 71.0445C7.32333 71.4025 6.99379 71.6851 6.55344 71.8925C6.1131 72.0999 5.55913 72.2036 4.89151 72.2036H1.35884ZM2.93981 70.8826H4.64009C5.21396 70.8826 5.62731 70.7732 5.88015 70.5545C6.13583 70.3329 6.26367 70.0488 6.26367 69.7022C6.26367 69.4437 6.19975 69.2107 6.07191 69.0033C5.94407 68.7931 5.76225 68.6283 5.52646 68.509C5.29066 68.3869 5.00941 68.3258 4.68271 68.3258H2.93981L2.93981 70.8826ZM2.93981 67.188H4.50373C4.77646 67.188 5.02219 67.1383 5.24094 67.0388C5.45969 66.9366 5.63157 66.7931 5.75657 66.6084C5.88441 66.4209 5.94833 66.1994 5.94833 65.9437C5.94833 65.6056 5.82901 65.3272 5.59038 65.1084C5.35458 64.8897 5.00373 64.7803 4.53782 64.7803H2.93981L2.93981 67.188ZM12.0325 72.3315C11.3933 72.3315 10.8393 72.1908 10.3706 71.9096C9.90181 71.6283 9.53817 71.2349 9.27965 70.7292C9.02397 70.2235 8.89613 69.6326 8.89613 68.9565C8.89613 68.2803 9.02397 67.688 9.27965 67.1795C9.53817 66.6709 9.90181 66.2761 10.3706 65.9948C10.8393 65.7136 11.3933 65.5729 12.0325 65.5729C12.6717 65.5729 13.2257 65.7136 13.6944 65.9948C14.1632 66.2761 14.5254 66.6709 14.7811 67.1795C15.0396 67.688 15.1689 68.2803 15.1689 68.9565C15.1689 69.6326 15.0396 70.2235 14.7811 70.7292C14.5254 71.2349 14.1632 71.6283 13.6944 71.9096C13.2257 72.1908 12.6717 72.3315 12.0325 72.3315ZM12.041 71.0957C12.3876 71.0957 12.6774 71.0005 12.9103 70.8101C13.1433 70.617 13.3166 70.3584 13.4302 70.0346C13.5467 69.7107 13.6049 69.3499 13.6049 68.9522C13.6049 68.5516 13.5467 68.1894 13.4302 67.8655C13.3166 67.5388 13.1433 67.2789 12.9103 67.0857C12.6774 66.8925 12.3876 66.7959 12.041 66.7959C11.6859 66.7959 11.3904 66.8925 11.1547 67.0857C10.9217 67.2789 10.747 67.5388 10.6305 67.8655C10.5169 68.1894 10.46 68.5516 10.46 68.9522C10.46 69.3499 10.5169 69.7107 10.6305 70.0346C10.747 70.3584 10.9217 70.617 11.1547 70.8101C11.3904 71.0005 11.6859 71.0957 12.041 71.0957ZM19.7466 65.6582L19.7466 66.8513H15.9838L15.9838 65.6582H19.7466ZM16.9128 64.09H18.4554L18.4554 70.2349C18.4554 70.4422 18.4867 70.6013 18.5492 70.7121C18.6145 70.8201 18.6998 70.894 18.8049 70.9337C18.91 70.9735 19.0265 70.9934 19.1543 70.9934C19.2509 70.9934 19.339 70.9863 19.4185 70.9721C19.5009 70.9579 19.5634 70.9451 19.606 70.9337L19.8659 72.1397C19.7836 72.1681 19.6657 72.1994 19.5123 72.2334C19.3617 72.2675 19.177 72.2874 18.9583 72.2931C18.5719 72.3045 18.2239 72.2462 17.9142 72.1184C17.6046 71.9877 17.3588 71.786 17.177 71.5133C16.998 71.2405 16.91 70.8996 16.9128 70.4905L16.9128 64.09ZM24.3052 65.6582L24.3052 66.8513H20.5424L20.5424 65.6582H24.3052ZM21.4714 64.09H23.014L23.014 70.2349C23.014 70.4422 23.0453 70.6013 23.1078 70.7121C23.1731 70.8201 23.2583 70.894 23.3635 70.9337C23.4686 70.9735 23.585 70.9934 23.7129 70.9934C23.8095 70.9934 23.8975 70.9863 23.9771 70.9721C24.0595 70.9579 24.122 70.9451 24.1646 70.9337L24.4245 72.1397C24.3422 72.1681 24.2243 72.1994 24.0708 72.2334C23.9203 72.2675 23.7356 72.2874 23.5169 72.2931C23.1305 72.3045 22.7825 72.2462 22.4728 72.1184C22.1632 71.9877 21.9174 71.786 21.7356 71.5133C21.5566 71.2405 21.4686 70.8996 21.4714 70.4905L21.4714 64.09ZM28.3801 72.3315C27.7409 72.3315 27.187 72.1908 26.7182 71.9096C26.2495 71.6283 25.8858 71.2349 25.6273 70.7292C25.3716 70.2235 25.2438 69.6326 25.2438 68.9565C25.2438 68.2803 25.3716 67.688 25.6273 67.1795C25.8858 66.6709 26.2495 66.2761 26.7182 65.9948C27.187 65.7136 27.7409 65.5729 28.3801 65.5729C29.0194 65.5729 29.5733 65.7136 30.0421 65.9948C30.5108 66.2761 30.873 66.6709 31.1287 67.1795C31.3873 67.688 31.5165 68.2803 31.5165 68.9565C31.5165 69.6326 31.3873 70.2235 31.1287 70.7292C30.873 71.2349 30.5108 71.6283 30.0421 71.9096C29.5733 72.1908 29.0194 72.3315 28.3801 72.3315ZM28.3887 71.0957C28.7353 71.0957 29.025 71.0005 29.258 70.8101C29.4909 70.617 29.6642 70.3584 29.7779 70.0346C29.8944 69.7107 29.9526 69.3499 29.9526 68.9522C29.9526 68.5516 29.8944 68.1894 29.7779 67.8655C29.6642 67.5388 29.4909 67.2789 29.258 67.0857C29.025 66.8925 28.7353 66.7959 28.3887 66.7959C28.0336 66.7959 27.7381 66.8925 27.5023 67.0857C27.2694 67.2789 27.0946 67.5388 26.9782 67.8655C26.8645 68.1894 26.8077 68.5516 26.8077 68.9522C26.8077 69.3499 26.8645 69.7107 26.9782 70.0346C27.0946 70.3584 27.2694 70.617 27.5023 70.8101C27.7381 71.0005 28.0336 71.0957 28.3887 71.0957ZM32.8258 72.2036L32.8258 65.6582H34.3002L34.3002 66.7704H34.377C34.5133 66.3954 34.7392 66.1028 35.0545 65.8925C35.3699 65.6795 35.7463 65.5729 36.1838 65.5729C36.627 65.5729 37.0005 65.6809 37.3045 65.8968C37.6113 66.1099 37.8272 66.4011 37.9522 66.7704H38.0204C38.1653 66.4067 38.4096 66.117 38.7534 65.9011C39.1 65.6823 39.5105 65.5729 39.9849 65.5729C40.5872 65.5729 41.0787 65.7633 41.4593 66.144C41.84 66.5246 42.0304 67.08 42.0304 67.8101L42.0304 72.2036H40.4835L40.4835 68.0488C40.4835 67.6425 40.3755 67.3457 40.1596 67.1582C39.9437 66.9678 39.6795 66.8726 39.367 66.8726C38.9949 66.8726 38.7037 66.9891 38.4934 67.2221C38.286 67.4522 38.1824 67.7519 38.1824 68.1212L38.1824 72.2036H36.6696L36.6696 67.9849C36.6696 67.6468 36.5673 67.3769 36.3627 67.1752C36.161 66.9735 35.8968 66.8726 35.5701 66.8726C35.3485 66.8726 35.1468 66.9295 34.965 67.0431C34.7832 67.1539 34.6383 67.3116 34.5304 67.5161C34.4224 67.7178 34.3684 67.9536 34.3684 68.2235L34.3684 72.2036H32.8258ZM49.589 72.3229C49.0208 72.3229 48.5123 72.2164 48.0634 72.0033C47.6145 71.7874 47.258 71.492 46.9938 71.117C46.7324 70.742 46.5932 70.313 46.5762 69.83H48.1103C48.1387 70.188 48.2935 70.4806 48.5748 70.7079C48.856 70.9323 49.1941 71.0445 49.589 71.0445C49.8986 71.0445 50.1742 70.9735 50.4157 70.8315C50.6571 70.6894 50.8475 70.492 50.9867 70.2391C51.1259 69.9863 51.1941 69.6979 51.1912 69.3741C51.1941 69.0445 51.1245 68.7519 50.9824 68.4962C50.8404 68.2405 50.6458 68.0403 50.3986 67.8954C50.1515 67.7476 49.8674 67.6738 49.5463 67.6738C49.285 67.6709 49.0279 67.7192 48.775 67.8187C48.5222 67.9181 48.3219 68.0488 48.1742 68.2107L46.7466 67.9763L47.2026 63.4763L52.2651 63.4763L52.2651 64.7974H48.5108L48.2594 67.1113H48.3105C48.4725 66.9209 48.7012 66.7633 48.9966 66.6383C49.2921 66.5104 49.6159 66.4465 49.9682 66.4465C50.4966 66.4465 50.9682 66.5715 51.383 66.8215C51.7978 67.0687 52.1245 67.4096 52.3631 67.8442C52.6017 68.2789 52.7211 68.7761 52.7211 69.3357C52.7211 69.9124 52.5875 70.4266 52.3205 70.8783C52.0563 71.3272 51.6884 71.6809 51.2168 71.9394C50.748 72.1951 50.2054 72.3229 49.589 72.3229ZM57.3745 72.3698C56.6728 72.3698 56.0705 72.1922 55.5676 71.8371C55.0676 71.4792 54.6827 70.9636 54.4128 70.2903C54.1458 69.6141 54.0123 68.8002 54.0123 67.8485C54.0151 66.8968 54.15 66.0871 54.4171 65.4195C54.687 64.7491 55.0719 64.2377 55.5719 63.8854C56.0748 63.5332 56.6756 63.357 57.3745 63.357C58.0733 63.357 58.6742 63.5332 59.177 63.8854C59.6799 64.2377 60.0648 64.7491 60.3319 65.4195C60.6017 66.09 60.7367 66.8996 60.7367 67.8485C60.7367 68.803 60.6017 69.6184 60.3319 70.2945C60.0648 70.9678 59.6799 71.482 59.177 71.8371C58.677 72.1922 58.0762 72.3698 57.3745 72.3698ZM57.3745 71.036C57.9199 71.036 58.3503 70.7675 58.6657 70.2306C58.9838 69.6908 59.1429 68.8968 59.1429 67.8485C59.1429 67.1553 59.0705 66.5729 58.9256 66.1013C58.7807 65.6297 58.5762 65.2746 58.312 65.036C58.0478 64.7945 57.7353 64.6738 57.3745 64.6738C56.8319 64.6738 56.4029 64.9437 56.0875 65.4834C55.7722 66.0204 55.6131 66.8087 55.6103 67.8485C55.6074 68.5445 55.677 69.1297 55.8191 69.6042C55.964 70.0786 56.1685 70.4366 56.4327 70.678C56.6969 70.9167 57.0108 71.036 57.3745 71.036ZM66.8187 70.5672L66.8187 70.107C66.8187 69.769 66.8897 69.4579 67.0318 69.1738C67.1767 68.8897 67.3869 68.661 67.6625 68.4877C67.938 68.3144 68.2718 68.2278 68.6639 68.2278C69.0673 68.2278 69.4054 68.3144 69.6781 68.4877C69.9508 68.6582 70.1568 68.8854 70.296 69.1695C70.438 69.4536 70.5091 69.7661 70.5091 70.107L70.5091 70.5672C70.5091 70.9053 70.438 71.2164 70.296 71.5005C70.1539 71.7846 69.9451 72.0133 69.6696 72.1866C69.3968 72.3599 69.0616 72.4465 68.6639 72.4465C68.2662 72.4465 67.9295 72.3599 67.6539 72.1866C67.3784 72.0133 67.1696 71.7846 67.0275 71.5005C66.8883 71.2164 66.8187 70.9053 66.8187 70.5672ZM67.9309 70.107L67.9309 70.5672C67.9309 70.7917 67.9849 70.9976 68.0929 71.1851C68.2008 71.3726 68.3912 71.4664 68.6639 71.4664C68.9395 71.4664 69.1284 71.3741 69.2306 71.1894C69.3358 71.0019 69.3883 70.7945 69.3883 70.5672L69.3883 70.107C69.3883 69.8797 69.3386 69.6724 69.2392 69.4849C69.1397 69.2945 68.948 69.1994 68.6639 69.1994C68.3968 69.1994 68.2079 69.2945 68.0971 69.4849C67.9863 69.6724 67.9309 69.8797 67.9309 70.107ZM62.3826 65.5729L62.3826 65.1127C62.3826 64.7718 62.4551 64.4593 62.6 64.1752C62.7449 63.8911 62.9551 63.6638 63.2306 63.4934C63.5062 63.3201 63.84 63.2334 64.2321 63.2334C64.6326 63.2334 64.9693 63.3201 65.242 63.4934C65.5176 63.6638 65.725 63.8911 65.8642 64.1752C66.0034 64.4593 66.073 64.7718 66.073 65.1127L66.073 65.5729C66.073 65.9138 66.002 66.2263 65.8599 66.5104C65.7207 66.7917 65.5133 67.0175 65.2377 67.188C64.9622 67.3584 64.627 67.4437 64.2321 67.4437C63.8315 67.4437 63.4934 67.3584 63.2179 67.188C62.9451 67.0175 62.7377 66.7903 62.5957 66.5062C62.4537 66.2221 62.3826 65.911 62.3826 65.5729ZM63.5034 65.1127L63.5034 65.5729C63.5034 65.8002 63.5559 66.0076 63.661 66.1951C63.769 66.3797 63.9593 66.4721 64.2321 66.4721C64.5048 66.4721 64.6923 66.3797 64.7946 66.1951C64.8997 66.0076 64.9522 65.8002 64.9522 65.5729L64.9522 65.1127C64.9522 64.8854 64.9025 64.678 64.8031 64.4905C64.7037 64.3002 64.5133 64.205 64.2321 64.205C63.9622 64.205 63.7733 64.3002 63.6653 64.4905C63.5574 64.6809 63.5034 64.8883 63.5034 65.1127ZM62.8684 72.2036L68.8684 63.4763H69.9338L63.9338 72.2036H62.8684Z" fill="white"/>
<path d="M11.6534 231.273L11.6534 240H10.0724L10.0724 232.811H10.0213L7.98011 234.115L7.98011 232.666L10.1491 231.273H11.6534ZM13.8693 240L13.8693 238.858L16.8991 235.888C17.1889 235.595 17.4304 235.335 17.6236 235.108C17.8168 234.881 17.9616 234.661 18.0582 234.447C18.1548 234.234 18.2031 234.007 18.2031 233.766C18.2031 233.49 18.1406 233.254 18.0156 233.058C17.8906 232.859 17.7188 232.706 17.5 232.598C17.2813 232.49 17.0327 232.436 16.7543 232.436C16.4673 232.436 16.2159 232.496 16 232.615C15.7841 232.732 15.6165 232.898 15.4972 233.114C15.3807 233.33 15.3224 233.587 15.3224 233.885H13.8182C13.8182 233.331 13.9446 232.849 14.1974 232.44C14.4503 232.031 14.7983 231.714 15.2415 231.49C15.6875 231.266 16.1989 231.153 16.7756 231.153C17.3608 231.153 17.875 231.263 18.3182 231.482C18.7614 231.7 19.1051 232 19.3494 232.381C19.5966 232.761 19.7202 233.196 19.7202 233.685C19.7202 234.011 19.6577 234.332 19.5327 234.648C19.4077 234.963 19.1875 235.312 18.8722 235.696C18.5597 236.08 18.1207 236.544 17.5554 237.089L16.0511 238.619L16.0511 238.679H19.8523L19.8523 240H13.8693ZM25.9886 238.364L25.9886 237.903C25.9886 237.565 26.0597 237.254 26.2017 236.97C26.3466 236.686 26.5568 236.457 26.8324 236.284C27.108 236.111 27.4418 236.024 27.8338 236.024C28.2372 236.024 28.5753 236.111 28.848 236.284C29.1207 236.455 29.3267 236.682 29.4659 236.966C29.608 237.25 29.679 237.562 29.679 237.903L29.679 238.364C29.679 238.702 29.608 239.013 29.4659 239.297C29.3239 239.581 29.1151 239.81 28.8395 239.983C28.5668 240.156 28.2315 240.243 27.8338 240.243C27.4361 240.243 27.0994 240.156 26.8239 239.983C26.5483 239.81 26.3395 239.581 26.1974 239.297C26.0582 239.013 25.9886 238.702 25.9886 238.364ZM27.1009 237.903L27.1009 238.364C27.1009 238.588 27.1548 238.794 27.2628 238.982C27.3707 239.169 27.5611 239.263 27.8338 239.263C28.1094 239.263 28.2983 239.17 28.4006 238.986C28.5057 238.798 28.5582 238.591 28.5582 238.364L28.5582 237.903C28.5582 237.676 28.5085 237.469 28.4091 237.281C28.3097 237.091 28.1179 236.996 27.8338 236.996C27.5668 236.996 27.3778 237.091 27.267 237.281C27.1563 237.469 27.1009 237.676 27.1009 237.903ZM21.5526 233.369L21.5526 232.909C21.5526 232.568 21.625 232.256 21.7699 231.972C21.9148 231.687 22.125 231.46 22.4006 231.29C22.6761 231.116 23.0099 231.03 23.402 231.03C23.8026 231.03 24.1392 231.116 24.4119 231.29C24.6875 231.46 24.8949 231.687 25.0341 231.972C25.1733 232.256 25.2429 232.568 25.2429 232.909L25.2429 233.369C25.2429 233.71 25.1719 234.023 25.0298 234.307C24.8906 234.588 24.6832 234.814 24.4077 234.984C24.1321 235.155 23.7969 235.24 23.402 235.24C23.0014 235.24 22.6634 235.155 22.3878 234.984C22.1151 234.814 21.9077 234.587 21.7656 234.303C21.6236 234.018 21.5526 233.707 21.5526 233.369ZM22.6733 232.909L22.6733 233.369C22.6733 233.597 22.7259 233.804 22.831 233.991C22.9389 234.176 23.1293 234.268 23.402 234.268C23.6747 234.268 23.8622 234.176 23.9645 233.991C24.0696 233.804 24.1222 233.597 24.1222 233.369L24.1222 232.909C24.1222 232.682 24.0724 232.474 23.973 232.287C23.8736 232.097 23.6832 232.001 23.402 232.001C23.1321 232.001 22.9432 232.097 22.8352 232.287C22.7273 232.477 22.6733 232.685 22.6733 232.909ZM22.0384 240L28.0384 231.273H29.1037L23.1037 240H22.0384Z" fill="white"/>
<path d="M86.991 238.381L86.991 237.124L90.6941 231.273H91.7424L91.7424 233.062H91.1032L88.6103 237.013L88.6103 237.081H93.7793L93.7793 238.381H86.991ZM91.1543 240L91.1543 237.997L91.1714 237.435L91.1714 231.273H92.6628L92.6628 240H91.1543ZM98.3667 240.166C97.665 240.166 97.0627 239.989 96.5598 239.634C96.0598 239.276 95.6749 238.76 95.405 238.087C95.138 237.411 95.0044 236.597 95.0044 235.645C95.0073 234.693 95.1422 233.884 95.4093 233.216C95.6792 232.545 96.0641 232.034 96.5641 231.682C97.0669 231.33 97.6678 231.153 98.3667 231.153C99.0655 231.153 99.6664 231.33 100.169 231.682C100.672 232.034 101.057 232.545 101.324 233.216C101.594 233.886 101.729 234.696 101.729 235.645C101.729 236.599 101.594 237.415 101.324 238.091C101.057 238.764 100.672 239.278 100.169 239.634C99.6692 239.989 99.0684 240.166 98.3667 240.166ZM98.3667 238.832C98.9121 238.832 99.3425 238.564 99.6579 238.027C99.976 237.487 100.135 236.693 100.135 235.645C100.135 234.952 100.063 234.369 99.9178 233.898C99.7729 233.426 99.5684 233.071 99.3042 232.832C99.04 232.591 98.7275 232.47 98.3667 232.47C97.824 232.47 97.3951 232.74 97.0797 233.28C96.7644 233.817 96.6053 234.605 96.6025 235.645C96.5996 236.341 96.6692 236.926 96.8113 237.401C96.9562 237.875 97.1607 238.233 97.4249 238.474C97.6891 238.713 98.003 238.832 98.3667 238.832ZM103.772 240.094C103.514 240.094 103.292 240.003 103.107 239.821C102.923 239.639 102.832 239.418 102.835 239.156C102.832 238.901 102.923 238.682 103.107 238.5C103.292 238.318 103.514 238.227 103.772 238.227C104.022 238.227 104.24 238.318 104.424 238.5C104.612 238.682 104.707 238.901 104.71 239.156C104.707 239.33 104.661 239.487 104.573 239.629C104.488 239.771 104.374 239.885 104.232 239.97C104.093 240.053 103.94 240.094 103.772 240.094ZM106.128 238.381L106.128 237.124L109.831 231.273H110.879L110.879 233.062H110.24L107.747 237.013L107.747 237.081H112.916L112.916 238.381H106.128ZM110.291 240L110.291 237.997L110.308 237.435L110.308 231.273H111.8L111.8 240H110.291ZM118.944 238.364L118.944 237.903C118.944 237.565 119.015 237.254 119.157 236.97C119.302 236.686 119.512 236.457 119.787 236.284C120.063 236.111 120.397 236.024 120.789 236.024C121.192 236.024 121.53 236.111 121.803 236.284C122.076 236.455 122.282 236.682 122.421 236.966C122.563 237.25 122.634 237.562 122.634 237.903L122.634 238.364C122.634 238.702 122.563 239.013 122.421 239.297C122.279 239.581 122.07 239.81 121.795 239.983C121.522 240.156 121.187 240.243 120.789 240.243C120.391 240.243 120.055 240.156 119.779 239.983C119.503 239.81 119.295 239.581 119.153 239.297C119.013 239.013 118.944 238.702 118.944 238.364ZM120.056 237.903L120.056 238.364C120.056 238.588 120.11 238.794 120.218 238.982C120.326 239.169 120.516 239.263 120.789 239.263C121.064 239.263 121.253 239.17 121.356 238.986C121.461 238.798 121.513 238.591 121.513 238.364L121.513 237.903C121.513 237.676 121.464 237.469 121.364 237.281C121.265 237.091 121.073 236.996 120.789 236.996C120.522 236.996 120.333 237.091 120.222 237.281C120.111 237.469 120.056 237.676 120.056 237.903ZM114.508 233.369L114.508 232.909C114.508 232.568 114.58 232.256 114.725 231.972C114.87 231.687 115.08 231.46 115.356 231.29C115.631 231.116 115.965 231.03 116.357 231.03C116.758 231.03 117.094 231.116 117.367 231.29C117.643 231.46 117.85 231.687 117.989 231.972C118.128 232.256 118.198 232.568 118.198 232.909L118.198 233.369C118.198 233.71 118.127 234.023 117.985 234.307C117.846 234.588 117.638 234.814 117.363 234.984C117.087 235.155 116.752 235.24 116.357 235.24C115.957 235.24 115.618 235.155 115.343 234.984C115.07 234.814 114.863 234.587 114.721 234.303C114.579 234.018 114.508 233.707 114.508 233.369ZM115.628 232.909L115.628 233.369C115.628 233.597 115.681 233.804 115.786 233.991C115.894 234.176 116.084 234.268 116.357 234.268C116.63 234.268 116.817 234.176 116.92 233.991C117.025 233.804 117.077 233.597 117.077 233.369L117.077 232.909C117.077 232.682 117.028 232.474 116.928 232.287C116.829 232.097 116.638 232.001 116.357 232.001C116.087 232.001 115.898 232.097 115.79 232.287C115.682 232.477 115.628 232.685 115.628 232.909ZM114.993 240L120.993 231.273H122.059L116.059 240H114.993Z" fill="white"/>
<path d="M230.327 238.381L230.327 237.124L234.03 231.273H235.078L235.078 233.062H234.439L231.946 237.013L231.946 237.081H237.115L237.115 238.381H230.327ZM234.49 240L234.49 237.997L234.507 237.435L234.507 231.273H235.999L235.999 240H234.49ZM238.796 240L242.508 232.653L242.508 232.594H238.2L238.2 231.273H244.144L244.144 232.624L240.437 240H238.796ZM244.987 240.094C244.729 240.094 244.507 240.003 244.322 239.821C244.138 239.639 244.047 239.418 244.05 239.156C244.047 238.901 244.138 238.682 244.322 238.5C244.507 238.318 244.729 238.227 244.987 238.227C245.237 238.227 245.454 238.318 245.639 238.5C245.827 238.682 245.922 238.901 245.925 239.156C245.922 239.33 245.876 239.487 245.788 239.629C245.703 239.771 245.589 239.885 245.447 239.97C245.308 240.053 245.155 240.094 244.987 240.094ZM250.356 240.119C249.939 240.116 249.531 240.044 249.133 239.902C248.736 239.757 248.378 239.523 248.059 239.199C247.741 238.872 247.488 238.439 247.301 237.899C247.113 237.357 247.021 236.685 247.024 235.884C247.024 235.136 247.104 234.47 247.263 233.885C247.422 233.3 247.65 232.805 247.949 232.402C248.247 231.996 248.606 231.686 249.027 231.473C249.45 231.26 249.923 231.153 250.446 231.153C250.994 231.153 251.48 231.261 251.903 231.477C252.329 231.693 252.673 231.989 252.934 232.364C253.196 232.736 253.358 233.156 253.42 233.625H251.865C251.785 233.29 251.622 233.023 251.375 232.824C251.13 232.622 250.821 232.521 250.446 232.521C249.841 232.521 249.375 232.784 249.048 233.31C248.724 233.835 248.561 234.557 248.558 235.474H248.618C248.757 235.224 248.937 235.01 249.159 234.831C249.38 234.652 249.63 234.514 249.909 234.418C250.19 234.318 250.487 234.268 250.8 234.268C251.311 234.268 251.77 234.391 252.176 234.635C252.585 234.879 252.909 235.216 253.148 235.645C253.386 236.071 253.504 236.56 253.501 237.111C253.504 237.685 253.373 238.2 253.109 238.658C252.845 239.112 252.477 239.47 252.005 239.732C251.534 239.993 250.984 240.122 250.356 240.119ZM250.348 238.841C250.657 238.841 250.934 238.766 251.179 238.615C251.423 238.464 251.616 238.261 251.758 238.006C251.9 237.75 251.97 237.463 251.967 237.145C251.97 236.832 251.902 236.55 251.763 236.297C251.626 236.044 251.437 235.844 251.196 235.696C250.954 235.548 250.679 235.474 250.369 235.474C250.139 235.474 249.925 235.518 249.726 235.607C249.527 235.695 249.354 235.817 249.206 235.973C249.058 236.126 248.942 236.305 248.856 236.51C248.774 236.712 248.731 236.928 248.729 237.158C248.731 237.462 248.802 237.741 248.942 237.997C249.081 238.253 249.273 238.457 249.517 238.611C249.761 238.764 250.038 238.841 250.348 238.841ZM259.608 238.364L259.608 237.903C259.608 237.565 259.679 237.254 259.821 236.97C259.966 236.686 260.176 236.457 260.452 236.284C260.727 236.111 261.061 236.024 261.453 236.024C261.856 236.024 262.194 236.111 262.467 236.284C262.74 236.455 262.946 236.682 263.085 236.966C263.227 237.25 263.298 237.562 263.298 237.903L263.298 238.364C263.298 238.702 263.227 239.013 263.085 239.297C262.943 239.581 262.734 239.81 262.459 239.983C262.186 240.156 261.851 240.243 261.453 240.243C261.055 240.243 260.719 240.156 260.443 239.983C260.167 239.81 259.959 239.581 259.817 239.297C259.677 239.013 259.608 238.702 259.608 238.364ZM260.72 237.903L260.72 238.364C260.72 238.588 260.774 238.794 260.882 238.982C260.99 239.169 261.18 239.263 261.453 239.263C261.729 239.263 261.917 239.17 262.02 238.986C262.125 238.798 262.177 238.591 262.177 238.364L262.177 237.903C262.177 237.676 262.128 237.469 262.028 237.281C261.929 237.091 261.737 236.996 261.453 236.996C261.186 236.996 260.997 237.091 260.886 237.281C260.775 237.469 260.72 237.676 260.72 237.903ZM255.172 233.369L255.172 232.909C255.172 232.568 255.244 232.256 255.389 231.972C255.534 231.687 255.744 231.46 256.02 231.29C256.295 231.116 256.629 231.03 257.021 231.03C257.422 231.03 257.758 231.116 258.031 231.29C258.307 231.46 258.514 231.687 258.653 231.972C258.792 232.256 258.862 232.568 258.862 232.909L258.862 233.369C258.862 233.71 258.791 234.023 258.649 234.307C258.51 234.588 258.302 234.814 258.027 234.984C257.751 235.155 257.416 235.24 257.021 235.24C256.621 235.24 256.282 235.155 256.007 234.984C255.734 234.814 255.527 234.587 255.385 234.303C255.243 234.018 255.172 233.707 255.172 233.369ZM256.292 232.909L256.292 233.369C256.292 233.597 256.345 233.804 256.45 233.991C256.558 234.176 256.748 234.268 257.021 234.268C257.294 234.268 257.481 234.176 257.584 233.991C257.689 233.804 257.741 233.597 257.741 233.369L257.741 232.909C257.741 232.682 257.692 232.474 257.592 232.287C257.493 232.097 257.302 232.001 257.021 232.001C256.751 232.001 256.562 232.097 256.454 232.287C256.346 232.477 256.292 232.685 256.292 232.909ZM255.657 240L261.657 231.273H262.723L256.723 240H255.657Z" fill="white"/>
<path d="M116.545 264.866L116.545 262.311H116.838C117.17 263.975 117.957 264.807 119.199 264.807C119.758 264.807 120.189 264.649 120.494 264.333C120.803 264.012 120.957 263.655 120.957 263.26C120.957 262.862 120.822 262.528 120.553 262.259C120.283 261.993 119.791 261.708 119.076 261.403C118.439 261.13 117.959 260.891 117.635 260.688C117.311 260.481 117.057 260.214 116.873 259.885C116.693 259.557 116.604 259.208 116.604 258.837C116.604 258.27 116.799 257.8 117.189 257.425C117.584 257.046 118.082 256.856 118.684 256.856C119.02 256.856 119.336 256.911 119.633 257.02C119.93 257.13 120.234 257.356 120.547 257.7C120.727 257.485 120.828 257.253 120.852 257.003H121.109L121.109 259.083H120.852C120.703 258.477 120.439 258.001 120.061 257.653C119.686 257.305 119.25 257.132 118.754 257.132C118.281 257.132 117.934 257.26 117.711 257.518C117.492 257.772 117.383 258.052 117.383 258.356C117.383 258.723 117.522 259.034 117.799 259.288C118.072 259.546 118.566 259.835 119.281 260.155C119.965 260.46 120.461 260.706 120.77 260.893C121.082 261.077 121.332 261.333 121.52 261.661C121.707 261.989 121.801 262.368 121.801 262.798C121.801 263.477 121.574 264.03 121.121 264.456C120.668 264.882 120.063 265.094 119.305 265.094C118.434 265.094 117.707 264.76 117.125 264.093C116.996 264.276 116.9 264.534 116.838 264.866H116.545ZM124.314 260.94C124.549 260.612 124.811 260.366 125.1 260.202C125.393 260.038 125.713 259.956 126.061 259.956C126.455 259.956 126.781 260.038 127.039 260.202C127.301 260.366 127.471 260.569 127.549 260.811C127.627 261.05 127.666 261.438 127.666 261.977L127.666 263.302C127.666 263.864 127.676 264.206 127.695 264.327C127.719 264.448 127.783 264.538 127.889 264.596C127.994 264.651 128.189 264.678 128.475 264.678L128.475 264.948H125.996L125.996 264.678H126.107C126.393 264.678 126.576 264.637 126.658 264.555C126.744 264.473 126.793 264.378 126.805 264.268C126.82 264.155 126.828 263.833 126.828 263.302L126.828 261.86C126.828 261.462 126.805 261.167 126.758 260.975C126.711 260.784 126.6 260.626 126.424 260.501C126.252 260.376 126.035 260.313 125.773 260.313C125.469 260.313 125.195 260.403 124.953 260.583C124.711 260.759 124.498 261.024 124.314 261.38L124.314 263.302C124.314 263.841 124.322 264.173 124.338 264.298C124.357 264.423 124.418 264.518 124.52 264.585C124.621 264.647 124.807 264.678 125.076 264.678L125.076 264.948H122.639L122.639 264.678H122.762C123.043 264.678 123.225 264.639 123.307 264.561C123.393 264.479 123.441 264.384 123.453 264.274C123.469 264.161 123.477 263.837 123.477 263.302L123.477 258.52C123.477 258.036 123.43 257.729 123.336 257.6C123.246 257.471 123.027 257.407 122.68 257.407L122.68 257.137C123.285 257.137 123.789 257.055 124.191 256.891H124.314L124.314 260.94ZM134.018 264.069H134.234C134.199 264.737 133.871 265.071 133.25 265.071C132.984 265.071 132.773 265.001 132.617 264.86C132.465 264.719 132.365 264.51 132.318 264.233C131.928 264.51 131.57 264.719 131.246 264.86C130.926 265.001 130.639 265.071 130.385 265.071C130.061 265.071 129.781 264.977 129.547 264.79C129.313 264.602 129.195 264.354 129.195 264.046C129.195 263.643 129.391 263.292 129.781 262.991C130.176 262.69 130.719 262.397 131.41 262.112L132.318 261.743L132.318 261.509C132.318 261.177 132.297 260.936 132.254 260.788C132.211 260.639 132.1 260.507 131.92 260.389C131.74 260.272 131.504 260.214 131.211 260.214C130.625 260.214 130.299 260.409 130.232 260.8C130.17 261.198 130.006 261.397 129.74 261.397C129.502 261.397 129.383 261.284 129.383 261.057C129.383 260.835 129.541 260.596 129.857 260.343C130.174 260.085 130.666 259.956 131.334 259.956C131.83 259.956 132.215 260.034 132.488 260.19C132.762 260.346 132.941 260.524 133.027 260.723C133.117 260.923 133.162 261.227 133.162 261.637L133.162 263.577C133.162 264.03 133.186 264.321 133.232 264.45C133.279 264.579 133.381 264.643 133.537 264.643C133.795 264.643 133.955 264.452 134.018 264.069ZM132.318 262.018L131.68 262.276C130.672 262.686 130.168 263.202 130.168 263.823C130.168 264.069 130.232 264.268 130.361 264.421C130.49 264.569 130.658 264.643 130.865 264.643C131.049 264.643 131.262 264.583 131.504 264.462C131.746 264.341 132.018 264.159 132.318 263.917L132.318 262.018ZM136.355 261.18C136.488 260.833 136.703 260.542 137 260.307C137.301 260.073 137.594 259.956 137.879 259.956C138.137 259.956 138.34 260.036 138.488 260.196C138.637 260.356 138.711 260.52 138.711 260.688C138.711 260.802 138.672 260.899 138.594 260.981C138.52 261.063 138.428 261.104 138.318 261.104C138.123 261.104 137.975 260.96 137.873 260.671C137.803 260.475 137.697 260.378 137.557 260.378C137.389 260.378 137.188 260.493 136.953 260.723C136.719 260.95 136.568 261.186 136.502 261.432C136.436 261.678 136.402 262.016 136.402 262.446L136.402 263.302C136.402 263.813 136.408 264.135 136.42 264.268C136.436 264.401 136.492 264.503 136.59 264.573C136.688 264.643 136.861 264.678 137.111 264.678H137.275L137.275 264.948H134.727L134.727 264.678H134.85C135.084 264.678 135.25 264.647 135.348 264.585C135.449 264.518 135.51 264.427 135.529 264.309C135.549 264.192 135.559 263.856 135.559 263.302L135.559 261.948C135.559 261.432 135.551 261.11 135.535 260.981C135.523 260.848 135.469 260.747 135.371 260.677C135.273 260.602 135.1 260.565 134.85 260.565H134.727L134.727 260.302C135.094 260.259 135.574 260.143 136.168 259.956C136.281 260.264 136.344 260.673 136.355 261.18ZM143.416 261.772H140.07C140.055 262.003 140.047 262.175 140.047 262.288C140.047 263.132 140.178 263.766 140.439 264.192C140.705 264.614 141.1 264.825 141.623 264.825C142.334 264.825 142.838 264.507 143.135 263.87H143.416C143.291 264.268 143.043 264.581 142.672 264.807C142.301 265.03 141.897 265.141 141.459 265.141C141.053 265.141 140.668 265.04 140.305 264.837C139.945 264.63 139.65 264.339 139.42 263.964C139.189 263.589 139.074 263.134 139.074 262.598C139.074 261.841 139.297 261.212 139.742 260.712C140.188 260.208 140.744 259.956 141.412 259.956C142.041 259.956 142.527 260.147 142.871 260.53C143.215 260.913 143.397 261.327 143.416 261.772ZM142.391 261.538C142.402 261.448 142.408 261.368 142.408 261.298C142.408 260.954 142.307 260.688 142.104 260.501C141.904 260.309 141.658 260.214 141.365 260.214C140.654 260.214 140.23 260.655 140.094 261.538H142.391ZM147.318 262.54C147.318 261.805 147.564 261.192 148.057 260.7C148.549 260.204 149.154 259.956 149.873 259.956C150.596 259.956 151.203 260.204 151.695 260.7C152.188 261.196 152.434 261.809 152.434 262.54C152.434 263.348 152.184 263.985 151.684 264.45C151.184 264.911 150.58 265.141 149.873 265.141C149.166 265.141 148.563 264.907 148.063 264.438C147.566 263.966 147.318 263.333 147.318 262.54ZM148.291 262.569C148.291 263.421 148.43 264.018 148.707 264.362C148.984 264.702 149.373 264.872 149.873 264.872C150.385 264.872 150.775 264.702 151.045 264.362C151.318 264.018 151.455 263.421 151.455 262.569C151.455 261.725 151.32 261.124 151.051 260.764C150.781 260.405 150.389 260.225 149.873 260.225C149.361 260.225 148.969 260.405 148.695 260.764C148.426 261.12 148.291 261.721 148.291 262.569ZM155.791 260.149L155.791 260.419H154.789L154.789 263.302C154.789 263.813 154.795 264.135 154.807 264.268C154.822 264.401 154.879 264.503 154.977 264.573C155.074 264.643 155.248 264.678 155.498 264.678H155.75L155.75 264.948H153.154L153.154 264.678C153.424 264.678 153.609 264.651 153.711 264.596C153.816 264.542 153.881 264.46 153.904 264.35C153.932 264.237 153.945 263.887 153.945 263.302L153.945 260.419H153.049L153.049 260.149H153.945L153.945 259.716C153.945 259.231 153.965 258.856 154.004 258.591C154.043 258.325 154.152 258.052 154.332 257.77C154.516 257.485 154.744 257.266 155.018 257.114C155.295 256.962 155.623 256.885 156.002 256.885C156.463 256.885 156.832 256.981 157.109 257.173C157.387 257.364 157.525 257.559 157.525 257.759C157.525 257.872 157.486 257.966 157.408 258.04C157.33 258.114 157.238 258.151 157.133 258.151C156.926 258.151 156.736 257.991 156.564 257.671C156.373 257.319 156.125 257.143 155.82 257.143C155.574 257.143 155.357 257.233 155.17 257.413C154.986 257.589 154.877 257.809 154.842 258.075C154.807 258.341 154.789 258.911 154.789 259.786L154.789 260.149H155.791ZM165.658 261.772H162.313C162.297 262.003 162.289 262.175 162.289 262.288C162.289 263.132 162.42 263.766 162.682 264.192C162.947 264.614 163.342 264.825 163.865 264.825C164.576 264.825 165.08 264.507 165.377 263.87H165.658C165.533 264.268 165.285 264.581 164.914 264.807C164.543 265.03 164.139 265.141 163.701 265.141C163.295 265.141 162.91 265.04 162.547 264.837C162.188 264.63 161.893 264.339 161.662 263.964C161.432 263.589 161.316 263.134 161.316 262.598C161.316 261.841 161.539 261.212 161.984 260.712C162.43 260.208 162.986 259.956 163.654 259.956C164.283 259.956 164.77 260.147 165.113 260.53C165.457 260.913 165.639 261.327 165.658 261.772ZM164.633 261.538C164.645 261.448 164.65 261.368 164.65 261.298C164.65 260.954 164.549 260.688 164.346 260.501C164.147 260.309 163.9 260.214 163.607 260.214C162.897 260.214 162.473 260.655 162.336 261.538H164.633ZM167.797 259.956H167.855C167.969 260.218 168.025 260.553 168.025 260.964C168.287 260.628 168.568 260.376 168.869 260.208C169.174 260.04 169.5 259.956 169.848 259.956C170.242 259.956 170.563 260.046 170.809 260.225C171.055 260.405 171.227 260.675 171.324 261.034C171.621 260.675 171.926 260.405 172.238 260.225C172.551 260.046 172.869 259.956 173.193 259.956C173.564 259.956 173.879 260.042 174.137 260.214C174.395 260.385 174.551 260.581 174.605 260.8C174.66 261.018 174.688 261.372 174.688 261.86L174.688 263.302C174.688 263.86 174.697 264.2 174.717 264.321C174.74 264.442 174.803 264.532 174.904 264.591C175.01 264.649 175.203 264.678 175.484 264.678L175.484 264.948H173.088L173.088 264.678C173.342 264.678 173.52 264.651 173.621 264.596C173.727 264.538 173.791 264.452 173.814 264.339C173.838 264.221 173.85 263.876 173.85 263.302L173.85 261.702C173.85 261.378 173.83 261.134 173.791 260.969C173.756 260.805 173.66 260.665 173.504 260.548C173.348 260.43 173.145 260.372 172.895 260.372C172.641 260.372 172.385 260.458 172.127 260.63C171.873 260.802 171.617 261.061 171.359 261.409L171.359 263.302C171.359 263.813 171.365 264.135 171.377 264.268C171.393 264.397 171.447 264.499 171.541 264.573C171.639 264.643 171.811 264.678 172.057 264.678L172.057 264.948H169.736L169.736 264.678C169.998 264.678 170.18 264.651 170.281 264.596C170.387 264.542 170.451 264.458 170.475 264.344C170.502 264.231 170.516 263.884 170.516 263.302L170.516 261.971C170.516 261.55 170.498 261.245 170.463 261.057C170.432 260.866 170.332 260.704 170.164 260.571C169.996 260.434 169.787 260.366 169.537 260.366C169.295 260.366 169.047 260.444 168.793 260.6C168.543 260.757 168.287 260.991 168.025 261.303L168.025 263.302C168.025 263.829 168.033 264.157 168.049 264.286C168.064 264.415 168.123 264.512 168.225 264.579C168.326 264.645 168.508 264.678 168.77 264.678L168.77 264.948H166.42L166.42 264.678C166.678 264.678 166.857 264.651 166.959 264.596C167.064 264.538 167.129 264.452 167.152 264.339C167.176 264.225 167.188 263.88 167.188 263.302L167.188 261.866C167.188 261.319 167.178 260.985 167.158 260.864C167.143 260.739 167.082 260.645 166.977 260.583C166.875 260.52 166.689 260.489 166.42 260.489L166.42 260.219C166.975 260.165 167.434 260.077 167.797 259.956ZM176.551 257.507C176.551 257.339 176.609 257.194 176.727 257.073C176.848 256.952 176.992 256.891 177.16 256.891C177.328 256.891 177.471 256.952 177.588 257.073C177.705 257.194 177.764 257.339 177.764 257.507C177.764 257.678 177.705 257.825 177.588 257.946C177.471 258.067 177.328 258.128 177.16 258.128C176.992 258.128 176.848 258.067 176.727 257.946C176.609 257.825 176.551 257.678 176.551 257.507ZM177.682 259.956L177.682 263.302C177.682 263.813 177.689 264.135 177.705 264.268C177.721 264.401 177.777 264.503 177.875 264.573C177.973 264.643 178.147 264.678 178.397 264.678H178.52L178.52 264.948H175.936L175.936 264.678H176.135C176.412 264.678 176.592 264.639 176.674 264.561C176.76 264.479 176.809 264.384 176.82 264.274C176.836 264.161 176.844 263.837 176.844 263.302L176.844 261.848C176.844 261.286 176.816 260.942 176.762 260.817C176.711 260.692 176.641 260.614 176.551 260.583C176.465 260.552 176.313 260.536 176.094 260.536H175.936L175.936 260.266C176.631 260.196 177.17 260.093 177.553 259.956H177.682ZM179.234 265.1L179.234 263.524H179.463C179.729 264.434 180.203 264.889 180.887 264.889C181.184 264.889 181.404 264.8 181.549 264.62C181.697 264.44 181.772 264.243 181.772 264.028C181.772 263.778 181.693 263.573 181.537 263.413C181.377 263.253 181.066 263.059 180.605 262.833C180.121 262.594 179.773 262.36 179.563 262.13C179.352 261.903 179.246 261.624 179.246 261.292C179.246 260.975 179.359 260.675 179.586 260.389C179.813 260.1 180.131 259.956 180.541 259.956C180.959 259.956 181.305 260.126 181.578 260.466C181.637 260.407 181.713 260.264 181.807 260.038H182.023L182.023 261.52H181.807C181.729 261.165 181.576 260.86 181.35 260.606C181.127 260.348 180.863 260.219 180.559 260.219C180.324 260.219 180.135 260.292 179.99 260.436C179.846 260.581 179.773 260.749 179.773 260.94C179.773 261.151 179.854 261.333 180.014 261.485C180.17 261.641 180.469 261.819 180.91 262.018C181.574 262.319 181.98 262.612 182.129 262.897C182.277 263.186 182.352 263.464 182.352 263.729C182.352 264.147 182.213 264.487 181.936 264.749C181.662 265.01 181.316 265.141 180.898 265.141C180.457 265.141 180.064 264.96 179.721 264.596C179.615 264.714 179.529 264.882 179.463 265.1H179.234ZM183.242 265.1L183.242 263.524H183.471C183.736 264.434 184.211 264.889 184.895 264.889C185.191 264.889 185.412 264.8 185.557 264.62C185.705 264.44 185.779 264.243 185.779 264.028C185.779 263.778 185.701 263.573 185.545 263.413C185.385 263.253 185.074 263.059 184.613 262.833C184.129 262.594 183.781 262.36 183.57 262.13C183.359 261.903 183.254 261.624 183.254 261.292C183.254 260.975 183.367 260.675 183.594 260.389C183.82 260.1 184.139 259.956 184.549 259.956C184.967 259.956 185.313 260.126 185.586 260.466C185.645 260.407 185.721 260.264 185.814 260.038H186.031L186.031 261.52H185.814C185.736 261.165 185.584 260.86 185.357 260.606C185.135 260.348 184.871 260.219 184.566 260.219C184.332 260.219 184.143 260.292 183.998 260.436C183.854 260.581 183.781 260.749 183.781 260.94C183.781 261.151 183.861 261.333 184.022 261.485C184.178 261.641 184.477 261.819 184.918 262.018C185.582 262.319 185.988 262.612 186.137 262.897C186.285 263.186 186.359 263.464 186.359 263.729C186.359 264.147 186.221 264.487 185.943 264.749C185.67 265.01 185.324 265.141 184.906 265.141C184.465 265.141 184.072 264.96 183.729 264.596C183.623 264.714 183.537 264.882 183.471 265.1H183.242ZM187.566 257.507C187.566 257.339 187.625 257.194 187.742 257.073C187.863 256.952 188.008 256.891 188.176 256.891C188.344 256.891 188.486 256.952 188.604 257.073C188.721 257.194 188.779 257.339 188.779 257.507C188.779 257.678 188.721 257.825 188.604 257.946C188.486 258.067 188.344 258.128 188.176 258.128C188.008 258.128 187.863 258.067 187.742 257.946C187.625 257.825 187.566 257.678 187.566 257.507ZM188.697 259.956L188.697 263.302C188.697 263.813 188.705 264.135 188.721 264.268C188.736 264.401 188.793 264.503 188.891 264.573C188.988 264.643 189.162 264.678 189.412 264.678H189.535L189.535 264.948H186.951L186.951 264.678H187.15C187.428 264.678 187.607 264.639 187.689 264.561C187.775 264.479 187.824 264.384 187.836 264.274C187.852 264.161 187.859 263.837 187.859 263.302L187.859 261.848C187.859 261.286 187.832 260.942 187.777 260.817C187.727 260.692 187.656 260.614 187.566 260.583C187.48 260.552 187.328 260.536 187.109 260.536H186.951L186.951 260.266C187.647 260.196 188.186 260.093 188.568 259.956H188.697ZM190.209 262.54C190.209 261.805 190.455 261.192 190.947 260.7C191.439 260.204 192.045 259.956 192.764 259.956C193.486 259.956 194.094 260.204 194.586 260.7C195.078 261.196 195.324 261.809 195.324 262.54C195.324 263.348 195.074 263.985 194.574 264.45C194.074 264.911 193.471 265.141 192.764 265.141C192.057 265.141 191.453 264.907 190.953 264.438C190.457 263.966 190.209 263.333 190.209 262.54ZM191.182 262.569C191.182 263.421 191.32 264.018 191.598 264.362C191.875 264.702 192.264 264.872 192.764 264.872C193.275 264.872 193.666 264.702 193.936 264.362C194.209 264.018 194.346 263.421 194.346 262.569C194.346 261.725 194.211 261.124 193.941 260.764C193.672 260.405 193.279 260.225 192.764 260.225C192.252 260.225 191.859 260.405 191.586 260.764C191.316 261.12 191.182 261.721 191.182 262.569ZM197.416 259.956H197.574C197.664 260.198 197.715 260.528 197.727 260.946C198.008 260.614 198.303 260.366 198.611 260.202C198.92 260.038 199.242 259.956 199.578 259.956C199.961 259.956 200.273 260.036 200.516 260.196C200.762 260.356 200.92 260.553 200.99 260.788C201.061 261.018 201.096 261.356 201.096 261.802L201.096 263.302C201.096 263.856 201.105 264.194 201.125 264.315C201.145 264.436 201.205 264.528 201.307 264.591C201.412 264.649 201.604 264.678 201.881 264.678L201.881 264.948H199.426L199.426 264.678H199.537C199.818 264.678 200.002 264.637 200.088 264.555C200.174 264.473 200.223 264.378 200.234 264.268C200.246 264.159 200.252 263.837 200.252 263.302L200.252 261.755C200.252 261.376 200.232 261.106 200.193 260.946C200.158 260.782 200.059 260.637 199.895 260.512C199.734 260.387 199.529 260.325 199.279 260.325C198.994 260.325 198.721 260.411 198.459 260.583C198.201 260.751 197.957 261.005 197.727 261.344L197.727 263.302C197.727 263.856 197.736 264.194 197.756 264.315C197.779 264.436 197.842 264.528 197.943 264.591C198.049 264.649 198.242 264.678 198.523 264.678L198.523 264.948H196.098L196.098 264.678C196.367 264.678 196.555 264.651 196.66 264.596C196.766 264.542 196.83 264.46 196.854 264.35C196.881 264.237 196.895 263.887 196.895 263.302L196.895 261.872C196.895 261.313 196.883 260.975 196.859 260.858C196.84 260.737 196.777 260.647 196.672 260.589C196.57 260.526 196.379 260.495 196.098 260.495L196.098 260.225C196.527 260.178 196.967 260.089 197.416 259.956ZM202.625 265.1L202.625 263.524H202.854C203.119 264.434 203.594 264.889 204.277 264.889C204.574 264.889 204.795 264.8 204.939 264.62C205.088 264.44 205.162 264.243 205.162 264.028C205.162 263.778 205.084 263.573 204.928 263.413C204.768 263.253 204.457 263.059 203.996 262.833C203.512 262.594 203.164 262.36 202.953 262.13C202.742 261.903 202.637 261.624 202.637 261.292C202.637 260.975 202.75 260.675 202.977 260.389C203.203 260.1 203.522 259.956 203.932 259.956C204.35 259.956 204.695 260.126 204.969 260.466C205.027 260.407 205.104 260.264 205.197 260.038H205.414L205.414 261.52H205.197C205.119 261.165 204.967 260.86 204.74 260.606C204.518 260.348 204.254 260.219 203.949 260.219C203.715 260.219 203.525 260.292 203.381 260.436C203.236 260.581 203.164 260.749 203.164 260.94C203.164 261.151 203.244 261.333 203.404 261.485C203.561 261.641 203.859 261.819 204.301 262.018C204.965 262.319 205.371 262.612 205.52 262.897C205.668 263.186 205.742 263.464 205.742 263.729C205.742 264.147 205.604 264.487 205.326 264.749C205.053 265.01 204.707 265.141 204.289 265.141C203.848 265.141 203.455 264.96 203.111 264.596C203.006 264.714 202.92 264.882 202.854 265.1H202.625Z" fill="white"/>
<path d="M162.13 63.4763H164.065L166.656 69.8002H166.758L169.349 63.4763H171.284L171.284 72.2036H169.767L169.767 66.2079H169.686L167.274 72.178H166.14L163.728 66.1951H163.647L163.647 72.2036H162.13L162.13 63.4763ZM172.937 72.2036L172.937 65.6582H174.48L174.48 72.2036H172.937ZM173.713 64.7292C173.468 64.7292 173.258 64.6482 173.082 64.4863C172.906 64.3215 172.818 64.1241 172.818 63.894C172.818 63.661 172.906 63.4636 173.082 63.3016C173.258 63.1369 173.468 63.0545 173.713 63.0545C173.96 63.0545 174.17 63.1369 174.343 63.3016C174.52 63.4636 174.608 63.661 174.608 63.894C174.608 64.1241 174.52 64.3215 174.343 64.4863C174.17 64.6482 173.96 64.7292 173.713 64.7292ZM178.495 72.3187C177.981 72.3187 177.521 72.1866 177.114 71.9224C176.708 71.6582 176.387 71.2746 176.151 70.7718C175.915 70.269 175.798 69.6582 175.798 68.9394C175.798 68.2121 175.917 67.5985 176.156 67.0985C176.397 66.5957 176.722 66.2164 177.131 65.9607C177.54 65.7022 177.996 65.5729 178.499 65.5729C178.883 65.5729 179.198 65.6383 179.445 65.769C179.692 65.8968 179.888 66.0516 180.033 66.2334C180.178 66.4124 180.29 66.5815 180.37 66.7405H180.434L180.434 63.4763L181.981 63.4763L181.981 72.2036H180.464L180.464 71.1724H180.37C180.29 71.3315 180.175 71.5005 180.025 71.6795C179.874 71.8556 179.675 72.0062 179.428 72.1312C179.181 72.2562 178.87 72.3187 178.495 72.3187ZM178.925 71.053C179.252 71.053 179.531 70.965 179.761 70.7888C179.991 70.6099 180.165 70.3613 180.285 70.0431C180.404 69.7249 180.464 69.3542 180.464 68.9309C180.464 68.5076 180.404 68.1397 180.285 67.8272C180.168 67.5147 179.995 67.2718 179.765 67.0985C179.538 66.9252 179.258 66.8386 178.925 66.8386C178.582 66.8386 178.295 66.928 178.065 67.107C177.835 67.286 177.661 67.5332 177.545 67.8485C177.428 68.1638 177.37 68.5246 177.37 68.9309C177.37 69.34 177.428 69.705 177.545 70.0261C177.664 70.3442 177.839 70.5957 178.069 70.7803C178.302 70.9621 178.587 71.053 178.925 71.053ZM186.054 72.3187C185.539 72.3187 185.079 72.1866 184.673 71.9224C184.267 71.6582 183.946 71.2746 183.71 70.7718C183.474 70.269 183.356 69.6582 183.356 68.9394C183.356 68.2121 183.475 67.5985 183.714 67.0985C183.956 66.5957 184.281 66.2164 184.69 65.9607C185.099 65.7022 185.555 65.5729 186.058 65.5729C186.441 65.5729 186.757 65.6383 187.004 65.769C187.251 65.8968 187.447 66.0516 187.592 66.2334C187.737 66.4124 187.849 66.5815 187.929 66.7405H187.993L187.993 63.4763H189.539L189.539 72.2036H188.022L188.022 71.1724H187.929C187.849 71.3315 187.734 71.5005 187.583 71.6795C187.433 71.8556 187.234 72.0062 186.987 72.1312C186.74 72.2562 186.429 72.3187 186.054 72.3187ZM186.484 71.053C186.811 71.053 187.089 70.965 187.319 70.7888C187.549 70.6099 187.724 70.3613 187.843 70.0431C187.963 69.7249 188.022 69.3542 188.022 68.9309C188.022 68.5076 187.963 68.1397 187.843 67.8272C187.727 67.5147 187.554 67.2718 187.323 67.0985C187.096 66.9252 186.816 66.8386 186.484 66.8386C186.14 66.8386 185.853 66.928 185.623 67.107C185.393 67.286 185.22 67.5332 185.103 67.8485C184.987 68.1638 184.929 68.5246 184.929 68.9309C184.929 69.34 184.987 69.705 185.103 70.0261C185.223 70.3442 185.397 70.5957 185.627 70.7803C185.86 70.9621 186.146 71.053 186.484 71.053ZM192.726 63.4763L192.726 72.2036H191.183L191.183 63.4763H192.726ZM197.21 72.3315C196.554 72.3315 195.987 72.1951 195.51 71.9224C195.035 71.6468 194.67 71.2576 194.414 70.7547C194.159 70.2491 194.031 69.6539 194.031 68.9692C194.031 68.2959 194.159 67.705 194.414 67.1965C194.673 66.6851 195.034 66.2874 195.497 66.0033C195.96 65.7164 196.504 65.5729 197.129 65.5729C197.532 65.5729 197.913 65.6383 198.271 65.769C198.632 65.8968 198.95 66.0957 199.225 66.3655C199.504 66.6354 199.723 66.9792 199.882 67.3968C200.041 67.8116 200.12 68.3059 200.12 68.8797L200.12 69.3528H194.755L194.755 68.313H198.642C198.639 68.0175 198.575 67.7547 198.45 67.5246C198.325 67.2917 198.15 67.1084 197.926 66.9749C197.704 66.8414 197.446 66.7746 197.15 66.7746C196.835 66.7746 196.558 66.8513 196.319 67.0047C196.081 67.1553 195.895 67.3542 195.761 67.6013C195.63 67.8457 195.564 68.1141 195.561 68.4067L195.561 69.3144C195.561 69.6951 195.63 70.0218 195.77 70.2945C195.909 70.5644 196.103 70.7718 196.353 70.9167C196.603 71.0587 196.896 71.1297 197.231 71.1297C197.456 71.1297 197.659 71.0985 197.841 71.036C198.022 70.9707 198.18 70.8755 198.314 70.7505C198.447 70.6255 198.548 70.4707 198.616 70.286L200.056 70.4479C199.966 70.8286 199.792 71.161 199.537 71.4451C199.284 71.7263 198.96 71.9451 198.565 72.1013C198.17 72.2547 197.718 72.3315 197.21 72.3315ZM204.227 70.5843L204.227 69.3272L207.93 63.4763H208.979L208.979 65.2661H208.339L205.847 69.2164L205.847 69.2846H211.016L211.016 70.5843H204.227ZM208.391 72.2036L208.391 70.2008L208.408 69.6383L208.408 63.4763H209.899L209.899 72.2036H208.391ZM215.603 72.3698C214.901 72.3698 214.299 72.1922 213.796 71.8371C213.296 71.4792 212.911 70.9636 212.641 70.2903C212.374 69.6141 212.241 68.8002 212.241 67.8485C212.244 66.8968 212.379 66.0871 212.646 65.4195C212.915 64.7491 213.3 64.2377 213.8 63.8854C214.303 63.5332 214.904 63.357 215.603 63.357C216.302 63.357 216.903 63.5332 217.406 63.8854C217.908 64.2377 218.293 64.7491 218.56 65.4195C218.83 66.09 218.965 66.8996 218.965 67.8485C218.965 68.803 218.83 69.6184 218.56 70.2945C218.293 70.9678 217.908 71.482 217.406 71.8371C216.906 72.1922 216.305 72.3698 215.603 72.3698ZM215.603 71.036C216.148 71.036 216.579 70.7675 216.894 70.2306C217.212 69.6908 217.371 68.8968 217.371 67.8485C217.371 67.1553 217.299 66.5729 217.154 66.1013C217.009 65.6297 216.805 65.2746 216.54 65.036C216.276 64.7945 215.964 64.6738 215.603 64.6738C215.06 64.6738 214.631 64.9437 214.316 65.4834C214.001 66.0204 213.842 66.8087 213.839 67.8485C213.836 68.5445 213.906 69.1297 214.048 69.6042C214.192 70.0786 214.397 70.4366 214.661 70.678C214.925 70.9167 215.239 71.036 215.603 71.036ZM225.047 70.5672L225.047 70.107C225.047 69.769 225.118 69.4579 225.26 69.1738C225.405 68.8897 225.615 68.661 225.891 68.4877C226.167 68.3144 226.5 68.2278 226.892 68.2278C227.296 68.2278 227.634 68.3144 227.907 68.4877C228.179 68.6582 228.385 68.8854 228.524 69.1695C228.667 69.4536 228.738 69.7661 228.738 70.107L228.738 70.5672C228.738 70.9053 228.667 71.2164 228.524 71.5005C228.382 71.7846 228.174 72.0133 227.898 72.1866C227.625 72.3599 227.29 72.4465 226.892 72.4465C226.495 72.4465 226.158 72.3599 225.882 72.1866C225.607 72.0133 225.398 71.7846 225.256 71.5005C225.117 71.2164 225.047 70.9053 225.047 70.5672ZM226.159 70.107L226.159 70.5672C226.159 70.7917 226.213 70.9976 226.321 71.1851C226.429 71.3726 226.62 71.4664 226.892 71.4664C227.168 71.4664 227.357 71.3741 227.459 71.1894C227.564 71.0019 227.617 70.7945 227.617 70.5672L227.617 70.107C227.617 69.8797 227.567 69.6724 227.468 69.4849C227.368 69.2945 227.176 69.1994 226.892 69.1994C226.625 69.1994 226.436 69.2945 226.326 69.4849C226.215 69.6724 226.159 69.8797 226.159 70.107ZM220.611 65.5729L220.611 65.1127C220.611 64.7718 220.684 64.4593 220.828 64.1752C220.973 63.8911 221.184 63.6638 221.459 63.4934C221.735 63.3201 222.069 63.2334 222.461 63.2334C222.861 63.2334 223.198 63.3201 223.471 63.4934C223.746 63.6638 223.953 63.8911 224.093 64.1752C224.232 64.4593 224.301 64.7718 224.301 65.1127L224.301 65.5729C224.301 65.9138 224.23 66.2263 224.088 66.5104C223.949 66.7917 223.742 67.0175 223.466 67.188C223.191 67.3584 222.855 67.4437 222.461 67.4437C222.06 67.4437 221.722 67.3584 221.446 67.188C221.174 67.0175 220.966 66.7903 220.824 66.5062C220.682 66.2221 220.611 65.911 220.611 65.5729ZM221.732 65.1127L221.732 65.5729C221.732 65.8002 221.784 66.0076 221.89 66.1951C221.997 66.3797 222.188 66.4721 222.461 66.4721C222.733 66.4721 222.921 66.3797 223.023 66.1951C223.128 66.0076 223.181 65.8002 223.181 65.5729L223.181 65.1127C223.181 64.8854 223.131 64.678 223.032 64.4905C222.932 64.3002 222.742 64.205 222.461 64.205C222.191 64.205 222.002 64.3002 221.894 64.4905C221.786 64.6809 221.732 64.8883 221.732 65.1127ZM221.097 72.2036L227.097 63.4763H228.162L222.162 72.2036H221.097Z" fill="white"/>
<path d="M267.655 64.8016L267.655 63.4763H274.618L274.618 64.8016H271.921L271.921 72.2036H270.352L270.352 64.8016H267.655ZM277.798 72.3315C277.159 72.3315 276.605 72.1908 276.136 71.9096C275.667 71.6283 275.304 71.2349 275.045 70.7292C274.79 70.2235 274.662 69.6326 274.662 68.9565C274.662 68.2803 274.79 67.688 275.045 67.1795C275.304 66.6709 275.667 66.2761 276.136 65.9948C276.605 65.7136 277.159 65.5729 277.798 65.5729C278.437 65.5729 278.991 65.7136 279.46 65.9948C279.929 66.2761 280.291 66.6709 280.547 67.1795C280.805 67.688 280.934 68.2803 280.934 68.9565C280.934 69.6326 280.805 70.2235 280.547 70.7292C280.291 71.2349 279.929 71.6283 279.46 71.9096C278.991 72.1908 278.437 72.3315 277.798 72.3315ZM277.807 71.0957C278.153 71.0957 278.443 71.0005 278.676 70.8101C278.909 70.617 279.082 70.3584 279.196 70.0346C279.312 69.7107 279.371 69.3499 279.371 68.9522C279.371 68.5516 279.312 68.1894 279.196 67.8655C279.082 67.5388 278.909 67.2789 278.676 67.0857C278.443 66.8925 278.153 66.7959 277.807 66.7959C277.452 66.7959 277.156 66.8925 276.92 67.0857C276.687 67.2789 276.513 67.5388 276.396 67.8655C276.282 68.1894 276.226 68.5516 276.226 68.9522C276.226 69.3499 276.282 69.7107 276.396 70.0346C276.513 70.3584 276.687 70.617 276.92 70.8101C277.156 71.0005 277.452 71.0957 277.807 71.0957ZM282.244 74.6582L282.244 65.6582H283.761L283.761 66.7405H283.85C283.93 66.5815 284.042 66.4124 284.187 66.2334C284.332 66.0516 284.528 65.8968 284.775 65.769C285.022 65.6383 285.338 65.5729 285.721 65.5729C286.227 65.5729 286.683 65.7022 287.089 65.9607C287.498 66.2164 287.822 66.5957 288.061 67.0985C288.302 67.5985 288.423 68.2121 288.423 68.9394C288.423 69.6582 288.305 70.269 288.069 70.7718C287.833 71.2746 287.512 71.6582 287.106 71.9224C286.7 72.1866 286.24 72.3187 285.725 72.3187C285.35 72.3187 285.039 72.2562 284.792 72.1312C284.545 72.0062 284.346 71.8556 284.195 71.6795C284.048 71.5005 283.933 71.3315 283.85 71.1724H283.786L283.786 74.6582H282.244ZM283.757 68.9309C283.757 69.3542 283.816 69.7249 283.936 70.0431C284.058 70.3613 284.232 70.6099 284.46 70.7888C284.69 70.965 284.968 71.053 285.295 71.053C285.636 71.053 285.921 70.9621 286.151 70.7803C286.382 70.5957 286.555 70.3442 286.671 70.0261C286.791 69.705 286.85 69.34 286.85 68.9309C286.85 68.5246 286.792 68.1638 286.676 67.8485C286.559 67.5332 286.386 67.286 286.156 67.107C285.926 66.928 285.639 66.8386 285.295 66.8386C284.965 66.8386 284.686 66.9252 284.455 67.0985C284.225 67.2718 284.051 67.5147 283.931 67.8272C283.815 68.1397 283.757 68.5076 283.757 68.9309ZM296.253 63.4763L296.253 72.2036H294.672L294.672 65.0147H294.621L292.58 66.3187L292.58 64.8698L294.749 63.4763H296.253ZM301.695 72.3698C300.993 72.3698 300.391 72.1922 299.888 71.8371C299.388 71.4792 299.003 70.9636 298.733 70.2903C298.466 69.6141 298.333 68.8002 298.333 67.8485C298.335 66.8968 298.47 66.0871 298.737 65.4195C299.007 64.7491 299.392 64.2377 299.892 63.8854C300.395 63.5332 300.996 63.357 301.695 63.357C302.394 63.357 302.994 63.5332 303.497 63.8854C304 64.2377 304.385 64.7491 304.652 65.4195C304.922 66.09 305.057 66.8996 305.057 67.8485C305.057 68.803 304.922 69.6184 304.652 70.2945C304.385 70.9678 304 71.482 303.497 71.8371C302.997 72.1922 302.396 72.3698 301.695 72.3698ZM301.695 71.036C302.24 71.036 302.671 70.7675 302.986 70.2306C303.304 69.6908 303.463 68.8968 303.463 67.8485C303.463 67.1553 303.391 66.5729 303.246 66.1013C303.101 65.6297 302.896 65.2746 302.632 65.036C302.368 64.7945 302.056 64.6738 301.695 64.6738C301.152 64.6738 300.723 64.9437 300.408 65.4834C300.092 66.0204 299.933 66.8087 299.931 67.8485C299.928 68.5445 299.997 69.1297 300.139 69.6042C300.284 70.0786 300.489 70.4366 300.753 70.678C301.017 70.9167 301.331 71.036 301.695 71.036ZM311.139 70.5672L311.139 70.107C311.139 69.769 311.21 69.4579 311.352 69.1738C311.497 68.8897 311.707 68.661 311.983 68.4877C312.258 68.3144 312.592 68.2278 312.984 68.2278C313.388 68.2278 313.726 68.3144 313.998 68.4877C314.271 68.6582 314.477 68.8854 314.616 69.1695C314.758 69.4536 314.829 69.7661 314.829 70.107L314.829 70.5672C314.829 70.9053 314.758 71.2164 314.616 71.5005C314.474 71.7846 314.265 72.0133 313.99 72.1866C313.717 72.3599 313.382 72.4465 312.984 72.4465C312.586 72.4465 312.25 72.3599 311.974 72.1866C311.699 72.0133 311.49 71.7846 311.348 71.5005C311.209 71.2164 311.139 70.9053 311.139 70.5672ZM312.251 70.107L312.251 70.5672C312.251 70.7917 312.305 70.9976 312.413 71.1851C312.521 71.3726 312.711 71.4664 312.984 71.4664C313.26 71.4664 313.449 71.3741 313.551 71.1894C313.656 71.0019 313.709 70.7945 313.709 70.5672L313.709 70.107C313.709 69.8797 313.659 69.6724 313.559 69.4849C313.46 69.2945 313.268 69.1994 312.984 69.1994C312.717 69.1994 312.528 69.2945 312.417 69.4849C312.307 69.6724 312.251 69.8797 312.251 70.107ZM306.703 65.5729L306.703 65.1127C306.703 64.7718 306.775 64.4593 306.92 64.1752C307.065 63.8911 307.275 63.6638 307.551 63.4934C307.827 63.3201 308.16 63.2334 308.552 63.2334C308.953 63.2334 309.29 63.3201 309.562 63.4934C309.838 63.6638 310.045 63.8911 310.184 64.1752C310.324 64.4593 310.393 64.7718 310.393 65.1127L310.393 65.5729C310.393 65.9138 310.322 66.2263 310.18 66.5104C310.041 66.7917 309.834 67.0175 309.558 67.188C309.282 67.3584 308.947 67.4437 308.552 67.4437C308.152 67.4437 307.814 67.3584 307.538 67.188C307.265 67.0175 307.058 66.7903 306.916 66.5062C306.774 66.2221 306.703 65.911 306.703 65.5729ZM307.824 65.1127L307.824 65.5729C307.824 65.8002 307.876 66.0076 307.981 66.1951C308.089 66.3797 308.28 66.4721 308.552 66.4721C308.825 66.4721 309.013 66.3797 309.115 66.1951C309.22 66.0076 309.273 65.8002 309.273 65.5729L309.273 65.1127C309.273 64.8854 309.223 64.678 309.123 64.4905C309.024 64.3002 308.834 64.205 308.552 64.205C308.282 64.205 308.094 64.3002 307.986 64.4905C307.878 64.6809 307.824 64.8883 307.824 65.1127ZM307.189 72.2036L313.189 63.4763H314.254L308.254 72.2036H307.189Z" fill="white" fill-opacity="0.5"/>
<path d="M277.837 33.598L277.837 32.2727H284.8L284.8 33.598H282.102L282.102 41H280.534L280.534 33.598H277.837ZM287.98 41.1278C287.341 41.1278 286.787 40.9872 286.318 40.706C285.849 40.4247 285.485 40.0312 285.227 39.5256C284.971 39.0199 284.843 38.429 284.843 37.7528C284.843 37.0767 284.971 36.4844 285.227 35.9759C285.485 35.4673 285.849 35.0724 286.318 34.7912C286.787 34.5099 287.341 34.3693 287.98 34.3693C288.619 34.3693 289.173 34.5099 289.642 34.7912C290.11 35.0724 290.473 35.4673 290.728 35.9759C290.987 36.4844 291.116 37.0767 291.116 37.7528C291.116 38.429 290.987 39.0199 290.728 39.5256C290.473 40.0312 290.11 40.4247 289.642 40.706C289.173 40.9872 288.619 41.1278 287.98 41.1278ZM287.988 39.892C288.335 39.892 288.625 39.7969 288.858 39.6065C289.091 39.4134 289.264 39.1548 289.377 38.831C289.494 38.5071 289.552 38.1463 289.552 37.7486C289.552 37.348 289.494 36.9858 289.377 36.6619C289.264 36.3352 289.091 36.0753 288.858 35.8821C288.625 35.6889 288.335 35.5923 287.988 35.5923C287.633 35.5923 287.338 35.6889 287.102 35.8821C286.869 36.0753 286.694 36.3352 286.578 36.6619C286.464 36.9858 286.407 37.348 286.407 37.7486C286.407 38.1463 286.464 38.5071 286.578 38.831C286.694 39.1548 286.869 39.4134 287.102 39.6065C287.338 39.7969 287.633 39.892 287.988 39.892ZM292.425 43.4545L292.425 34.4545H293.942L293.942 35.5369H294.032C294.111 35.3778 294.224 35.2088 294.369 35.0298C294.513 34.848 294.71 34.6932 294.957 34.5653C295.204 34.4347 295.519 34.3693 295.903 34.3693C296.408 34.3693 296.864 34.4986 297.271 34.7571C297.68 35.0128 298.004 35.392 298.242 35.8949C298.484 36.3949 298.604 37.0085 298.604 37.7358C298.604 38.4545 298.486 39.0653 298.251 39.5682C298.015 40.071 297.694 40.4545 297.288 40.7188C296.881 40.983 296.421 41.1151 295.907 41.1151C295.532 41.1151 295.221 41.0526 294.974 40.9276C294.727 40.8026 294.528 40.652 294.377 40.4759C294.229 40.2969 294.114 40.1278 294.032 39.9688H293.968L293.968 43.4545H292.425ZM293.938 37.7273C293.938 38.1506 293.998 38.5213 294.117 38.8395C294.239 39.1577 294.414 39.4062 294.641 39.5852C294.871 39.7614 295.15 39.8494 295.477 39.8494C295.817 39.8494 296.103 39.7585 296.333 39.5767C296.563 39.392 296.736 39.1406 296.853 38.8224C296.972 38.5014 297.032 38.1364 297.032 37.7273C297.032 37.321 296.974 36.9602 296.857 36.6449C296.741 36.3295 296.567 36.0824 296.337 35.9034C296.107 35.7244 295.82 35.6349 295.477 35.6349C295.147 35.6349 294.867 35.7216 294.637 35.8949C294.407 36.0682 294.232 36.3111 294.113 36.6236C293.996 36.9361 293.938 37.304 293.938 37.7273ZM306.435 32.2727L306.435 41H304.854L304.854 33.8111H304.803L302.761 35.1151L302.761 33.6662L304.93 32.2727H306.435ZM313.317 39.3636L313.317 38.9034C313.317 38.5653 313.388 38.2543 313.53 37.9702C313.675 37.6861 313.885 37.4574 314.16 37.2841C314.436 37.1108 314.77 37.0241 315.162 37.0241C315.565 37.0241 315.903 37.1108 316.176 37.2841C316.449 37.4545 316.655 37.6818 316.794 37.9659C316.936 38.25 317.007 38.5625 317.007 38.9034L317.007 39.3636C317.007 39.7017 316.936 40.0128 316.794 40.2969C316.652 40.581 316.443 40.8097 316.168 40.983C315.895 41.1563 315.56 41.2429 315.162 41.2429C314.764 41.2429 314.428 41.1563 314.152 40.983C313.876 40.8097 313.668 40.581 313.526 40.2969C313.386 40.0128 313.317 39.7017 313.317 39.3636ZM314.429 38.9034L314.429 39.3636C314.429 39.5881 314.483 39.794 314.591 39.9815C314.699 40.169 314.889 40.2628 315.162 40.2628C315.437 40.2628 315.626 40.1705 315.729 39.9858C315.834 39.7983 315.886 39.5909 315.886 39.3636L315.886 38.9034C315.886 38.6761 315.837 38.4687 315.737 38.2812C315.638 38.0909 315.446 37.9957 315.162 37.9957C314.895 37.9957 314.706 38.0909 314.595 38.2812C314.484 38.4687 314.429 38.6761 314.429 38.9034ZM308.881 34.3693L308.881 33.9091C308.881 33.5682 308.953 33.2557 309.098 32.9716C309.243 32.6875 309.453 32.4602 309.729 32.2898C310.004 32.1165 310.338 32.0298 310.73 32.0298C311.131 32.0298 311.467 32.1165 311.74 32.2898C312.016 32.4602 312.223 32.6875 312.362 32.9716C312.501 33.2557 312.571 33.5682 312.571 33.9091L312.571 34.3693C312.571 34.7102 312.5 35.0227 312.358 35.3068C312.219 35.5881 312.011 35.8139 311.736 35.9844C311.46 36.1548 311.125 36.2401 310.73 36.2401C310.33 36.2401 309.991 36.1548 309.716 35.9844C309.443 35.8139 309.236 35.5866 309.094 35.3026C308.952 35.0185 308.881 34.7074 308.881 34.3693ZM310.001 33.9091L310.001 34.3693C310.001 34.5966 310.054 34.804 310.159 34.9915C310.267 35.1761 310.457 35.2685 310.73 35.2685C311.003 35.2685 311.19 35.1761 311.293 34.9915C311.398 34.804 311.45 34.5966 311.45 34.3693L311.45 33.9091C311.45 33.6818 311.401 33.4744 311.301 33.2869C311.202 33.0966 311.011 33.0014 310.73 33.0014C310.46 33.0014 310.271 33.0966 310.163 33.2869C310.055 33.4773 310.001 33.6847 310.001 33.9091ZM309.366 41L315.366 32.2727H316.432L310.432 41H309.366Z" fill="white"/>
<path d="M271.77 7.59801L271.77 6.27273L278.733 6.27273L278.733 7.59801H276.036L276.036 15H274.468L274.468 7.59801L271.77 7.59801ZM281.913 15.1278C281.274 15.1278 280.72 14.9872 280.251 14.706C279.783 14.4247 279.419 14.0312 279.16 13.5256C278.905 13.0199 278.777 12.429 278.777 11.7528C278.777 11.0767 278.905 10.4844 279.16 9.97585C279.419 9.46733 279.783 9.07244 280.251 8.79119C280.72 8.50994 281.274 8.36932 281.913 8.36932C282.553 8.36932 283.107 8.50994 283.575 8.79119C284.044 9.07244 284.406 9.46733 284.662 9.97585C284.92 10.4844 285.05 11.0767 285.05 11.7528C285.05 12.429 284.92 13.0199 284.662 13.5256C284.406 14.0312 284.044 14.4247 283.575 14.706C283.107 14.9872 282.553 15.1278 281.913 15.1278ZM281.922 13.892C282.268 13.892 282.558 13.7969 282.791 13.6065C283.024 13.4134 283.197 13.1548 283.311 12.831C283.428 12.5071 283.486 12.1463 283.486 11.7486C283.486 11.348 283.428 10.9858 283.311 10.6619C283.197 10.3352 283.024 10.0753 282.791 9.8821C282.558 9.68892 282.268 9.59233 281.922 9.59233C281.567 9.59233 281.271 9.68892 281.035 9.8821C280.803 10.0753 280.628 10.3352 280.511 10.6619C280.398 10.9858 280.341 11.348 280.341 11.7486C280.341 12.1463 280.398 12.5071 280.511 12.831C280.628 13.1548 280.803 13.4134 281.035 13.6065C281.271 13.7969 281.567 13.892 281.922 13.892ZM286.359 17.4545L286.359 8.45455H287.876L287.876 9.53693H287.966C288.045 9.37784 288.157 9.20881 288.302 9.02983C288.447 8.84801 288.643 8.69318 288.89 8.56534C289.137 8.43466 289.453 8.36932 289.836 8.36932C290.342 8.36932 290.798 8.49858 291.204 8.7571C291.613 9.01278 291.937 9.39205 292.176 9.89489C292.417 10.3949 292.538 11.0085 292.538 11.7358C292.538 12.4545 292.42 13.0653 292.184 13.5682C291.948 14.071 291.627 14.4545 291.221 14.7187C290.815 14.983 290.355 15.1151 289.841 15.1151C289.466 15.1151 289.154 15.0526 288.907 14.9276C288.66 14.8026 288.461 14.652 288.311 14.4759C288.163 14.2969 288.048 14.1278 287.966 13.9687H287.902L287.902 17.4545H286.359ZM287.872 11.7273C287.872 12.1506 287.931 12.5213 288.051 12.8395C288.173 13.1577 288.348 13.4062 288.575 13.5852C288.805 13.7614 289.083 13.8494 289.41 13.8494C289.751 13.8494 290.037 13.7585 290.267 13.5767C290.497 13.392 290.67 13.1406 290.787 12.8224C290.906 12.5014 290.966 12.1364 290.966 11.7273C290.966 11.321 290.907 10.9602 290.791 10.6449C290.674 10.3295 290.501 10.0824 290.271 9.90341C290.041 9.72443 289.754 9.63494 289.41 9.63494C289.081 9.63494 288.801 9.72159 288.571 9.89489C288.341 10.0682 288.166 10.3111 288.047 10.6236C287.93 10.9361 287.872 11.304 287.872 11.7273ZM300.044 15.1662C299.343 15.1662 298.74 14.9886 298.238 14.6335C297.738 14.2756 297.353 13.7599 297.083 13.0866C296.816 12.4105 296.682 11.5966 296.682 10.6449C296.685 9.69318 296.82 8.88352 297.087 8.21591C297.357 7.54545 297.742 7.03409 298.242 6.68182C298.745 6.32955 299.346 6.15341 300.044 6.15341C300.743 6.15341 301.344 6.32955 301.847 6.68182C302.35 7.03409 302.735 7.54545 303.002 8.21591C303.272 8.88636 303.407 9.69602 303.407 10.6449C303.407 11.5994 303.272 12.4148 303.002 13.0909C302.735 13.7642 302.35 14.2784 301.847 14.6335C301.347 14.9886 300.746 15.1662 300.044 15.1662ZM300.044 13.8324C300.59 13.8324 301.02 13.5639 301.336 13.027C301.654 12.4872 301.813 11.6932 301.813 10.6449C301.813 9.9517 301.74 9.36932 301.596 8.89773C301.451 8.42614 301.246 8.07102 300.982 7.83239C300.718 7.59091 300.405 7.47017 300.044 7.47017C299.502 7.47017 299.073 7.74006 298.757 8.27983C298.442 8.81676 298.283 9.60511 298.28 10.6449C298.277 11.3409 298.347 11.9261 298.489 12.4006C298.634 12.875 298.838 13.233 299.103 13.4744C299.367 13.7131 299.681 13.8324 300.044 13.8324ZM305.45 15.0937C305.191 15.0937 304.97 15.0028 304.785 14.821C304.6 14.6392 304.51 14.4176 304.512 14.1562C304.51 13.9006 304.6 13.6818 304.785 13.5C304.97 13.3182 305.191 13.2273 305.45 13.2273C305.7 13.2273 305.917 13.3182 306.102 13.5C306.289 13.6818 306.385 13.9006 306.387 14.1562C306.385 14.3295 306.339 14.4872 306.251 14.6293C306.166 14.7713 306.052 14.8849 305.91 14.9702C305.771 15.0526 305.618 15.0937 305.45 15.0937ZM310.435 6.27273L310.435 15H308.854L308.854 7.81108H308.803L306.761 9.11506L306.761 7.66619L308.93 6.27273H310.435ZM317.317 13.3636L317.317 12.9034C317.317 12.5653 317.388 12.2543 317.53 11.9702C317.675 11.6861 317.885 11.4574 318.16 11.2841C318.436 11.1108 318.77 11.0241 319.162 11.0241C319.565 11.0241 319.903 11.1108 320.176 11.2841C320.449 11.4545 320.655 11.6818 320.794 11.9659C320.936 12.25 321.007 12.5625 321.007 12.9034L321.007 13.3636C321.007 13.7017 320.936 14.0128 320.794 14.2969C320.652 14.581 320.443 14.8097 320.168 14.983C319.895 15.1563 319.56 15.2429 319.162 15.2429C318.764 15.2429 318.428 15.1563 318.152 14.983C317.876 14.8097 317.668 14.581 317.526 14.2969C317.386 14.0128 317.317 13.7017 317.317 13.3636ZM318.429 12.9034L318.429 13.3636C318.429 13.5881 318.483 13.794 318.591 13.9815C318.699 14.169 318.889 14.2628 319.162 14.2628C319.437 14.2628 319.626 14.1705 319.729 13.9858C319.834 13.7983 319.886 13.5909 319.886 13.3636L319.886 12.9034C319.886 12.6761 319.837 12.4687 319.737 12.2812C319.638 12.0909 319.446 11.9957 319.162 11.9957C318.895 11.9957 318.706 12.0909 318.595 12.2812C318.484 12.4687 318.429 12.6761 318.429 12.9034ZM312.881 8.36932L312.881 7.90909C312.881 7.56818 312.953 7.25568 313.098 6.97159C313.243 6.6875 313.453 6.46023 313.729 6.28977C314.004 6.11648 314.338 6.02983 314.73 6.02983C315.131 6.02983 315.467 6.11648 315.74 6.28977C316.016 6.46023 316.223 6.6875 316.362 6.97159C316.501 7.25568 316.571 7.56818 316.571 7.90909L316.571 8.36932C316.571 8.71023 316.5 9.02273 316.358 9.30682C316.219 9.58807 316.011 9.81392 315.736 9.98437C315.46 10.1548 315.125 10.2401 314.73 10.2401C314.33 10.2401 313.991 10.1548 313.716 9.98437C313.443 9.81392 313.236 9.58665 313.094 9.30256C312.952 9.01847 312.881 8.70739 312.881 8.36932ZM314.001 7.90909L314.001 8.36932C314.001 8.59659 314.054 8.80398 314.159 8.99148C314.267 9.17614 314.457 9.26847 314.73 9.26847C315.003 9.26847 315.19 9.17614 315.293 8.99148C315.398 8.80398 315.45 8.59659 315.45 8.36932L315.45 7.90909C315.45 7.68182 315.401 7.47443 315.301 7.28693C315.202 7.09659 315.011 7.00142 314.73 7.00142C314.46 7.00142 314.271 7.09659 314.163 7.28693C314.055 7.47727 314.001 7.68466 314.001 7.90909ZM313.366 15L319.366 6.27273H320.432L314.432 15L313.366 15Z" fill="white"/>
<rect opacity="0.5" x="1.52588e-05" y="82.9907" width="158" height="8" fill="#FFE229"/>
<rect opacity="0.5" x="161" y="82.9907" width="126" height="8" fill="#FFE229"/>
<rect opacity="0.5" x="1.52588e-05" y="214.917" width="38" height="8" fill="#FFE229"/>
<rect opacity="0.5" x="42" y="214.917" width="126" height="8" fill="#FFE229"/>
<path opacity="0.25" fill-rule="evenodd" clip-rule="evenodd" d="M287 91L160.571 91C160.571 144.842 42 170.096 42 215L167.641 215C167.641 170.096 281.236 136.684 287 91Z" fill="#FFE647" fill-opacity="0.4"/>
<path opacity="0.25" fill-rule="evenodd" clip-rule="evenodd" d="M158 91L-1.52588e-05 91C-1.76092e-05 135.904 -1.93989e-05 170.096 -2.17493e-05 215L37.7856 215C37.7856 166.325 158 138.044 158 91Z" fill="#FFE647" fill-opacity="0.4"/>
<line x1="318.5" y1="82" x2="318.5" y2="45" stroke="white" stroke-dasharray="1 1"/>
<line x1="321.5" y1="82" x2="321.5" y2="19" stroke="white" stroke-dasharray="1 1"/>
</svg>
