<svg width="86" height="49" viewBox="0 0 86 49" fill="none" xmlns="http://www.w3.org/2000/svg">
<circle cx="22.2253" cy="45" r="2.5" stroke="#F0F0F0"/>
<circle cx="22.2439" cy="25.7556" r="21.7439" stroke="#F0F0F0"/>
<line x1="22" y1="41.5" x2="46" y2="41.5" stroke="#F0F0F0" stroke-dasharray="1 1"/>
<path d="M19 5H45" stroke="#F0F0F0" stroke-dasharray="1 1"/>
<path d="M50.8807 2.72727H51.9318L54.4034 8.7642H54.4886L56.9602 2.72727H58.0114V10H57.1875V4.47443H57.1165L54.8438 10H54.0483L51.7756 4.47443H51.7045V10H50.8807V2.72727ZM60.0755 10H59.1522L61.8226 2.72727H62.7317L65.4022 10H64.4789L62.3056 3.87784H62.2488L60.0755 10ZM60.4164 7.15909H64.138V7.94034H60.4164V7.15909ZM66.9611 2.72727L68.8361 5.75284H68.8929L70.7679 2.72727H71.8049L69.5179 6.36364L71.8049 10H70.7679L68.8929 7.03125H68.8361L66.9611 10H65.9242L68.2679 6.36364L65.9242 2.72727H66.9611Z" fill="#F0F0F0"/>
<path d="M51.106 36.7273H52.1572L54.6288 42.7642H54.714L57.1856 36.7273H58.2367V44H57.4128V38.4744H57.3418L55.0691 44H54.2736L52.0009 38.4744H51.9299V44H51.106V36.7273ZM59.8889 44V38.5455H60.7269V44H59.8889ZM60.315 37.6364C60.1517 37.6364 60.0108 37.5807 59.8924 37.4695C59.7764 37.3582 59.7184 37.2244 59.7184 37.0682C59.7184 36.9119 59.7764 36.7782 59.8924 36.6669C60.0108 36.5556 60.1517 36.5 60.315 36.5C60.4784 36.5 60.618 36.5556 60.734 36.6669C60.8524 36.7782 60.9116 36.9119 60.9116 37.0682C60.9116 37.2244 60.8524 37.3582 60.734 37.4695C60.618 37.5807 60.4784 37.6364 60.315 37.6364ZM63.1 40.7188V44H62.2619V38.5455H63.0716V39.3977H63.1426C63.2704 39.1207 63.4646 38.8982 63.725 38.7301C63.9854 38.5597 64.3216 38.4744 64.7335 38.4744C65.1028 38.4744 65.426 38.5502 65.703 38.7017C65.98 38.8509 66.1954 39.0781 66.3493 39.3835C66.5032 39.6866 66.5801 40.0701 66.5801 40.5341V44H65.742V40.5909C65.742 40.1624 65.6308 39.8286 65.4082 39.5895C65.1857 39.348 64.8803 39.2273 64.492 39.2273C64.2245 39.2273 63.9854 39.2853 63.7747 39.4013C63.5664 39.5173 63.4018 39.6866 63.2811 39.9091C63.1604 40.1316 63.1 40.4015 63.1 40.7188Z" fill="#F0F0F0"/>
</svg>
