<svg width="330" height="361" viewBox="0 0 330 361" fill="none" xmlns="http://www.w3.org/2000/svg">
<path d="M37.041 111.176L108.214 44L179.388 170.564L249.422 181.273L321.165 265" stroke="black" stroke-linecap="round" stroke-dasharray="4 4"/>
<path d="M37.5916 162L108.141 167.841L178.69 217.487L248.67 189.257L319.788 272" stroke="black" stroke-linecap="round"/>
<path d="M31.4271 345V344.048L33.9519 341.573C34.1934 341.329 34.3946 341.113 34.5556 340.923C34.7166 340.734 34.8373 340.55 34.9178 340.373C34.9983 340.195 35.0386 340.006 35.0386 339.805C35.0386 339.575 34.9865 339.379 34.8823 339.215C34.7781 339.049 34.6349 338.922 34.4526 338.832C34.2703 338.742 34.0632 338.697 33.8312 338.697C33.5921 338.697 33.3825 338.746 33.2026 338.846C33.0227 338.943 32.883 339.081 32.7836 339.261C32.6865 339.441 32.638 339.656 32.638 339.904H31.3844C31.3844 339.442 31.4898 339.041 31.7005 338.7C31.9112 338.359 32.2012 338.095 32.5705 337.908C32.9422 337.721 33.3683 337.628 33.8489 337.628C34.3366 337.628 34.7651 337.719 35.1344 337.901C35.5038 338.084 35.7902 338.333 35.9938 338.651C36.1998 338.968 36.3028 339.33 36.3028 339.737C36.3028 340.009 36.2507 340.277 36.1465 340.54C36.0423 340.803 35.8589 341.094 35.5961 341.413C35.3357 341.733 34.9699 342.12 34.4988 342.575L33.2452 343.849V343.899H36.4128V345H31.4271ZM40.3262 345.138C39.7414 345.138 39.2396 344.991 38.8205 344.695C38.4039 344.396 38.0831 343.967 37.8582 343.406C37.6356 342.842 37.5244 342.164 37.5244 341.371C37.5267 340.578 37.6392 339.903 37.8617 339.347C38.0866 338.788 38.4074 338.362 38.8241 338.068C39.2431 337.775 39.7438 337.628 40.3262 337.628C40.9086 337.628 41.4093 337.775 41.8283 338.068C42.2474 338.362 42.5682 338.788 42.7907 339.347C43.0156 339.905 43.128 340.58 43.128 341.371C43.128 342.166 43.0156 342.846 42.7907 343.409C42.5682 343.97 42.2474 344.399 41.8283 344.695C41.4117 344.991 40.911 345.138 40.3262 345.138ZM40.3262 344.027C40.7807 344.027 41.1394 343.803 41.4022 343.356C41.6673 342.906 41.7999 342.244 41.7999 341.371C41.7999 340.793 41.7396 340.308 41.6188 339.915C41.4981 339.522 41.3276 339.226 41.1075 339.027C40.8873 338.826 40.6269 338.725 40.3262 338.725C39.874 338.725 39.5165 338.95 39.2538 339.4C38.991 339.847 38.8584 340.504 38.856 341.371C38.8537 341.951 38.9117 342.438 39.03 342.834C39.1508 343.229 39.3212 343.527 39.5414 343.729C39.7616 343.928 40.0232 344.027 40.3262 344.027ZM47.266 337.727V345H45.9485V339.009H45.9059L44.2049 340.096V338.888L46.0125 337.727H47.266ZM51.776 345.099C51.4279 345.097 51.0882 345.037 50.7568 344.918C50.4253 344.798 50.127 344.602 49.8619 344.332C49.5967 344.06 49.386 343.699 49.2298 343.249C49.0735 342.797 48.9966 342.237 48.999 341.57C48.999 340.947 49.0653 340.392 49.1978 339.904C49.3304 339.416 49.521 339.004 49.7696 338.668C50.0181 338.33 50.3176 338.072 50.668 337.894C51.0207 337.717 51.4149 337.628 51.8505 337.628C52.3074 337.628 52.7123 337.718 53.065 337.898C53.4201 338.078 53.7066 338.324 53.9244 338.636C54.1422 338.946 54.2771 339.297 54.3292 339.688H53.0331C52.9668 339.408 52.8306 339.186 52.6247 339.02C52.4211 338.852 52.163 338.768 51.8505 338.768C51.3463 338.768 50.958 338.987 50.6858 339.425C50.4159 339.863 50.2797 340.464 50.2774 341.229H50.3271C50.4431 341.02 50.5934 340.842 50.7781 340.692C50.9627 340.543 51.1711 340.429 51.4031 340.348C51.6375 340.265 51.8849 340.224 52.1453 340.224C52.5714 340.224 52.9537 340.326 53.2923 340.529C53.6332 340.733 53.9031 341.013 54.1019 341.371C54.3008 341.726 54.3991 342.133 54.3967 342.592C54.3991 343.071 54.2902 343.5 54.07 343.881C53.8498 344.26 53.5432 344.558 53.1502 344.776C52.7572 344.994 52.2992 345.102 51.776 345.099ZM51.7689 344.034C52.0269 344.034 52.2577 343.971 52.4613 343.846C52.6649 343.72 52.8259 343.551 52.9443 343.338C53.0626 343.125 53.1206 342.886 53.1183 342.621C53.1206 342.36 53.0638 342.125 52.9478 341.914C52.8342 341.703 52.6768 341.536 52.4755 341.413C52.2743 341.29 52.0447 341.229 51.7866 341.229C51.5948 341.229 51.4161 341.265 51.2504 341.339C51.0847 341.412 50.9403 341.514 50.8171 341.644C50.694 341.772 50.597 341.921 50.526 342.092C50.4573 342.26 50.4218 342.44 50.4194 342.631C50.4218 342.885 50.481 343.118 50.597 343.331C50.713 343.544 50.8728 343.714 51.0764 343.842C51.28 343.97 51.5108 344.034 51.7689 344.034Z" fill="black"/>
<path d="M7.41495 38.0721C6.94147 38.0721 6.5177 37.9833 6.14364 37.8058C5.76959 37.6258 5.47248 37.3796 5.25231 37.0671C5.03451 36.7546 4.9185 36.3971 4.9043 35.9947H6.18271C6.20638 36.293 6.3354 36.5368 6.56978 36.7262C6.80415 36.9132 7.08588 37.0067 7.41495 37.0067C7.673 37.0067 7.90264 36.9476 8.10387 36.8292C8.3051 36.7108 8.46372 36.5463 8.57972 36.3356C8.69573 36.1249 8.75255 35.8846 8.75018 35.6147C8.75255 35.3401 8.69454 35.0962 8.57617 34.8832C8.4578 34.6701 8.29563 34.5032 8.08967 34.3825C7.8837 34.2594 7.64696 34.1978 7.37944 34.1978C7.16164 34.1954 6.94738 34.2357 6.73668 34.3185C6.52598 34.4014 6.35908 34.5103 6.23597 34.6452L5.04634 34.4499L5.42631 30.6999H9.64506V31.8008H6.51651L6.307 33.729H6.34961C6.48455 33.5704 6.67513 33.439 6.92134 33.3349C7.16755 33.2283 7.43744 33.1751 7.731 33.1751C8.17134 33.1751 8.56433 33.2792 8.90998 33.4876C9.25562 33.6935 9.52788 33.9776 9.72674 34.3398C9.9256 34.7021 10.025 35.1164 10.025 35.5827C10.025 36.0633 9.91377 36.4918 9.69123 36.8683C9.47106 37.2423 9.16448 37.5371 8.77148 37.7525C8.38086 37.9656 7.92868 38.0721 7.41495 38.0721ZM12.494 36.9783L12.4478 37.369C12.4147 37.6673 12.3555 37.9703 12.2702 38.2781C12.1874 38.5882 12.0998 38.8735 12.0075 39.1339C11.9151 39.3943 11.8406 39.5991 11.7837 39.7482H10.9173C10.9504 39.6038 10.9954 39.4073 11.0522 39.1587C11.1114 38.9102 11.1682 38.6308 11.2227 38.3207C11.2771 38.0105 11.3138 37.6957 11.3327 37.3761L11.3576 36.9783H12.494ZM16.3248 38.1112C15.74 38.1112 15.2381 37.9632 14.8191 37.6673C14.4024 37.369 14.0816 36.9393 13.8567 36.3782C13.6342 35.8147 13.5229 35.1365 13.5229 34.3434C13.5253 33.5503 13.6377 32.8756 13.8603 32.3192C14.0852 31.7605 14.406 31.3344 14.8226 31.0408C15.2417 30.7473 15.7424 30.6005 16.3248 30.6005C16.9071 30.6005 17.4078 30.7473 17.8269 31.0408C18.2459 31.3344 18.5667 31.7605 18.7892 32.3192C19.0141 32.878 19.1266 33.5527 19.1266 34.3434C19.1266 35.1388 19.0141 35.8183 18.7892 36.3817C18.5667 36.9428 18.2459 37.3713 17.8269 37.6673C17.4102 37.9632 16.9095 38.1112 16.3248 38.1112ZM16.3248 36.9996C16.7793 36.9996 17.138 36.7759 17.4007 36.3285C17.6659 35.8787 17.7985 35.217 17.7985 34.3434C17.7985 33.7657 17.7381 33.2804 17.6174 32.8874C17.4966 32.4944 17.3262 32.1985 17.106 31.9996C16.8858 31.7984 16.6254 31.6978 16.3248 31.6978C15.8726 31.6978 15.5151 31.9227 15.2523 32.3725C14.9895 32.82 14.8569 33.4769 14.8546 34.3434C14.8522 34.9234 14.9102 35.4111 15.0286 35.8065C15.1493 36.2018 15.3198 36.5001 15.54 36.7013C15.7601 36.9002 16.0217 36.9996 16.3248 36.9996ZM22.9947 38.1112C22.4099 38.1112 21.908 37.9632 21.489 37.6673C21.0723 37.369 20.7515 36.9393 20.5266 36.3782C20.3041 35.8147 20.1928 35.1365 20.1928 34.3434C20.1952 33.5503 20.3076 32.8756 20.5302 32.3192C20.7551 31.7605 21.0759 31.3344 21.4925 31.0408C21.9116 30.7473 22.4123 30.6005 22.9947 30.6005C23.5771 30.6005 24.0778 30.7473 24.4968 31.0408C24.9158 31.3344 25.2366 31.7605 25.4592 32.3192C25.6841 32.878 25.7965 33.5527 25.7965 34.3434C25.7965 35.1388 25.6841 35.8183 25.4592 36.3817C25.2366 36.9428 24.9158 37.3713 24.4968 37.6673C24.0801 37.9632 23.5794 38.1112 22.9947 38.1112ZM22.9947 36.9996C23.4492 36.9996 23.8079 36.7759 24.0707 36.3285C24.3358 35.8787 24.4684 35.217 24.4684 34.3434C24.4684 33.7657 24.408 33.2804 24.2873 32.8874C24.1665 32.4944 23.9961 32.1985 23.7759 31.9996C23.5558 31.7984 23.2953 31.6978 22.9947 31.6978C22.5425 31.6978 22.185 31.9227 21.9222 32.3725C21.6594 32.82 21.5269 33.4769 21.5245 34.3434C21.5221 34.9234 21.5801 35.4111 21.6985 35.8065C21.8192 36.2018 21.9897 36.5001 22.2099 36.7013C22.43 36.9002 22.6916 36.9996 22.9947 36.9996ZM29.6646 38.1112C29.0798 38.1112 28.5779 37.9632 28.1589 37.6673C27.7422 37.369 27.4215 36.9393 27.1966 36.3782C26.974 35.8147 26.8627 35.1365 26.8627 34.3434C26.8651 33.5503 26.9776 32.8756 27.2001 32.3192C27.425 31.7605 27.7458 31.3344 28.1625 31.0408C28.5815 30.7473 29.0822 30.6005 29.6646 30.6005C30.247 30.6005 30.7477 30.7473 31.1667 31.0408C31.5858 31.3344 31.9065 31.7605 32.1291 32.3192C32.354 32.878 32.4664 33.5527 32.4664 34.3434C32.4664 35.1388 32.354 35.8183 32.1291 36.3817C31.9065 36.9428 31.5858 37.3713 31.1667 37.6673C30.7501 37.9632 30.2493 38.1112 29.6646 38.1112ZM29.6646 36.9996C30.1191 36.9996 30.4778 36.7759 30.7406 36.3285C31.0057 35.8787 31.1383 35.217 31.1383 34.3434C31.1383 33.7657 31.0779 33.2804 30.9572 32.8874C30.8365 32.4944 30.666 32.1985 30.4458 31.9996C30.2257 31.7984 29.9653 31.6978 29.6646 31.6978C29.2124 31.6978 28.8549 31.9227 28.5922 32.3725C28.3294 32.82 28.1968 33.4769 28.1944 34.3434C28.1921 34.9234 28.2501 35.4111 28.3684 35.8065C28.4892 36.2018 28.6596 36.5001 28.8798 36.7013C29.1 36.9002 29.3616 36.9996 29.6646 36.9996Z" fill="black"/>
<path d="M7.28178 153.866C6.77042 153.866 6.31587 153.778 5.91815 153.603C5.52279 153.428 5.21029 153.184 4.98065 152.872C4.75101 152.559 4.62908 152.198 4.61488 151.789H5.95011C5.96194 151.985 6.02705 152.157 6.14542 152.304C6.26379 152.448 6.42122 152.56 6.61772 152.641C6.81422 152.721 7.03439 152.762 7.27823 152.762C7.53865 152.762 7.76947 152.717 7.9707 152.627C8.17193 152.534 8.32937 152.407 8.443 152.243C8.55664 152.08 8.61228 151.892 8.60991 151.679C8.61228 151.458 8.55546 151.264 8.43945 151.096C8.32345 150.928 8.15536 150.797 7.93519 150.702C7.71739 150.607 7.4546 150.56 7.14684 150.56H6.50408V149.544H7.14684C7.40015 149.544 7.62151 149.501 7.8109 149.413C8.00266 149.325 8.15299 149.202 8.2619 149.044C8.3708 148.883 8.42406 148.697 8.4217 148.486C8.42406 148.28 8.3779 148.101 8.2832 147.95C8.19087 147.796 8.05948 147.676 7.88903 147.591C7.72094 147.506 7.52326 147.463 7.29599 147.463C7.07345 147.463 6.86748 147.504 6.67809 147.584C6.4887 147.665 6.336 147.779 6.21999 147.929C6.10399 148.075 6.04244 148.251 6.03533 148.454H4.76758C4.77705 148.047 4.89424 147.689 5.11914 147.382C5.34641 147.072 5.64944 146.83 6.02823 146.657C6.40702 146.482 6.83197 146.394 7.30309 146.394C7.78841 146.394 8.20981 146.486 8.56729 146.668C8.92714 146.848 9.20531 147.09 9.40181 147.396C9.59831 147.701 9.69656 148.039 9.69656 148.408C9.69892 148.818 9.57818 149.161 9.33434 149.438C9.09286 149.715 8.77563 149.896 8.38263 149.981V150.038C8.894 150.109 9.28581 150.298 9.55806 150.606C9.83268 150.911 9.96881 151.291 9.96644 151.746C9.96644 152.153 9.85044 152.518 9.61843 152.84C9.38879 153.159 9.07156 153.41 8.66673 153.593C8.26426 153.775 7.80262 153.866 7.28178 153.866ZM12.494 152.772L12.4478 153.163C12.4147 153.461 12.3555 153.764 12.2702 154.072C12.1874 154.382 12.0998 154.667 12.0075 154.928C11.9151 155.188 11.8406 155.393 11.7837 155.542H10.9173C10.9504 155.398 10.9954 155.201 11.0522 154.953C11.1114 154.704 11.1682 154.425 11.2227 154.115C11.2771 153.804 11.3138 153.49 11.3327 153.17L11.3576 152.772H12.494ZM16.3248 153.905C15.74 153.905 15.2381 153.757 14.8191 153.461C14.4024 153.163 14.0816 152.733 13.8567 152.172C13.6342 151.609 13.5229 150.93 13.5229 150.137C13.5253 149.344 13.6377 148.67 13.8603 148.113C14.0852 147.554 14.406 147.128 14.8226 146.835C15.2417 146.541 15.7424 146.394 16.3248 146.394C16.9071 146.394 17.4078 146.541 17.8269 146.835C18.2459 147.128 18.5667 147.554 18.7892 148.113C19.0141 148.672 19.1266 149.347 19.1266 150.137C19.1266 150.933 19.0141 151.612 18.7892 152.176C18.5667 152.737 18.2459 153.165 17.8269 153.461C17.4102 153.757 16.9095 153.905 16.3248 153.905ZM16.3248 152.794C16.7793 152.794 17.138 152.57 17.4007 152.122C17.6659 151.673 17.7985 151.011 17.7985 150.137C17.7985 149.56 17.7381 149.074 17.6174 148.681C17.4966 148.288 17.3262 147.992 17.106 147.794C16.8858 147.592 16.6254 147.492 16.3248 147.492C15.8726 147.492 15.5151 147.717 15.2523 148.166C14.9895 148.614 14.8569 149.271 14.8546 150.137C14.8522 150.717 14.9102 151.205 15.0286 151.6C15.1493 151.996 15.3198 152.294 15.54 152.495C15.7601 152.694 16.0217 152.794 16.3248 152.794ZM22.9947 153.905C22.4099 153.905 21.908 153.757 21.489 153.461C21.0723 153.163 20.7515 152.733 20.5266 152.172C20.3041 151.609 20.1928 150.93 20.1928 150.137C20.1952 149.344 20.3076 148.67 20.5302 148.113C20.7551 147.554 21.0759 147.128 21.4925 146.835C21.9116 146.541 22.4123 146.394 22.9947 146.394C23.5771 146.394 24.0778 146.541 24.4968 146.835C24.9158 147.128 25.2366 147.554 25.4592 148.113C25.6841 148.672 25.7965 149.347 25.7965 150.137C25.7965 150.933 25.6841 151.612 25.4592 152.176C25.2366 152.737 24.9158 153.165 24.4968 153.461C24.0801 153.757 23.5794 153.905 22.9947 153.905ZM22.9947 152.794C23.4492 152.794 23.8079 152.57 24.0707 152.122C24.3358 151.673 24.4684 151.011 24.4684 150.137C24.4684 149.56 24.408 149.074 24.2873 148.681C24.1665 148.288 23.9961 147.992 23.7759 147.794C23.5558 147.592 23.2953 147.492 22.9947 147.492C22.5425 147.492 22.185 147.717 21.9222 148.166C21.6594 148.614 21.5269 149.271 21.5245 150.137C21.5221 150.717 21.5801 151.205 21.6985 151.6C21.8192 151.996 21.9897 152.294 22.2099 152.495C22.43 152.694 22.6916 152.794 22.9947 152.794ZM29.6646 153.905C29.0798 153.905 28.5779 153.757 28.1589 153.461C27.7422 153.163 27.4215 152.733 27.1966 152.172C26.974 151.609 26.8627 150.93 26.8627 150.137C26.8651 149.344 26.9776 148.67 27.2001 148.113C27.425 147.554 27.7458 147.128 28.1625 146.835C28.5815 146.541 29.0822 146.394 29.6646 146.394C30.247 146.394 30.7477 146.541 31.1667 146.835C31.5858 147.128 31.9065 147.554 32.1291 148.113C32.354 148.672 32.4664 149.347 32.4664 150.137C32.4664 150.933 32.354 151.612 32.1291 152.176C31.9065 152.737 31.5858 153.165 31.1667 153.461C30.7501 153.757 30.2493 153.905 29.6646 153.905ZM29.6646 152.794C30.1191 152.794 30.4778 152.57 30.7406 152.122C31.0057 151.673 31.1383 151.011 31.1383 150.137C31.1383 149.56 31.0779 149.074 30.9572 148.681C30.8365 148.288 30.666 147.992 30.4458 147.794C30.2257 147.592 29.9653 147.492 29.6646 147.492C29.2124 147.492 28.8549 147.717 28.5922 148.166C28.3294 148.614 28.1968 149.271 28.1944 150.137C28.1921 150.717 28.2501 151.205 28.3684 151.6C28.4892 151.996 28.6596 152.294 28.8798 152.495C29.1 152.694 29.3616 152.794 29.6646 152.794Z" fill="black"/>
<path d="M9.52433 259.368V266.641H8.20685V260.65H8.16424L6.46325 261.737V260.529L8.27077 259.368H9.52433ZM12.494 265.646L12.4478 266.037C12.4147 266.335 12.3555 266.638 12.2702 266.946C12.1874 267.256 12.0998 267.541 12.0075 267.802C11.9151 268.062 11.8406 268.267 11.7837 268.416H10.9173C10.9504 268.272 10.9954 268.075 11.0522 267.827C11.1114 267.578 11.1682 267.299 11.2227 266.989C11.2771 266.679 11.3138 266.364 11.3327 266.044L11.3576 265.646H12.494ZM16.3248 266.779C15.74 266.779 15.2381 266.631 14.8191 266.335C14.4024 266.037 14.0816 265.607 13.8567 265.046C13.6342 264.483 13.5229 263.804 13.5229 263.011C13.5253 262.218 13.6377 261.544 13.8603 260.987C14.0852 260.429 14.406 260.002 14.8226 259.709C15.2417 259.415 15.7424 259.268 16.3248 259.268C16.9071 259.268 17.4078 259.415 17.8269 259.709C18.2459 260.002 18.5667 260.429 18.7892 260.987C19.0141 261.546 19.1266 262.221 19.1266 263.011C19.1266 263.807 19.0141 264.486 18.7892 265.05C18.5667 265.611 18.2459 266.039 17.8269 266.335C17.4102 266.631 16.9095 266.779 16.3248 266.779ZM16.3248 265.668C16.7793 265.668 17.138 265.444 17.4007 264.996C17.6659 264.547 17.7985 263.885 17.7985 263.011C17.7985 262.434 17.7381 261.948 17.6174 261.555C17.4966 261.162 17.3262 260.866 17.106 260.668C16.8858 260.466 16.6254 260.366 16.3248 260.366C15.8726 260.366 15.5151 260.591 15.2523 261.04C14.9895 261.488 14.8569 262.145 14.8546 263.011C14.8522 263.591 14.9102 264.079 15.0286 264.474C15.1493 264.87 15.3198 265.168 15.54 265.369C15.7601 265.568 16.0217 265.668 16.3248 265.668ZM22.9947 266.779C22.4099 266.779 21.908 266.631 21.489 266.335C21.0723 266.037 20.7515 265.607 20.5266 265.046C20.3041 264.483 20.1928 263.804 20.1928 263.011C20.1952 262.218 20.3076 261.544 20.5302 260.987C20.7551 260.429 21.0759 260.002 21.4925 259.709C21.9116 259.415 22.4123 259.268 22.9947 259.268C23.5771 259.268 24.0778 259.415 24.4968 259.709C24.9158 260.002 25.2366 260.429 25.4592 260.987C25.6841 261.546 25.7965 262.221 25.7965 263.011C25.7965 263.807 25.6841 264.486 25.4592 265.05C25.2366 265.611 24.9158 266.039 24.4968 266.335C24.0801 266.631 23.5794 266.779 22.9947 266.779ZM22.9947 265.668C23.4492 265.668 23.8079 265.444 24.0707 264.996C24.3358 264.547 24.4684 263.885 24.4684 263.011C24.4684 262.434 24.408 261.948 24.2873 261.555C24.1665 261.162 23.9961 260.866 23.7759 260.668C23.5558 260.466 23.2953 260.366 22.9947 260.366C22.5425 260.366 22.185 260.591 21.9222 261.04C21.6594 261.488 21.5269 262.145 21.5245 263.011C21.5221 263.591 21.5801 264.079 21.6985 264.474C21.8192 264.87 21.9897 265.168 22.2099 265.369C22.43 265.568 22.6916 265.668 22.9947 265.668ZM29.6646 266.779C29.0798 266.779 28.5779 266.631 28.1589 266.335C27.7422 266.037 27.4215 265.607 27.1966 265.046C26.974 264.483 26.8627 263.804 26.8627 263.011C26.8651 262.218 26.9776 261.544 27.2001 260.987C27.425 260.429 27.7458 260.002 28.1625 259.709C28.5815 259.415 29.0822 259.268 29.6646 259.268C30.247 259.268 30.7477 259.415 31.1667 259.709C31.5858 260.002 31.9065 260.429 32.1291 260.987C32.354 261.546 32.4664 262.221 32.4664 263.011C32.4664 263.807 32.354 264.486 32.1291 265.05C31.9065 265.611 31.5858 266.039 31.1667 266.335C30.7501 266.631 30.2493 266.779 29.6646 266.779ZM29.6646 265.668C30.1191 265.668 30.4778 265.444 30.7406 264.996C31.0057 264.547 31.1383 263.885 31.1383 263.011C31.1383 262.434 31.0779 261.948 30.9572 261.555C30.8365 261.162 30.666 260.866 30.4458 260.668C30.2257 260.466 29.9653 260.366 29.6646 260.366C29.2124 260.366 28.8549 260.591 28.5922 261.04C28.3294 261.488 28.1968 262.145 28.1944 263.011C28.1921 263.591 28.2501 264.079 28.3684 264.474C28.4892 264.87 28.6596 265.168 28.8798 265.369C29.1 265.568 29.3616 265.668 29.6646 265.668Z" fill="black"/>
<path d="M4.75959 210.204V209.252L7.28445 206.777C7.52592 206.533 7.72715 206.316 7.88814 206.127C8.04912 205.938 8.16986 205.754 8.25036 205.576C8.33085 205.399 8.37109 205.21 8.37109 205.008C8.37109 204.779 8.31901 204.582 8.21484 204.419C8.11068 204.253 7.96745 204.125 7.78516 204.035C7.60286 203.945 7.39571 203.9 7.16371 203.9C6.9246 203.9 6.71508 203.95 6.53516 204.049C6.35523 204.147 6.21555 204.285 6.11612 204.465C6.01906 204.645 5.97053 204.859 5.97053 205.108H4.71697C4.71697 204.646 4.82232 204.245 5.03303 203.904C5.24373 203.563 5.53374 203.299 5.90305 203.112C6.27474 202.925 6.70088 202.831 7.18146 202.831C7.66915 202.831 8.09766 202.923 8.46697 203.105C8.83629 203.287 9.12275 203.537 9.32635 203.854C9.53232 204.171 9.6353 204.534 9.6353 204.941C9.6353 205.213 9.58322 205.481 9.47905 205.743C9.37488 206.006 9.19141 206.297 8.92862 206.617C8.66821 206.937 8.30244 207.324 7.83132 207.778L6.57777 209.053V209.103H9.74538V210.204H4.75959ZM12.494 209.209L12.4478 209.6C12.4147 209.898 12.3555 210.201 12.2702 210.509C12.1874 210.819 12.0998 211.104 12.0075 211.365C11.9151 211.625 11.8406 211.83 11.7837 211.979H10.9173C10.9504 211.835 10.9954 211.638 11.0522 211.39C11.1114 211.141 11.1682 210.862 11.2227 210.552C11.2771 210.241 11.3138 209.927 11.3327 209.607L11.3576 209.209H12.494ZM16.3248 210.342C15.74 210.342 15.2381 210.194 14.8191 209.898C14.4024 209.6 14.0816 209.17 13.8567 208.609C13.6342 208.046 13.5229 207.367 13.5229 206.574C13.5253 205.781 13.6377 205.107 13.8603 204.55C14.0852 203.991 14.406 203.565 14.8226 203.272C15.2417 202.978 15.7424 202.831 16.3248 202.831C16.9071 202.831 17.4078 202.978 17.8269 203.272C18.2459 203.565 18.5667 203.991 18.7892 204.55C19.0141 205.109 19.1266 205.784 19.1266 206.574C19.1266 207.37 19.0141 208.049 18.7892 208.613C18.5667 209.174 18.2459 209.602 17.8269 209.898C17.4102 210.194 16.9095 210.342 16.3248 210.342ZM16.3248 209.231C16.7793 209.231 17.138 209.007 17.4007 208.559C17.6659 208.11 17.7985 207.448 17.7985 206.574C17.7985 205.997 17.7381 205.511 17.6174 205.118C17.4966 204.725 17.3262 204.429 17.106 204.231C16.8858 204.029 16.6254 203.929 16.3248 203.929C15.8726 203.929 15.5151 204.154 15.2523 204.603C14.9895 205.051 14.8569 205.708 14.8546 206.574C14.8522 207.154 14.9102 207.642 15.0286 208.037C15.1493 208.433 15.3198 208.731 15.54 208.932C15.7601 209.131 16.0217 209.231 16.3248 209.231ZM22.9947 210.342C22.4099 210.342 21.908 210.194 21.489 209.898C21.0723 209.6 20.7515 209.17 20.5266 208.609C20.3041 208.046 20.1928 207.367 20.1928 206.574C20.1952 205.781 20.3076 205.107 20.5302 204.55C20.7551 203.991 21.0759 203.565 21.4925 203.272C21.9116 202.978 22.4123 202.831 22.9947 202.831C23.5771 202.831 24.0778 202.978 24.4968 203.272C24.9158 203.565 25.2366 203.991 25.4592 204.55C25.6841 205.109 25.7965 205.784 25.7965 206.574C25.7965 207.37 25.6841 208.049 25.4592 208.613C25.2366 209.174 24.9158 209.602 24.4968 209.898C24.0801 210.194 23.5794 210.342 22.9947 210.342ZM22.9947 209.231C23.4492 209.231 23.8079 209.007 24.0707 208.559C24.3358 208.11 24.4684 207.448 24.4684 206.574C24.4684 205.997 24.408 205.511 24.2873 205.118C24.1665 204.725 23.9961 204.429 23.7759 204.231C23.5558 204.029 23.2953 203.929 22.9947 203.929C22.5425 203.929 22.185 204.154 21.9222 204.603C21.6594 205.051 21.5269 205.708 21.5245 206.574C21.5221 207.154 21.5801 207.642 21.6985 208.037C21.8192 208.433 21.9897 208.731 22.2099 208.932C22.43 209.131 22.6916 209.231 22.9947 209.231ZM29.6646 210.342C29.0798 210.342 28.5779 210.194 28.1589 209.898C27.7422 209.6 27.4215 209.17 27.1966 208.609C26.974 208.046 26.8627 207.367 26.8627 206.574C26.8651 205.781 26.9776 205.107 27.2001 204.55C27.425 203.991 27.7458 203.565 28.1625 203.272C28.5815 202.978 29.0822 202.831 29.6646 202.831C30.247 202.831 30.7477 202.978 31.1667 203.272C31.5858 203.565 31.9065 203.991 32.1291 204.55C32.354 205.109 32.4664 205.784 32.4664 206.574C32.4664 207.37 32.354 208.049 32.1291 208.613C31.9065 209.174 31.5858 209.602 31.1667 209.898C30.7501 210.194 30.2493 210.342 29.6646 210.342ZM29.6646 209.231C30.1191 209.231 30.4778 209.007 30.7406 208.559C31.0057 208.11 31.1383 207.448 31.1383 206.574C31.1383 205.997 31.0779 205.511 30.9572 205.118C30.8365 204.725 30.666 204.429 30.4458 204.231C30.2257 204.029 29.9653 203.929 29.6646 203.929C29.2124 203.929 28.8549 204.154 28.5922 204.603C28.3294 205.051 28.1968 205.708 28.1944 206.574C28.1921 207.154 28.2501 207.642 28.3684 208.037C28.4892 208.433 28.6596 208.731 28.8798 208.932C29.1 209.131 29.3616 209.231 29.6646 209.231Z" fill="black"/>
<path d="M4.38406 95.007V93.9594L7.46999 89.0837H8.34357V90.5752H7.8109L5.73349 93.8671V93.9239H10.041V95.007H4.38406ZM7.85352 96.3564V94.6874L7.86772 94.2187V89.0837H9.11062V96.3564H7.85352ZM12.494 95.3621L12.4478 95.7528C12.4147 96.051 12.3555 96.3541 12.2702 96.6618C12.1874 96.972 12.0998 97.2573 12.0075 97.5177C11.9151 97.7781 11.8406 97.9829 11.7837 98.132H10.9173C10.9504 97.9876 10.9954 97.7911 11.0522 97.5425C11.1114 97.2939 11.1682 97.0146 11.2227 96.7045C11.2771 96.3943 11.3138 96.0795 11.3327 95.7599L11.3576 95.3621H12.494ZM16.3248 96.4949C15.74 96.4949 15.2381 96.347 14.8191 96.051C14.4024 95.7528 14.0816 95.3231 13.8567 94.762C13.6342 94.1985 13.5229 93.5203 13.5229 92.7272C13.5253 91.9341 13.6377 91.2594 13.8603 90.703C14.0852 90.1443 14.406 89.7182 14.8226 89.4246C15.2417 89.1311 15.7424 88.9843 16.3248 88.9843C16.9071 88.9843 17.4078 89.1311 17.8269 89.4246C18.2459 89.7182 18.5667 90.1443 18.7892 90.703C19.0141 91.2617 19.1266 91.9365 19.1266 92.7272C19.1266 93.5226 19.0141 94.2021 18.7892 94.7655C18.5667 95.3266 18.2459 95.7551 17.8269 96.051C17.4102 96.347 16.9095 96.4949 16.3248 96.4949ZM16.3248 95.3834C16.7793 95.3834 17.138 95.1597 17.4007 94.7123C17.6659 94.2625 17.7985 93.6008 17.7985 92.7272C17.7985 92.1495 17.7381 91.6642 17.6174 91.2712C17.4966 90.8782 17.3262 90.5823 17.106 90.3834C16.8858 90.1822 16.6254 90.0816 16.3248 90.0816C15.8726 90.0816 15.5151 90.3065 15.2523 90.7563C14.9895 91.2037 14.8569 91.8607 14.8546 92.7272C14.8522 93.3072 14.9102 93.7949 15.0286 94.1903C15.1493 94.5856 15.3198 94.8839 15.54 95.0851C15.7601 95.284 16.0217 95.3834 16.3248 95.3834ZM22.9947 96.4949C22.4099 96.4949 21.908 96.347 21.489 96.051C21.0723 95.7528 20.7515 95.3231 20.5266 94.762C20.3041 94.1985 20.1928 93.5203 20.1928 92.7272C20.1952 91.9341 20.3076 91.2594 20.5302 90.703C20.7551 90.1443 21.0759 89.7182 21.4925 89.4246C21.9116 89.1311 22.4123 88.9843 22.9947 88.9843C23.5771 88.9843 24.0778 89.1311 24.4968 89.4246C24.9158 89.7182 25.2366 90.1443 25.4592 90.703C25.6841 91.2617 25.7965 91.9365 25.7965 92.7272C25.7965 93.5226 25.6841 94.2021 25.4592 94.7655C25.2366 95.3266 24.9158 95.7551 24.4968 96.051C24.0801 96.347 23.5794 96.4949 22.9947 96.4949ZM22.9947 95.3834C23.4492 95.3834 23.8079 95.1597 24.0707 94.7123C24.3358 94.2625 24.4684 93.6008 24.4684 92.7272C24.4684 92.1495 24.408 91.6642 24.2873 91.2712C24.1665 90.8782 23.9961 90.5823 23.7759 90.3834C23.5558 90.1822 23.2953 90.0816 22.9947 90.0816C22.5425 90.0816 22.185 90.3065 21.9222 90.7563C21.6594 91.2037 21.5269 91.8607 21.5245 92.7272C21.5221 93.3072 21.5801 93.7949 21.6985 94.1903C21.8192 94.5856 21.9897 94.8839 22.2099 95.0851C22.43 95.284 22.6916 95.3834 22.9947 95.3834ZM29.6646 96.4949C29.0798 96.4949 28.5779 96.347 28.1589 96.051C27.7422 95.7528 27.4215 95.3231 27.1966 94.762C26.974 94.1985 26.8627 93.5203 26.8627 92.7272C26.8651 91.9341 26.9776 91.2594 27.2001 90.703C27.425 90.1443 27.7458 89.7182 28.1625 89.4246C28.5815 89.1311 29.0822 88.9843 29.6646 88.9843C30.247 88.9843 30.7477 89.1311 31.1667 89.4246C31.5858 89.7182 31.9065 90.1443 32.1291 90.703C32.354 91.2617 32.4664 91.9365 32.4664 92.7272C32.4664 93.5226 32.354 94.2021 32.1291 94.7655C31.9065 95.3266 31.5858 95.7551 31.1667 96.051C30.7501 96.347 30.2493 96.4949 29.6646 96.4949ZM29.6646 95.3834C30.1191 95.3834 30.4778 95.1597 30.7406 94.7123C31.0057 94.2625 31.1383 93.6008 31.1383 92.7272C31.1383 92.1495 31.0779 91.6642 30.9572 91.2712C30.8365 90.8782 30.666 90.5823 30.4458 90.3834C30.2257 90.1822 29.9653 90.0816 29.6646 90.0816C29.2124 90.0816 28.8549 90.3065 28.5922 90.7563C28.3294 91.2037 28.1968 91.8607 28.1944 92.7272C28.1921 93.3072 28.2501 93.7949 28.3684 94.1903C28.4892 94.5856 28.6596 94.8839 28.8798 95.0851C29.1 95.284 29.3616 95.3834 29.6646 95.3834Z" fill="black"/>
<path d="M29.6646 328.082C29.0798 328.082 28.5779 327.934 28.1589 327.638C27.7422 327.34 27.4215 326.91 27.1966 326.349C26.974 325.785 26.8627 325.107 26.8627 324.314C26.8651 323.521 26.9776 322.846 27.2001 322.29C27.425 321.731 27.7458 321.305 28.1625 321.012C28.5815 320.718 29.0822 320.571 29.6646 320.571C30.247 320.571 30.7477 320.718 31.1667 321.012C31.5858 321.305 31.9065 321.731 32.1291 322.29C32.354 322.849 32.4664 323.523 32.4664 324.314C32.4664 325.11 32.354 325.789 32.1291 326.352C31.9065 326.914 31.5858 327.342 31.1667 327.638C30.7501 327.934 30.2493 328.082 29.6646 328.082ZM29.6646 326.97C30.1191 326.97 30.4778 326.747 30.7406 326.299C31.0057 325.849 31.1383 325.188 31.1383 324.314C31.1383 323.736 31.0779 323.251 30.9572 322.858C30.8365 322.465 30.666 322.169 30.4458 321.97C30.2257 321.769 29.9653 321.669 29.6646 321.669C29.2124 321.669 28.8549 321.893 28.5922 322.343C28.3294 322.791 28.1968 323.448 28.1944 324.314C28.1921 324.894 28.2501 325.382 28.3684 325.777C28.4892 326.173 28.6596 326.471 28.8798 326.672C29.1 326.871 29.3616 326.97 29.6646 326.97Z" fill="black"/>
<path d="M102.028 345V344.048L104.553 341.573C104.794 341.329 104.995 341.113 105.156 340.923C105.317 340.734 105.438 340.55 105.519 340.373C105.599 340.195 105.639 340.006 105.639 339.805C105.639 339.575 105.587 339.379 105.483 339.215C105.379 339.049 105.236 338.922 105.053 338.832C104.871 338.742 104.664 338.697 104.432 338.697C104.193 338.697 103.983 338.746 103.803 338.846C103.624 338.943 103.484 339.081 103.384 339.261C103.287 339.441 103.239 339.656 103.239 339.904H101.985C101.985 339.442 102.091 339.041 102.301 338.7C102.512 338.359 102.802 338.095 103.171 337.908C103.543 337.721 103.969 337.628 104.45 337.628C104.937 337.628 105.366 337.719 105.735 337.901C106.105 338.084 106.391 338.333 106.595 338.651C106.801 338.968 106.904 339.33 106.904 339.737C106.904 340.009 106.852 340.277 106.747 340.54C106.643 340.803 106.46 341.094 106.197 341.413C105.937 341.733 105.571 342.12 105.1 342.575L103.846 343.849V343.899H107.014V345H102.028ZM110.927 345.138C110.342 345.138 109.84 344.991 109.421 344.695C109.005 344.396 108.684 343.967 108.459 343.406C108.236 342.842 108.125 342.164 108.125 341.371C108.128 340.578 108.24 339.903 108.463 339.347C108.687 338.788 109.008 338.362 109.425 338.068C109.844 337.775 110.345 337.628 110.927 337.628C111.509 337.628 112.01 337.775 112.429 338.068C112.848 338.362 113.169 338.788 113.392 339.347C113.616 339.905 113.729 340.58 113.729 341.371C113.729 342.166 113.616 342.846 113.392 343.409C113.169 343.97 112.848 344.399 112.429 344.695C112.013 344.991 111.512 345.138 110.927 345.138ZM110.927 344.027C111.382 344.027 111.74 343.803 112.003 343.356C112.268 342.906 112.401 342.244 112.401 341.371C112.401 340.793 112.34 340.308 112.22 339.915C112.099 339.522 111.928 339.226 111.708 339.027C111.488 338.826 111.228 338.725 110.927 338.725C110.475 338.725 110.117 338.95 109.855 339.4C109.592 339.847 109.459 340.504 109.457 341.371C109.455 341.951 109.513 342.438 109.631 342.834C109.752 343.229 109.922 343.527 110.142 343.729C110.362 343.928 110.624 344.027 110.927 344.027ZM117.867 337.727V345H116.549V339.009H116.507L114.806 340.096V338.888L116.613 337.727H117.867ZM119.98 345L123.073 338.878V338.828H119.483V337.727H124.436V338.853L121.347 345H119.98Z" fill="black"/>
<path d="M170.891 345V344.048L173.416 341.573C173.658 341.329 173.859 341.113 174.02 340.923C174.181 340.734 174.302 340.55 174.382 340.373C174.463 340.195 174.503 340.006 174.503 339.805C174.503 339.575 174.451 339.379 174.347 339.215C174.242 339.049 174.099 338.922 173.917 338.832C173.735 338.742 173.527 338.697 173.295 338.697C173.056 338.697 172.847 338.746 172.667 338.846C172.487 338.943 172.347 339.081 172.248 339.261C172.151 339.441 172.102 339.656 172.102 339.904H170.849C170.849 339.442 170.954 339.041 171.165 338.7C171.375 338.359 171.665 338.095 172.035 337.908C172.406 337.721 172.833 337.628 173.313 337.628C173.801 337.628 174.229 337.719 174.599 337.901C174.968 338.084 175.254 338.333 175.458 338.651C175.664 338.968 175.767 339.33 175.767 339.737C175.767 340.009 175.715 340.277 175.611 340.54C175.507 340.803 175.323 341.094 175.06 341.413C174.8 341.733 174.434 342.12 173.963 342.575L172.709 343.849V343.899H175.877V345H170.891ZM179.79 345.138C179.206 345.138 178.704 344.991 178.285 344.695C177.868 344.396 177.547 343.967 177.322 343.406C177.1 342.842 176.989 342.164 176.989 341.371C176.991 340.578 177.103 339.903 177.326 339.347C177.551 338.788 177.872 338.362 178.288 338.068C178.707 337.775 179.208 337.628 179.79 337.628C180.373 337.628 180.874 337.775 181.293 338.068C181.712 338.362 182.032 338.788 182.255 339.347C182.48 339.905 182.592 340.58 182.592 341.371C182.592 342.166 182.48 342.846 182.255 343.409C182.032 343.97 181.712 344.399 181.293 344.695C180.876 344.991 180.375 345.138 179.79 345.138ZM179.79 344.027C180.245 344.027 180.604 343.803 180.866 343.356C181.132 342.906 181.264 342.244 181.264 341.371C181.264 340.793 181.204 340.308 181.083 339.915C180.962 339.522 180.792 339.226 180.572 339.027C180.352 338.826 180.091 338.725 179.79 338.725C179.338 338.725 178.981 338.95 178.718 339.4C178.455 339.847 178.323 340.504 178.32 341.371C178.318 341.951 178.376 342.438 178.494 342.834C178.615 343.229 178.785 343.527 179.006 343.729C179.226 343.928 179.487 344.027 179.79 344.027ZM186.73 337.727V345H185.413V339.009H185.37L183.669 340.096V338.888L185.477 337.727H186.73ZM191.162 345.099C190.634 345.099 190.165 345.011 189.756 344.833C189.349 344.656 189.029 344.413 188.797 344.105C188.567 343.795 188.454 343.443 188.456 343.05C188.454 342.745 188.52 342.464 188.655 342.209C188.79 341.953 188.972 341.74 189.202 341.57C189.434 341.397 189.692 341.287 189.976 341.239V341.19C189.602 341.107 189.299 340.916 189.067 340.618C188.837 340.317 188.724 339.97 188.726 339.577C188.724 339.203 188.828 338.87 189.039 338.576C189.249 338.282 189.538 338.052 189.905 337.884C190.272 337.713 190.691 337.628 191.162 337.628C191.628 337.628 192.044 337.713 192.409 337.884C192.775 338.052 193.064 338.282 193.275 338.576C193.488 338.87 193.595 339.203 193.595 339.577C193.595 339.97 193.477 340.317 193.243 340.618C193.011 340.916 192.712 341.107 192.345 341.19V341.239C192.629 341.287 192.884 341.397 193.112 341.57C193.341 341.74 193.524 341.953 193.659 342.209C193.796 342.464 193.865 342.745 193.865 343.05C193.865 343.443 193.749 343.795 193.516 344.105C193.284 344.413 192.965 344.656 192.558 344.833C192.153 345.011 191.688 345.099 191.162 345.099ZM191.162 344.084C191.434 344.084 191.671 344.038 191.872 343.945C192.074 343.851 192.23 343.718 192.341 343.548C192.452 343.377 192.509 343.181 192.512 342.958C192.509 342.726 192.449 342.521 192.33 342.344C192.214 342.164 192.055 342.023 191.851 341.921C191.65 341.819 191.42 341.768 191.162 341.768C190.902 341.768 190.67 341.819 190.466 341.921C190.262 342.023 190.101 342.164 189.983 342.344C189.867 342.521 189.81 342.726 189.813 342.958C189.81 343.181 189.865 343.377 189.976 343.548C190.087 343.716 190.244 343.847 190.445 343.942C190.648 344.036 190.887 344.084 191.162 344.084ZM191.162 340.771C191.385 340.771 191.581 340.726 191.752 340.636C191.924 340.546 192.061 340.42 192.16 340.259C192.259 340.098 192.31 339.912 192.313 339.702C192.31 339.493 192.261 339.311 192.164 339.155C192.066 338.996 191.932 338.874 191.759 338.789C191.586 338.701 191.387 338.658 191.162 338.658C190.932 338.658 190.73 338.701 190.555 338.789C190.382 338.874 190.247 338.996 190.15 339.155C190.055 339.311 190.009 339.493 190.012 339.702C190.009 339.912 190.057 340.098 190.154 340.259C190.253 340.418 190.389 340.543 190.562 340.636C190.737 340.726 190.937 340.771 191.162 340.771Z" fill="black"/>
<path d="M240.311 345V344.048L242.836 341.573C243.078 341.329 243.279 341.113 243.44 340.923C243.601 340.734 243.722 340.55 243.802 340.373C243.883 340.195 243.923 340.006 243.923 339.805C243.923 339.575 243.871 339.379 243.767 339.215C243.662 339.049 243.519 338.922 243.337 338.832C243.155 338.742 242.948 338.697 242.715 338.697C242.476 338.697 242.267 338.746 242.087 338.846C241.907 338.943 241.767 339.081 241.668 339.261C241.571 339.441 241.522 339.656 241.522 339.904H240.269C240.269 339.442 240.374 339.041 240.585 338.7C240.796 338.359 241.086 338.095 241.455 337.908C241.827 337.721 242.253 337.628 242.733 337.628C243.221 337.628 243.649 337.719 244.019 337.901C244.388 338.084 244.675 338.333 244.878 338.651C245.084 338.968 245.187 339.33 245.187 339.737C245.187 340.009 245.135 340.277 245.031 340.54C244.927 340.803 244.743 341.094 244.48 341.413C244.22 341.733 243.854 342.12 243.383 342.575L242.13 343.849V343.899H245.297V345H240.311ZM249.211 345.138C248.626 345.138 248.124 344.991 247.705 344.695C247.288 344.396 246.967 343.967 246.742 343.406C246.52 342.842 246.409 342.164 246.409 341.371C246.411 340.578 246.523 339.903 246.746 339.347C246.971 338.788 247.292 338.362 247.708 338.068C248.127 337.775 248.628 337.628 249.211 337.628C249.793 337.628 250.294 337.775 250.713 338.068C251.132 338.362 251.452 338.788 251.675 339.347C251.9 339.905 252.012 340.58 252.012 341.371C252.012 342.166 251.9 342.846 251.675 343.409C251.452 343.97 251.132 344.399 250.713 344.695C250.296 344.991 249.795 345.138 249.211 345.138ZM249.211 344.027C249.665 344.027 250.024 343.803 250.287 343.356C250.552 342.906 250.684 342.244 250.684 341.371C250.684 340.793 250.624 340.308 250.503 339.915C250.382 339.522 250.212 339.226 249.992 339.027C249.772 338.826 249.511 338.725 249.211 338.725C248.758 338.725 248.401 338.95 248.138 339.4C247.875 339.847 247.743 340.504 247.74 341.371C247.738 341.951 247.796 342.438 247.914 342.834C248.035 343.229 248.206 343.527 248.426 343.729C248.646 343.928 248.907 344.027 249.211 344.027ZM256.15 337.727V345H254.833V339.009H254.79L253.089 340.096V338.888L254.897 337.727H256.15ZM260.522 337.628C260.87 337.63 261.208 337.692 261.537 337.812C261.869 337.931 262.167 338.125 262.432 338.395C262.697 338.662 262.908 339.021 263.064 339.471C263.221 339.921 263.299 340.477 263.299 341.14C263.301 341.765 263.235 342.324 263.1 342.816C262.967 343.306 262.777 343.72 262.528 344.059C262.28 344.397 261.98 344.656 261.63 344.833C261.279 345.011 260.885 345.099 260.447 345.099C259.988 345.099 259.581 345.009 259.226 344.83C258.873 344.65 258.588 344.403 258.37 344.091C258.152 343.778 258.018 343.421 257.969 343.018H259.265C259.331 343.307 259.466 343.537 259.67 343.707C259.875 343.875 260.135 343.96 260.447 343.96C260.951 343.96 261.34 343.741 261.612 343.303C261.884 342.865 262.02 342.256 262.02 341.477H261.971C261.855 341.686 261.704 341.866 261.52 342.017C261.335 342.166 261.125 342.281 260.891 342.362C260.659 342.442 260.413 342.482 260.152 342.482C259.726 342.482 259.343 342.38 259.002 342.177C258.663 341.973 258.395 341.694 258.196 341.339C257.999 340.984 257.9 340.578 257.897 340.121C257.897 339.647 258.006 339.222 258.224 338.846C258.444 338.467 258.751 338.169 259.144 337.951C259.537 337.731 259.996 337.623 260.522 337.628ZM260.525 338.693C260.27 338.693 260.039 338.756 259.833 338.881C259.629 339.004 259.468 339.173 259.35 339.386C259.234 339.596 259.176 339.832 259.176 340.092C259.178 340.35 259.236 340.585 259.35 340.795C259.466 341.006 259.623 341.173 259.822 341.296C260.023 341.419 260.253 341.481 260.511 341.481C260.703 341.481 260.882 341.444 261.047 341.371C261.213 341.297 261.357 341.196 261.481 341.065C261.606 340.933 261.703 340.782 261.772 340.614C261.843 340.446 261.877 340.269 261.875 340.082C261.875 339.833 261.816 339.603 261.697 339.393C261.581 339.182 261.421 339.013 261.218 338.885C261.017 338.757 260.786 338.693 260.525 338.693Z" fill="black"/>
<path d="M304.61 345V344.048L307.135 341.573C307.377 341.329 307.578 341.113 307.739 340.923C307.9 340.734 308.021 340.55 308.101 340.373C308.182 340.195 308.222 340.006 308.222 339.805C308.222 339.575 308.17 339.379 308.066 339.215C307.962 339.049 307.818 338.922 307.636 338.832C307.454 338.742 307.247 338.697 307.015 338.697C306.775 338.697 306.566 338.746 306.386 338.846C306.206 338.943 306.066 339.081 305.967 339.261C305.87 339.441 305.821 339.656 305.821 339.904H304.568C304.568 339.442 304.673 339.041 304.884 338.7C305.095 338.359 305.385 338.095 305.754 337.908C306.126 337.721 306.552 337.628 307.032 337.628C307.52 337.628 307.949 337.719 308.318 337.901C308.687 338.084 308.974 338.333 309.177 338.651C309.383 338.968 309.486 339.33 309.486 339.737C309.486 340.009 309.434 340.277 309.33 340.54C309.226 340.803 309.042 341.094 308.78 341.413C308.519 341.733 308.153 342.12 307.682 342.575L306.429 343.849V343.899H309.596V345H304.61ZM313.51 345.138C312.925 345.138 312.423 344.991 312.004 344.695C311.587 344.396 311.266 343.967 311.042 343.406C310.819 342.842 310.708 342.164 310.708 341.371C310.71 340.578 310.823 339.903 311.045 339.347C311.27 338.788 311.591 338.362 312.007 338.068C312.427 337.775 312.927 337.628 313.51 337.628C314.092 337.628 314.593 337.775 315.012 338.068C315.431 338.362 315.752 338.788 315.974 339.347C316.199 339.905 316.311 340.58 316.311 341.371C316.311 342.166 316.199 342.846 315.974 343.409C315.752 343.97 315.431 344.399 315.012 344.695C314.595 344.991 314.094 345.138 313.51 345.138ZM313.51 344.027C313.964 344.027 314.323 343.803 314.586 343.356C314.851 342.906 314.983 342.244 314.983 341.371C314.983 340.793 314.923 340.308 314.802 339.915C314.682 339.522 314.511 339.226 314.291 339.027C314.071 338.826 313.81 338.725 313.51 338.725C313.057 338.725 312.7 338.95 312.437 339.4C312.174 339.847 312.042 340.504 312.039 341.371C312.037 341.951 312.095 342.438 312.213 342.834C312.334 343.229 312.505 343.527 312.725 343.729C312.945 343.928 313.207 344.027 313.51 344.027ZM317.491 345V344.048L320.016 341.573C320.258 341.329 320.459 341.113 320.62 340.923C320.781 340.734 320.902 340.55 320.982 340.373C321.063 340.195 321.103 340.006 321.103 339.805C321.103 339.575 321.051 339.379 320.947 339.215C320.842 339.049 320.699 338.922 320.517 338.832C320.335 338.742 320.127 338.697 319.895 338.697C319.656 338.697 319.447 338.746 319.267 338.846C319.087 338.943 318.947 339.081 318.848 339.261C318.751 339.441 318.702 339.656 318.702 339.904H317.449C317.449 339.442 317.554 339.041 317.765 338.7C317.975 338.359 318.265 338.095 318.635 337.908C319.006 337.721 319.433 337.628 319.913 337.628C320.401 337.628 320.829 337.719 321.199 337.901C321.568 338.084 321.855 338.333 322.058 338.651C322.264 338.968 322.367 339.33 322.367 339.737C322.367 340.009 322.315 340.277 322.211 340.54C322.107 340.803 321.923 341.094 321.66 341.413C321.4 341.733 321.034 342.12 320.563 342.575L319.31 343.849V343.899H322.477V345H317.491ZM326.39 345.138C325.806 345.138 325.304 344.991 324.885 344.695C324.468 344.396 324.147 343.967 323.922 343.406C323.7 342.842 323.589 342.164 323.589 341.371C323.591 340.578 323.703 339.903 323.926 339.347C324.151 338.788 324.472 338.362 324.888 338.068C325.307 337.775 325.808 337.628 326.39 337.628C326.973 337.628 327.474 337.775 327.893 338.068C328.312 338.362 328.632 338.788 328.855 339.347C329.08 339.905 329.192 340.58 329.192 341.371C329.192 342.166 329.08 342.846 328.855 343.409C328.632 343.97 328.312 344.399 327.893 344.695C327.476 344.991 326.975 345.138 326.39 345.138ZM326.39 344.027C326.845 344.027 327.204 343.803 327.466 343.356C327.732 342.906 327.864 342.244 327.864 341.371C327.864 340.793 327.804 340.308 327.683 339.915C327.562 339.522 327.392 339.226 327.172 339.027C326.952 338.826 326.691 338.725 326.39 338.725C325.938 338.725 325.581 338.95 325.318 339.4C325.055 339.847 324.923 340.504 324.92 341.371C324.918 341.951 324.976 342.438 325.094 342.834C325.215 343.229 325.386 343.527 325.606 343.729C325.826 343.928 326.087 344.027 326.39 344.027Z" fill="black"/>
<line x1="41" y1="327.5" x2="321" y2="327.5" stroke="white"/>
<path d="M246.977 162.254H245.118C245.065 161.949 244.967 161.679 244.825 161.443C244.682 161.205 244.505 161.002 244.293 160.837C244.08 160.671 243.839 160.547 243.567 160.464C243.298 160.378 243.008 160.335 242.697 160.335C242.143 160.335 241.653 160.474 241.225 160.752C240.798 161.027 240.463 161.432 240.221 161.965C239.979 162.496 239.858 163.143 239.858 163.909C239.858 164.688 239.979 165.344 240.221 165.878C240.466 166.408 240.801 166.809 241.225 167.081C241.653 167.349 242.142 167.484 242.692 167.484C242.997 167.484 243.282 167.444 243.547 167.364C243.815 167.281 244.056 167.161 244.268 167.001C244.483 166.842 244.664 166.647 244.81 166.415C244.959 166.183 245.062 165.918 245.118 165.619L246.977 165.629C246.908 166.113 246.757 166.567 246.525 166.991C246.296 167.416 245.996 167.79 245.625 168.115C245.254 168.437 244.82 168.688 244.322 168.871C243.825 169.05 243.273 169.139 242.667 169.139C241.772 169.139 240.973 168.932 240.271 168.518C239.568 168.103 239.014 167.505 238.61 166.723C238.206 165.941 238.004 165.003 238.004 163.909C238.004 162.812 238.207 161.874 238.615 161.095C239.023 160.313 239.578 159.715 240.281 159.3C240.983 158.886 241.779 158.679 242.667 158.679C243.234 158.679 243.761 158.759 244.248 158.918C244.735 159.077 245.169 159.31 245.55 159.619C245.932 159.924 246.245 160.298 246.49 160.742C246.739 161.183 246.901 161.687 246.977 162.254ZM251.918 169.149C251.172 169.149 250.526 168.985 249.979 168.657C249.432 168.329 249.008 167.87 248.706 167.28C248.408 166.69 248.259 166 248.259 165.212C248.259 164.423 248.408 163.732 248.706 163.138C249.008 162.545 249.432 162.085 249.979 161.756C250.526 161.428 251.172 161.264 251.918 161.264C252.664 161.264 253.31 161.428 253.857 161.756C254.404 162.085 254.826 162.545 255.124 163.138C255.426 163.732 255.577 164.423 255.577 165.212C255.577 166 255.426 166.69 255.124 167.28C254.826 167.87 254.404 168.329 253.857 168.657C253.31 168.985 252.664 169.149 251.918 169.149ZM251.928 167.707C252.332 167.707 252.67 167.596 252.942 167.374C253.214 167.149 253.416 166.847 253.548 166.469C253.684 166.092 253.752 165.671 253.752 165.207C253.752 164.739 253.684 164.317 253.548 163.939C253.416 163.558 253.214 163.254 252.942 163.029C252.67 162.804 252.332 162.691 251.928 162.691C251.513 162.691 251.169 162.804 250.894 163.029C250.622 163.254 250.418 163.558 250.282 163.939C250.15 164.317 250.083 164.739 250.083 165.207C250.083 165.671 250.15 166.092 250.282 166.469C250.418 166.847 250.622 167.149 250.894 167.374C251.169 167.596 251.513 167.707 251.928 167.707ZM257.104 169V161.364H258.825V162.661H258.914C259.073 162.224 259.337 161.882 259.705 161.637C260.072 161.388 260.512 161.264 261.022 161.264C261.539 161.264 261.975 161.39 262.33 161.642C262.688 161.891 262.939 162.23 263.085 162.661H263.165C263.334 162.237 263.619 161.899 264.02 161.647C264.424 161.392 264.903 161.264 265.457 161.264C266.159 161.264 266.733 161.486 267.177 161.93C267.621 162.375 267.843 163.022 267.843 163.874V169H266.038V164.153C266.038 163.679 265.912 163.332 265.661 163.114C265.409 162.892 265.1 162.781 264.736 162.781C264.302 162.781 263.962 162.916 263.717 163.188C263.475 163.457 263.354 163.806 263.354 164.237V169H261.589V164.078C261.589 163.684 261.469 163.369 261.231 163.134C260.996 162.898 260.687 162.781 260.306 162.781C260.048 162.781 259.812 162.847 259.6 162.979C259.388 163.109 259.219 163.293 259.093 163.531C258.967 163.767 258.904 164.042 258.904 164.357V169H257.104ZM269.669 169V161.364H271.469V169H269.669ZM270.574 160.28C270.289 160.28 270.043 160.185 269.838 159.996C269.632 159.804 269.53 159.574 269.53 159.305C269.53 159.034 269.632 158.803 269.838 158.614C270.043 158.422 270.289 158.326 270.574 158.326C270.862 158.326 271.107 158.422 271.309 158.614C271.515 158.803 271.618 159.034 271.618 159.305C271.618 159.574 271.515 159.804 271.309 159.996C271.107 160.185 270.862 160.28 270.574 160.28ZM277.132 161.364V162.756H272.743V161.364H277.132ZM273.826 159.534H275.626V166.703C275.626 166.945 275.663 167.131 275.735 167.26C275.812 167.386 275.911 167.472 276.034 167.518C276.156 167.565 276.292 167.588 276.441 167.588C276.554 167.588 276.657 167.58 276.75 167.563C276.846 167.547 276.919 167.532 276.968 167.518L277.272 168.925C277.176 168.959 277.038 168.995 276.859 169.035C276.683 169.075 276.468 169.098 276.213 169.104C275.762 169.118 275.356 169.05 274.995 168.901C274.633 168.748 274.347 168.513 274.135 168.195C273.926 167.876 273.823 167.479 273.826 167.001V159.534ZM278.638 169V161.364H280.358V162.661H280.447C280.606 162.224 280.87 161.882 281.238 161.637C281.606 161.388 282.045 161.264 282.555 161.264C283.072 161.264 283.508 161.39 283.863 161.642C284.221 161.891 284.473 162.23 284.618 162.661H284.698C284.867 162.237 285.152 161.899 285.553 161.647C285.957 161.392 286.436 161.264 286.99 161.264C287.693 161.264 288.266 161.486 288.71 161.93C289.154 162.375 289.376 163.022 289.376 163.874V169H287.572V164.153C287.572 163.679 287.446 163.332 287.194 163.114C286.942 162.892 286.634 162.781 286.269 162.781C285.835 162.781 285.495 162.916 285.25 163.188C285.008 163.457 284.887 163.806 284.887 164.237V169H283.122V164.078C283.122 163.684 283.003 163.369 282.764 163.134C282.529 162.898 282.22 162.781 281.839 162.781C281.581 162.781 281.345 162.847 281.133 162.979C280.921 163.109 280.752 163.293 280.626 163.531C280.5 163.767 280.437 164.042 280.437 164.357V169H278.638ZM294.583 169.149C293.817 169.149 293.156 168.99 292.599 168.672C292.046 168.35 291.62 167.896 291.321 167.31C291.023 166.72 290.874 166.025 290.874 165.227C290.874 164.441 291.023 163.752 291.321 163.158C291.623 162.562 292.044 162.098 292.584 161.766C293.124 161.432 293.759 161.264 294.488 161.264C294.959 161.264 295.403 161.34 295.821 161.493C296.242 161.642 296.613 161.874 296.934 162.189C297.259 162.504 297.514 162.905 297.7 163.392C297.886 163.876 297.978 164.453 297.978 165.122V165.674H291.719V164.461H296.253C296.25 164.116 296.175 163.81 296.029 163.541C295.884 163.269 295.68 163.056 295.418 162.9C295.159 162.744 294.858 162.666 294.513 162.666C294.145 162.666 293.822 162.756 293.544 162.935C293.265 163.11 293.048 163.342 292.892 163.631C292.74 163.916 292.662 164.229 292.659 164.57V165.629C292.659 166.073 292.74 166.455 292.902 166.773C293.065 167.088 293.292 167.33 293.583 167.499C293.875 167.664 294.217 167.747 294.608 167.747C294.869 167.747 295.106 167.711 295.319 167.638C295.531 167.562 295.715 167.451 295.87 167.305C296.026 167.159 296.144 166.978 296.223 166.763L297.904 166.952C297.798 167.396 297.596 167.784 297.297 168.115C297.002 168.443 296.624 168.698 296.164 168.881C295.703 169.06 295.176 169.149 294.583 169.149ZM301.301 164.526V169H299.501V161.364H301.221V162.661H301.311C301.486 162.234 301.766 161.894 302.151 161.642C302.539 161.39 303.017 161.264 303.588 161.264C304.115 161.264 304.574 161.377 304.965 161.602C305.359 161.828 305.664 162.154 305.879 162.582C306.098 163.009 306.206 163.528 306.203 164.138V169H304.403V164.416C304.403 163.906 304.27 163.506 304.005 163.218C303.743 162.93 303.38 162.786 302.916 162.786C302.602 162.786 302.321 162.855 302.076 162.994C301.834 163.13 301.644 163.327 301.504 163.586C301.369 163.844 301.301 164.158 301.301 164.526ZM311.845 161.364V162.756H307.455V161.364H311.845ZM308.539 159.534H310.339V166.703C310.339 166.945 310.375 167.131 310.448 167.26C310.525 167.386 310.624 167.472 310.747 167.518C310.869 167.565 311.005 167.588 311.154 167.588C311.267 167.588 311.37 167.58 311.463 167.563C311.559 167.547 311.632 167.532 311.681 167.518L311.985 168.925C311.888 168.959 311.751 168.995 311.572 169.035C311.396 169.075 311.181 169.098 310.926 169.104C310.475 169.118 310.069 169.05 309.708 168.901C309.346 168.748 309.06 168.513 308.847 168.195C308.639 167.876 308.536 167.479 308.539 167.001V159.534ZM319.277 163.382L317.636 163.561C317.59 163.395 317.508 163.24 317.392 163.094C317.28 162.948 317.127 162.83 316.935 162.741C316.743 162.651 316.507 162.607 316.229 162.607C315.855 162.607 315.54 162.688 315.284 162.85C315.033 163.013 314.908 163.223 314.912 163.482C314.908 163.704 314.989 163.884 315.155 164.023C315.324 164.163 315.603 164.277 315.99 164.366L317.293 164.645C318.016 164.801 318.552 165.048 318.904 165.386C319.258 165.724 319.437 166.166 319.441 166.713C319.437 167.194 319.297 167.618 319.018 167.986C318.743 168.35 318.36 168.635 317.87 168.841C317.379 169.046 316.816 169.149 316.179 169.149C315.245 169.149 314.492 168.954 313.922 168.562C313.352 168.168 313.012 167.62 312.903 166.917L314.658 166.748C314.738 167.093 314.907 167.353 315.165 167.528C315.424 167.704 315.76 167.792 316.174 167.792C316.602 167.792 316.945 167.704 317.203 167.528C317.465 167.353 317.596 167.136 317.596 166.877C317.596 166.658 317.512 166.478 317.343 166.335C317.177 166.193 316.918 166.083 316.567 166.007L315.265 165.734C314.532 165.581 313.99 165.324 313.639 164.963C313.288 164.598 313.114 164.138 313.117 163.581C313.114 163.11 313.241 162.703 313.5 162.358C313.761 162.01 314.124 161.741 314.588 161.553C315.056 161.36 315.594 161.264 316.204 161.264C317.099 161.264 317.803 161.455 318.317 161.836C318.834 162.217 319.154 162.732 319.277 163.382Z" fill="black"/>
<path d="M221.455 284H218.004V273.818H221.524C222.535 273.818 223.403 274.022 224.129 274.43C224.858 274.834 225.419 275.416 225.81 276.175C226.201 276.934 226.396 277.842 226.396 278.899C226.396 279.96 226.199 280.871 225.805 281.634C225.414 282.396 224.848 282.981 224.109 283.388C223.374 283.796 222.489 284 221.455 284ZM219.849 282.404H221.365C222.074 282.404 222.666 282.275 223.14 282.016C223.614 281.754 223.97 281.365 224.209 280.848C224.447 280.328 224.567 279.678 224.567 278.899C224.567 278.12 224.447 277.474 224.209 276.96C223.97 276.443 223.617 276.057 223.15 275.802C222.686 275.543 222.109 275.414 221.42 275.414H219.849V282.404ZM228.069 284V276.364H229.869V284H228.069ZM228.974 275.28C228.689 275.28 228.444 275.185 228.238 274.996C228.033 274.804 227.93 274.574 227.93 274.305C227.93 274.034 228.033 273.803 228.238 273.614C228.444 273.422 228.689 273.326 228.974 273.326C229.262 273.326 229.508 273.422 229.71 273.614C229.915 273.803 230.018 274.034 230.018 274.305C230.018 274.574 229.915 274.804 229.71 274.996C229.508 275.185 229.262 275.28 228.974 275.28ZM237.755 278.382L236.115 278.561C236.068 278.395 235.987 278.24 235.871 278.094C235.758 277.948 235.606 277.83 235.414 277.741C235.221 277.651 234.986 277.607 234.708 277.607C234.333 277.607 234.018 277.688 233.763 277.85C233.511 278.013 233.387 278.223 233.39 278.482C233.387 278.704 233.468 278.884 233.634 279.023C233.803 279.163 234.081 279.277 234.469 279.366L235.771 279.645C236.494 279.801 237.031 280.048 237.382 280.386C237.737 280.724 237.916 281.166 237.919 281.713C237.916 282.194 237.775 282.618 237.497 282.986C237.222 283.35 236.839 283.635 236.348 283.841C235.858 284.046 235.294 284.149 234.658 284.149C233.723 284.149 232.971 283.954 232.401 283.562C231.831 283.168 231.491 282.62 231.382 281.917L233.137 281.748C233.216 282.093 233.385 282.353 233.644 282.528C233.902 282.704 234.239 282.792 234.653 282.792C235.08 282.792 235.423 282.704 235.682 282.528C235.944 282.353 236.075 282.136 236.075 281.877C236.075 281.658 235.99 281.478 235.821 281.335C235.655 281.193 235.397 281.083 235.046 281.007L233.743 280.734C233.011 280.581 232.469 280.324 232.117 279.963C231.766 279.598 231.592 279.138 231.595 278.581C231.592 278.11 231.72 277.703 231.978 277.358C232.24 277.01 232.603 276.741 233.067 276.553C233.534 276.36 234.073 276.264 234.683 276.264C235.578 276.264 236.282 276.455 236.796 276.836C237.313 277.217 237.633 277.732 237.755 278.382ZM239.483 284V273.818H241.282V277.626H241.357C241.45 277.441 241.581 277.244 241.75 277.035C241.919 276.823 242.148 276.642 242.436 276.493C242.724 276.34 243.092 276.264 243.54 276.264C244.13 276.264 244.662 276.415 245.135 276.717C245.613 277.015 245.991 277.457 246.269 278.044C246.551 278.627 246.692 279.343 246.692 280.192C246.692 281.03 246.554 281.743 246.279 282.33C246.004 282.916 245.629 283.364 245.155 283.672C244.681 283.98 244.144 284.134 243.545 284.134C243.107 284.134 242.744 284.061 242.456 283.915C242.167 283.77 241.935 283.594 241.76 283.388C241.587 283.18 241.453 282.982 241.357 282.797H241.253V284H239.483ZM241.248 280.182C241.248 280.676 241.317 281.108 241.456 281.479C241.599 281.851 241.803 282.141 242.068 282.349C242.336 282.555 242.661 282.658 243.042 282.658C243.44 282.658 243.773 282.552 244.042 282.339C244.31 282.124 244.512 281.831 244.648 281.46C244.787 281.085 244.857 280.659 244.857 280.182C244.857 279.708 244.789 279.287 244.653 278.919C244.517 278.551 244.315 278.263 244.047 278.054C243.778 277.845 243.443 277.741 243.042 277.741C242.658 277.741 242.331 277.842 242.063 278.044C241.795 278.246 241.591 278.53 241.452 278.894C241.316 279.259 241.248 279.688 241.248 280.182ZM253.089 280.788V276.364H254.888V284H253.143V282.643H253.064C252.892 283.07 252.608 283.42 252.214 283.692C251.823 283.964 251.34 284.099 250.767 284.099C250.267 284.099 249.824 283.988 249.44 283.766C249.058 283.541 248.76 283.214 248.545 282.787C248.329 282.356 248.222 281.836 248.222 281.226V276.364H250.021V280.947C250.021 281.431 250.154 281.816 250.419 282.101C250.684 282.386 251.032 282.528 251.463 282.528C251.728 282.528 251.985 282.464 252.234 282.335C252.482 282.205 252.686 282.013 252.845 281.758C253.008 281.499 253.089 281.176 253.089 280.788ZM256.739 284V276.364H258.484V277.636H258.564C258.703 277.196 258.942 276.856 259.28 276.617C259.621 276.375 260.01 276.254 260.448 276.254C260.547 276.254 260.658 276.259 260.781 276.269C260.907 276.276 261.011 276.287 261.094 276.304V277.96C261.018 277.933 260.897 277.91 260.731 277.89C260.569 277.867 260.412 277.855 260.259 277.855C259.931 277.855 259.636 277.926 259.374 278.069C259.116 278.208 258.912 278.402 258.763 278.651C258.613 278.899 258.539 279.186 258.539 279.511V284H256.739ZM268.325 278.382L266.685 278.561C266.638 278.395 266.557 278.24 266.441 278.094C266.329 277.948 266.176 277.83 265.984 277.741C265.792 277.651 265.556 277.607 265.278 277.607C264.903 277.607 264.588 277.688 264.333 277.85C264.081 278.013 263.957 278.223 263.96 278.482C263.957 278.704 264.038 278.884 264.204 279.023C264.373 279.163 264.651 279.277 265.039 279.366L266.342 279.645C267.064 279.801 267.601 280.048 267.953 280.386C268.307 280.724 268.486 281.166 268.49 281.713C268.486 282.194 268.345 282.618 268.067 282.986C267.792 283.35 267.409 283.635 266.919 283.841C266.428 284.046 265.865 284.149 265.228 284.149C264.294 284.149 263.541 283.954 262.971 283.562C262.401 283.168 262.061 282.62 261.952 281.917L263.707 281.748C263.786 282.093 263.955 282.353 264.214 282.528C264.472 282.704 264.809 282.792 265.223 282.792C265.651 282.792 265.994 282.704 266.252 282.528C266.514 282.353 266.645 282.136 266.645 281.877C266.645 281.658 266.561 281.478 266.392 281.335C266.226 281.193 265.967 281.083 265.616 281.007L264.313 280.734C263.581 280.581 263.039 280.324 262.688 279.963C262.336 279.598 262.162 279.138 262.166 278.581C262.162 278.11 262.29 277.703 262.548 277.358C262.81 277.01 263.173 276.741 263.637 276.553C264.105 276.36 264.643 276.264 265.253 276.264C266.148 276.264 266.852 276.455 267.366 276.836C267.883 277.217 268.203 277.732 268.325 278.382ZM273.354 284.149C272.589 284.149 271.927 283.99 271.371 283.672C270.817 283.35 270.391 282.896 270.093 282.31C269.795 281.72 269.645 281.025 269.645 280.227C269.645 279.441 269.795 278.752 270.093 278.158C270.394 277.562 270.815 277.098 271.356 276.766C271.896 276.432 272.531 276.264 273.26 276.264C273.73 276.264 274.175 276.34 274.592 276.493C275.013 276.642 275.384 276.874 275.706 277.189C276.031 277.504 276.286 277.905 276.471 278.392C276.657 278.876 276.75 279.453 276.75 280.122V280.674H270.491V279.461H275.025C275.021 279.116 274.947 278.81 274.801 278.541C274.655 278.269 274.451 278.056 274.189 277.9C273.931 277.744 273.629 277.666 273.285 277.666C272.917 277.666 272.594 277.756 272.315 277.935C272.037 278.11 271.82 278.342 271.664 278.631C271.511 278.916 271.434 279.229 271.43 279.57V280.629C271.43 281.073 271.511 281.455 271.674 281.773C271.836 282.088 272.063 282.33 272.355 282.499C272.647 282.664 272.988 282.747 273.379 282.747C273.641 282.747 273.878 282.711 274.09 282.638C274.302 282.562 274.486 282.451 274.642 282.305C274.798 282.159 274.915 281.978 274.995 281.763L276.675 281.952C276.569 282.396 276.367 282.784 276.069 283.115C275.774 283.443 275.396 283.698 274.935 283.881C274.474 284.06 273.948 284.149 273.354 284.149ZM278.272 284V276.364H279.993V277.661H280.082C280.241 277.224 280.505 276.882 280.873 276.637C281.24 276.388 281.68 276.264 282.19 276.264C282.707 276.264 283.143 276.39 283.498 276.642C283.855 276.891 284.107 277.23 284.253 277.661H284.333C284.502 277.237 284.787 276.899 285.188 276.647C285.592 276.392 286.071 276.264 286.625 276.264C287.327 276.264 287.901 276.486 288.345 276.93C288.789 277.375 289.011 278.022 289.011 278.874V284H287.206V279.153C287.206 278.679 287.08 278.332 286.828 278.114C286.577 277.892 286.268 277.781 285.904 277.781C285.47 277.781 285.13 277.916 284.885 278.188C284.643 278.457 284.522 278.806 284.522 279.237V284H282.757V279.078C282.757 278.684 282.637 278.369 282.399 278.134C282.163 277.898 281.855 277.781 281.474 277.781C281.216 277.781 280.98 277.847 280.768 277.979C280.556 278.109 280.387 278.293 280.261 278.531C280.135 278.767 280.072 279.042 280.072 279.357V284H278.272ZM294.218 284.149C293.452 284.149 292.791 283.99 292.234 283.672C291.68 283.35 291.254 282.896 290.956 282.31C290.658 281.72 290.509 281.025 290.509 280.227C290.509 279.441 290.658 278.752 290.956 278.158C291.258 277.562 291.679 277.098 292.219 276.766C292.759 276.432 293.394 276.264 294.123 276.264C294.594 276.264 295.038 276.34 295.455 276.493C295.876 276.642 296.248 276.874 296.569 277.189C296.894 277.504 297.149 277.905 297.335 278.392C297.52 278.876 297.613 279.453 297.613 280.122V280.674H291.354V279.461H295.888C295.885 279.116 295.81 278.81 295.664 278.541C295.518 278.269 295.315 278.056 295.053 277.9C294.794 277.744 294.493 277.666 294.148 277.666C293.78 277.666 293.457 277.756 293.178 277.935C292.9 278.11 292.683 278.342 292.527 278.631C292.375 278.916 292.297 279.229 292.294 279.57V280.629C292.294 281.073 292.375 281.455 292.537 281.773C292.7 282.088 292.927 282.33 293.218 282.499C293.51 282.664 293.851 282.747 294.242 282.747C294.504 282.747 294.741 282.711 294.953 282.638C295.165 282.562 295.349 282.451 295.505 282.305C295.661 282.159 295.779 281.978 295.858 281.763L297.539 281.952C297.432 282.396 297.23 282.784 296.932 283.115C296.637 283.443 296.259 283.698 295.798 283.881C295.338 284.06 294.811 284.149 294.218 284.149ZM300.935 279.526V284H299.136V276.364H300.856V277.661H300.945C301.121 277.234 301.401 276.894 301.786 276.642C302.173 276.39 302.652 276.264 303.222 276.264C303.749 276.264 304.208 276.377 304.599 276.602C304.994 276.828 305.299 277.154 305.514 277.582C305.733 278.009 305.841 278.528 305.837 279.138V284H304.038V279.416C304.038 278.906 303.905 278.506 303.64 278.218C303.378 277.93 303.015 277.786 302.551 277.786C302.236 277.786 301.956 277.855 301.711 277.994C301.469 278.13 301.278 278.327 301.139 278.586C301.003 278.844 300.935 279.158 300.935 279.526ZM311.48 276.364V277.756H307.09V276.364H311.48ZM308.174 274.534H309.974V281.703C309.974 281.945 310.01 282.131 310.083 282.26C310.159 282.386 310.259 282.472 310.381 282.518C310.504 282.565 310.64 282.588 310.789 282.588C310.902 282.588 311.004 282.58 311.097 282.563C311.193 282.547 311.266 282.532 311.316 282.518L311.619 283.925C311.523 283.959 311.386 283.995 311.207 284.035C311.031 284.075 310.816 284.098 310.56 284.104C310.11 284.118 309.704 284.05 309.342 283.901C308.981 283.748 308.694 283.513 308.482 283.195C308.273 282.876 308.171 282.479 308.174 282.001V274.534ZM318.911 278.382L317.271 278.561C317.224 278.395 317.143 278.24 317.027 278.094C316.914 277.948 316.762 277.83 316.57 277.741C316.378 277.651 316.142 277.607 315.864 277.607C315.489 277.607 315.174 277.688 314.919 277.85C314.667 278.013 314.543 278.223 314.546 278.482C314.543 278.704 314.624 278.884 314.79 279.023C314.959 279.163 315.237 279.277 315.625 279.366L316.928 279.645C317.65 279.801 318.187 280.048 318.539 280.386C318.893 280.724 319.072 281.166 319.075 281.713C319.072 282.194 318.931 282.618 318.653 282.986C318.378 283.35 317.995 283.635 317.504 283.841C317.014 284.046 316.45 284.149 315.814 284.149C314.879 284.149 314.127 283.954 313.557 283.562C312.987 283.168 312.647 282.62 312.538 281.917L314.293 281.748C314.372 282.093 314.541 282.353 314.8 282.528C315.058 282.704 315.395 282.792 315.809 282.792C316.237 282.792 316.58 282.704 316.838 282.528C317.1 282.353 317.231 282.136 317.231 281.877C317.231 281.658 317.146 281.478 316.977 281.335C316.812 281.193 316.553 281.083 316.202 281.007L314.899 280.734C314.167 280.581 313.625 280.324 313.274 279.963C312.922 279.598 312.748 279.138 312.752 278.581C312.748 278.11 312.876 277.703 313.134 277.358C313.396 277.01 313.759 276.741 314.223 276.553C314.691 276.36 315.229 276.264 315.839 276.264C316.734 276.264 317.438 276.455 317.952 276.836C318.469 277.217 318.789 277.732 318.911 278.382Z" fill="black"/>
<path d="M6.40909 7.27273H7.99006V12.9744C7.99006 13.5994 7.84233 14.1491 7.54688 14.6236C7.25426 15.098 6.84233 15.4687 6.31108 15.7358C5.77983 16 5.15909 16.1321 4.44886 16.1321C3.7358 16.1321 3.11364 16 2.58239 15.7358C2.05114 15.4687 1.6392 15.098 1.34659 14.6236C1.05398 14.1491 0.90767 13.5994 0.90767 12.9744V7.27273H2.48864V12.8423C2.48864 13.206 2.56818 13.5298 2.72727 13.8139C2.8892 14.098 3.11648 14.321 3.40909 14.483C3.7017 14.642 4.0483 14.7216 4.44886 14.7216C4.84943 14.7216 5.19602 14.642 5.48864 14.483C5.78409 14.321 6.01136 14.098 6.17045 13.8139C6.32955 13.5298 6.40909 13.206 6.40909 12.8423V7.27273ZM14.4513 9.67188C14.4116 9.29972 14.244 9.00994 13.9485 8.80256C13.6559 8.59517 13.2752 8.49148 12.8065 8.49148C12.4769 8.49148 12.1942 8.54119 11.9585 8.64062C11.7227 8.74006 11.5423 8.875 11.4173 9.04545C11.2923 9.21591 11.2283 9.41051 11.2255 9.62926C11.2255 9.81108 11.2667 9.96875 11.3491 10.1023C11.4343 10.2358 11.5494 10.3494 11.6942 10.4432C11.8391 10.5341 11.9996 10.6108 12.1758 10.6733C12.3519 10.7358 12.5295 10.7884 12.7085 10.831L13.5266 11.0355C13.8562 11.1122 14.1729 11.2159 14.4769 11.3466C14.7837 11.4773 15.0579 11.642 15.2994 11.8409C15.5437 12.0398 15.7369 12.2798 15.8789 12.5611C16.021 12.8423 16.092 13.1719 16.092 13.5497C16.092 14.0611 15.9613 14.5114 15.6999 14.9006C15.4386 15.2869 15.0607 15.5895 14.5664 15.8082C14.0749 16.0241 13.4798 16.1321 12.7809 16.1321C12.1019 16.1321 11.5124 16.027 11.0124 15.8168C10.5153 15.6065 10.1261 15.2997 9.84482 14.8963C9.56641 14.4929 9.41584 14.0014 9.39311 13.4219H10.9485C10.9712 13.7259 11.065 13.9787 11.2298 14.1804C11.3945 14.3821 11.609 14.5327 11.8732 14.6321C12.1403 14.7315 12.4386 14.7812 12.7681 14.7812C13.1119 14.7812 13.413 14.7301 13.6715 14.6278C13.9329 14.5227 14.1374 14.3778 14.2852 14.1932C14.4329 14.0057 14.5082 13.7869 14.511 13.5369C14.5082 13.3097 14.4414 13.1222 14.3107 12.9744C14.18 12.8239 13.9968 12.6989 13.761 12.5994C13.5281 12.4972 13.2553 12.4062 12.9428 12.3267L11.9499 12.071C11.2312 11.8864 10.663 11.6065 10.2454 11.2315C9.83061 10.8537 9.62322 10.3523 9.62322 9.72727C9.62322 9.21307 9.76243 8.76278 10.0408 8.37642C10.3221 7.99006 10.7042 7.69034 11.1871 7.47727C11.6701 7.26136 12.217 7.15341 12.8278 7.15341C13.4471 7.15341 13.9897 7.26136 14.4556 7.47727C14.9244 7.69034 15.2923 7.98722 15.5593 8.3679C15.8263 8.74574 15.9641 9.1804 15.9727 9.67188H14.4513ZM20.2287 17.0909V6.18182H20.9276V17.0909H20.2287ZM22.2443 9.67188C22.2045 9.29972 22.0369 9.00994 21.7415 8.80256C21.4489 8.59517 21.0682 8.49148 20.5994 8.49148C20.2699 8.49148 19.9872 8.54119 19.7514 8.64062C19.5156 8.74006 19.3352 8.875 19.2102 9.04545C19.0852 9.21591 19.0213 9.41051 19.0185 9.62926C19.0185 9.81108 19.0597 9.96875 19.142 10.1023C19.2273 10.2358 19.3423 10.3494 19.4872 10.4432C19.6321 10.5341 19.7926 10.6108 19.9688 10.6733C20.1449 10.7358 20.3224 10.7884 20.5014 10.831L21.3196 11.0355C21.6491 11.1122 21.9659 11.2159 22.2699 11.3466C22.5767 11.4773 22.8509 11.642 23.0923 11.8409C23.3366 12.0398 23.5298 12.2798 23.6719 12.5611C23.8139 12.8423 23.8849 13.1719 23.8849 13.5497C23.8849 14.0611 23.7543 14.5114 23.4929 14.9006C23.2315 15.2869 22.8537 15.5895 22.3594 15.8082C21.8679 16.0241 21.2727 16.1321 20.5739 16.1321C19.8949 16.1321 19.3054 16.027 18.8054 15.8168C18.3082 15.6065 17.919 15.2997 17.6378 14.8963C17.3594 14.4929 17.2088 14.0014 17.1861 13.4219H18.7415C18.7642 13.7259 18.858 13.9787 19.0227 14.1804C19.1875 14.3821 19.402 14.5327 19.6662 14.6321C19.9332 14.7315 20.2315 14.7812 20.5611 14.7812C20.9048 14.7812 21.206 14.7301 21.4645 14.6278C21.7259 14.5227 21.9304 14.3778 22.0781 14.1932C22.2259 14.0057 22.3011 13.7869 22.304 13.5369C22.3011 13.3097 22.2344 13.1222 22.1037 12.9744C21.973 12.8239 21.7898 12.6989 21.554 12.5994C21.321 12.4972 21.0483 12.4062 20.7358 12.3267L19.7429 12.071C19.0241 11.8864 18.456 11.6065 18.0384 11.2315C17.6236 10.8537 17.4162 10.3523 17.4162 9.72727C17.4162 9.21307 17.5554 8.76278 17.8338 8.37642C18.1151 7.99006 18.4972 7.69034 18.9801 7.47727C19.4631 7.26136 20.0099 7.15341 20.6207 7.15341C21.2401 7.15341 21.7827 7.26136 22.2486 7.47727C22.7173 7.69034 23.0852 7.98722 23.3523 8.3679C23.6193 8.74574 23.7571 9.1804 23.7656 9.67188H22.2443ZM28.271 7.27273H30.2056L32.7965 13.5966H32.8988L35.4897 7.27273H37.4244V16H35.9073V10.0043H35.8263L33.4144 15.9744H32.2809L29.869 9.99148H29.788V16H28.271V7.27273ZM39.0778 16V9.45455H40.6204V16H39.0778ZM39.8533 8.52557C39.609 8.52557 39.3988 8.4446 39.2227 8.28267C39.0465 8.1179 38.9585 7.92045 38.9585 7.69034C38.9585 7.45739 39.0465 7.25994 39.2227 7.09801C39.3988 6.93324 39.609 6.85085 39.8533 6.85085C40.1005 6.85085 40.3107 6.93324 40.484 7.09801C40.6602 7.25994 40.7482 7.45739 40.7482 7.69034C40.7482 7.92045 40.6602 8.1179 40.484 8.28267C40.3107 8.4446 40.1005 8.52557 39.8533 8.52557ZM43.7493 7.27273V16H42.2067V7.27273H43.7493ZM46.8782 7.27273V16H45.3356V7.27273H46.8782ZM48.4645 16V9.45455H50.0071V16H48.4645ZM49.2401 8.52557C48.9957 8.52557 48.7855 8.4446 48.6094 8.28267C48.4332 8.1179 48.3452 7.92045 48.3452 7.69034C48.3452 7.45739 48.4332 7.25994 48.6094 7.09801C48.7855 6.93324 48.9957 6.85085 49.2401 6.85085C49.4872 6.85085 49.6974 6.93324 49.8707 7.09801C50.0469 7.25994 50.1349 7.45739 50.1349 7.69034C50.1349 7.92045 50.0469 8.1179 49.8707 8.28267C49.6974 8.4446 49.4872 8.52557 49.2401 8.52557ZM54.4485 16.1278C53.8093 16.1278 53.2553 15.9872 52.7866 15.706C52.3178 15.4247 51.9542 15.0312 51.6957 14.5256C51.44 14.0199 51.3121 13.429 51.3121 12.7528C51.3121 12.0767 51.44 11.4844 51.6957 10.9759C51.9542 10.4673 52.3178 10.0724 52.7866 9.79119C53.2553 9.50994 53.8093 9.36932 54.4485 9.36932C55.0877 9.36932 55.6417 9.50994 56.1104 9.79119C56.5792 10.0724 56.9414 10.4673 57.1971 10.9759C57.4556 11.4844 57.5849 12.0767 57.5849 12.7528C57.5849 13.429 57.4556 14.0199 57.1971 14.5256C56.9414 15.0312 56.5792 15.4247 56.1104 15.706C55.6417 15.9872 55.0877 16.1278 54.4485 16.1278ZM54.457 14.892C54.8036 14.892 55.0934 14.7969 55.3263 14.6065C55.5593 14.4134 55.7326 14.1548 55.8462 13.831C55.9627 13.5071 56.021 13.1463 56.021 12.7486C56.021 12.348 55.9627 11.9858 55.8462 11.6619C55.7326 11.3352 55.5593 11.0753 55.3263 10.8821C55.0934 10.6889 54.8036 10.5923 54.457 10.5923C54.1019 10.5923 53.8065 10.6889 53.5707 10.8821C53.3377 11.0753 53.163 11.3352 53.0465 11.6619C52.9329 11.9858 52.8761 12.348 52.8761 12.7486C52.8761 13.1463 52.9329 13.5071 53.0465 13.831C53.163 14.1548 53.3377 14.4134 53.5707 14.6065C53.8065 14.7969 54.1019 14.892 54.457 14.892ZM60.4368 12.1648V16H58.8942V9.45455H60.3686V10.5668H60.4453C60.5959 10.2003 60.8359 9.90909 61.1655 9.69318C61.4979 9.47727 61.9084 9.36932 62.397 9.36932C62.8487 9.36932 63.2422 9.46591 63.5774 9.65909C63.9155 9.85227 64.1768 10.1321 64.3615 10.4986C64.549 10.8651 64.6413 11.3097 64.6385 11.8324V16H63.0959V12.071C63.0959 11.6335 62.9822 11.2912 62.755 11.044C62.5305 10.7969 62.2195 10.6733 61.8217 10.6733C61.5518 10.6733 61.3118 10.733 61.1016 10.8523C60.8942 10.9687 60.7308 11.1378 60.6115 11.3594C60.495 11.581 60.4368 11.8494 60.4368 12.1648ZM71.38 11.1847L69.9737 11.3381C69.9339 11.196 69.8643 11.0625 69.7649 10.9375C69.6683 10.8125 69.5376 10.7116 69.3729 10.6349C69.2081 10.5582 69.0064 10.5199 68.7678 10.5199C68.4467 10.5199 68.1768 10.5895 67.9581 10.7287C67.7422 10.8679 67.6357 11.0483 67.6385 11.2699C67.6357 11.4602 67.7053 11.6151 67.8473 11.7344C67.9922 11.8537 68.2308 11.9517 68.5632 12.0284L69.6797 12.267C70.299 12.4006 70.7592 12.6122 71.0604 12.902C71.3643 13.1918 71.5178 13.571 71.5206 14.0398C71.5178 14.4517 71.397 14.8153 71.1584 15.1307C70.9226 15.4432 70.5945 15.6875 70.174 15.8636C69.7536 16.0398 69.2706 16.1278 68.7251 16.1278C67.924 16.1278 67.2791 15.9602 66.7905 15.625C66.3018 15.2869 66.0107 14.8168 65.9169 14.2145L67.4212 14.0696C67.4893 14.3651 67.6342 14.5881 67.8558 14.7386C68.0774 14.8892 68.3658 14.9645 68.7209 14.9645C69.0874 14.9645 69.3814 14.8892 69.603 14.7386C69.8274 14.5881 69.9396 14.402 69.9396 14.1804C69.9396 13.9929 69.8672 13.8381 69.7223 13.7159C69.5803 13.5937 69.3587 13.5 69.0575 13.4347L67.9411 13.2003C67.3132 13.0696 66.8487 12.8494 66.5476 12.5398C66.2464 12.2273 66.0973 11.8324 66.1001 11.3551C66.0973 10.9517 66.2067 10.6023 66.4283 10.3068C66.6527 10.0085 66.9638 9.77841 67.3615 9.61648C67.7621 9.4517 68.2237 9.36932 68.7464 9.36932C69.5135 9.36932 70.1172 9.53267 70.5575 9.85938C71.0007 10.1861 71.2749 10.6278 71.38 11.1847Z" fill="black"/>
</svg>
