<svg width="1210" height="377" viewBox="0 0 1210 377" fill="none" xmlns="http://www.w3.org/2000/svg">
<path d="M66 120.518L324.517 50.0342L583.034 182.829L837.415 194.065L1098 281.914" stroke="black" stroke-linecap="round" stroke-dasharray="4 4"/>
<path d="M68 173.843L324.25 179.971L580.5 232.061L834.684 202.441L1093 289.258" stroke="black" stroke-linecap="round"/>
<path d="M66.8274 376.606V375.274L70.3622 371.809C70.7002 371.467 70.9819 371.164 71.2073 370.899C71.4327 370.634 71.6017 370.377 71.7144 370.128C71.8271 369.88 71.8835 369.615 71.8835 369.333C71.8835 369.012 71.8105 368.736 71.6647 368.508C71.5189 368.276 71.3184 368.097 71.0632 367.971C70.8079 367.845 70.5179 367.782 70.1931 367.782C69.8584 367.782 69.565 367.851 69.3132 367.991C69.0613 368.127 68.8657 368.32 68.7265 368.572C68.5906 368.824 68.5227 369.124 68.5227 369.472H66.7677C66.7677 368.826 66.9152 368.264 67.2102 367.787C67.5052 367.31 67.9112 366.94 68.4282 366.678C68.9486 366.416 69.5452 366.285 70.218 366.285C70.9007 366.285 71.5007 366.413 72.0177 366.668C72.5347 366.923 72.9358 367.273 73.2208 367.717C73.5092 368.161 73.6534 368.668 73.6534 369.239C73.6534 369.62 73.5804 369.994 73.4346 370.362C73.2888 370.73 73.0319 371.138 72.664 371.585C72.2994 372.033 71.7873 372.574 71.1278 373.211L69.3728 374.996V375.065H73.8075V376.606H66.8274ZM79.2862 376.8C78.4675 376.8 77.7649 376.593 77.1782 376.179C76.5949 375.761 76.1458 375.16 75.8309 374.374C75.5194 373.585 75.3636 372.636 75.3636 371.525C75.3669 370.415 75.5243 369.471 75.8359 368.692C76.1507 367.909 76.5998 367.313 77.1832 366.902C77.7698 366.491 78.4708 366.285 79.2862 366.285C80.1015 366.285 80.8025 366.491 81.3891 366.902C81.9758 367.313 82.4249 367.909 82.7364 368.692C83.0513 369.474 83.2087 370.418 83.2087 371.525C83.2087 372.639 83.0513 373.59 82.7364 374.379C82.4249 375.165 81.9758 375.765 81.3891 376.179C80.8058 376.593 80.1048 376.8 79.2862 376.8ZM79.2862 375.244C79.9225 375.244 80.4247 374.931 80.7926 374.305C81.1638 373.675 81.3494 372.748 81.3494 371.525C81.3494 370.717 81.2649 370.037 81.0958 369.487C80.9268 368.937 80.6882 368.523 80.3799 368.244C80.0717 367.963 79.7071 367.822 79.2862 367.822C78.6531 367.822 78.1526 368.137 77.7847 368.766C77.4168 369.393 77.2312 370.312 77.2279 371.525C77.2246 372.338 77.3058 373.02 77.4715 373.574C77.6406 374.127 77.8792 374.545 78.1874 374.827C78.4957 375.105 78.8619 375.244 79.2862 375.244ZM89.0019 366.425V376.606H87.1574V368.219H87.0978L84.7164 369.741V368.05L87.2469 366.425H89.0019ZM95.3158 376.746C94.8286 376.742 94.353 376.658 93.889 376.492C93.425 376.323 93.0073 376.05 92.6361 375.672C92.2649 375.291 91.9699 374.785 91.7512 374.155C91.5324 373.522 91.4247 372.739 91.428 371.804C91.428 370.932 91.5208 370.155 91.7064 369.472C91.892 368.789 92.1589 368.213 92.5069 367.742C92.8549 367.268 93.2741 366.907 93.7647 366.658C94.2585 366.41 94.8104 366.285 95.4202 366.285C96.0599 366.285 96.6267 366.411 97.1205 366.663C97.6177 366.915 98.0187 367.26 98.3236 367.697C98.6286 368.132 98.8175 368.622 98.8904 369.169H97.0758C96.983 368.778 96.7924 368.466 96.504 368.234C96.219 367.999 95.8577 367.881 95.4202 367.881C94.7143 367.881 94.1707 368.188 93.7895 368.801C93.4117 369.414 93.2211 370.256 93.2178 371.327H93.2874C93.4498 371.035 93.6603 370.785 93.9188 370.576C94.1773 370.367 94.469 370.206 94.7938 370.094C95.1219 369.978 95.4683 369.92 95.8329 369.92C96.4295 369.92 96.9647 370.062 97.4387 370.347C97.916 370.632 98.2938 371.025 98.5722 371.525C98.8506 372.023 98.9882 372.593 98.9849 373.236C98.9882 373.905 98.8357 374.507 98.5275 375.04C98.2192 375.571 97.79 375.988 97.2398 376.293C96.6896 376.598 96.0483 376.749 95.3158 376.746ZM95.3059 375.254C95.6671 375.254 95.9903 375.166 96.2753 374.991C96.5604 374.815 96.7857 374.578 96.9515 374.28C97.1172 373.981 97.1984 373.647 97.1951 373.275C97.1984 372.911 97.1188 372.581 96.9564 372.286C96.7974 371.991 96.5769 371.757 96.2952 371.585C96.0135 371.413 95.692 371.327 95.3307 371.327C95.0623 371.327 94.812 371.378 94.58 371.481C94.348 371.583 94.1458 371.726 93.9735 371.908C93.8011 372.087 93.6652 372.296 93.5658 372.535C93.4697 372.77 93.42 373.022 93.4167 373.29C93.42 373.645 93.5028 373.972 93.6652 374.27C93.8277 374.568 94.0514 374.807 94.3364 374.986C94.6215 375.165 94.9446 375.254 95.3059 375.254Z" fill="black"/>
<path d="M20.1809 44.1109C19.5181 44.1109 18.9248 43.9866 18.4011 43.738C17.8774 43.4861 17.4615 43.1414 17.1532 42.7039C16.8483 42.2664 16.6859 41.766 16.666 41.2025H18.4558C18.4889 41.6201 18.6696 41.9615 18.9977 42.2267C19.3258 42.4885 19.7202 42.6194 20.1809 42.6194C20.5422 42.6194 20.8637 42.5365 21.1454 42.3708C21.4271 42.2051 21.6492 41.9748 21.8116 41.6798C21.974 41.3848 22.0536 41.0484 22.0502 40.6705C22.0536 40.2861 21.9724 39.9447 21.8066 39.6464C21.6409 39.3481 21.4139 39.1144 21.1255 38.9454C20.8372 38.7731 20.5057 38.6869 20.1312 38.6869C19.8263 38.6836 19.5263 38.7399 19.2314 38.8559C18.9364 38.9719 18.7027 39.1244 18.5304 39.3133L16.8649 39.0399L17.3968 33.7899H23.3031V35.3311H18.9231L18.6298 38.0306H18.6895C18.8784 37.8086 19.1452 37.6246 19.4899 37.4788C19.8346 37.3296 20.2124 37.2551 20.6234 37.2551C21.2399 37.2551 21.7901 37.4009 22.274 37.6926C22.7579 37.9809 23.139 38.3786 23.4174 38.8857C23.6958 39.3928 23.835 39.9729 23.835 40.6258C23.835 41.2986 23.6793 41.8985 23.3677 42.4255C23.0595 42.9492 22.6303 43.3618 22.0801 43.6634C21.5332 43.9617 20.9002 44.1109 20.1809 44.1109ZM27.2915 42.5796L27.2269 43.1265C27.1805 43.5441 27.0977 43.9684 26.9783 44.3992C26.8623 44.8334 26.7397 45.2328 26.6104 45.5974C26.4812 45.962 26.3768 46.2487 26.2972 46.4575H25.0842C25.1306 46.2553 25.1935 45.9802 25.2731 45.6322C25.3559 45.2842 25.4355 44.8931 25.5117 44.4589C25.5879 44.0247 25.6393 43.5839 25.6658 43.1365L25.7006 42.5796H27.2915ZM32.6547 44.1656C31.836 44.1656 31.1333 43.9584 30.5467 43.5441C29.9634 43.1265 29.5143 42.5249 29.1994 41.7394C28.8878 40.9506 28.7321 40.001 28.7321 38.8907C28.7354 37.7804 28.8928 36.8358 29.2044 36.0569C29.5192 35.2747 29.9683 34.6781 30.5517 34.2671C31.1383 33.8561 31.8393 33.6507 32.6547 33.6507C33.47 33.6507 34.171 33.8561 34.7576 34.2671C35.3443 34.6781 35.7934 35.2747 36.1049 36.0569C36.4198 36.8391 36.5772 37.7837 36.5772 38.8907C36.5772 40.0043 36.4198 40.9556 36.1049 41.7444C35.7934 42.5299 35.3443 43.1298 34.7576 43.5441C34.1743 43.9584 33.4733 44.1656 32.6547 44.1656ZM32.6547 42.6095C33.291 42.6095 33.7931 42.2963 34.161 41.6698C34.5323 41.0401 34.7179 40.1137 34.7179 38.8907C34.7179 38.082 34.6333 37.4026 34.4643 36.8524C34.2953 36.3022 34.0566 35.8879 33.7484 35.6095C33.4402 35.3277 33.0756 35.1869 32.6547 35.1869C32.0216 35.1869 31.5211 35.5017 31.1532 36.1315C30.7853 36.7579 30.5997 37.6776 30.5964 38.8907C30.5931 39.7027 30.6743 40.3855 30.84 40.939C31.0091 41.4925 31.2477 41.9101 31.5559 42.1919C31.8642 42.4703 32.2304 42.6095 32.6547 42.6095ZM41.9925 44.1656C41.1739 44.1656 40.4712 43.9584 39.8846 43.5441C39.3013 43.1265 38.8522 42.5249 38.5373 41.7394C38.2257 40.9506 38.07 40.001 38.07 38.8907C38.0733 37.7804 38.2307 36.8358 38.5423 36.0569C38.8571 35.2747 39.3062 34.6781 39.8896 34.2671C40.4762 33.8561 41.1772 33.6507 41.9925 33.6507C42.8079 33.6507 43.5089 33.8561 44.0955 34.2671C44.6822 34.6781 45.1313 35.2747 45.4428 36.0569C45.7577 36.8391 45.9151 37.7837 45.9151 38.8907C45.9151 40.0043 45.7577 40.9556 45.4428 41.7444C45.1313 42.5299 44.6822 43.1298 44.0955 43.5441C43.5122 43.9584 42.8112 44.1656 41.9925 44.1656ZM41.9925 42.6095C42.6289 42.6095 43.131 42.2963 43.4989 41.6698C43.8701 41.0401 44.0558 40.1137 44.0558 38.8907C44.0558 38.082 43.9712 37.4026 43.8022 36.8524C43.6332 36.3022 43.3945 35.8879 43.0863 35.6095C42.7781 35.3277 42.4135 35.1869 41.9925 35.1869C41.3595 35.1869 40.859 35.5017 40.4911 36.1315C40.1232 36.7579 39.9376 37.6776 39.9343 38.8907C39.931 39.7027 40.0122 40.3855 40.1779 40.939C40.3469 41.4925 40.5856 41.9101 40.8938 42.1919C41.2021 42.4703 41.5683 42.6095 41.9925 42.6095ZM51.3304 44.1656C50.5118 44.1656 49.8091 43.9584 49.2225 43.5441C48.6391 43.1265 48.19 42.5249 47.8752 41.7394C47.5636 40.9506 47.4078 40.001 47.4078 38.8907C47.4112 37.7804 47.5686 36.8358 47.8801 36.0569C48.195 35.2747 48.6441 34.6781 49.2275 34.2671C49.8141 33.8561 50.5151 33.6507 51.3304 33.6507C52.1458 33.6507 52.8468 33.8561 53.4334 34.2671C54.0201 34.6781 54.4692 35.2747 54.7807 36.0569C55.0956 36.8391 55.253 37.7837 55.253 38.8907C55.253 40.0043 55.0956 40.9556 54.7807 41.7444C54.4692 42.5299 54.0201 43.1298 53.4334 43.5441C52.8501 43.9584 52.1491 44.1656 51.3304 44.1656ZM51.3304 42.6095C51.9668 42.6095 52.4689 42.2963 52.8368 41.6698C53.208 41.0401 53.3936 40.1137 53.3936 38.8907C53.3936 38.082 53.3091 37.4026 53.1401 36.8524C52.9711 36.3022 52.7324 35.8879 52.4242 35.6095C52.1159 35.3277 51.7514 35.1869 51.3304 35.1869C50.6974 35.1869 50.1969 35.5017 49.829 36.1315C49.4611 36.7579 49.2755 37.6776 49.2722 38.8907C49.2689 39.7027 49.3501 40.3855 49.5158 40.939C49.6848 41.4925 49.9235 41.9101 50.2317 42.1919C50.54 42.4703 50.9062 42.6095 51.3304 42.6095Z" fill="black"/>
<path d="M19.9945 165.605C19.2786 165.605 18.6422 165.482 18.0854 165.237C17.5319 164.992 17.0944 164.65 16.7729 164.213C16.4514 163.775 16.2807 163.27 16.2608 162.697H18.1301C18.1467 162.972 18.2379 163.212 18.4036 163.418C18.5693 163.62 18.7897 163.777 19.0648 163.89C19.3399 164.003 19.6481 164.059 19.9895 164.059C20.3541 164.059 20.6773 163.996 20.959 163.87C21.2407 163.741 21.4611 163.562 21.6202 163.333C21.7793 163.104 21.8572 162.841 21.8539 162.543C21.8572 162.234 21.7776 161.963 21.6152 161.727C21.4528 161.492 21.2175 161.308 20.9093 161.175C20.6043 161.043 20.2364 160.976 19.8056 160.976H18.9057V159.555H19.8056C20.1602 159.555 20.4701 159.493 20.7353 159.371C21.0037 159.248 21.2142 159.076 21.3667 158.854C21.5191 158.628 21.5937 158.368 21.5904 158.073C21.5937 157.785 21.5291 157.534 21.3965 157.322C21.2672 157.107 21.0833 156.94 20.8446 156.82C20.6093 156.701 20.3326 156.641 20.0144 156.641C19.7028 156.641 19.4145 156.698 19.1493 156.81C18.8842 156.923 18.6704 157.084 18.508 157.293C18.3456 157.498 18.2594 157.743 18.2495 158.028H16.4746C16.4879 157.458 16.6519 156.958 16.9668 156.527C17.285 156.093 17.7092 155.755 18.2395 155.513C18.7698 155.267 19.3648 155.145 20.0243 155.145C20.7038 155.145 21.2937 155.272 21.7942 155.528C22.298 155.78 22.6874 156.119 22.9625 156.547C23.2376 156.974 23.3752 157.447 23.3752 157.964C23.3785 158.537 23.2095 159.018 22.8681 159.405C22.53 159.793 22.0859 160.047 21.5357 160.166V160.246C22.2516 160.345 22.8001 160.61 23.1813 161.041C23.5658 161.469 23.7563 162.001 23.753 162.637C23.753 163.207 23.5906 163.717 23.2658 164.168C22.9443 164.616 22.5002 164.967 21.9334 165.222C21.37 165.477 20.7237 165.605 19.9945 165.605ZM27.2915 164.074L27.2269 164.621C27.1805 165.038 27.0977 165.463 26.9783 165.893C26.8623 166.328 26.7397 166.727 26.6104 167.092C26.4812 167.456 26.3768 167.743 26.2972 167.952H25.0842C25.1306 167.749 25.1935 167.474 25.2731 167.126C25.3559 166.778 25.4355 166.387 25.5117 165.953C25.5879 165.519 25.6393 165.078 25.6658 164.631L25.7006 164.074H27.2915ZM32.6547 165.66C31.836 165.66 31.1333 165.453 30.5467 165.038C29.9634 164.621 29.5143 164.019 29.1994 163.234C28.8878 162.445 28.7321 161.495 28.7321 160.385C28.7354 159.275 28.8928 158.33 29.2044 157.551C29.5192 156.769 29.9683 156.172 30.5517 155.761C31.1383 155.35 31.8393 155.145 32.6547 155.145C33.47 155.145 34.171 155.35 34.7576 155.761C35.3443 156.172 35.7934 156.769 36.1049 157.551C36.4198 158.333 36.5772 159.278 36.5772 160.385C36.5772 161.498 36.4198 162.45 36.1049 163.239C35.7934 164.024 35.3443 164.624 34.7576 165.038C34.1743 165.453 33.4733 165.66 32.6547 165.66ZM32.6547 164.104C33.291 164.104 33.7931 163.79 34.161 163.164C34.5323 162.534 34.7179 161.608 34.7179 160.385C34.7179 159.576 34.6333 158.897 34.4643 158.347C34.2953 157.796 34.0566 157.382 33.7484 157.104C33.4402 156.822 33.0756 156.681 32.6547 156.681C32.0216 156.681 31.5211 156.996 31.1532 157.626C30.7853 158.252 30.5997 159.172 30.5964 160.385C30.5931 161.197 30.6743 161.88 30.84 162.433C31.0091 162.987 31.2477 163.404 31.5559 163.686C31.8642 163.964 32.2304 164.104 32.6547 164.104ZM41.9925 165.66C41.1739 165.66 40.4712 165.453 39.8846 165.038C39.3013 164.621 38.8522 164.019 38.5373 163.234C38.2257 162.445 38.07 161.495 38.07 160.385C38.0733 159.275 38.2307 158.33 38.5423 157.551C38.8571 156.769 39.3062 156.172 39.8896 155.761C40.4762 155.35 41.1772 155.145 41.9925 155.145C42.8079 155.145 43.5089 155.35 44.0955 155.761C44.6822 156.172 45.1313 156.769 45.4428 157.551C45.7577 158.333 45.9151 159.278 45.9151 160.385C45.9151 161.498 45.7577 162.45 45.4428 163.239C45.1313 164.024 44.6822 164.624 44.0955 165.038C43.5122 165.453 42.8112 165.66 41.9925 165.66ZM41.9925 164.104C42.6289 164.104 43.131 163.79 43.4989 163.164C43.8701 162.534 44.0558 161.608 44.0558 160.385C44.0558 159.576 43.9712 158.897 43.8022 158.347C43.6332 157.796 43.3945 157.382 43.0863 157.104C42.7781 156.822 42.4135 156.681 41.9925 156.681C41.3595 156.681 40.859 156.996 40.4911 157.626C40.1232 158.252 39.9376 159.172 39.9343 160.385C39.931 161.197 40.0122 161.88 40.1779 162.433C40.3469 162.987 40.5856 163.404 40.8938 163.686C41.2021 163.964 41.5683 164.104 41.9925 164.104ZM51.3304 165.66C50.5118 165.66 49.8091 165.453 49.2225 165.038C48.6391 164.621 48.19 164.019 47.8752 163.234C47.5636 162.445 47.4078 161.495 47.4078 160.385C47.4112 159.275 47.5686 158.33 47.8801 157.551C48.195 156.769 48.6441 156.172 49.2275 155.761C49.8141 155.35 50.5151 155.145 51.3304 155.145C52.1458 155.145 52.8468 155.35 53.4334 155.761C54.0201 156.172 54.4692 156.769 54.7807 157.551C55.0956 158.333 55.253 159.278 55.253 160.385C55.253 161.498 55.0956 162.45 54.7807 163.239C54.4692 164.024 54.0201 164.624 53.4334 165.038C52.8501 165.453 52.1491 165.66 51.3304 165.66ZM51.3304 164.104C51.9668 164.104 52.4689 163.79 52.8368 163.164C53.208 162.534 53.3936 161.608 53.3936 160.385C53.3936 159.576 53.3091 158.897 53.1401 158.347C52.9711 157.796 52.7324 157.382 52.4242 157.104C52.1159 156.822 51.7514 156.681 51.3304 156.681C50.6974 156.681 50.1969 156.996 49.829 157.626C49.4611 158.252 49.2755 159.172 49.2722 160.385C49.2689 161.197 49.3501 161.88 49.5158 162.433C49.6848 162.987 49.9235 163.404 50.2317 163.686C50.54 163.964 50.9062 164.104 51.3304 164.104Z" fill="black"/>
<path d="M23.1341 273.715V283.896H21.2896V275.509H21.2299L18.8485 277.031V275.34L21.3791 273.715H23.1341ZM27.2915 282.504L27.2269 283.051C27.1805 283.469 27.0977 283.893 26.9783 284.324C26.8623 284.758 26.7397 285.158 26.6104 285.522C26.4812 285.887 26.3768 286.173 26.2972 286.382H25.0842C25.1306 286.18 25.1935 285.905 25.2731 285.557C25.3559 285.209 25.4355 284.818 25.5117 284.384C25.5879 283.95 25.6393 283.509 25.6658 283.061L25.7006 282.504H27.2915ZM32.6547 284.09C31.836 284.09 31.1333 283.883 30.5467 283.469C29.9634 283.051 29.5143 282.45 29.1994 281.664C28.8878 280.875 28.7321 279.926 28.7321 278.816C28.7354 277.705 28.8928 276.761 29.2044 275.982C29.5192 275.2 29.9683 274.603 30.5517 274.192C31.1383 273.781 31.8393 273.575 32.6547 273.575C33.47 273.575 34.171 273.781 34.7576 274.192C35.3443 274.603 35.7934 275.2 36.1049 275.982C36.4198 276.764 36.5772 277.709 36.5772 278.816C36.5772 279.929 36.4198 280.88 36.1049 281.669C35.7934 282.455 35.3443 283.055 34.7576 283.469C34.1743 283.883 33.4733 284.09 32.6547 284.09ZM32.6547 282.534C33.291 282.534 33.7931 282.221 34.161 281.595C34.5323 280.965 34.7179 280.039 34.7179 278.816C34.7179 278.007 34.6333 277.327 34.4643 276.777C34.2953 276.227 34.0566 275.813 33.7484 275.534C33.4402 275.253 33.0756 275.112 32.6547 275.112C32.0216 275.112 31.5211 275.427 31.1532 276.056C30.7853 276.683 30.5997 277.602 30.5964 278.816C30.5931 279.628 30.6743 280.31 30.84 280.864C31.0091 281.417 31.2477 281.835 31.5559 282.117C31.8642 282.395 32.2304 282.534 32.6547 282.534ZM41.9925 284.09C41.1739 284.09 40.4712 283.883 39.8846 283.469C39.3013 283.051 38.8522 282.45 38.5373 281.664C38.2257 280.875 38.07 279.926 38.07 278.816C38.0733 277.705 38.2307 276.761 38.5423 275.982C38.8571 275.2 39.3062 274.603 39.8896 274.192C40.4762 273.781 41.1772 273.575 41.9925 273.575C42.8079 273.575 43.5089 273.781 44.0955 274.192C44.6822 274.603 45.1313 275.2 45.4428 275.982C45.7577 276.764 45.9151 277.709 45.9151 278.816C45.9151 279.929 45.7577 280.88 45.4428 281.669C45.1313 282.455 44.6822 283.055 44.0955 283.469C43.5122 283.883 42.8112 284.09 41.9925 284.09ZM41.9925 282.534C42.6289 282.534 43.131 282.221 43.4989 281.595C43.8701 280.965 44.0558 280.039 44.0558 278.816C44.0558 278.007 43.9712 277.327 43.8022 276.777C43.6332 276.227 43.3945 275.813 43.0863 275.534C42.7781 275.253 42.4135 275.112 41.9925 275.112C41.3595 275.112 40.859 275.427 40.4911 276.056C40.1232 276.683 39.9376 277.602 39.9343 278.816C39.931 279.628 40.0122 280.31 40.1779 280.864C40.3469 281.417 40.5856 281.835 40.8938 282.117C41.2021 282.395 41.5683 282.534 41.9925 282.534ZM51.3304 284.09C50.5118 284.09 49.8091 283.883 49.2225 283.469C48.6391 283.051 48.19 282.45 47.8752 281.664C47.5636 280.875 47.4078 279.926 47.4078 278.816C47.4112 277.705 47.5686 276.761 47.8801 275.982C48.195 275.2 48.6441 274.603 49.2275 274.192C49.8141 273.781 50.5151 273.575 51.3304 273.575C52.1458 273.575 52.8468 273.781 53.4334 274.192C54.0201 274.603 54.4692 275.2 54.7807 275.982C55.0956 276.764 55.253 277.709 55.253 278.816C55.253 279.929 55.0956 280.88 54.7807 281.669C54.4692 282.455 54.0201 283.055 53.4334 283.469C52.8501 283.883 52.1491 284.09 51.3304 284.09ZM51.3304 282.534C51.9668 282.534 52.4689 282.221 52.8368 281.595C53.208 280.965 53.3936 280.039 53.3936 278.816C53.3936 278.007 53.3091 277.327 53.1401 276.777C52.9711 276.227 52.7324 275.813 52.4242 275.534C52.1159 275.253 51.7514 275.112 51.3304 275.112C50.6974 275.112 50.1969 275.427 49.829 276.056C49.4611 276.683 49.2755 277.602 49.2722 278.816C49.2689 279.628 49.3501 280.31 49.5158 280.864C49.6848 281.417 49.9235 281.835 50.2317 282.117C50.54 282.395 50.9062 282.534 51.3304 282.534Z" fill="black"/>
<path d="M16.4634 224.682V223.349L19.9982 219.884C20.3363 219.543 20.618 219.239 20.8434 218.974C21.0688 218.709 21.2378 218.452 21.3505 218.204C21.4632 217.955 21.5195 217.69 21.5195 217.408C21.5195 217.087 21.4466 216.812 21.3008 216.583C21.1549 216.351 20.9544 216.172 20.6992 216.046C20.444 215.92 20.154 215.857 19.8292 215.857C19.4944 215.857 19.2011 215.927 18.9492 216.066C18.6973 216.202 18.5018 216.396 18.3626 216.648C18.2267 216.899 18.1587 217.199 18.1587 217.547H16.4038C16.4038 216.901 16.5513 216.339 16.8462 215.862C17.1412 215.385 17.5472 215.015 18.0643 214.753C18.5846 214.492 19.1812 214.361 19.854 214.361C20.5368 214.361 21.1367 214.488 21.6538 214.743C22.1708 214.999 22.5719 215.348 22.8569 215.792C23.1452 216.237 23.2894 216.744 23.2894 217.314C23.2894 217.695 23.2165 218.069 23.0707 218.437C22.9248 218.805 22.668 219.213 22.3001 219.66C21.9355 220.108 21.4234 220.65 20.7638 221.286L19.0089 223.071V223.14H23.4435V224.682H16.4634ZM27.2915 223.29L27.2269 223.836C27.1805 224.254 27.0977 224.678 26.9783 225.109C26.8623 225.543 26.7397 225.943 26.6104 226.307C26.4812 226.672 26.3768 226.959 26.2972 227.167H25.0842C25.1306 226.965 25.1935 226.69 25.2731 226.342C25.3559 225.994 25.4355 225.603 25.5117 225.169C25.5879 224.735 25.6393 224.294 25.6658 223.846L25.7006 223.29H27.2915ZM32.6547 224.876C31.836 224.876 31.1333 224.668 30.5467 224.254C29.9634 223.836 29.5143 223.235 29.1994 222.449C28.8878 221.661 28.7321 220.711 28.7321 219.601C28.7354 218.49 28.8928 217.546 29.2044 216.767C29.5192 215.985 29.9683 215.388 30.5517 214.977C31.1383 214.566 31.8393 214.361 32.6547 214.361C33.47 214.361 34.171 214.566 34.7576 214.977C35.3443 215.388 35.7934 215.985 36.1049 216.767C36.4198 217.549 36.5772 218.494 36.5772 219.601C36.5772 220.714 36.4198 221.666 36.1049 222.454C35.7934 223.24 35.3443 223.84 34.7576 224.254C34.1743 224.668 33.4733 224.876 32.6547 224.876ZM32.6547 223.319C33.291 223.319 33.7931 223.006 34.161 222.38C34.5323 221.75 34.7179 220.824 34.7179 219.601C34.7179 218.792 34.6333 218.113 34.4643 217.562C34.2953 217.012 34.0566 216.598 33.7484 216.319C33.4402 216.038 33.0756 215.897 32.6547 215.897C32.0216 215.897 31.5211 216.212 31.1532 216.841C30.7853 217.468 30.5997 218.388 30.5964 219.601C30.5931 220.413 30.6743 221.095 30.84 221.649C31.0091 222.202 31.2477 222.62 31.5559 222.902C31.8642 223.18 32.2304 223.319 32.6547 223.319ZM41.9925 224.876C41.1739 224.876 40.4712 224.668 39.8846 224.254C39.3013 223.836 38.8522 223.235 38.5373 222.449C38.2257 221.661 38.07 220.711 38.07 219.601C38.0733 218.49 38.2307 217.546 38.5423 216.767C38.8571 215.985 39.3062 215.388 39.8896 214.977C40.4762 214.566 41.1772 214.361 41.9925 214.361C42.8079 214.361 43.5089 214.566 44.0955 214.977C44.6822 215.388 45.1313 215.985 45.4428 216.767C45.7577 217.549 45.9151 218.494 45.9151 219.601C45.9151 220.714 45.7577 221.666 45.4428 222.454C45.1313 223.24 44.6822 223.84 44.0955 224.254C43.5122 224.668 42.8112 224.876 41.9925 224.876ZM41.9925 223.319C42.6289 223.319 43.131 223.006 43.4989 222.38C43.8701 221.75 44.0558 220.824 44.0558 219.601C44.0558 218.792 43.9712 218.113 43.8022 217.562C43.6332 217.012 43.3945 216.598 43.0863 216.319C42.7781 216.038 42.4135 215.897 41.9925 215.897C41.3595 215.897 40.859 216.212 40.4911 216.841C40.1232 217.468 39.9376 218.388 39.9343 219.601C39.931 220.413 40.0122 221.095 40.1779 221.649C40.3469 222.202 40.5856 222.62 40.8938 222.902C41.2021 223.18 41.5683 223.319 41.9925 223.319ZM51.3304 224.876C50.5118 224.876 49.8091 224.668 49.2225 224.254C48.6391 223.836 48.19 223.235 47.8752 222.449C47.5636 221.661 47.4078 220.711 47.4078 219.601C47.4112 218.49 47.5686 217.546 47.8801 216.767C48.195 215.985 48.6441 215.388 49.2275 214.977C49.8141 214.566 50.5151 214.361 51.3304 214.361C52.1458 214.361 52.8468 214.566 53.4334 214.977C54.0201 215.388 54.4692 215.985 54.7807 216.767C55.0956 217.549 55.253 218.494 55.253 219.601C55.253 220.714 55.0956 221.666 54.7807 222.454C54.4692 223.24 54.0201 223.84 53.4334 224.254C52.8501 224.668 52.1491 224.876 51.3304 224.876ZM51.3304 223.319C51.9668 223.319 52.4689 223.006 52.8368 222.38C53.208 221.75 53.3936 220.824 53.3936 219.601C53.3936 218.792 53.3091 218.113 53.1401 217.562C52.9711 217.012 52.7324 216.598 52.4242 216.319C52.1159 216.038 51.7514 215.897 51.3304 215.897C50.6974 215.897 50.1969 216.212 49.829 216.841C49.4611 217.468 49.2755 218.388 49.2722 219.601C49.2689 220.413 49.3501 221.095 49.5158 221.649C49.6848 222.202 49.9235 222.62 50.2317 222.902C50.54 223.18 50.9062 223.319 51.3304 223.319Z" fill="black"/>
<path d="M15.9377 103.34V101.874L20.258 95.0477H21.481V97.1357H20.7353L17.8269 101.744V101.824H23.8574V103.34H15.9377ZM20.7949 105.229V102.893L20.8148 102.237V95.0477H22.5549V105.229H20.7949ZM27.2915 103.837L27.2269 104.384C27.1805 104.802 27.0977 105.226 26.9783 105.657C26.8623 106.091 26.7397 106.491 26.6104 106.855C26.4812 107.22 26.3768 107.506 26.2972 107.715H25.0842C25.1306 107.513 25.1935 107.238 25.2731 106.89C25.3559 106.542 25.4355 106.151 25.5117 105.717C25.5879 105.283 25.6393 104.842 25.6658 104.394L25.7006 103.837H27.2915ZM32.6547 105.423C31.836 105.423 31.1333 105.216 30.5467 104.802C29.9634 104.384 29.5143 103.783 29.1994 102.997C28.8878 102.208 28.7321 101.259 28.7321 100.149C28.7354 99.0382 28.8928 98.0936 29.2044 97.3147C29.5192 96.5325 29.9683 95.9359 30.5517 95.5249C31.1383 95.114 31.8393 94.9085 32.6547 94.9085C33.47 94.9085 34.171 95.114 34.7576 95.5249C35.3443 95.9359 35.7934 96.5325 36.1049 97.3147C36.4198 98.0969 36.5772 99.0415 36.5772 100.149C36.5772 101.262 36.4198 102.213 36.1049 103.002C35.7934 103.788 35.3443 104.388 34.7576 104.802C34.1743 105.216 33.4733 105.423 32.6547 105.423ZM32.6547 103.867C33.291 103.867 33.7931 103.554 34.161 102.928C34.5323 102.298 34.7179 101.372 34.7179 100.149C34.7179 99.3398 34.6333 98.6604 34.4643 98.1102C34.2953 97.56 34.0566 97.1457 33.7484 96.8673C33.4402 96.5856 33.0756 96.4447 32.6547 96.4447C32.0216 96.4447 31.5211 96.7596 31.1532 97.3893C30.7853 98.0157 30.5997 98.9355 30.5964 100.149C30.5931 100.961 30.6743 101.643 30.84 102.197C31.0091 102.75 31.2477 103.168 31.5559 103.45C31.8642 103.728 32.2304 103.867 32.6547 103.867ZM41.9925 105.423C41.1739 105.423 40.4712 105.216 39.8846 104.802C39.3013 104.384 38.8522 103.783 38.5373 102.997C38.2257 102.208 38.07 101.259 38.07 100.149C38.0733 99.0382 38.2307 98.0936 38.5423 97.3147C38.8571 96.5325 39.3062 95.9359 39.8896 95.5249C40.4762 95.114 41.1772 94.9085 41.9925 94.9085C42.8079 94.9085 43.5089 95.114 44.0955 95.5249C44.6822 95.9359 45.1313 96.5325 45.4428 97.3147C45.7577 98.0969 45.9151 99.0415 45.9151 100.149C45.9151 101.262 45.7577 102.213 45.4428 103.002C45.1313 103.788 44.6822 104.388 44.0955 104.802C43.5122 105.216 42.8112 105.423 41.9925 105.423ZM41.9925 103.867C42.6289 103.867 43.131 103.554 43.4989 102.928C43.8701 102.298 44.0558 101.372 44.0558 100.149C44.0558 99.3398 43.9712 98.6604 43.8022 98.1102C43.6332 97.56 43.3945 97.1457 43.0863 96.8673C42.7781 96.5856 42.4135 96.4447 41.9925 96.4447C41.3595 96.4447 40.859 96.7596 40.4911 97.3893C40.1232 98.0157 39.9376 98.9355 39.9343 100.149C39.931 100.961 40.0122 101.643 40.1779 102.197C40.3469 102.75 40.5856 103.168 40.8938 103.45C41.2021 103.728 41.5683 103.867 41.9925 103.867ZM51.3304 105.423C50.5118 105.423 49.8091 105.216 49.2225 104.802C48.6391 104.384 48.19 103.783 47.8752 102.997C47.5636 102.208 47.4078 101.259 47.4078 100.149C47.4112 99.0382 47.5686 98.0936 47.8801 97.3147C48.195 96.5325 48.6441 95.9359 49.2275 95.5249C49.8141 95.114 50.5151 94.9085 51.3304 94.9085C52.1458 94.9085 52.8468 95.114 53.4334 95.5249C54.0201 95.9359 54.4692 96.5325 54.7807 97.3147C55.0956 98.0969 55.253 99.0415 55.253 100.149C55.253 101.262 55.0956 102.213 54.7807 103.002C54.4692 103.788 54.0201 104.388 53.4334 104.802C52.8501 105.216 52.1491 105.423 51.3304 105.423ZM51.3304 103.867C51.9668 103.867 52.4689 103.554 52.8368 102.928C53.208 102.298 53.3936 101.372 53.3936 100.149C53.3936 99.3398 53.3091 98.6604 53.1401 98.1102C52.9711 97.56 52.7324 97.1457 52.4242 96.8673C52.1159 96.5856 51.7514 96.4447 51.3304 96.4447C50.6974 96.4447 50.1969 96.7596 49.829 97.3893C49.4611 98.0157 49.2755 98.9355 49.2722 100.149C49.2689 100.961 49.3501 101.643 49.5158 102.197C49.6848 102.75 49.9235 103.168 50.2317 103.45C50.54 103.728 50.9062 103.867 51.3304 103.867Z" fill="black"/>
<path d="M51.3304 348.411C50.5118 348.411 49.8091 348.204 49.2225 347.789C48.6391 347.372 48.19 346.77 47.8752 345.985C47.5636 345.196 47.4078 344.246 47.4078 343.136C47.4112 342.026 47.5686 341.081 47.8801 340.302C48.195 339.52 48.6441 338.923 49.2275 338.512C49.8141 338.101 50.5151 337.896 51.3304 337.896C52.1458 337.896 52.8468 338.101 53.4334 338.512C54.0201 338.923 54.4692 339.52 54.7807 340.302C55.0956 341.084 55.253 342.029 55.253 343.136C55.253 344.249 55.0956 345.201 54.7807 345.99C54.4692 346.775 54.0201 347.375 53.4334 347.789C52.8501 348.204 52.1491 348.411 51.3304 348.411ZM51.3304 346.855C51.9668 346.855 52.4689 346.541 52.8368 345.915C53.208 345.285 53.3936 344.359 53.3936 343.136C53.3936 342.327 53.3091 341.648 53.1401 341.097C52.9711 340.547 52.7324 340.133 52.4242 339.855C52.1159 339.573 51.7514 339.432 51.3304 339.432C50.6974 339.432 50.1969 339.747 49.829 340.377C49.4611 341.003 49.2755 341.923 49.2722 343.136C49.2689 343.948 49.3501 344.631 49.5158 345.184C49.6848 345.738 49.9235 346.155 50.2317 346.437C50.54 346.715 50.9062 346.855 51.3304 346.855Z" fill="black"/>
<path d="M320.918 376.606V375.274L324.453 371.809C324.791 371.467 325.072 371.164 325.298 370.899C325.523 370.634 325.692 370.377 325.805 370.128C325.918 369.88 325.974 369.615 325.974 369.333C325.974 369.012 325.901 368.736 325.755 368.508C325.609 368.276 325.409 368.097 325.154 367.971C324.898 367.845 324.608 367.782 324.284 367.782C323.949 367.782 323.656 367.851 323.404 367.991C323.152 368.127 322.956 368.32 322.817 368.572C322.681 368.824 322.613 369.124 322.613 369.472H320.858C320.858 368.826 321.006 368.264 321.301 367.787C321.596 367.31 322.002 366.94 322.519 366.678C323.039 366.416 323.636 366.285 324.308 366.285C324.991 366.285 325.591 366.413 326.108 366.668C326.625 366.923 327.026 367.273 327.311 367.717C327.6 368.161 327.744 368.668 327.744 369.239C327.744 369.62 327.671 369.994 327.525 370.362C327.379 370.73 327.122 371.138 326.754 371.585C326.39 372.033 325.878 372.574 325.218 373.211L323.463 374.996V375.065H327.898V376.606H320.918ZM333.377 376.8C332.558 376.8 331.855 376.593 331.269 376.179C330.685 375.761 330.236 375.16 329.921 374.374C329.61 373.585 329.454 372.636 329.454 371.525C329.457 370.415 329.615 369.471 329.926 368.692C330.241 367.909 330.69 367.313 331.274 366.902C331.86 366.491 332.561 366.285 333.377 366.285C334.192 366.285 334.893 366.491 335.48 366.902C336.066 367.313 336.515 367.909 336.827 368.692C337.142 369.474 337.299 370.418 337.299 371.525C337.299 372.639 337.142 373.59 336.827 374.379C336.515 375.165 336.066 375.765 335.48 376.179C334.896 376.593 334.195 376.8 333.377 376.8ZM333.377 375.244C334.013 375.244 334.515 374.931 334.883 374.305C335.254 373.675 335.44 372.748 335.44 371.525C335.44 370.717 335.355 370.037 335.186 369.487C335.017 368.937 334.779 368.523 334.47 368.244C334.162 367.963 333.798 367.822 333.377 367.822C332.744 367.822 332.243 368.137 331.875 368.766C331.507 369.393 331.322 370.312 331.318 371.525C331.315 372.338 331.396 373.02 331.562 373.574C331.731 374.127 331.97 374.545 332.278 374.827C332.586 375.105 332.952 375.244 333.377 375.244ZM343.092 366.425V376.606H341.248V368.219H341.188L338.807 369.741V368.05L341.337 366.425H343.092ZM346.05 376.606L350.381 368.035V367.966H345.354V366.425H352.29V368.001L347.965 376.606H346.05Z" fill="black"/>
<path d="M573.327 376.606V375.274L576.861 371.809C577.199 371.467 577.481 371.164 577.707 370.899C577.932 370.634 578.101 370.377 578.214 370.128C578.326 369.88 578.383 369.615 578.383 369.333C578.383 369.012 578.31 368.736 578.164 368.508C578.018 368.276 577.818 368.097 577.562 367.971C577.307 367.845 577.017 367.782 576.692 367.782C576.358 367.782 576.064 367.851 575.812 367.991C575.561 368.127 575.365 368.32 575.226 368.572C575.09 368.824 575.022 369.124 575.022 369.472H573.267C573.267 368.826 573.414 368.264 573.709 367.787C574.004 367.31 574.41 366.94 574.927 366.678C575.448 366.416 576.044 366.285 576.717 366.285C577.4 366.285 578 366.413 578.517 366.668C579.034 366.923 579.435 367.273 579.72 367.717C580.008 368.161 580.153 368.668 580.153 369.239C580.153 369.62 580.08 369.994 579.934 370.362C579.788 370.73 579.531 371.138 579.163 371.585C578.799 372.033 578.287 372.574 577.627 373.211L575.872 374.996V375.065H580.307V376.606H573.327ZM585.785 376.8C584.967 376.8 584.264 376.593 583.677 376.179C583.094 375.761 582.645 375.16 582.33 374.374C582.019 373.585 581.863 372.636 581.863 371.525C581.866 370.415 582.024 369.471 582.335 368.692C582.65 367.909 583.099 367.313 583.682 366.902C584.269 366.491 584.97 366.285 585.785 366.285C586.601 366.285 587.302 366.491 587.888 366.902C588.475 367.313 588.924 367.909 589.236 368.692C589.551 369.474 589.708 370.418 589.708 371.525C589.708 372.639 589.551 373.59 589.236 374.379C588.924 375.165 588.475 375.765 587.888 376.179C587.305 376.593 586.604 376.8 585.785 376.8ZM585.785 375.244C586.422 375.244 586.924 374.931 587.292 374.305C587.663 373.675 587.849 372.748 587.849 371.525C587.849 370.717 587.764 370.037 587.595 369.487C587.426 368.937 587.187 368.523 586.879 368.244C586.571 367.963 586.206 367.822 585.785 367.822C585.152 367.822 584.652 368.137 584.284 368.766C583.916 369.393 583.731 370.312 583.727 371.525C583.724 372.338 583.805 373.02 583.971 373.574C584.14 374.127 584.378 374.545 584.687 374.827C584.995 375.105 585.361 375.244 585.785 375.244ZM595.501 366.425V376.606H593.657V368.219H593.597L591.216 369.741V368.05L593.746 366.425H595.501ZM601.706 376.746C600.967 376.746 600.31 376.621 599.737 376.373C599.167 376.124 598.719 375.784 598.395 375.354C598.073 374.919 597.914 374.427 597.917 373.877C597.914 373.449 598.007 373.057 598.196 372.699C598.385 372.341 598.64 372.043 598.961 371.804C599.286 371.562 599.647 371.408 600.045 371.342V371.272C599.522 371.156 599.097 370.889 598.772 370.472C598.451 370.051 598.292 369.565 598.295 369.015C598.292 368.491 598.438 368.024 598.733 367.613C599.028 367.202 599.432 366.879 599.946 366.643C600.459 366.405 601.046 366.285 601.706 366.285C602.359 366.285 602.94 366.405 603.451 366.643C603.964 366.879 604.369 367.202 604.664 367.613C604.962 368.024 605.111 368.491 605.111 369.015C605.111 369.565 604.947 370.051 604.619 370.472C604.294 370.889 603.875 371.156 603.361 371.272V371.342C603.759 371.408 604.117 371.562 604.435 371.804C604.757 372.043 605.012 372.341 605.201 372.699C605.393 373.057 605.489 373.449 605.489 373.877C605.489 374.427 605.327 374.919 605.002 375.354C604.677 375.784 604.23 376.124 603.66 376.373C603.093 376.621 602.442 376.746 601.706 376.746ZM601.706 375.324C602.087 375.324 602.418 375.259 602.7 375.13C602.982 374.997 603.201 374.812 603.356 374.573C603.512 374.334 603.592 374.059 603.595 373.748C603.592 373.423 603.507 373.136 603.341 372.888C603.179 372.636 602.955 372.439 602.67 372.296C602.388 372.154 602.067 372.082 601.706 372.082C601.341 372.082 601.016 372.154 600.731 372.296C600.446 372.439 600.221 372.636 600.055 372.888C599.893 373.136 599.813 373.423 599.817 373.748C599.813 374.059 599.889 374.334 600.045 374.573C600.201 374.808 600.42 374.992 600.701 375.125C600.986 375.257 601.321 375.324 601.706 375.324ZM601.706 370.685C602.017 370.685 602.292 370.622 602.531 370.496C602.773 370.37 602.964 370.195 603.103 369.969C603.242 369.744 603.313 369.484 603.317 369.189C603.313 368.897 603.244 368.642 603.108 368.423C602.972 368.201 602.783 368.03 602.541 367.911C602.299 367.788 602.021 367.727 601.706 367.727C601.384 367.727 601.101 367.788 600.856 367.911C600.614 368.03 600.425 368.201 600.289 368.423C600.156 368.642 600.092 368.897 600.095 369.189C600.092 369.484 600.158 369.744 600.294 369.969C600.433 370.191 600.624 370.367 600.866 370.496C601.111 370.622 601.391 370.685 601.706 370.685Z" fill="black"/>
<path d="M825.541 376.606V375.274L829.076 371.809C829.414 371.467 829.696 371.164 829.921 370.899C830.146 370.634 830.315 370.377 830.428 370.128C830.541 369.88 830.597 369.615 830.597 369.333C830.597 369.012 830.524 368.736 830.378 368.508C830.233 368.276 830.032 368.097 829.777 367.971C829.522 367.845 829.232 367.782 828.907 367.782C828.572 367.782 828.279 367.851 828.027 367.991C827.775 368.127 827.579 368.32 827.44 368.572C827.304 368.824 827.236 369.124 827.236 369.472H825.481C825.481 368.826 825.629 368.264 825.924 367.787C826.219 367.31 826.625 366.94 827.142 366.678C827.662 366.416 828.259 366.285 828.932 366.285C829.614 366.285 830.214 366.413 830.731 366.668C831.248 366.923 831.649 367.273 831.934 367.717C832.223 368.161 832.367 368.668 832.367 369.239C832.367 369.62 832.294 369.994 832.148 370.362C832.002 370.73 831.746 371.138 831.378 371.585C831.013 372.033 830.501 372.574 829.841 373.211L828.086 374.996V375.065H832.521V376.606H825.541ZM838 376.8C837.181 376.8 836.478 376.593 835.892 376.179C835.308 375.761 834.859 375.16 834.545 374.374C834.233 373.585 834.077 372.636 834.077 371.525C834.081 370.415 834.238 369.471 834.55 368.692C834.864 367.909 835.313 367.313 835.897 366.902C836.483 366.491 837.184 366.285 838 366.285C838.815 366.285 839.516 366.491 840.103 366.902C840.689 367.313 841.139 367.909 841.45 368.692C841.765 369.474 841.922 370.418 841.922 371.525C841.922 372.639 841.765 373.59 841.45 374.379C841.139 375.165 840.689 375.765 840.103 376.179C839.519 376.593 838.818 376.8 838 376.8ZM838 375.244C838.636 375.244 839.138 374.931 839.506 374.305C839.877 373.675 840.063 372.748 840.063 371.525C840.063 370.717 839.978 370.037 839.809 369.487C839.64 368.937 839.402 368.523 839.094 368.244C838.785 367.963 838.421 367.822 838 367.822C837.367 367.822 836.866 368.137 836.498 368.766C836.13 369.393 835.945 370.312 835.942 371.525C835.938 372.338 836.019 373.02 836.185 373.574C836.354 374.127 836.593 374.545 836.901 374.827C837.209 375.105 837.576 375.244 838 375.244ZM847.716 366.425V376.606H845.871V368.219H845.811L843.43 369.741V368.05L845.961 366.425H847.716ZM853.836 366.285C854.323 366.289 854.797 366.375 855.257 366.544C855.721 366.71 856.139 366.981 856.51 367.359C856.881 367.734 857.176 368.236 857.395 368.866C857.614 369.495 857.723 370.274 857.723 371.202C857.727 372.077 857.634 372.86 857.445 373.549C857.259 374.235 856.993 374.815 856.644 375.289C856.296 375.763 855.877 376.124 855.387 376.373C854.896 376.621 854.344 376.746 853.731 376.746C853.088 376.746 852.518 376.62 852.021 376.368C851.527 376.116 851.128 375.771 850.823 375.334C850.518 374.896 850.331 374.396 850.261 373.832H852.076C852.168 374.237 852.357 374.558 852.642 374.797C852.931 375.032 853.294 375.15 853.731 375.15C854.437 375.15 854.981 374.843 855.362 374.23C855.743 373.617 855.934 372.765 855.934 371.675H855.864C855.702 371.966 855.491 372.218 855.233 372.43C854.974 372.639 854.681 372.8 854.353 372.913C854.028 373.025 853.683 373.082 853.319 373.082C852.722 373.082 852.185 372.939 851.708 372.654C851.234 372.369 850.858 371.978 850.579 371.481C850.304 370.984 850.165 370.415 850.162 369.775C850.162 369.113 850.314 368.518 850.619 367.991C850.927 367.46 851.356 367.043 851.907 366.738C852.457 366.43 853.1 366.279 853.836 366.285ZM853.841 367.777C853.483 367.777 853.159 367.865 852.871 368.04C852.586 368.213 852.361 368.448 852.195 368.746C852.033 369.041 851.951 369.371 851.951 369.736C851.955 370.097 852.036 370.425 852.195 370.72C852.357 371.015 852.578 371.249 852.856 371.421C853.138 371.593 853.459 371.68 853.821 371.68C854.089 371.68 854.339 371.628 854.571 371.525C854.803 371.423 855.006 371.28 855.178 371.098C855.354 370.912 855.489 370.702 855.586 370.467C855.685 370.231 855.733 369.983 855.73 369.721C855.73 369.373 855.647 369.051 855.481 368.756C855.319 368.461 855.095 368.224 854.81 368.045C854.528 367.866 854.205 367.777 853.841 367.777Z" fill="black"/>
<path d="M1061.93 376.606V375.274L1065.47 371.809C1065.81 371.467 1066.09 371.164 1066.31 370.899C1066.54 370.634 1066.71 370.377 1066.82 370.128C1066.93 369.88 1066.99 369.615 1066.99 369.333C1066.99 369.012 1066.92 368.736 1066.77 368.508C1066.62 368.276 1066.42 368.097 1066.17 367.971C1065.91 367.845 1065.62 367.782 1065.3 367.782C1064.96 367.782 1064.67 367.851 1064.42 367.991C1064.17 368.127 1063.97 368.32 1063.83 368.572C1063.7 368.824 1063.63 369.124 1063.63 369.472H1061.87C1061.87 368.826 1062.02 368.264 1062.32 367.787C1062.61 367.31 1063.02 366.94 1063.53 366.678C1064.05 366.416 1064.65 366.285 1065.32 366.285C1066.01 366.285 1066.61 366.413 1067.12 366.668C1067.64 366.923 1068.04 367.273 1068.33 367.717C1068.61 368.161 1068.76 368.668 1068.76 369.239C1068.76 369.62 1068.69 369.994 1068.54 370.362C1068.39 370.73 1068.14 371.138 1067.77 371.585C1067.4 372.033 1066.89 372.574 1066.23 373.211L1064.48 374.996V375.065H1068.91V376.606H1061.93ZM1074.39 376.8C1073.57 376.8 1072.87 376.593 1072.28 376.179C1071.7 375.761 1071.25 375.16 1070.94 374.374C1070.62 373.585 1070.47 372.636 1070.47 371.525C1070.47 370.415 1070.63 369.471 1070.94 368.692C1071.26 367.909 1071.7 367.313 1072.29 366.902C1072.87 366.491 1073.58 366.285 1074.39 366.285C1075.21 366.285 1075.91 366.491 1076.49 366.902C1077.08 367.313 1077.53 367.909 1077.84 368.692C1078.16 369.474 1078.31 370.418 1078.31 371.525C1078.31 372.639 1078.16 373.59 1077.84 374.379C1077.53 375.165 1077.08 375.765 1076.49 376.179C1075.91 376.593 1075.21 376.8 1074.39 376.8ZM1074.39 375.244C1075.03 375.244 1075.53 374.931 1075.9 374.305C1076.27 373.675 1076.45 372.748 1076.45 371.525C1076.45 370.717 1076.37 370.037 1076.2 369.487C1076.03 368.937 1075.79 368.523 1075.48 368.244C1075.18 367.963 1074.81 367.822 1074.39 367.822C1073.76 367.822 1073.26 368.137 1072.89 368.766C1072.52 369.393 1072.34 370.312 1072.33 371.525C1072.33 372.338 1072.41 373.02 1072.58 373.574C1072.75 374.127 1072.98 374.545 1073.29 374.827C1073.6 375.105 1073.97 375.244 1074.39 375.244ZM1079.97 376.606V375.274L1083.5 371.809C1083.84 371.467 1084.12 371.164 1084.35 370.899C1084.57 370.634 1084.74 370.377 1084.85 370.128C1084.97 369.88 1085.02 369.615 1085.02 369.333C1085.02 369.012 1084.95 368.736 1084.8 368.508C1084.66 368.276 1084.46 368.097 1084.2 367.971C1083.95 367.845 1083.66 367.782 1083.33 367.782C1083 367.782 1082.7 367.851 1082.45 367.991C1082.2 368.127 1082 368.32 1081.86 368.572C1081.73 368.824 1081.66 369.124 1081.66 369.472H1079.91C1079.91 368.826 1080.05 368.264 1080.35 367.787C1080.64 367.31 1081.05 366.94 1081.57 366.678C1082.09 366.416 1082.68 366.285 1083.36 366.285C1084.04 366.285 1084.64 366.413 1085.16 366.668C1085.67 366.923 1086.07 367.273 1086.36 367.717C1086.65 368.161 1086.79 368.668 1086.79 369.239C1086.79 369.62 1086.72 369.994 1086.57 370.362C1086.43 370.73 1086.17 371.138 1085.8 371.585C1085.44 372.033 1084.93 372.574 1084.27 373.211L1082.51 374.996V375.065H1086.95V376.606H1079.97ZM1092.42 376.8C1091.61 376.8 1090.9 376.593 1090.32 376.179C1089.73 375.761 1089.28 375.16 1088.97 374.374C1088.66 373.585 1088.5 372.636 1088.5 371.525C1088.51 370.415 1088.66 369.471 1088.97 368.692C1089.29 367.909 1089.74 367.313 1090.32 366.902C1090.91 366.491 1091.61 366.285 1092.42 366.285C1093.24 366.285 1093.94 366.491 1094.53 366.902C1095.11 367.313 1095.56 367.909 1095.87 368.692C1096.19 369.474 1096.35 370.418 1096.35 371.525C1096.35 372.639 1096.19 373.59 1095.87 374.379C1095.56 375.165 1095.11 375.765 1094.53 376.179C1093.94 376.593 1093.24 376.8 1092.42 376.8ZM1092.42 375.244C1093.06 375.244 1093.56 374.931 1093.93 374.305C1094.3 373.675 1094.49 372.748 1094.49 371.525C1094.49 370.717 1094.4 370.037 1094.23 369.487C1094.06 368.937 1093.83 368.523 1093.52 368.244C1093.21 367.963 1092.85 367.822 1092.42 367.822C1091.79 367.822 1091.29 368.137 1090.92 368.766C1090.56 369.393 1090.37 370.312 1090.37 371.525C1090.36 372.338 1090.44 373.02 1090.61 373.574C1090.78 374.127 1091.02 374.545 1091.33 374.827C1091.63 375.105 1092 375.244 1092.42 375.244Z" fill="black"/>
<path d="M1115.98 261.254H1114.12C1114.06 260.949 1113.97 260.679 1113.82 260.443C1113.68 260.205 1113.5 260.002 1113.29 259.837C1113.08 259.671 1112.84 259.547 1112.57 259.464C1112.3 259.378 1112.01 259.335 1111.7 259.335C1111.14 259.335 1110.65 259.474 1110.23 259.752C1109.8 260.027 1109.46 260.432 1109.22 260.965C1108.98 261.496 1108.86 262.143 1108.86 262.909C1108.86 263.688 1108.98 264.344 1109.22 264.878C1109.47 265.408 1109.8 265.809 1110.23 266.081C1110.65 266.349 1111.14 266.484 1111.69 266.484C1112 266.484 1112.28 266.444 1112.55 266.364C1112.82 266.281 1113.06 266.161 1113.27 266.001C1113.48 265.842 1113.66 265.647 1113.81 265.415C1113.96 265.183 1114.06 264.918 1114.12 264.619L1115.98 264.629C1115.91 265.113 1115.76 265.567 1115.52 265.991C1115.3 266.416 1115 266.79 1114.62 267.115C1114.25 267.437 1113.82 267.688 1113.32 267.871C1112.83 268.05 1112.27 268.139 1111.67 268.139C1110.77 268.139 1109.97 267.932 1109.27 267.518C1108.57 267.103 1108.01 266.505 1107.61 265.723C1107.21 264.941 1107 264.003 1107 262.909C1107 261.812 1107.21 260.874 1107.62 260.095C1108.02 259.313 1108.58 258.715 1109.28 258.3C1109.98 257.886 1110.78 257.679 1111.67 257.679C1112.23 257.679 1112.76 257.759 1113.25 257.918C1113.74 258.077 1114.17 258.31 1114.55 258.619C1114.93 258.924 1115.24 259.298 1115.49 259.742C1115.74 260.183 1115.9 260.687 1115.98 261.254ZM1120.92 268.149C1120.17 268.149 1119.53 267.985 1118.98 267.657C1118.43 267.329 1118.01 266.87 1117.71 266.28C1117.41 265.69 1117.26 265 1117.26 264.212C1117.26 263.423 1117.41 262.732 1117.71 262.138C1118.01 261.545 1118.43 261.085 1118.98 260.756C1119.53 260.428 1120.17 260.264 1120.92 260.264C1121.66 260.264 1122.31 260.428 1122.86 260.756C1123.4 261.085 1123.83 261.545 1124.12 262.138C1124.43 262.732 1124.58 263.423 1124.58 264.212C1124.58 265 1124.43 265.69 1124.12 266.28C1123.83 266.87 1123.4 267.329 1122.86 267.657C1122.31 267.985 1121.66 268.149 1120.92 268.149ZM1120.93 266.707C1121.33 266.707 1121.67 266.596 1121.94 266.374C1122.21 266.149 1122.42 265.847 1122.55 265.469C1122.68 265.092 1122.75 264.671 1122.75 264.207C1122.75 263.739 1122.68 263.317 1122.55 262.939C1122.42 262.558 1122.21 262.254 1121.94 262.029C1121.67 261.804 1121.33 261.691 1120.93 261.691C1120.51 261.691 1120.17 261.804 1119.89 262.029C1119.62 262.254 1119.42 262.558 1119.28 262.939C1119.15 263.317 1119.08 263.739 1119.08 264.207C1119.08 264.671 1119.15 265.092 1119.28 265.469C1119.42 265.847 1119.62 266.149 1119.89 266.374C1120.17 266.596 1120.51 266.707 1120.93 266.707ZM1126.1 268V260.364H1127.82V261.661H1127.91C1128.07 261.224 1128.34 260.882 1128.7 260.637C1129.07 260.388 1129.51 260.264 1130.02 260.264C1130.54 260.264 1130.97 260.39 1131.33 260.642C1131.69 260.891 1131.94 261.23 1132.09 261.661H1132.16C1132.33 261.237 1132.62 260.899 1133.02 260.647C1133.42 260.392 1133.9 260.264 1134.46 260.264C1135.16 260.264 1135.73 260.486 1136.18 260.93C1136.62 261.375 1136.84 262.022 1136.84 262.874V268H1135.04V263.153C1135.04 262.679 1134.91 262.332 1134.66 262.114C1134.41 261.892 1134.1 261.781 1133.74 261.781C1133.3 261.781 1132.96 261.916 1132.72 262.188C1132.47 262.457 1132.35 262.806 1132.35 263.237V268H1130.59V263.078C1130.59 262.684 1130.47 262.369 1130.23 262.134C1130 261.898 1129.69 261.781 1129.31 261.781C1129.05 261.781 1128.81 261.847 1128.6 261.979C1128.39 262.109 1128.22 262.293 1128.09 262.531C1127.97 262.767 1127.9 263.042 1127.9 263.357V268H1126.1ZM1138.67 268V260.364H1140.47V268H1138.67ZM1139.57 259.28C1139.29 259.28 1139.04 259.185 1138.84 258.996C1138.63 258.804 1138.53 258.574 1138.53 258.305C1138.53 258.034 1138.63 257.803 1138.84 257.614C1139.04 257.422 1139.29 257.326 1139.57 257.326C1139.86 257.326 1140.11 257.422 1140.31 257.614C1140.51 257.803 1140.62 258.034 1140.62 258.305C1140.62 258.574 1140.51 258.804 1140.31 258.996C1140.11 259.185 1139.86 259.28 1139.57 259.28ZM1146.13 260.364V261.756H1141.74V260.364H1146.13ZM1142.83 258.534H1144.63V265.703C1144.63 265.945 1144.66 266.131 1144.74 266.26C1144.81 266.386 1144.91 266.472 1145.03 266.518C1145.16 266.565 1145.29 266.588 1145.44 266.588C1145.55 266.588 1145.66 266.58 1145.75 266.563C1145.85 266.547 1145.92 266.532 1145.97 266.518L1146.27 267.925C1146.18 267.959 1146.04 267.995 1145.86 268.035C1145.68 268.075 1145.47 268.098 1145.21 268.104C1144.76 268.118 1144.36 268.05 1143.99 267.901C1143.63 267.748 1143.35 267.513 1143.13 267.195C1142.93 266.876 1142.82 266.479 1142.83 266.001V258.534ZM1147.64 268V260.364H1149.36V261.661H1149.45C1149.61 261.224 1149.87 260.882 1150.24 260.637C1150.61 260.388 1151.04 260.264 1151.56 260.264C1152.07 260.264 1152.51 260.39 1152.86 260.642C1153.22 260.891 1153.47 261.23 1153.62 261.661H1153.7C1153.87 261.237 1154.15 260.899 1154.55 260.647C1154.96 260.392 1155.44 260.264 1155.99 260.264C1156.69 260.264 1157.27 260.486 1157.71 260.93C1158.15 261.375 1158.38 262.022 1158.38 262.874V268H1156.57V263.153C1156.57 262.679 1156.45 262.332 1156.19 262.114C1155.94 261.892 1155.63 261.781 1155.27 261.781C1154.83 261.781 1154.5 261.916 1154.25 262.188C1154.01 262.457 1153.89 262.806 1153.89 263.237V268H1152.12V263.078C1152.12 262.684 1152 262.369 1151.76 262.134C1151.53 261.898 1151.22 261.781 1150.84 261.781C1150.58 261.781 1150.35 261.847 1150.13 261.979C1149.92 262.109 1149.75 262.293 1149.63 262.531C1149.5 262.767 1149.44 263.042 1149.44 263.357V268H1147.64ZM1163.58 268.149C1162.82 268.149 1162.16 267.99 1161.6 267.672C1161.05 267.35 1160.62 266.896 1160.32 266.31C1160.02 265.72 1159.87 265.025 1159.87 264.227C1159.87 263.441 1160.02 262.752 1160.32 262.158C1160.62 261.562 1161.04 261.098 1161.58 260.766C1162.12 260.432 1162.76 260.264 1163.49 260.264C1163.96 260.264 1164.4 260.34 1164.82 260.493C1165.24 260.642 1165.61 260.874 1165.93 261.189C1166.26 261.504 1166.51 261.905 1166.7 262.392C1166.89 262.876 1166.98 263.453 1166.98 264.122V264.674H1160.72V263.461H1165.25C1165.25 263.116 1165.18 262.81 1165.03 262.541C1164.88 262.269 1164.68 262.056 1164.42 261.9C1164.16 261.744 1163.86 261.666 1163.51 261.666C1163.15 261.666 1162.82 261.756 1162.54 261.935C1162.27 262.11 1162.05 262.342 1161.89 262.631C1161.74 262.916 1161.66 263.229 1161.66 263.57V264.629C1161.66 265.073 1161.74 265.455 1161.9 265.773C1162.06 266.088 1162.29 266.33 1162.58 266.499C1162.88 266.664 1163.22 266.747 1163.61 266.747C1163.87 266.747 1164.11 266.711 1164.32 266.638C1164.53 266.562 1164.71 266.451 1164.87 266.305C1165.03 266.159 1165.14 265.978 1165.22 265.763L1166.9 265.952C1166.8 266.396 1166.6 266.784 1166.3 267.115C1166 267.443 1165.62 267.698 1165.16 267.881C1164.7 268.06 1164.18 268.149 1163.58 268.149ZM1170.3 263.526V268H1168.5V260.364H1170.22V261.661H1170.31C1170.49 261.234 1170.77 260.894 1171.15 260.642C1171.54 260.39 1172.02 260.264 1172.59 260.264C1173.11 260.264 1173.57 260.377 1173.96 260.602C1174.36 260.828 1174.66 261.154 1174.88 261.582C1175.1 262.009 1175.21 262.528 1175.2 263.138V268H1173.4V263.416C1173.4 262.906 1173.27 262.506 1173.01 262.218C1172.74 261.93 1172.38 261.786 1171.92 261.786C1171.6 261.786 1171.32 261.855 1171.08 261.994C1170.83 262.13 1170.64 262.327 1170.5 262.586C1170.37 262.844 1170.3 263.158 1170.3 263.526ZM1180.85 260.364V261.756H1176.46V260.364H1180.85ZM1177.54 258.534H1179.34V265.703C1179.34 265.945 1179.38 266.131 1179.45 266.26C1179.52 266.386 1179.62 266.472 1179.75 266.518C1179.87 266.565 1180.01 266.588 1180.15 266.588C1180.27 266.588 1180.37 266.58 1180.46 266.563C1180.56 266.547 1180.63 266.532 1180.68 266.518L1180.98 267.925C1180.89 267.959 1180.75 267.995 1180.57 268.035C1180.4 268.075 1180.18 268.098 1179.93 268.104C1179.47 268.118 1179.07 268.05 1178.71 267.901C1178.35 267.748 1178.06 267.513 1177.85 267.195C1177.64 266.876 1177.54 266.479 1177.54 266.001V258.534ZM1188.28 262.382L1186.64 262.561C1186.59 262.395 1186.51 262.24 1186.39 262.094C1186.28 261.948 1186.13 261.83 1185.94 261.741C1185.74 261.651 1185.51 261.607 1185.23 261.607C1184.85 261.607 1184.54 261.688 1184.28 261.85C1184.03 262.013 1183.91 262.223 1183.91 262.482C1183.91 262.704 1183.99 262.884 1184.16 263.023C1184.32 263.163 1184.6 263.277 1184.99 263.366L1186.29 263.645C1187.02 263.801 1187.55 264.048 1187.9 264.386C1188.26 264.724 1188.44 265.166 1188.44 265.713C1188.44 266.194 1188.3 266.618 1188.02 266.986C1187.74 267.35 1187.36 267.635 1186.87 267.841C1186.38 268.046 1185.82 268.149 1185.18 268.149C1184.24 268.149 1183.49 267.954 1182.92 267.562C1182.35 267.168 1182.01 266.62 1181.9 265.917L1183.66 265.748C1183.74 266.093 1183.91 266.353 1184.17 266.528C1184.42 266.704 1184.76 266.792 1185.17 266.792C1185.6 266.792 1185.94 266.704 1186.2 266.528C1186.47 266.353 1186.6 266.136 1186.6 265.877C1186.6 265.658 1186.51 265.478 1186.34 265.335C1186.18 265.193 1185.92 265.083 1185.57 265.007L1184.26 264.734C1183.53 264.581 1182.99 264.324 1182.64 263.963C1182.29 263.598 1182.11 263.138 1182.12 262.581C1182.11 262.11 1182.24 261.703 1182.5 261.358C1182.76 261.01 1183.12 260.741 1183.59 260.553C1184.06 260.36 1184.59 260.264 1185.2 260.264C1186.1 260.264 1186.8 260.455 1187.32 260.836C1187.83 261.217 1188.15 261.732 1188.28 262.382Z" fill="black"/>
<line x1="64" y1="331.5" x2="1127" y2="331.5" stroke="white"/>
<path d="M1111.45 288H1108V277.818H1111.52C1112.54 277.818 1113.4 278.022 1114.13 278.43C1114.86 278.834 1115.42 279.416 1115.81 280.175C1116.2 280.934 1116.4 281.842 1116.4 282.899C1116.4 283.96 1116.2 284.871 1115.8 285.634C1115.41 286.396 1114.85 286.981 1114.11 287.388C1113.37 287.796 1112.49 288 1111.45 288ZM1109.85 286.404H1111.37C1112.07 286.404 1112.67 286.275 1113.14 286.016C1113.61 285.754 1113.97 285.365 1114.21 284.848C1114.45 284.328 1114.57 283.678 1114.57 282.899C1114.57 282.12 1114.45 281.474 1114.21 280.96C1113.97 280.443 1113.62 280.057 1113.15 279.802C1112.69 279.543 1112.11 279.414 1111.42 279.414H1109.85V286.404ZM1118.07 288V280.364H1119.87V288H1118.07ZM1118.97 279.28C1118.69 279.28 1118.44 279.185 1118.24 278.996C1118.03 278.804 1117.93 278.574 1117.93 278.305C1117.93 278.034 1118.03 277.803 1118.24 277.614C1118.44 277.422 1118.69 277.326 1118.97 277.326C1119.26 277.326 1119.51 277.422 1119.71 277.614C1119.92 277.803 1120.02 278.034 1120.02 278.305C1120.02 278.574 1119.92 278.804 1119.71 278.996C1119.51 279.185 1119.26 279.28 1118.97 279.28ZM1127.76 282.382L1126.11 282.561C1126.07 282.395 1125.99 282.24 1125.87 282.094C1125.76 281.948 1125.61 281.83 1125.41 281.741C1125.22 281.651 1124.99 281.607 1124.71 281.607C1124.33 281.607 1124.02 281.688 1123.76 281.85C1123.51 282.013 1123.39 282.223 1123.39 282.482C1123.39 282.704 1123.47 282.884 1123.63 283.023C1123.8 283.163 1124.08 283.277 1124.47 283.366L1125.77 283.645C1126.49 283.801 1127.03 284.048 1127.38 284.386C1127.74 284.724 1127.92 285.166 1127.92 285.713C1127.92 286.194 1127.78 286.618 1127.5 286.986C1127.22 287.35 1126.84 287.635 1126.35 287.841C1125.86 288.046 1125.29 288.149 1124.66 288.149C1123.72 288.149 1122.97 287.954 1122.4 287.562C1121.83 287.168 1121.49 286.62 1121.38 285.917L1123.14 285.748C1123.22 286.093 1123.39 286.353 1123.64 286.528C1123.9 286.704 1124.24 286.792 1124.65 286.792C1125.08 286.792 1125.42 286.704 1125.68 286.528C1125.94 286.353 1126.07 286.136 1126.07 285.877C1126.07 285.658 1125.99 285.478 1125.82 285.335C1125.66 285.193 1125.4 285.083 1125.05 285.007L1123.74 284.734C1123.01 284.581 1122.47 284.324 1122.12 283.963C1121.77 283.598 1121.59 283.138 1121.6 282.581C1121.59 282.11 1121.72 281.703 1121.98 281.358C1122.24 281.01 1122.6 280.741 1123.07 280.553C1123.53 280.36 1124.07 280.264 1124.68 280.264C1125.58 280.264 1126.28 280.455 1126.8 280.836C1127.31 281.217 1127.63 281.732 1127.76 282.382ZM1129.48 288V277.818H1131.28V281.626H1131.36C1131.45 281.441 1131.58 281.244 1131.75 281.035C1131.92 280.823 1132.15 280.642 1132.44 280.493C1132.72 280.34 1133.09 280.264 1133.54 280.264C1134.13 280.264 1134.66 280.415 1135.14 280.717C1135.61 281.015 1135.99 281.457 1136.27 282.044C1136.55 282.627 1136.69 283.343 1136.69 284.192C1136.69 285.03 1136.55 285.743 1136.28 286.33C1136 286.916 1135.63 287.364 1135.16 287.672C1134.68 287.98 1134.14 288.134 1133.54 288.134C1133.11 288.134 1132.74 288.061 1132.46 287.915C1132.17 287.77 1131.94 287.594 1131.76 287.388C1131.59 287.18 1131.45 286.982 1131.36 286.797H1131.25V288H1129.48ZM1131.25 284.182C1131.25 284.676 1131.32 285.108 1131.46 285.479C1131.6 285.851 1131.8 286.141 1132.07 286.349C1132.34 286.555 1132.66 286.658 1133.04 286.658C1133.44 286.658 1133.77 286.552 1134.04 286.339C1134.31 286.124 1134.51 285.831 1134.65 285.46C1134.79 285.085 1134.86 284.659 1134.86 284.182C1134.86 283.708 1134.79 283.287 1134.65 282.919C1134.52 282.551 1134.32 282.263 1134.05 282.054C1133.78 281.845 1133.44 281.741 1133.04 281.741C1132.66 281.741 1132.33 281.842 1132.06 282.044C1131.79 282.246 1131.59 282.53 1131.45 282.894C1131.32 283.259 1131.25 283.688 1131.25 284.182ZM1143.09 284.788V280.364H1144.89V288H1143.14V286.643H1143.06C1142.89 287.07 1142.61 287.42 1142.21 287.692C1141.82 287.964 1141.34 288.099 1140.77 288.099C1140.27 288.099 1139.82 287.988 1139.44 287.766C1139.06 287.541 1138.76 287.214 1138.54 286.787C1138.33 286.356 1138.22 285.836 1138.22 285.226V280.364H1140.02V284.947C1140.02 285.431 1140.15 285.816 1140.42 286.101C1140.68 286.386 1141.03 286.528 1141.46 286.528C1141.73 286.528 1141.99 286.464 1142.23 286.335C1142.48 286.205 1142.69 286.013 1142.85 285.758C1143.01 285.499 1143.09 285.176 1143.09 284.788ZM1146.74 288V280.364H1148.48V281.636H1148.56C1148.7 281.196 1148.94 280.856 1149.28 280.617C1149.62 280.375 1150.01 280.254 1150.45 280.254C1150.55 280.254 1150.66 280.259 1150.78 280.269C1150.91 280.276 1151.01 280.287 1151.09 280.304V281.96C1151.02 281.933 1150.9 281.91 1150.73 281.89C1150.57 281.867 1150.41 281.855 1150.26 281.855C1149.93 281.855 1149.64 281.926 1149.37 282.069C1149.12 282.208 1148.91 282.402 1148.76 282.651C1148.61 282.899 1148.54 283.186 1148.54 283.511V288H1146.74ZM1158.33 282.382L1156.68 282.561C1156.64 282.395 1156.56 282.24 1156.44 282.094C1156.33 281.948 1156.18 281.83 1155.98 281.741C1155.79 281.651 1155.56 281.607 1155.28 281.607C1154.9 281.607 1154.59 281.688 1154.33 281.85C1154.08 282.013 1153.96 282.223 1153.96 282.482C1153.96 282.704 1154.04 282.884 1154.2 283.023C1154.37 283.163 1154.65 283.277 1155.04 283.366L1156.34 283.645C1157.06 283.801 1157.6 284.048 1157.95 284.386C1158.31 284.724 1158.49 285.166 1158.49 285.713C1158.49 286.194 1158.35 286.618 1158.07 286.986C1157.79 287.35 1157.41 287.635 1156.92 287.841C1156.43 288.046 1155.86 288.149 1155.23 288.149C1154.29 288.149 1153.54 287.954 1152.97 287.562C1152.4 287.168 1152.06 286.62 1151.95 285.917L1153.71 285.748C1153.79 286.093 1153.96 286.353 1154.21 286.528C1154.47 286.704 1154.81 286.792 1155.22 286.792C1155.65 286.792 1155.99 286.704 1156.25 286.528C1156.51 286.353 1156.65 286.136 1156.65 285.877C1156.65 285.658 1156.56 285.478 1156.39 285.335C1156.23 285.193 1155.97 285.083 1155.62 285.007L1154.31 284.734C1153.58 284.581 1153.04 284.324 1152.69 283.963C1152.34 283.598 1152.16 283.138 1152.17 282.581C1152.16 282.11 1152.29 281.703 1152.55 281.358C1152.81 281.01 1153.17 280.741 1153.64 280.553C1154.1 280.36 1154.64 280.264 1155.25 280.264C1156.15 280.264 1156.85 280.455 1157.37 280.836C1157.88 281.217 1158.2 281.732 1158.33 282.382ZM1163.35 288.149C1162.59 288.149 1161.93 287.99 1161.37 287.672C1160.82 287.35 1160.39 286.896 1160.09 286.31C1159.79 285.72 1159.65 285.025 1159.65 284.227C1159.65 283.441 1159.79 282.752 1160.09 282.158C1160.39 281.562 1160.82 281.098 1161.36 280.766C1161.9 280.432 1162.53 280.264 1163.26 280.264C1163.73 280.264 1164.17 280.34 1164.59 280.493C1165.01 280.642 1165.38 280.874 1165.71 281.189C1166.03 281.504 1166.29 281.905 1166.47 282.392C1166.66 282.876 1166.75 283.453 1166.75 284.122V284.674H1160.49V283.461H1165.02C1165.02 283.116 1164.95 282.81 1164.8 282.541C1164.66 282.269 1164.45 282.056 1164.19 281.9C1163.93 281.744 1163.63 281.666 1163.28 281.666C1162.92 281.666 1162.59 281.756 1162.32 281.935C1162.04 282.11 1161.82 282.342 1161.66 282.631C1161.51 282.916 1161.43 283.229 1161.43 283.57V284.629C1161.43 285.073 1161.51 285.455 1161.67 285.773C1161.84 286.088 1162.06 286.33 1162.35 286.499C1162.65 286.664 1162.99 286.747 1163.38 286.747C1163.64 286.747 1163.88 286.711 1164.09 286.638C1164.3 286.562 1164.49 286.451 1164.64 286.305C1164.8 286.159 1164.92 285.978 1164.99 285.763L1166.68 285.952C1166.57 286.396 1166.37 286.784 1166.07 287.115C1165.77 287.443 1165.4 287.698 1164.94 287.881C1164.47 288.06 1163.95 288.149 1163.35 288.149ZM1168.27 288V280.364H1169.99V281.661H1170.08C1170.24 281.224 1170.5 280.882 1170.87 280.637C1171.24 280.388 1171.68 280.264 1172.19 280.264C1172.71 280.264 1173.14 280.39 1173.5 280.642C1173.86 280.891 1174.11 281.23 1174.25 281.661H1174.33C1174.5 281.237 1174.79 280.899 1175.19 280.647C1175.59 280.392 1176.07 280.264 1176.62 280.264C1177.33 280.264 1177.9 280.486 1178.34 280.93C1178.79 281.375 1179.01 282.022 1179.01 282.874V288H1177.21V283.153C1177.21 282.679 1177.08 282.332 1176.83 282.114C1176.58 281.892 1176.27 281.781 1175.9 281.781C1175.47 281.781 1175.13 281.916 1174.88 282.188C1174.64 282.457 1174.52 282.806 1174.52 283.237V288H1172.76V283.078C1172.76 282.684 1172.64 282.369 1172.4 282.134C1172.16 281.898 1171.86 281.781 1171.47 281.781C1171.22 281.781 1170.98 281.847 1170.77 281.979C1170.56 282.109 1170.39 282.293 1170.26 282.531C1170.14 282.767 1170.07 283.042 1170.07 283.357V288H1168.27ZM1184.22 288.149C1183.45 288.149 1182.79 287.99 1182.23 287.672C1181.68 287.35 1181.25 286.896 1180.96 286.31C1180.66 285.72 1180.51 285.025 1180.51 284.227C1180.51 283.441 1180.66 282.752 1180.96 282.158C1181.26 281.562 1181.68 281.098 1182.22 280.766C1182.76 280.432 1183.39 280.264 1184.12 280.264C1184.59 280.264 1185.04 280.34 1185.46 280.493C1185.88 280.642 1186.25 280.874 1186.57 281.189C1186.89 281.504 1187.15 281.905 1187.33 282.392C1187.52 282.876 1187.61 283.453 1187.61 284.122V284.674H1181.35V283.461H1185.89C1185.88 283.116 1185.81 282.81 1185.66 282.541C1185.52 282.269 1185.31 282.056 1185.05 281.9C1184.79 281.744 1184.49 281.666 1184.15 281.666C1183.78 281.666 1183.46 281.756 1183.18 281.935C1182.9 282.11 1182.68 282.342 1182.53 282.631C1182.37 282.916 1182.3 283.229 1182.29 283.57V284.629C1182.29 285.073 1182.37 285.455 1182.54 285.773C1182.7 286.088 1182.93 286.33 1183.22 286.499C1183.51 286.664 1183.85 286.747 1184.24 286.747C1184.5 286.747 1184.74 286.711 1184.95 286.638C1185.17 286.562 1185.35 286.451 1185.51 286.305C1185.66 286.159 1185.78 285.978 1185.86 285.763L1187.54 285.952C1187.43 286.396 1187.23 286.784 1186.93 287.115C1186.64 287.443 1186.26 287.698 1185.8 287.881C1185.34 288.06 1184.81 288.149 1184.22 288.149ZM1190.94 283.526V288H1189.14V280.364H1190.86V281.661H1190.95C1191.12 281.234 1191.4 280.894 1191.79 280.642C1192.17 280.39 1192.65 280.264 1193.22 280.264C1193.75 280.264 1194.21 280.377 1194.6 280.602C1194.99 280.828 1195.3 281.154 1195.51 281.582C1195.73 282.009 1195.84 282.528 1195.84 283.138V288H1194.04V283.416C1194.04 282.906 1193.91 282.506 1193.64 282.218C1193.38 281.93 1193.02 281.786 1192.55 281.786C1192.24 281.786 1191.96 281.855 1191.71 281.994C1191.47 282.13 1191.28 282.327 1191.14 282.586C1191 282.844 1190.94 283.158 1190.94 283.526ZM1201.48 280.364V281.756H1197.09V280.364H1201.48ZM1198.17 278.534H1199.97V285.703C1199.97 285.945 1200.01 286.131 1200.08 286.26C1200.16 286.386 1200.26 286.472 1200.38 286.518C1200.5 286.565 1200.64 286.588 1200.79 286.588C1200.9 286.588 1201 286.58 1201.1 286.563C1201.19 286.547 1201.27 286.532 1201.32 286.518L1201.62 287.925C1201.52 287.959 1201.39 287.995 1201.21 288.035C1201.03 288.075 1200.82 288.098 1200.56 288.104C1200.11 288.118 1199.7 288.05 1199.34 287.901C1198.98 287.748 1198.69 287.513 1198.48 287.195C1198.27 286.876 1198.17 286.479 1198.17 286.001V278.534ZM1208.91 282.382L1207.27 282.561C1207.22 282.395 1207.14 282.24 1207.03 282.094C1206.91 281.948 1206.76 281.83 1206.57 281.741C1206.38 281.651 1206.14 281.607 1205.86 281.607C1205.49 281.607 1205.17 281.688 1204.92 281.85C1204.67 282.013 1204.54 282.223 1204.55 282.482C1204.54 282.704 1204.62 282.884 1204.79 283.023C1204.96 283.163 1205.24 283.277 1205.63 283.366L1206.93 283.645C1207.65 283.801 1208.19 284.048 1208.54 284.386C1208.89 284.724 1209.07 285.166 1209.08 285.713C1209.07 286.194 1208.93 286.618 1208.65 286.986C1208.38 287.35 1207.99 287.635 1207.5 287.841C1207.01 288.046 1206.45 288.149 1205.81 288.149C1204.88 288.149 1204.13 287.954 1203.56 287.562C1202.99 287.168 1202.65 286.62 1202.54 285.917L1204.29 285.748C1204.37 286.093 1204.54 286.353 1204.8 286.528C1205.06 286.704 1205.39 286.792 1205.81 286.792C1206.24 286.792 1206.58 286.704 1206.84 286.528C1207.1 286.353 1207.23 286.136 1207.23 285.877C1207.23 285.658 1207.15 285.478 1206.98 285.335C1206.81 285.193 1206.55 285.083 1206.2 285.007L1204.9 284.734C1204.17 284.581 1203.62 284.324 1203.27 283.963C1202.92 283.598 1202.75 283.138 1202.75 282.581C1202.75 282.11 1202.88 281.703 1203.13 281.358C1203.4 281.01 1203.76 280.741 1204.22 280.553C1204.69 280.36 1205.23 280.264 1205.84 280.264C1206.73 280.264 1207.44 280.455 1207.95 280.836C1208.47 281.217 1208.79 281.732 1208.91 282.382Z" fill="black"/>
<path d="M6.47727 1.81818H8.32173V8.47017C8.32173 9.19934 8.14938 9.84067 7.80469 10.3942C7.46331 10.9477 6.98272 11.3802 6.36293 11.6918C5.74313 12 5.01894 12.1541 4.19034 12.1541C3.35843 12.1541 2.63258 12 2.01278 11.6918C1.39299 11.3802 0.912405 10.9477 0.571023 10.3942C0.22964 9.84067 0.0589488 9.19934 0.0589488 8.47017V1.81818H1.90341V8.31605C1.90341 8.74029 1.99621 9.11813 2.18182 9.44957C2.37074 9.78101 2.63589 10.0412 2.97727 10.2301C3.31866 10.4157 3.72301 10.5085 4.19034 10.5085C4.65767 10.5085 5.06203 10.4157 5.40341 10.2301C5.74811 10.0412 6.01326 9.78101 6.19886 9.44957C6.38447 9.11813 6.47727 8.74029 6.47727 8.31605V1.81818ZM15.8599 4.61719C15.8135 4.183 15.618 3.84493 15.2733 3.60298C14.9319 3.36103 14.4877 3.24006 13.9409 3.24006C13.5564 3.24006 13.2266 3.29806 12.9515 3.41406C12.6764 3.53007 12.466 3.6875 12.3201 3.88636C12.1743 4.08523 12.0997 4.31226 12.0964 4.56747C12.0964 4.77959 12.1445 4.96354 12.2406 5.11932C12.34 5.27509 12.4743 5.40767 12.6433 5.51705C12.8123 5.62311 12.9996 5.71259 13.2051 5.78551C13.4106 5.85843 13.6177 5.91974 13.8265 5.96946L14.7811 6.2081C15.1655 6.29758 15.5351 6.41856 15.8897 6.57102C16.2477 6.72348 16.5675 6.91572 16.8493 7.14773C17.1343 7.37973 17.3597 7.6598 17.5254 7.98793C17.6911 8.31605 17.774 8.70052 17.774 9.14134C17.774 9.73793 17.6215 10.2633 17.3166 10.7173C17.0117 11.1681 16.5708 11.5211 15.9941 11.7763C15.4208 12.0282 14.7264 12.1541 13.911 12.1541C13.1189 12.1541 12.4312 12.0315 11.8478 11.7862C11.2678 11.541 10.8137 11.183 10.4856 10.7124C10.1608 10.2417 9.98514 9.66832 9.95863 8.99219H11.7733C11.7998 9.34683 11.9092 9.64181 12.1014 9.87713C12.2936 10.1125 12.5439 10.2881 12.8521 10.4041C13.1636 10.5201 13.5117 10.5781 13.8961 10.5781C14.2972 10.5781 14.6485 10.5185 14.9501 10.3991C15.255 10.2765 15.4937 10.1075 15.666 9.89205C15.8384 9.6733 15.9262 9.41809 15.9295 9.12642C15.9262 8.86127 15.8483 8.64252 15.6958 8.47017C15.5434 8.29451 15.3296 8.14867 15.0545 8.03267C14.7827 7.91335 14.4645 7.80729 14.1 7.71449L12.9416 7.41619C12.103 7.20076 11.4402 6.87429 10.9529 6.43679C10.469 5.99598 10.2271 5.41098 10.2271 4.68182C10.2271 4.08191 10.3895 3.55658 10.7143 3.10582C11.0424 2.65507 11.4882 2.3054 12.0517 2.05682C12.6151 1.80492 13.2531 1.67898 13.9657 1.67898C14.6883 1.67898 15.3213 1.80492 15.8649 2.05682C16.4118 2.3054 16.841 2.65175 17.1525 3.09588C17.4641 3.53669 17.6248 4.0438 17.6348 4.61719H15.8599ZM22.6001 13.2727V0.545454H23.4155V13.2727H22.6001ZM24.9517 4.61719C24.9053 4.183 24.7098 3.84493 24.3651 3.60298C24.0237 3.36103 23.5795 3.24006 23.0327 3.24006C22.6482 3.24006 22.3184 3.29806 22.0433 3.41406C21.7682 3.53007 21.5578 3.6875 21.4119 3.88636C21.2661 4.08523 21.1915 4.31226 21.1882 4.56747C21.1882 4.77959 21.2363 4.96354 21.3324 5.11932C21.4318 5.27509 21.5661 5.40767 21.7351 5.51705C21.9041 5.62311 22.0914 5.71259 22.2969 5.78551C22.5024 5.85843 22.7095 5.91974 22.9183 5.96946L23.8729 6.2081C24.2573 6.29758 24.6269 6.41856 24.9815 6.57102C25.3395 6.72348 25.6593 6.91572 25.9411 7.14773C26.2261 7.37973 26.4515 7.6598 26.6172 7.98793C26.7829 8.31605 26.8658 8.70052 26.8658 9.14134C26.8658 9.73793 26.7133 10.2633 26.4084 10.7173C26.1035 11.1681 25.6626 11.5211 25.0859 11.7763C24.5125 12.0282 23.8182 12.1541 23.0028 12.1541C22.2107 12.1541 21.523 12.0315 20.9396 11.7862C20.3596 11.541 19.9055 11.183 19.5774 10.7124C19.2526 10.2417 19.0769 9.66832 19.0504 8.99219H20.8651C20.8916 9.34683 21.0009 9.64181 21.1932 9.87713C21.3854 10.1125 21.6357 10.2881 21.9439 10.4041C22.2554 10.5201 22.6035 10.5781 22.9879 10.5781C23.389 10.5781 23.7403 10.5185 24.0419 10.3991C24.3468 10.2765 24.5855 10.1075 24.7578 9.89205C24.9302 9.6733 25.018 9.41809 25.0213 9.12642C25.018 8.86127 24.9401 8.64252 24.7876 8.47017C24.6352 8.29451 24.4214 8.14867 24.1463 8.03267C23.8745 7.91335 23.5563 7.80729 23.1918 7.71449L22.0334 7.41619C21.1948 7.20076 20.532 6.87429 20.0447 6.43679C19.5608 5.99598 19.3189 5.41098 19.3189 4.68182C19.3189 4.08191 19.4813 3.55658 19.8061 3.10582C20.1342 2.65507 20.58 2.3054 21.1435 2.05682C21.7069 1.80492 22.3449 1.67898 23.0575 1.67898C23.7801 1.67898 24.4131 1.80492 24.9567 2.05682C25.5036 2.3054 25.9328 2.65175 26.2443 3.09588C26.5559 3.53669 26.7166 4.0438 26.7266 4.61719H24.9517ZM31.9828 1.81818H34.2399L37.2626 9.19602H37.3819L40.4047 1.81818H42.6618V12H40.8919V5.00497H40.7974L37.9835 11.9702H36.661L33.8471 4.99006H33.7527V12H31.9828V1.81818ZM44.5907 12V4.36364H46.3904V12H44.5907ZM45.4956 3.27983C45.2105 3.27983 44.9653 3.18537 44.7598 2.99645C44.5543 2.80421 44.4515 2.57386 44.4515 2.3054C44.4515 2.03362 44.5543 1.80327 44.7598 1.61435C44.9653 1.42211 45.2105 1.32599 45.4956 1.32599C45.7839 1.32599 46.0292 1.42211 46.2314 1.61435C46.4368 1.80327 46.5396 2.03362 46.5396 2.3054C46.5396 2.57386 46.4368 2.80421 46.2314 2.99645C46.0292 3.18537 45.7839 3.27983 45.4956 3.27983ZM50.0408 1.81818V12H48.2411V1.81818H50.0408ZM53.6912 1.81818V12H51.8915V1.81818H53.6912ZM55.5419 12V4.36364H57.3416V12H55.5419ZM56.4467 3.27983C56.1617 3.27983 55.9164 3.18537 55.7109 2.99645C55.5054 2.80421 55.4027 2.57386 55.4027 2.3054C55.4027 2.03362 55.5054 1.80327 55.7109 1.61435C55.9164 1.42211 56.1617 1.32599 56.4467 1.32599C56.7351 1.32599 56.9804 1.42211 57.1825 1.61435C57.388 1.80327 57.4908 2.03362 57.4908 2.3054C57.4908 2.57386 57.388 2.80421 57.1825 2.99645C56.9804 3.18537 56.7351 3.27983 56.4467 3.27983ZM62.5233 12.1491C61.7775 12.1491 61.1312 11.9851 60.5843 11.657C60.0375 11.3288 59.6132 10.8698 59.3116 10.2798C59.0133 9.68987 58.8642 9.00047 58.8642 8.21165C58.8642 7.42282 59.0133 6.73177 59.3116 6.13849C59.6132 5.54522 60.0375 5.08452 60.5843 4.75639C61.1312 4.42827 61.7775 4.2642 62.5233 4.2642C63.269 4.2642 63.9153 4.42827 64.4622 4.75639C65.0091 5.08452 65.4316 5.54522 65.7299 6.13849C66.0315 6.73177 66.1824 7.42282 66.1824 8.21165C66.1824 9.00047 66.0315 9.68987 65.7299 10.2798C65.4316 10.8698 65.0091 11.3288 64.4622 11.657C63.9153 11.9851 63.269 12.1491 62.5233 12.1491ZM62.5332 10.7074C62.9376 10.7074 63.2756 10.5964 63.5474 10.3743C63.8192 10.1489 64.0214 9.8473 64.1539 9.46946C64.2898 9.09162 64.3578 8.67069 64.3578 8.20668C64.3578 7.73935 64.2898 7.31676 64.1539 6.93892C64.0214 6.55777 63.8192 6.2545 63.5474 6.02912C63.2756 5.80374 62.9376 5.69105 62.5332 5.69105C62.1189 5.69105 61.7742 5.80374 61.4991 6.02912C61.2273 6.2545 61.0235 6.55777 60.8876 6.93892C60.755 7.31676 60.6887 7.73935 60.6887 8.20668C60.6887 8.67069 60.755 9.09162 60.8876 9.46946C61.0235 9.8473 61.2273 10.1489 61.4991 10.3743C61.7742 10.5964 62.1189 10.7074 62.5332 10.7074ZM69.5096 7.52557V12H67.7099V4.36364H69.43V5.66122H69.5195C69.6952 5.23366 69.9753 4.89394 70.3597 4.64205C70.7475 4.39015 71.2264 4.2642 71.7965 4.2642C72.3235 4.2642 72.7826 4.37689 73.1737 4.60227C73.5681 4.82765 73.873 5.15412 74.0884 5.58168C74.3072 6.00923 74.4149 6.52794 74.4116 7.13778V12H72.6119V7.41619C72.6119 6.90578 72.4793 6.50639 72.2141 6.21804C71.9523 5.92969 71.5894 5.78551 71.1254 5.78551C70.8105 5.78551 70.5304 5.85511 70.2852 5.99432C70.0432 6.13021 69.8526 6.32741 69.7134 6.58594C69.5775 6.84446 69.5096 7.15767 69.5096 7.52557ZM82.2766 6.3821L80.636 6.56108C80.5896 6.39536 80.5084 6.23958 80.3924 6.09375C80.2797 5.94792 80.1272 5.83026 79.935 5.74077C79.7428 5.65128 79.5075 5.60653 79.229 5.60653C78.8545 5.60653 78.5397 5.68774 78.2844 5.85014C78.0326 6.01255 77.9083 6.22301 77.9116 6.48153C77.9083 6.7036 77.9895 6.88423 78.1552 7.02344C78.3242 7.16264 78.6026 7.27699 78.9904 7.36648L80.293 7.64489C81.0155 7.80066 81.5524 8.04759 81.9038 8.38565C82.2584 8.72372 82.4374 9.16619 82.4407 9.71307C82.4374 10.1937 82.2965 10.6179 82.0181 10.9858C81.743 11.3504 81.3602 11.6354 80.8697 11.8409C80.3791 12.0464 79.8157 12.1491 79.1793 12.1491C78.2447 12.1491 77.4923 11.9536 76.9222 11.5625C76.3522 11.1681 76.0124 10.6196 75.9031 9.9169L77.658 9.74787C77.7376 10.0926 77.9066 10.3527 78.1651 10.5284C78.4237 10.7041 78.7601 10.7919 79.1744 10.7919C79.6019 10.7919 79.945 10.7041 80.2035 10.5284C80.4653 10.3527 80.5962 10.1357 80.5962 9.87713C80.5962 9.65838 80.5117 9.47775 80.3427 9.33523C80.177 9.19271 79.9184 9.08333 79.5671 9.0071L78.2646 8.73366C77.5321 8.5812 76.9902 8.32434 76.6388 7.96307C76.2875 7.59848 76.1135 7.13778 76.1168 6.58097C76.1135 6.11032 76.2411 5.70265 76.4996 5.35795C76.7615 5.00994 77.1244 4.74148 77.5884 4.55256C78.0558 4.36032 78.5943 4.2642 79.2042 4.2642C80.0991 4.2642 80.8034 4.45478 81.3171 4.83594C81.8342 5.21709 82.154 5.73248 82.2766 6.3821Z" fill="black"/>
</svg>
