<svg width="1198" height="388" viewBox="0 0 1198 388" fill="none" xmlns="http://www.w3.org/2000/svg">
<path d="M54 126.518L312.517 56.0342L571.034 188.829L825.415 200.065L1086 287.914" stroke="black" stroke-linecap="round" stroke-dasharray="4 4"/>
<path d="M56 179.844L312.25 185.972L568.5 238.062L822.684 208.442L1081 295.259" stroke="black" stroke-linecap="round"/>
<path d="M54.8274 382.606V381.274L58.3622 377.809C58.7002 377.467 58.9819 377.164 59.2073 376.899C59.4327 376.634 59.6017 376.377 59.7144 376.128C59.8271 375.88 59.8835 375.615 59.8835 375.333C59.8835 375.012 59.8105 374.736 59.6647 374.508C59.5189 374.276 59.3184 374.097 59.0632 373.971C58.8079 373.845 58.5179 373.782 58.1931 373.782C57.8584 373.782 57.565 373.851 57.3132 373.991C57.0613 374.127 56.8657 374.32 56.7265 374.572C56.5906 374.824 56.5227 375.124 56.5227 375.472H54.7677C54.7677 374.826 54.9152 374.264 55.2102 373.787C55.5052 373.31 55.9112 372.94 56.4282 372.678C56.9486 372.416 57.5452 372.285 58.218 372.285C58.9007 372.285 59.5007 372.413 60.0177 372.668C60.5347 372.923 60.9358 373.273 61.2208 373.717C61.5092 374.161 61.6534 374.668 61.6534 375.239C61.6534 375.62 61.5804 375.994 61.4346 376.362C61.2888 376.73 61.0319 377.138 60.664 377.585C60.2994 378.033 59.7873 378.574 59.1278 379.211L57.3728 380.996V381.065H61.8075V382.606H54.8274ZM67.2862 382.8C66.4675 382.8 65.7649 382.593 65.1782 382.179C64.5949 381.761 64.1458 381.16 63.8309 380.374C63.5194 379.585 63.3636 378.636 63.3636 377.525C63.3669 376.415 63.5243 375.471 63.8359 374.692C64.1507 373.909 64.5998 373.313 65.1832 372.902C65.7698 372.491 66.4708 372.285 67.2862 372.285C68.1015 372.285 68.8025 372.491 69.3891 372.902C69.9758 373.313 70.4249 373.909 70.7364 374.692C71.0513 375.474 71.2087 376.418 71.2087 377.525C71.2087 378.639 71.0513 379.59 70.7364 380.379C70.4249 381.165 69.9758 381.765 69.3891 382.179C68.8058 382.593 68.1048 382.8 67.2862 382.8ZM67.2862 381.244C67.9225 381.244 68.4247 380.931 68.7926 380.305C69.1638 379.675 69.3494 378.748 69.3494 377.525C69.3494 376.717 69.2649 376.037 69.0958 375.487C68.9268 374.937 68.6882 374.523 68.3799 374.244C68.0717 373.963 67.7071 373.822 67.2862 373.822C66.6531 373.822 66.1526 374.137 65.7847 374.766C65.4168 375.393 65.2312 376.312 65.2279 377.525C65.2246 378.338 65.3058 379.02 65.4715 379.574C65.6406 380.127 65.8792 380.545 66.1874 380.827C66.4957 381.105 66.8619 381.244 67.2862 381.244ZM77.0019 372.425V382.606H75.1574V374.219H75.0978L72.7164 375.741V374.05L75.2469 372.425H77.0019ZM83.3158 382.746C82.8286 382.742 82.353 382.658 81.889 382.492C81.425 382.323 81.0073 382.05 80.6361 381.672C80.2649 381.291 79.9699 380.785 79.7512 380.155C79.5324 379.522 79.4247 378.739 79.428 377.804C79.428 376.932 79.5208 376.155 79.7064 375.472C79.892 374.789 80.1589 374.213 80.5069 373.742C80.8549 373.268 81.2741 372.907 81.7647 372.658C82.2585 372.41 82.8104 372.285 83.4202 372.285C84.0599 372.285 84.6267 372.411 85.1205 372.663C85.6177 372.915 86.0187 373.26 86.3236 373.697C86.6286 374.132 86.8175 374.622 86.8904 375.169H85.0758C84.983 374.778 84.7924 374.466 84.504 374.234C84.219 373.999 83.8577 373.881 83.4202 373.881C82.7143 373.881 82.1707 374.188 81.7895 374.801C81.4117 375.414 81.2211 376.256 81.2178 377.327H81.2874C81.4498 377.035 81.6603 376.785 81.9188 376.576C82.1773 376.367 82.469 376.206 82.7938 376.094C83.1219 375.978 83.4683 375.92 83.8329 375.92C84.4295 375.92 84.9647 376.062 85.4387 376.347C85.916 376.632 86.2938 377.025 86.5722 377.525C86.8506 378.023 86.9882 378.593 86.9849 379.236C86.9882 379.905 86.8357 380.507 86.5275 381.04C86.2192 381.571 85.79 381.988 85.2398 382.293C84.6896 382.598 84.0483 382.749 83.3158 382.746ZM83.3059 381.254C83.6671 381.254 83.9903 381.166 84.2753 380.991C84.5604 380.815 84.7857 380.578 84.9515 380.28C85.1172 379.981 85.1984 379.647 85.1951 379.275C85.1984 378.911 85.1188 378.581 84.9564 378.286C84.7974 377.991 84.5769 377.757 84.2952 377.585C84.0135 377.413 83.692 377.327 83.3307 377.327C83.0623 377.327 82.812 377.378 82.58 377.481C82.348 377.583 82.1458 377.726 81.9735 377.908C81.8011 378.087 81.6652 378.296 81.5658 378.535C81.4697 378.77 81.42 379.022 81.4167 379.29C81.42 379.645 81.5028 379.972 81.6652 380.27C81.8277 380.568 82.0514 380.807 82.3364 380.986C82.6215 381.165 82.9446 381.254 83.3059 381.254Z" fill="black"/>
<path d="M8.18093 50.1109C7.51805 50.1109 6.92478 49.9866 6.4011 49.738C5.87743 49.4861 5.46147 49.1414 5.15323 48.7039C4.84831 48.2664 4.6859 47.766 4.66602 47.2025H6.45579C6.48893 47.6201 6.66957 47.9615 6.99769 48.2267C7.32582 48.4885 7.72023 48.6194 8.18093 48.6194C8.5422 48.6194 8.8637 48.5365 9.14542 48.3708C9.42714 48.2051 9.64921 47.9748 9.81161 47.6798C9.97402 47.3848 10.0536 47.0484 10.0502 46.6705C10.0536 46.2861 9.97236 45.9447 9.80664 45.6464C9.64092 45.3481 9.41389 45.1144 9.12553 44.9454C8.83718 44.7731 8.50574 44.6869 8.13121 44.6869C7.82629 44.6836 7.52634 44.7399 7.23136 44.8559C6.93638 44.9719 6.70271 45.1244 6.53036 45.3133L4.86488 45.0399L5.39684 39.7899H11.3031V41.3311H6.92312L6.62979 44.0306H6.68945C6.87837 43.8086 7.14518 43.6246 7.48988 43.4788C7.83458 43.3296 8.21242 43.2551 8.6234 43.2551C9.23988 43.2551 9.79007 43.4009 10.274 43.6926C10.7579 43.9809 11.139 44.3786 11.4174 44.8857C11.6958 45.3928 11.835 45.9729 11.835 46.6258C11.835 47.2986 11.6793 47.8985 11.3677 48.4255C11.0595 48.9492 10.6303 49.3618 10.0801 49.6634C9.5332 49.9617 8.90015 50.1109 8.18093 50.1109ZM15.2915 48.5796L15.2269 49.1265C15.1805 49.5441 15.0977 49.9684 14.9783 50.3992C14.8623 50.8334 14.7397 51.2328 14.6104 51.5974C14.4812 51.962 14.3768 52.2487 14.2972 52.4575H13.0842C13.1306 52.2553 13.1935 51.9802 13.2731 51.6322C13.3559 51.2842 13.4355 50.8931 13.5117 50.4589C13.5879 50.0247 13.6393 49.5839 13.6658 49.1365L13.7006 48.5796H15.2915ZM20.6547 50.1656C19.836 50.1656 19.1333 49.9584 18.5467 49.5441C17.9634 49.1265 17.5143 48.5249 17.1994 47.7394C16.8878 46.9506 16.7321 46.001 16.7321 44.8907C16.7354 43.7804 16.8928 42.8358 17.2044 42.0569C17.5192 41.2747 17.9683 40.6781 18.5517 40.2671C19.1383 39.8561 19.8393 39.6507 20.6547 39.6507C21.47 39.6507 22.171 39.8561 22.7576 40.2671C23.3443 40.6781 23.7934 41.2747 24.1049 42.0569C24.4198 42.8391 24.5772 43.7837 24.5772 44.8907C24.5772 46.0043 24.4198 46.9556 24.1049 47.7444C23.7934 48.5299 23.3443 49.1298 22.7576 49.5441C22.1743 49.9584 21.4733 50.1656 20.6547 50.1656ZM20.6547 48.6095C21.291 48.6095 21.7931 48.2963 22.161 47.6698C22.5323 47.0401 22.7179 46.1137 22.7179 44.8907C22.7179 44.082 22.6333 43.4026 22.4643 42.8524C22.2953 42.3022 22.0566 41.8879 21.7484 41.6095C21.4402 41.3277 21.0756 41.1869 20.6547 41.1869C20.0216 41.1869 19.5211 41.5017 19.1532 42.1315C18.7853 42.7579 18.5997 43.6776 18.5964 44.8907C18.5931 45.7027 18.6743 46.3855 18.84 46.939C19.0091 47.4925 19.2477 47.9101 19.5559 48.1919C19.8642 48.4703 20.2304 48.6095 20.6547 48.6095ZM29.9925 50.1656C29.1739 50.1656 28.4712 49.9584 27.8846 49.5441C27.3013 49.1265 26.8522 48.5249 26.5373 47.7394C26.2257 46.9506 26.07 46.001 26.07 44.8907C26.0733 43.7804 26.2307 42.8358 26.5423 42.0569C26.8571 41.2747 27.3062 40.6781 27.8896 40.2671C28.4762 39.8561 29.1772 39.6507 29.9925 39.6507C30.8079 39.6507 31.5089 39.8561 32.0955 40.2671C32.6822 40.6781 33.1313 41.2747 33.4428 42.0569C33.7577 42.8391 33.9151 43.7837 33.9151 44.8907C33.9151 46.0043 33.7577 46.9556 33.4428 47.7444C33.1313 48.5299 32.6822 49.1298 32.0955 49.5441C31.5122 49.9584 30.8112 50.1656 29.9925 50.1656ZM29.9925 48.6095C30.6289 48.6095 31.131 48.2963 31.4989 47.6698C31.8701 47.0401 32.0558 46.1137 32.0558 44.8907C32.0558 44.082 31.9712 43.4026 31.8022 42.8524C31.6332 42.3022 31.3945 41.8879 31.0863 41.6095C30.7781 41.3277 30.4135 41.1869 29.9925 41.1869C29.3595 41.1869 28.859 41.5017 28.4911 42.1315C28.1232 42.7579 27.9376 43.6776 27.9343 44.8907C27.931 45.7027 28.0122 46.3855 28.1779 46.939C28.3469 47.4925 28.5856 47.9101 28.8938 48.1919C29.2021 48.4703 29.5683 48.6095 29.9925 48.6095ZM39.3304 50.1656C38.5118 50.1656 37.8091 49.9584 37.2225 49.5441C36.6391 49.1265 36.19 48.5249 35.8752 47.7394C35.5636 46.9506 35.4078 46.001 35.4078 44.8907C35.4112 43.7804 35.5686 42.8358 35.8801 42.0569C36.195 41.2747 36.6441 40.6781 37.2275 40.2671C37.8141 39.8561 38.5151 39.6507 39.3304 39.6507C40.1458 39.6507 40.8468 39.8561 41.4334 40.2671C42.0201 40.6781 42.4692 41.2747 42.7807 42.0569C43.0956 42.8391 43.253 43.7837 43.253 44.8907C43.253 46.0043 43.0956 46.9556 42.7807 47.7444C42.4692 48.5299 42.0201 49.1298 41.4334 49.5441C40.8501 49.9584 40.1491 50.1656 39.3304 50.1656ZM39.3304 48.6095C39.9668 48.6095 40.4689 48.2963 40.8368 47.6698C41.208 47.0401 41.3936 46.1137 41.3936 44.8907C41.3936 44.082 41.3091 43.4026 41.1401 42.8524C40.9711 42.3022 40.7324 41.8879 40.4242 41.6095C40.1159 41.3277 39.7514 41.1869 39.3304 41.1869C38.6974 41.1869 38.1969 41.5017 37.829 42.1315C37.4611 42.7579 37.2755 43.6776 37.2722 44.8907C37.2689 45.7027 37.3501 46.3855 37.5158 46.939C37.6848 47.4925 37.9235 47.9101 38.2317 48.1919C38.54 48.4703 38.9062 48.6095 39.3304 48.6095Z" fill="black"/>
<path d="M7.9945 171.605C7.27859 171.605 6.64222 171.482 6.0854 171.237C5.5319 170.992 5.0944 170.65 4.7729 170.213C4.45141 169.775 4.28072 169.27 4.26083 168.697H6.13015C6.14672 168.972 6.23787 169.212 6.40359 169.418C6.56931 169.62 6.78971 169.777 7.06481 169.89C7.3399 170.003 7.64814 170.059 7.98952 170.059C8.35411 170.059 8.67726 169.996 8.95898 169.87C9.24071 169.741 9.46112 169.562 9.62021 169.333C9.7793 169.104 9.85719 168.841 9.85387 168.543C9.85719 168.234 9.77764 167.963 9.61523 167.727C9.45283 167.492 9.21751 167.308 8.90927 167.175C8.60434 167.043 8.23645 166.976 7.80558 166.976H6.90572V165.555H7.80558C8.16022 165.555 8.47011 165.493 8.73526 165.371C9.00373 165.248 9.21419 165.076 9.36666 164.854C9.51912 164.628 9.59369 164.368 9.59038 164.073C9.59369 163.785 9.52906 163.534 9.39648 163.322C9.26722 163.107 9.08327 162.94 8.84464 162.82C8.60932 162.701 8.33256 162.641 8.01438 162.641C7.70283 162.641 7.41448 162.698 7.14933 162.81C6.88417 162.923 6.6704 163.084 6.50799 163.293C6.34558 163.498 6.25941 163.743 6.24947 164.028H4.47461C4.48787 163.458 4.65193 162.958 4.9668 162.527C5.28498 162.093 5.70922 161.755 6.23952 161.513C6.76983 161.267 7.36476 161.145 8.02433 161.145C8.70378 161.145 9.29374 161.272 9.79421 161.528C10.298 161.78 10.6874 162.119 10.9625 162.547C11.2376 162.974 11.3752 163.447 11.3752 163.964C11.3785 164.537 11.2095 165.018 10.8681 165.405C10.53 165.793 10.0859 166.047 9.53569 166.166V166.246C10.2516 166.345 10.8001 166.61 11.1813 167.041C11.5658 167.469 11.7563 168.001 11.753 168.637C11.753 169.207 11.5906 169.717 11.2658 170.168C10.9443 170.616 10.5002 170.967 9.93342 171.222C9.36997 171.477 8.72366 171.605 7.9945 171.605ZM15.2915 170.074L15.2269 170.621C15.1805 171.038 15.0977 171.463 14.9783 171.893C14.8623 172.328 14.7397 172.727 14.6104 173.092C14.4812 173.456 14.3768 173.743 14.2972 173.952H13.0842C13.1306 173.749 13.1935 173.474 13.2731 173.126C13.3559 172.778 13.4355 172.387 13.5117 171.953C13.5879 171.519 13.6393 171.078 13.6658 170.631L13.7006 170.074H15.2915ZM20.6547 171.66C19.836 171.66 19.1333 171.453 18.5467 171.038C17.9634 170.621 17.5143 170.019 17.1994 169.234C16.8878 168.445 16.7321 167.495 16.7321 166.385C16.7354 165.275 16.8928 164.33 17.2044 163.551C17.5192 162.769 17.9683 162.172 18.5517 161.761C19.1383 161.35 19.8393 161.145 20.6547 161.145C21.47 161.145 22.171 161.35 22.7576 161.761C23.3443 162.172 23.7934 162.769 24.1049 163.551C24.4198 164.333 24.5772 165.278 24.5772 166.385C24.5772 167.498 24.4198 168.45 24.1049 169.239C23.7934 170.024 23.3443 170.624 22.7576 171.038C22.1743 171.453 21.4733 171.66 20.6547 171.66ZM20.6547 170.104C21.291 170.104 21.7931 169.79 22.161 169.164C22.5323 168.534 22.7179 167.608 22.7179 166.385C22.7179 165.576 22.6333 164.897 22.4643 164.347C22.2953 163.796 22.0566 163.382 21.7484 163.104C21.4402 162.822 21.0756 162.681 20.6547 162.681C20.0216 162.681 19.5211 162.996 19.1532 163.626C18.7853 164.252 18.5997 165.172 18.5964 166.385C18.5931 167.197 18.6743 167.88 18.84 168.433C19.0091 168.987 19.2477 169.404 19.5559 169.686C19.8642 169.964 20.2304 170.104 20.6547 170.104ZM29.9925 171.66C29.1739 171.66 28.4712 171.453 27.8846 171.038C27.3013 170.621 26.8522 170.019 26.5373 169.234C26.2257 168.445 26.07 167.495 26.07 166.385C26.0733 165.275 26.2307 164.33 26.5423 163.551C26.8571 162.769 27.3062 162.172 27.8896 161.761C28.4762 161.35 29.1772 161.145 29.9925 161.145C30.8079 161.145 31.5089 161.35 32.0955 161.761C32.6822 162.172 33.1313 162.769 33.4428 163.551C33.7577 164.333 33.9151 165.278 33.9151 166.385C33.9151 167.498 33.7577 168.45 33.4428 169.239C33.1313 170.024 32.6822 170.624 32.0955 171.038C31.5122 171.453 30.8112 171.66 29.9925 171.66ZM29.9925 170.104C30.6289 170.104 31.131 169.79 31.4989 169.164C31.8701 168.534 32.0558 167.608 32.0558 166.385C32.0558 165.576 31.9712 164.897 31.8022 164.347C31.6332 163.796 31.3945 163.382 31.0863 163.104C30.7781 162.822 30.4135 162.681 29.9925 162.681C29.3595 162.681 28.859 162.996 28.4911 163.626C28.1232 164.252 27.9376 165.172 27.9343 166.385C27.931 167.197 28.0122 167.88 28.1779 168.433C28.3469 168.987 28.5856 169.404 28.8938 169.686C29.2021 169.964 29.5683 170.104 29.9925 170.104ZM39.3304 171.66C38.5118 171.66 37.8091 171.453 37.2225 171.038C36.6391 170.621 36.19 170.019 35.8752 169.234C35.5636 168.445 35.4078 167.495 35.4078 166.385C35.4112 165.275 35.5686 164.33 35.8801 163.551C36.195 162.769 36.6441 162.172 37.2275 161.761C37.8141 161.35 38.5151 161.145 39.3304 161.145C40.1458 161.145 40.8468 161.35 41.4334 161.761C42.0201 162.172 42.4692 162.769 42.7807 163.551C43.0956 164.333 43.253 165.278 43.253 166.385C43.253 167.498 43.0956 168.45 42.7807 169.239C42.4692 170.024 42.0201 170.624 41.4334 171.038C40.8501 171.453 40.1491 171.66 39.3304 171.66ZM39.3304 170.104C39.9668 170.104 40.4689 169.79 40.8368 169.164C41.208 168.534 41.3936 167.608 41.3936 166.385C41.3936 165.576 41.3091 164.897 41.1401 164.347C40.9711 163.796 40.7324 163.382 40.4242 163.104C40.1159 162.822 39.7514 162.681 39.3304 162.681C38.6974 162.681 38.1969 162.996 37.829 163.626C37.4611 164.252 37.2755 165.172 37.2722 166.385C37.2689 167.197 37.3501 167.88 37.5158 168.433C37.6848 168.987 37.9235 169.404 38.2317 169.686C38.54 169.964 38.9062 170.104 39.3304 170.104Z" fill="black"/>
<path d="M11.1341 279.716V289.897H9.2896V281.51H9.22994L6.84854 283.032V281.341L9.37908 279.716H11.1341ZM15.2915 288.505L15.2269 289.052C15.1805 289.47 15.0977 289.894 14.9783 290.325C14.8623 290.759 14.7397 291.159 14.6104 291.523C14.4812 291.888 14.3768 292.174 14.2972 292.383H13.0842C13.1306 292.181 13.1935 291.906 13.2731 291.558C13.3559 291.21 13.4355 290.819 13.5117 290.385C13.5879 289.95 13.6393 289.51 13.6658 289.062L13.7006 288.505H15.2915ZM20.6547 290.091C19.836 290.091 19.1333 289.884 18.5467 289.47C17.9634 289.052 17.5143 288.451 17.1994 287.665C16.8878 286.876 16.7321 285.927 16.7321 284.816C16.7354 283.706 16.8928 282.762 17.2044 281.983C17.5192 281.2 17.9683 280.604 18.5517 280.193C19.1383 279.782 19.8393 279.576 20.6547 279.576C21.47 279.576 22.171 279.782 22.7576 280.193C23.3443 280.604 23.7934 281.2 24.1049 281.983C24.4198 282.765 24.5772 283.709 24.5772 284.816C24.5772 285.93 24.4198 286.881 24.1049 287.67C23.7934 288.456 23.3443 289.056 22.7576 289.47C22.1743 289.884 21.4733 290.091 20.6547 290.091ZM20.6547 288.535C21.291 288.535 21.7931 288.222 22.161 287.596C22.5323 286.966 22.7179 286.04 22.7179 284.816C22.7179 284.008 22.6333 283.328 22.4643 282.778C22.2953 282.228 22.0566 281.814 21.7484 281.535C21.4402 281.254 21.0756 281.113 20.6547 281.113C20.0216 281.113 19.5211 281.428 19.1532 282.057C18.7853 282.684 18.5997 283.603 18.5964 284.816C18.5931 285.629 18.6743 286.311 18.84 286.865C19.0091 287.418 19.2477 287.836 19.5559 288.118C19.8642 288.396 20.2304 288.535 20.6547 288.535ZM29.9925 290.091C29.1739 290.091 28.4712 289.884 27.8846 289.47C27.3013 289.052 26.8522 288.451 26.5373 287.665C26.2257 286.876 26.07 285.927 26.07 284.816C26.0733 283.706 26.2307 282.762 26.5423 281.983C26.8571 281.2 27.3062 280.604 27.8896 280.193C28.4762 279.782 29.1772 279.576 29.9925 279.576C30.8079 279.576 31.5089 279.782 32.0955 280.193C32.6822 280.604 33.1313 281.2 33.4428 281.983C33.7577 282.765 33.9151 283.709 33.9151 284.816C33.9151 285.93 33.7577 286.881 33.4428 287.67C33.1313 288.456 32.6822 289.056 32.0955 289.47C31.5122 289.884 30.8112 290.091 29.9925 290.091ZM29.9925 288.535C30.6289 288.535 31.131 288.222 31.4989 287.596C31.8701 286.966 32.0558 286.04 32.0558 284.816C32.0558 284.008 31.9712 283.328 31.8022 282.778C31.6332 282.228 31.3945 281.814 31.0863 281.535C30.7781 281.254 30.4135 281.113 29.9925 281.113C29.3595 281.113 28.859 281.428 28.4911 282.057C28.1232 282.684 27.9376 283.603 27.9343 284.816C27.931 285.629 28.0122 286.311 28.1779 286.865C28.3469 287.418 28.5856 287.836 28.8938 288.118C29.2021 288.396 29.5683 288.535 29.9925 288.535ZM39.3304 290.091C38.5118 290.091 37.8091 289.884 37.2225 289.47C36.6391 289.052 36.19 288.451 35.8752 287.665C35.5636 286.876 35.4078 285.927 35.4078 284.816C35.4112 283.706 35.5686 282.762 35.8801 281.983C36.195 281.2 36.6441 280.604 37.2275 280.193C37.8141 279.782 38.5151 279.576 39.3304 279.576C40.1458 279.576 40.8468 279.782 41.4334 280.193C42.0201 280.604 42.4692 281.2 42.7807 281.983C43.0956 282.765 43.253 283.709 43.253 284.816C43.253 285.93 43.0956 286.881 42.7807 287.67C42.4692 288.456 42.0201 289.056 41.4334 289.47C40.8501 289.884 40.1491 290.091 39.3304 290.091ZM39.3304 288.535C39.9668 288.535 40.4689 288.222 40.8368 287.596C41.208 286.966 41.3936 286.04 41.3936 284.816C41.3936 284.008 41.3091 283.328 41.1401 282.778C40.9711 282.228 40.7324 281.814 40.4242 281.535C40.1159 281.254 39.7514 281.113 39.3304 281.113C38.6974 281.113 38.1969 281.428 37.829 282.057C37.4611 282.684 37.2755 283.603 37.2722 284.816C37.2689 285.629 37.3501 286.311 37.5158 286.865C37.6848 287.418 37.9235 287.836 38.2317 288.118C38.54 288.396 38.9062 288.535 39.3304 288.535Z" fill="black"/>
<path d="M4.46342 230.682V229.349L7.99822 225.884C8.33629 225.543 8.61802 225.239 8.8434 224.974C9.06877 224.709 9.23781 224.452 9.3505 224.204C9.46319 223.955 9.51953 223.69 9.51953 223.408C9.51953 223.087 9.44661 222.812 9.30078 222.583C9.15495 222.351 8.95443 222.172 8.69922 222.046C8.44401 221.92 8.154 221.857 7.82919 221.857C7.49444 221.857 7.20111 221.927 6.94922 222.066C6.69732 222.202 6.50178 222.396 6.36257 222.648C6.22668 222.899 6.15874 223.199 6.15874 223.547H4.40376C4.40376 222.901 4.55125 222.339 4.84624 221.862C5.14122 221.385 5.54723 221.015 6.06428 220.753C6.58464 220.492 7.18123 220.361 7.85405 220.361C8.53681 220.361 9.13672 220.488 9.65376 220.743C10.1708 220.999 10.5719 221.348 10.8569 221.792C11.1452 222.237 11.2894 222.744 11.2894 223.314C11.2894 223.695 11.2165 224.069 11.0707 224.437C10.9248 224.805 10.668 225.213 10.3001 225.66C9.93549 226.108 9.42341 226.65 8.76385 227.286L7.00888 229.071V229.14H11.4435V230.682H4.46342ZM15.2915 229.29L15.2269 229.836C15.1805 230.254 15.0977 230.678 14.9783 231.109C14.8623 231.543 14.7397 231.943 14.6104 232.307C14.4812 232.672 14.3768 232.959 14.2972 233.167H13.0842C13.1306 232.965 13.1935 232.69 13.2731 232.342C13.3559 231.994 13.4355 231.603 13.5117 231.169C13.5879 230.735 13.6393 230.294 13.6658 229.846L13.7006 229.29H15.2915ZM20.6547 230.876C19.836 230.876 19.1333 230.668 18.5467 230.254C17.9634 229.836 17.5143 229.235 17.1994 228.449C16.8878 227.661 16.7321 226.711 16.7321 225.601C16.7354 224.49 16.8928 223.546 17.2044 222.767C17.5192 221.985 17.9683 221.388 18.5517 220.977C19.1383 220.566 19.8393 220.361 20.6547 220.361C21.47 220.361 22.171 220.566 22.7576 220.977C23.3443 221.388 23.7934 221.985 24.1049 222.767C24.4198 223.549 24.5772 224.494 24.5772 225.601C24.5772 226.714 24.4198 227.666 24.1049 228.454C23.7934 229.24 23.3443 229.84 22.7576 230.254C22.1743 230.668 21.4733 230.876 20.6547 230.876ZM20.6547 229.319C21.291 229.319 21.7931 229.006 22.161 228.38C22.5323 227.75 22.7179 226.824 22.7179 225.601C22.7179 224.792 22.6333 224.113 22.4643 223.562C22.2953 223.012 22.0566 222.598 21.7484 222.319C21.4402 222.038 21.0756 221.897 20.6547 221.897C20.0216 221.897 19.5211 222.212 19.1532 222.841C18.7853 223.468 18.5997 224.388 18.5964 225.601C18.5931 226.413 18.6743 227.095 18.84 227.649C19.0091 228.202 19.2477 228.62 19.5559 228.902C19.8642 229.18 20.2304 229.319 20.6547 229.319ZM29.9925 230.876C29.1739 230.876 28.4712 230.668 27.8846 230.254C27.3013 229.836 26.8522 229.235 26.5373 228.449C26.2257 227.661 26.07 226.711 26.07 225.601C26.0733 224.49 26.2307 223.546 26.5423 222.767C26.8571 221.985 27.3062 221.388 27.8896 220.977C28.4762 220.566 29.1772 220.361 29.9925 220.361C30.8079 220.361 31.5089 220.566 32.0955 220.977C32.6822 221.388 33.1313 221.985 33.4428 222.767C33.7577 223.549 33.9151 224.494 33.9151 225.601C33.9151 226.714 33.7577 227.666 33.4428 228.454C33.1313 229.24 32.6822 229.84 32.0955 230.254C31.5122 230.668 30.8112 230.876 29.9925 230.876ZM29.9925 229.319C30.6289 229.319 31.131 229.006 31.4989 228.38C31.8701 227.75 32.0558 226.824 32.0558 225.601C32.0558 224.792 31.9712 224.113 31.8022 223.562C31.6332 223.012 31.3945 222.598 31.0863 222.319C30.7781 222.038 30.4135 221.897 29.9925 221.897C29.3595 221.897 28.859 222.212 28.4911 222.841C28.1232 223.468 27.9376 224.388 27.9343 225.601C27.931 226.413 28.0122 227.095 28.1779 227.649C28.3469 228.202 28.5856 228.62 28.8938 228.902C29.2021 229.18 29.5683 229.319 29.9925 229.319ZM39.3304 230.876C38.5118 230.876 37.8091 230.668 37.2225 230.254C36.6391 229.836 36.19 229.235 35.8752 228.449C35.5636 227.661 35.4078 226.711 35.4078 225.601C35.4112 224.49 35.5686 223.546 35.8801 222.767C36.195 221.985 36.6441 221.388 37.2275 220.977C37.8141 220.566 38.5151 220.361 39.3304 220.361C40.1458 220.361 40.8468 220.566 41.4334 220.977C42.0201 221.388 42.4692 221.985 42.7807 222.767C43.0956 223.549 43.253 224.494 43.253 225.601C43.253 226.714 43.0956 227.666 42.7807 228.454C42.4692 229.24 42.0201 229.84 41.4334 230.254C40.8501 230.668 40.1491 230.876 39.3304 230.876ZM39.3304 229.319C39.9668 229.319 40.4689 229.006 40.8368 228.38C41.208 227.75 41.3936 226.824 41.3936 225.601C41.3936 224.792 41.3091 224.113 41.1401 223.562C40.9711 223.012 40.7324 222.598 40.4242 222.319C40.1159 222.038 39.7514 221.897 39.3304 221.897C38.6974 221.897 38.1969 222.212 37.829 222.841C37.4611 223.468 37.2755 224.388 37.2722 225.601C37.2689 226.413 37.3501 227.095 37.5158 227.649C37.6848 228.202 37.9235 228.62 38.2317 228.902C38.54 229.18 38.9062 229.319 39.3304 229.319Z" fill="black"/>
<path d="M3.93768 109.34V107.874L8.25799 101.048H9.481V103.136H8.73526L5.82688 107.744V107.824H11.8574V109.34H3.93768ZM8.79492 111.229V108.893L8.81481 108.237V101.048H10.5549V111.229H8.79492ZM15.2915 109.837L15.2269 110.384C15.1805 110.802 15.0977 111.226 14.9783 111.657C14.8623 112.091 14.7397 112.491 14.6104 112.855C14.4812 113.22 14.3768 113.506 14.2972 113.715H13.0842C13.1306 113.513 13.1935 113.238 13.2731 112.89C13.3559 112.542 13.4355 112.151 13.5117 111.717C13.5879 111.283 13.6393 110.842 13.6658 110.394L13.7006 109.837H15.2915ZM20.6547 111.423C19.836 111.423 19.1333 111.216 18.5467 110.802C17.9634 110.384 17.5143 109.783 17.1994 108.997C16.8878 108.208 16.7321 107.259 16.7321 106.149C16.7354 105.038 16.8928 104.094 17.2044 103.315C17.5192 102.533 17.9683 101.936 18.5517 101.525C19.1383 101.114 19.8393 100.908 20.6547 100.908C21.47 100.908 22.171 101.114 22.7576 101.525C23.3443 101.936 23.7934 102.533 24.1049 103.315C24.4198 104.097 24.5772 105.042 24.5772 106.149C24.5772 107.262 24.4198 108.213 24.1049 109.002C23.7934 109.788 23.3443 110.388 22.7576 110.802C22.1743 111.216 21.4733 111.423 20.6547 111.423ZM20.6547 109.867C21.291 109.867 21.7931 109.554 22.161 108.928C22.5323 108.298 22.7179 107.372 22.7179 106.149C22.7179 105.34 22.6333 104.66 22.4643 104.11C22.2953 103.56 22.0566 103.146 21.7484 102.867C21.4402 102.586 21.0756 102.445 20.6547 102.445C20.0216 102.445 19.5211 102.76 19.1532 103.389C18.7853 104.016 18.5997 104.935 18.5964 106.149C18.5931 106.961 18.6743 107.643 18.84 108.197C19.0091 108.75 19.2477 109.168 19.5559 109.45C19.8642 109.728 20.2304 109.867 20.6547 109.867ZM29.9925 111.423C29.1739 111.423 28.4712 111.216 27.8846 110.802C27.3013 110.384 26.8522 109.783 26.5373 108.997C26.2257 108.208 26.07 107.259 26.07 106.149C26.0733 105.038 26.2307 104.094 26.5423 103.315C26.8571 102.533 27.3062 101.936 27.8896 101.525C28.4762 101.114 29.1772 100.908 29.9925 100.908C30.8079 100.908 31.5089 101.114 32.0955 101.525C32.6822 101.936 33.1313 102.533 33.4428 103.315C33.7577 104.097 33.9151 105.042 33.9151 106.149C33.9151 107.262 33.7577 108.213 33.4428 109.002C33.1313 109.788 32.6822 110.388 32.0955 110.802C31.5122 111.216 30.8112 111.423 29.9925 111.423ZM29.9925 109.867C30.6289 109.867 31.131 109.554 31.4989 108.928C31.8701 108.298 32.0558 107.372 32.0558 106.149C32.0558 105.34 31.9712 104.66 31.8022 104.11C31.6332 103.56 31.3945 103.146 31.0863 102.867C30.7781 102.586 30.4135 102.445 29.9925 102.445C29.3595 102.445 28.859 102.76 28.4911 103.389C28.1232 104.016 27.9376 104.935 27.9343 106.149C27.931 106.961 28.0122 107.643 28.1779 108.197C28.3469 108.75 28.5856 109.168 28.8938 109.45C29.2021 109.728 29.5683 109.867 29.9925 109.867ZM39.3304 111.423C38.5118 111.423 37.8091 111.216 37.2225 110.802C36.6391 110.384 36.19 109.783 35.8752 108.997C35.5636 108.208 35.4078 107.259 35.4078 106.149C35.4112 105.038 35.5686 104.094 35.8801 103.315C36.195 102.533 36.6441 101.936 37.2275 101.525C37.8141 101.114 38.5151 100.908 39.3304 100.908C40.1458 100.908 40.8468 101.114 41.4334 101.525C42.0201 101.936 42.4692 102.533 42.7807 103.315C43.0956 104.097 43.253 105.042 43.253 106.149C43.253 107.262 43.0956 108.213 42.7807 109.002C42.4692 109.788 42.0201 110.388 41.4334 110.802C40.8501 111.216 40.1491 111.423 39.3304 111.423ZM39.3304 109.867C39.9668 109.867 40.4689 109.554 40.8368 108.928C41.208 108.298 41.3936 107.372 41.3936 106.149C41.3936 105.34 41.3091 104.66 41.1401 104.11C40.9711 103.56 40.7324 103.146 40.4242 102.867C40.1159 102.586 39.7514 102.445 39.3304 102.445C38.6974 102.445 38.1969 102.76 37.829 103.389C37.4611 104.016 37.2755 104.935 37.2722 106.149C37.2689 106.961 37.3501 107.643 37.5158 108.197C37.6848 108.75 37.9235 109.168 38.2317 109.45C38.54 109.728 38.9062 109.867 39.3304 109.867Z" fill="black"/>
<path d="M39.3304 354.412C38.5118 354.412 37.8091 354.205 37.2225 353.79C36.6391 353.373 36.19 352.771 35.8752 351.986C35.5636 351.197 35.4078 350.247 35.4078 349.137C35.4112 348.026 35.5686 347.082 35.8801 346.303C36.195 345.521 36.6441 344.924 37.2275 344.513C37.8141 344.102 38.5151 343.897 39.3304 343.897C40.1458 343.897 40.8468 344.102 41.4334 344.513C42.0201 344.924 42.4692 345.521 42.7807 346.303C43.0956 347.085 43.253 348.03 43.253 349.137C43.253 350.25 43.0956 351.202 42.7807 351.991C42.4692 352.776 42.0201 353.376 41.4334 353.79C40.8501 354.205 40.1491 354.412 39.3304 354.412ZM39.3304 352.856C39.9668 352.856 40.4689 352.542 40.8368 351.916C41.208 351.286 41.3936 350.36 41.3936 349.137C41.3936 348.328 41.3091 347.649 41.1401 347.098C40.9711 346.548 40.7324 346.134 40.4242 345.856C40.1159 345.574 39.7514 345.433 39.3304 345.433C38.6974 345.433 38.1969 345.748 37.829 346.378C37.4611 347.004 37.2755 347.924 37.2722 349.137C37.2689 349.949 37.3501 350.632 37.5158 351.185C37.6848 351.739 37.9235 352.156 38.2317 352.438C38.54 352.716 38.9062 352.856 39.3304 352.856Z" fill="black"/>
<path d="M308.918 382.606V381.274L312.453 377.809C312.791 377.467 313.072 377.164 313.298 376.899C313.523 376.634 313.692 376.377 313.805 376.128C313.918 375.88 313.974 375.615 313.974 375.333C313.974 375.012 313.901 374.736 313.755 374.508C313.609 374.276 313.409 374.097 313.154 373.971C312.898 373.845 312.608 373.782 312.284 373.782C311.949 373.782 311.656 373.851 311.404 373.991C311.152 374.127 310.956 374.32 310.817 374.572C310.681 374.824 310.613 375.124 310.613 375.472H308.858C308.858 374.826 309.006 374.264 309.301 373.787C309.596 373.31 310.002 372.94 310.519 372.678C311.039 372.416 311.636 372.285 312.308 372.285C312.991 372.285 313.591 372.413 314.108 372.668C314.625 372.923 315.026 373.273 315.311 373.717C315.6 374.161 315.744 374.668 315.744 375.239C315.744 375.62 315.671 375.994 315.525 376.362C315.379 376.73 315.122 377.138 314.754 377.585C314.39 378.033 313.878 378.574 313.218 379.211L311.463 380.996V381.065H315.898V382.606H308.918ZM321.377 382.8C320.558 382.8 319.855 382.593 319.269 382.179C318.685 381.761 318.236 381.16 317.921 380.374C317.61 379.585 317.454 378.636 317.454 377.525C317.457 376.415 317.615 375.471 317.926 374.692C318.241 373.909 318.69 373.313 319.274 372.902C319.86 372.491 320.561 372.285 321.377 372.285C322.192 372.285 322.893 372.491 323.48 372.902C324.066 373.313 324.515 373.909 324.827 374.692C325.142 375.474 325.299 376.418 325.299 377.525C325.299 378.639 325.142 379.59 324.827 380.379C324.515 381.165 324.066 381.765 323.48 382.179C322.896 382.593 322.195 382.8 321.377 382.8ZM321.377 381.244C322.013 381.244 322.515 380.931 322.883 380.305C323.254 379.675 323.44 378.748 323.44 377.525C323.44 376.717 323.355 376.037 323.186 375.487C323.017 374.937 322.779 374.523 322.47 374.244C322.162 373.963 321.798 373.822 321.377 373.822C320.744 373.822 320.243 374.137 319.875 374.766C319.507 375.393 319.322 376.312 319.318 377.525C319.315 378.338 319.396 379.02 319.562 379.574C319.731 380.127 319.97 380.545 320.278 380.827C320.586 381.105 320.952 381.244 321.377 381.244ZM331.092 372.425V382.606H329.248V374.219H329.188L326.807 375.741V374.05L329.337 372.425H331.092ZM334.05 382.606L338.381 374.035V373.966H333.354V372.425H340.29V374.001L335.965 382.606H334.05Z" fill="black"/>
<path d="M561.327 382.606V381.274L564.861 377.809C565.199 377.467 565.481 377.164 565.707 376.899C565.932 376.634 566.101 376.377 566.214 376.128C566.326 375.88 566.383 375.615 566.383 375.333C566.383 375.012 566.31 374.736 566.164 374.508C566.018 374.276 565.818 374.097 565.562 373.971C565.307 373.845 565.017 373.782 564.692 373.782C564.358 373.782 564.064 373.851 563.812 373.991C563.561 374.127 563.365 374.32 563.226 374.572C563.09 374.824 563.022 375.124 563.022 375.472H561.267C561.267 374.826 561.414 374.264 561.709 373.787C562.004 373.31 562.41 372.94 562.927 372.678C563.448 372.416 564.044 372.285 564.717 372.285C565.4 372.285 566 372.413 566.517 372.668C567.034 372.923 567.435 373.273 567.72 373.717C568.008 374.161 568.153 374.668 568.153 375.239C568.153 375.62 568.08 375.994 567.934 376.362C567.788 376.73 567.531 377.138 567.163 377.585C566.799 378.033 566.287 378.574 565.627 379.211L563.872 380.996V381.065H568.307V382.606H561.327ZM573.785 382.8C572.967 382.8 572.264 382.593 571.677 382.179C571.094 381.761 570.645 381.16 570.33 380.374C570.019 379.585 569.863 378.636 569.863 377.525C569.866 376.415 570.024 375.471 570.335 374.692C570.65 373.909 571.099 373.313 571.682 372.902C572.269 372.491 572.97 372.285 573.785 372.285C574.601 372.285 575.302 372.491 575.888 372.902C576.475 373.313 576.924 373.909 577.236 374.692C577.551 375.474 577.708 376.418 577.708 377.525C577.708 378.639 577.551 379.59 577.236 380.379C576.924 381.165 576.475 381.765 575.888 382.179C575.305 382.593 574.604 382.8 573.785 382.8ZM573.785 381.244C574.422 381.244 574.924 380.931 575.292 380.305C575.663 379.675 575.849 378.748 575.849 377.525C575.849 376.717 575.764 376.037 575.595 375.487C575.426 374.937 575.187 374.523 574.879 374.244C574.571 373.963 574.206 373.822 573.785 373.822C573.152 373.822 572.652 374.137 572.284 374.766C571.916 375.393 571.731 376.312 571.727 377.525C571.724 378.338 571.805 379.02 571.971 379.574C572.14 380.127 572.378 380.545 572.687 380.827C572.995 381.105 573.361 381.244 573.785 381.244ZM583.501 372.425V382.606H581.657V374.219H581.597L579.216 375.741V374.05L581.746 372.425H583.501ZM589.706 382.746C588.967 382.746 588.31 382.621 587.737 382.373C587.167 382.124 586.719 381.784 586.395 381.354C586.073 380.919 585.914 380.427 585.917 379.877C585.914 379.449 586.007 379.057 586.196 378.699C586.385 378.341 586.64 378.043 586.961 377.804C587.286 377.562 587.647 377.408 588.045 377.342V377.272C587.522 377.156 587.097 376.889 586.772 376.472C586.451 376.051 586.292 375.565 586.295 375.015C586.292 374.491 586.438 374.024 586.733 373.613C587.028 373.202 587.432 372.879 587.946 372.643C588.459 372.405 589.046 372.285 589.706 372.285C590.359 372.285 590.94 372.405 591.451 372.643C591.964 372.879 592.369 373.202 592.664 373.613C592.962 374.024 593.111 374.491 593.111 375.015C593.111 375.565 592.947 376.051 592.619 376.472C592.294 376.889 591.875 377.156 591.361 377.272V377.342C591.759 377.408 592.117 377.562 592.435 377.804C592.757 378.043 593.012 378.341 593.201 378.699C593.393 379.057 593.489 379.449 593.489 379.877C593.489 380.427 593.327 380.919 593.002 381.354C592.677 381.784 592.23 382.124 591.66 382.373C591.093 382.621 590.442 382.746 589.706 382.746ZM589.706 381.324C590.087 381.324 590.418 381.259 590.7 381.13C590.982 380.997 591.201 380.812 591.356 380.573C591.512 380.334 591.592 380.059 591.595 379.748C591.592 379.423 591.507 379.136 591.341 378.888C591.179 378.636 590.955 378.439 590.67 378.296C590.388 378.154 590.067 378.082 589.706 378.082C589.341 378.082 589.016 378.154 588.731 378.296C588.446 378.439 588.221 378.636 588.055 378.888C587.893 379.136 587.813 379.423 587.817 379.748C587.813 380.059 587.889 380.334 588.045 380.573C588.201 380.808 588.42 380.992 588.701 381.125C588.986 381.257 589.321 381.324 589.706 381.324ZM589.706 376.685C590.017 376.685 590.292 376.622 590.531 376.496C590.773 376.37 590.964 376.195 591.103 375.969C591.242 375.744 591.313 375.484 591.317 375.189C591.313 374.897 591.244 374.642 591.108 374.423C590.972 374.201 590.783 374.03 590.541 373.911C590.299 373.788 590.021 373.727 589.706 373.727C589.384 373.727 589.101 373.788 588.856 373.911C588.614 374.03 588.425 374.201 588.289 374.423C588.156 374.642 588.092 374.897 588.095 375.189C588.092 375.484 588.158 375.744 588.294 375.969C588.433 376.191 588.624 376.367 588.866 376.496C589.111 376.622 589.391 376.685 589.706 376.685Z" fill="black"/>
<path d="M813.541 382.606V381.274L817.076 377.809C817.414 377.467 817.696 377.164 817.921 376.899C818.146 376.634 818.315 376.377 818.428 376.128C818.541 375.88 818.597 375.615 818.597 375.333C818.597 375.012 818.524 374.736 818.378 374.508C818.233 374.276 818.032 374.097 817.777 373.971C817.522 373.845 817.232 373.782 816.907 373.782C816.572 373.782 816.279 373.851 816.027 373.991C815.775 374.127 815.579 374.32 815.44 374.572C815.304 374.824 815.236 375.124 815.236 375.472H813.481C813.481 374.826 813.629 374.264 813.924 373.787C814.219 373.31 814.625 372.94 815.142 372.678C815.662 372.416 816.259 372.285 816.932 372.285C817.614 372.285 818.214 372.413 818.731 372.668C819.248 372.923 819.649 373.273 819.934 373.717C820.223 374.161 820.367 374.668 820.367 375.239C820.367 375.62 820.294 375.994 820.148 376.362C820.002 376.73 819.746 377.138 819.378 377.585C819.013 378.033 818.501 378.574 817.841 379.211L816.086 380.996V381.065H820.521V382.606H813.541ZM826 382.8C825.181 382.8 824.478 382.593 823.892 382.179C823.308 381.761 822.859 381.16 822.545 380.374C822.233 379.585 822.077 378.636 822.077 377.525C822.081 376.415 822.238 375.471 822.55 374.692C822.864 373.909 823.313 373.313 823.897 372.902C824.483 372.491 825.184 372.285 826 372.285C826.815 372.285 827.516 372.491 828.103 372.902C828.689 373.313 829.139 373.909 829.45 374.692C829.765 375.474 829.922 376.418 829.922 377.525C829.922 378.639 829.765 379.59 829.45 380.379C829.139 381.165 828.689 381.765 828.103 382.179C827.519 382.593 826.818 382.8 826 382.8ZM826 381.244C826.636 381.244 827.138 380.931 827.506 380.305C827.877 379.675 828.063 378.748 828.063 377.525C828.063 376.717 827.978 376.037 827.809 375.487C827.64 374.937 827.402 374.523 827.094 374.244C826.785 373.963 826.421 373.822 826 373.822C825.367 373.822 824.866 374.137 824.498 374.766C824.13 375.393 823.945 376.312 823.942 377.525C823.938 378.338 824.019 379.02 824.185 379.574C824.354 380.127 824.593 380.545 824.901 380.827C825.209 381.105 825.576 381.244 826 381.244ZM835.716 372.425V382.606H833.871V374.219H833.811L831.43 375.741V374.05L833.961 372.425H835.716ZM841.836 372.285C842.323 372.289 842.797 372.375 843.257 372.544C843.721 372.71 844.139 372.981 844.51 373.359C844.881 373.734 845.176 374.236 845.395 374.866C845.614 375.495 845.723 376.274 845.723 377.202C845.727 378.077 845.634 378.86 845.445 379.549C845.259 380.235 844.993 380.815 844.644 381.289C844.296 381.763 843.877 382.124 843.387 382.373C842.896 382.621 842.344 382.746 841.731 382.746C841.088 382.746 840.518 382.62 840.021 382.368C839.527 382.116 839.128 381.771 838.823 381.334C838.518 380.896 838.331 380.396 838.261 379.832H840.076C840.168 380.237 840.357 380.558 840.642 380.797C840.931 381.032 841.294 381.15 841.731 381.15C842.437 381.15 842.981 380.843 843.362 380.23C843.743 379.617 843.934 378.765 843.934 377.675H843.864C843.702 377.966 843.491 378.218 843.233 378.43C842.974 378.639 842.681 378.8 842.353 378.913C842.028 379.025 841.683 379.082 841.319 379.082C840.722 379.082 840.185 378.939 839.708 378.654C839.234 378.369 838.858 377.978 838.579 377.481C838.304 376.984 838.165 376.415 838.162 375.775C838.162 375.113 838.314 374.518 838.619 373.991C838.927 373.46 839.356 373.043 839.907 372.738C840.457 372.43 841.1 372.279 841.836 372.285ZM841.841 373.777C841.483 373.777 841.159 373.865 840.871 374.04C840.586 374.213 840.361 374.448 840.195 374.746C840.033 375.041 839.951 375.371 839.951 375.736C839.955 376.097 840.036 376.425 840.195 376.72C840.357 377.015 840.578 377.249 840.856 377.421C841.138 377.593 841.459 377.68 841.821 377.68C842.089 377.68 842.339 377.628 842.571 377.525C842.803 377.423 843.006 377.28 843.178 377.098C843.354 376.912 843.489 376.702 843.586 376.467C843.685 376.231 843.733 375.983 843.73 375.721C843.73 375.373 843.647 375.051 843.481 374.756C843.319 374.461 843.095 374.224 842.81 374.045C842.528 373.866 842.205 373.777 841.841 373.777Z" fill="black"/>
<path d="M1049.93 382.606V381.274L1053.47 377.809C1053.81 377.467 1054.09 377.164 1054.31 376.899C1054.54 376.634 1054.71 376.377 1054.82 376.128C1054.93 375.88 1054.99 375.615 1054.99 375.333C1054.99 375.012 1054.92 374.736 1054.77 374.508C1054.62 374.276 1054.42 374.097 1054.17 373.971C1053.91 373.845 1053.62 373.782 1053.3 373.782C1052.96 373.782 1052.67 373.851 1052.42 373.991C1052.17 374.127 1051.97 374.32 1051.83 374.572C1051.7 374.824 1051.63 375.124 1051.63 375.472H1049.87C1049.87 374.826 1050.02 374.264 1050.32 373.787C1050.61 373.31 1051.02 372.94 1051.53 372.678C1052.05 372.416 1052.65 372.285 1053.32 372.285C1054.01 372.285 1054.61 372.413 1055.12 372.668C1055.64 372.923 1056.04 373.273 1056.33 373.717C1056.61 374.161 1056.76 374.668 1056.76 375.239C1056.76 375.62 1056.69 375.994 1056.54 376.362C1056.39 376.73 1056.14 377.138 1055.77 377.585C1055.4 378.033 1054.89 378.574 1054.23 379.211L1052.48 380.996V381.065H1056.91V382.606H1049.93ZM1062.39 382.8C1061.57 382.8 1060.87 382.593 1060.28 382.179C1059.7 381.761 1059.25 381.16 1058.94 380.374C1058.62 379.585 1058.47 378.636 1058.47 377.525C1058.47 376.415 1058.63 375.471 1058.94 374.692C1059.26 373.909 1059.7 373.313 1060.29 372.902C1060.87 372.491 1061.58 372.285 1062.39 372.285C1063.21 372.285 1063.91 372.491 1064.49 372.902C1065.08 373.313 1065.53 373.909 1065.84 374.692C1066.16 375.474 1066.31 376.418 1066.31 377.525C1066.31 378.639 1066.16 379.59 1065.84 380.379C1065.53 381.165 1065.08 381.765 1064.49 382.179C1063.91 382.593 1063.21 382.8 1062.39 382.8ZM1062.39 381.244C1063.03 381.244 1063.53 380.931 1063.9 380.305C1064.27 379.675 1064.45 378.748 1064.45 377.525C1064.45 376.717 1064.37 376.037 1064.2 375.487C1064.03 374.937 1063.79 374.523 1063.48 374.244C1063.18 373.963 1062.81 373.822 1062.39 373.822C1061.76 373.822 1061.26 374.137 1060.89 374.766C1060.52 375.393 1060.34 376.312 1060.33 377.525C1060.33 378.338 1060.41 379.02 1060.58 379.574C1060.75 380.127 1060.98 380.545 1061.29 380.827C1061.6 381.105 1061.97 381.244 1062.39 381.244ZM1067.97 382.606V381.274L1071.5 377.809C1071.84 377.467 1072.12 377.164 1072.35 376.899C1072.57 376.634 1072.74 376.377 1072.85 376.128C1072.97 375.88 1073.02 375.615 1073.02 375.333C1073.02 375.012 1072.95 374.736 1072.8 374.508C1072.66 374.276 1072.46 374.097 1072.2 373.971C1071.95 373.845 1071.66 373.782 1071.33 373.782C1071 373.782 1070.7 373.851 1070.45 373.991C1070.2 374.127 1070 374.32 1069.86 374.572C1069.73 374.824 1069.66 375.124 1069.66 375.472H1067.91C1067.91 374.826 1068.05 374.264 1068.35 373.787C1068.64 373.31 1069.05 372.94 1069.57 372.678C1070.09 372.416 1070.68 372.285 1071.36 372.285C1072.04 372.285 1072.64 372.413 1073.16 372.668C1073.67 372.923 1074.07 373.273 1074.36 373.717C1074.65 374.161 1074.79 374.668 1074.79 375.239C1074.79 375.62 1074.72 375.994 1074.57 376.362C1074.43 376.73 1074.17 377.138 1073.8 377.585C1073.44 378.033 1072.93 378.574 1072.27 379.211L1070.51 380.996V381.065H1074.95V382.606H1067.97ZM1080.42 382.8C1079.61 382.8 1078.9 382.593 1078.32 382.179C1077.73 381.761 1077.28 381.16 1076.97 380.374C1076.66 379.585 1076.5 378.636 1076.5 377.525C1076.51 376.415 1076.66 375.471 1076.97 374.692C1077.29 373.909 1077.74 373.313 1078.32 372.902C1078.91 372.491 1079.61 372.285 1080.42 372.285C1081.24 372.285 1081.94 372.491 1082.53 372.902C1083.11 373.313 1083.56 373.909 1083.87 374.692C1084.19 375.474 1084.35 376.418 1084.35 377.525C1084.35 378.639 1084.19 379.59 1083.87 380.379C1083.56 381.165 1083.11 381.765 1082.53 382.179C1081.94 382.593 1081.24 382.8 1080.42 382.8ZM1080.42 381.244C1081.06 381.244 1081.56 380.931 1081.93 380.305C1082.3 379.675 1082.49 378.748 1082.49 377.525C1082.49 376.717 1082.4 376.037 1082.23 375.487C1082.06 374.937 1081.83 374.523 1081.52 374.244C1081.21 373.963 1080.85 373.822 1080.42 373.822C1079.79 373.822 1079.29 374.137 1078.92 374.766C1078.56 375.393 1078.37 376.312 1078.37 377.525C1078.36 378.338 1078.44 379.02 1078.61 379.574C1078.78 380.127 1079.02 380.545 1079.33 380.827C1079.63 381.105 1080 381.244 1080.42 381.244Z" fill="black"/>
<line x1="52" y1="337.5" x2="1115" y2="337.5" stroke="white"/>
<path d="M1099.45 308H1096V297.818H1099.52C1100.54 297.818 1101.4 298.022 1102.13 298.43C1102.86 298.834 1103.42 299.416 1103.81 300.175C1104.2 300.934 1104.4 301.842 1104.4 302.899C1104.4 303.96 1104.2 304.871 1103.8 305.634C1103.41 306.396 1102.85 306.981 1102.11 307.388C1101.37 307.796 1100.49 308 1099.45 308ZM1097.85 306.404H1099.37C1100.07 306.404 1100.67 306.275 1101.14 306.016C1101.61 305.754 1101.97 305.365 1102.21 304.848C1102.45 304.328 1102.57 303.678 1102.57 302.899C1102.57 302.12 1102.45 301.474 1102.21 300.96C1101.97 300.443 1101.62 300.057 1101.15 299.802C1100.69 299.543 1100.11 299.414 1099.42 299.414H1097.85V306.404ZM1106.07 308V300.364H1107.87V308H1106.07ZM1106.97 299.28C1106.69 299.28 1106.44 299.185 1106.24 298.996C1106.03 298.804 1105.93 298.574 1105.93 298.305C1105.93 298.034 1106.03 297.803 1106.24 297.614C1106.44 297.422 1106.69 297.326 1106.97 297.326C1107.26 297.326 1107.51 297.422 1107.71 297.614C1107.92 297.803 1108.02 298.034 1108.02 298.305C1108.02 298.574 1107.92 298.804 1107.71 298.996C1107.51 299.185 1107.26 299.28 1106.97 299.28ZM1115.76 302.382L1114.11 302.561C1114.07 302.395 1113.99 302.24 1113.87 302.094C1113.76 301.948 1113.61 301.83 1113.41 301.741C1113.22 301.651 1112.99 301.607 1112.71 301.607C1112.33 301.607 1112.02 301.688 1111.76 301.85C1111.51 302.013 1111.39 302.223 1111.39 302.482C1111.39 302.704 1111.47 302.884 1111.63 303.023C1111.8 303.163 1112.08 303.277 1112.47 303.366L1113.77 303.645C1114.49 303.801 1115.03 304.048 1115.38 304.386C1115.74 304.724 1115.92 305.166 1115.92 305.713C1115.92 306.194 1115.78 306.618 1115.5 306.986C1115.22 307.35 1114.84 307.635 1114.35 307.841C1113.86 308.046 1113.29 308.149 1112.66 308.149C1111.72 308.149 1110.97 307.954 1110.4 307.562C1109.83 307.168 1109.49 306.62 1109.38 305.917L1111.14 305.748C1111.22 306.093 1111.39 306.353 1111.64 306.528C1111.9 306.704 1112.24 306.792 1112.65 306.792C1113.08 306.792 1113.42 306.704 1113.68 306.528C1113.94 306.353 1114.07 306.136 1114.07 305.877C1114.07 305.658 1113.99 305.478 1113.82 305.335C1113.66 305.193 1113.4 305.083 1113.05 305.007L1111.74 304.734C1111.01 304.581 1110.47 304.324 1110.12 303.963C1109.77 303.598 1109.59 303.138 1109.6 302.581C1109.59 302.11 1109.72 301.703 1109.98 301.358C1110.24 301.01 1110.6 300.741 1111.07 300.553C1111.53 300.36 1112.07 300.264 1112.68 300.264C1113.58 300.264 1114.28 300.455 1114.8 300.836C1115.31 301.217 1115.63 301.732 1115.76 302.382ZM1117.48 308V297.818H1119.28V301.626H1119.36C1119.45 301.441 1119.58 301.244 1119.75 301.035C1119.92 300.823 1120.15 300.642 1120.44 300.493C1120.72 300.34 1121.09 300.264 1121.54 300.264C1122.13 300.264 1122.66 300.415 1123.14 300.717C1123.61 301.015 1123.99 301.457 1124.27 302.044C1124.55 302.627 1124.69 303.343 1124.69 304.192C1124.69 305.03 1124.55 305.743 1124.28 306.33C1124 306.916 1123.63 307.364 1123.16 307.672C1122.68 307.98 1122.14 308.134 1121.54 308.134C1121.11 308.134 1120.74 308.061 1120.46 307.915C1120.17 307.77 1119.94 307.594 1119.76 307.388C1119.59 307.18 1119.45 306.982 1119.36 306.797H1119.25V308H1117.48ZM1119.25 304.182C1119.25 304.676 1119.32 305.108 1119.46 305.479C1119.6 305.851 1119.8 306.141 1120.07 306.349C1120.34 306.555 1120.66 306.658 1121.04 306.658C1121.44 306.658 1121.77 306.552 1122.04 306.339C1122.31 306.124 1122.51 305.831 1122.65 305.46C1122.79 305.085 1122.86 304.659 1122.86 304.182C1122.86 303.708 1122.79 303.287 1122.65 302.919C1122.52 302.551 1122.32 302.263 1122.05 302.054C1121.78 301.845 1121.44 301.741 1121.04 301.741C1120.66 301.741 1120.33 301.842 1120.06 302.044C1119.79 302.246 1119.59 302.53 1119.45 302.894C1119.32 303.259 1119.25 303.688 1119.25 304.182ZM1131.09 304.788V300.364H1132.89V308H1131.14V306.643H1131.06C1130.89 307.07 1130.61 307.42 1130.21 307.692C1129.82 307.964 1129.34 308.099 1128.77 308.099C1128.27 308.099 1127.82 307.988 1127.44 307.766C1127.06 307.541 1126.76 307.214 1126.54 306.787C1126.33 306.356 1126.22 305.836 1126.22 305.226V300.364H1128.02V304.947C1128.02 305.431 1128.15 305.816 1128.42 306.101C1128.68 306.386 1129.03 306.528 1129.46 306.528C1129.73 306.528 1129.99 306.464 1130.23 306.335C1130.48 306.205 1130.69 306.013 1130.85 305.758C1131.01 305.499 1131.09 305.176 1131.09 304.788ZM1134.74 308V300.364H1136.48V301.636H1136.56C1136.7 301.196 1136.94 300.856 1137.28 300.617C1137.62 300.375 1138.01 300.254 1138.45 300.254C1138.55 300.254 1138.66 300.259 1138.78 300.269C1138.91 300.276 1139.01 300.287 1139.09 300.304V301.96C1139.02 301.933 1138.9 301.91 1138.73 301.89C1138.57 301.867 1138.41 301.855 1138.26 301.855C1137.93 301.855 1137.64 301.926 1137.37 302.069C1137.12 302.208 1136.91 302.402 1136.76 302.651C1136.61 302.899 1136.54 303.186 1136.54 303.511V308H1134.74ZM1146.33 302.382L1144.68 302.561C1144.64 302.395 1144.56 302.24 1144.44 302.094C1144.33 301.948 1144.18 301.83 1143.98 301.741C1143.79 301.651 1143.56 301.607 1143.28 301.607C1142.9 301.607 1142.59 301.688 1142.33 301.85C1142.08 302.013 1141.96 302.223 1141.96 302.482C1141.96 302.704 1142.04 302.884 1142.2 303.023C1142.37 303.163 1142.65 303.277 1143.04 303.366L1144.34 303.645C1145.06 303.801 1145.6 304.048 1145.95 304.386C1146.31 304.724 1146.49 305.166 1146.49 305.713C1146.49 306.194 1146.35 306.618 1146.07 306.986C1145.79 307.35 1145.41 307.635 1144.92 307.841C1144.43 308.046 1143.86 308.149 1143.23 308.149C1142.29 308.149 1141.54 307.954 1140.97 307.562C1140.4 307.168 1140.06 306.62 1139.95 305.917L1141.71 305.748C1141.79 306.093 1141.96 306.353 1142.21 306.528C1142.47 306.704 1142.81 306.792 1143.22 306.792C1143.65 306.792 1143.99 306.704 1144.25 306.528C1144.51 306.353 1144.65 306.136 1144.65 305.877C1144.65 305.658 1144.56 305.478 1144.39 305.335C1144.23 305.193 1143.97 305.083 1143.62 305.007L1142.31 304.734C1141.58 304.581 1141.04 304.324 1140.69 303.963C1140.34 303.598 1140.16 303.138 1140.17 302.581C1140.16 302.11 1140.29 301.703 1140.55 301.358C1140.81 301.01 1141.17 300.741 1141.64 300.553C1142.1 300.36 1142.64 300.264 1143.25 300.264C1144.15 300.264 1144.85 300.455 1145.37 300.836C1145.88 301.217 1146.2 301.732 1146.33 302.382ZM1151.35 308.149C1150.59 308.149 1149.93 307.99 1149.37 307.672C1148.82 307.35 1148.39 306.896 1148.09 306.31C1147.79 305.72 1147.65 305.025 1147.65 304.227C1147.65 303.441 1147.79 302.752 1148.09 302.158C1148.39 301.562 1148.82 301.098 1149.36 300.766C1149.9 300.432 1150.53 300.264 1151.26 300.264C1151.73 300.264 1152.17 300.34 1152.59 300.493C1153.01 300.642 1153.38 300.874 1153.71 301.189C1154.03 301.504 1154.29 301.905 1154.47 302.392C1154.66 302.876 1154.75 303.453 1154.75 304.122V304.674H1148.49V303.461H1153.02C1153.02 303.116 1152.95 302.81 1152.8 302.541C1152.66 302.269 1152.45 302.056 1152.19 301.9C1151.93 301.744 1151.63 301.666 1151.28 301.666C1150.92 301.666 1150.59 301.756 1150.32 301.935C1150.04 302.11 1149.82 302.342 1149.66 302.631C1149.51 302.916 1149.43 303.229 1149.43 303.57V304.629C1149.43 305.073 1149.51 305.455 1149.67 305.773C1149.84 306.088 1150.06 306.33 1150.35 306.499C1150.65 306.664 1150.99 306.747 1151.38 306.747C1151.64 306.747 1151.88 306.711 1152.09 306.638C1152.3 306.562 1152.49 306.451 1152.64 306.305C1152.8 306.159 1152.92 305.978 1152.99 305.763L1154.68 305.952C1154.57 306.396 1154.37 306.784 1154.07 307.115C1153.77 307.443 1153.4 307.698 1152.94 307.881C1152.47 308.06 1151.95 308.149 1151.35 308.149ZM1156.27 308V300.364H1157.99V301.661H1158.08C1158.24 301.224 1158.5 300.882 1158.87 300.637C1159.24 300.388 1159.68 300.264 1160.19 300.264C1160.71 300.264 1161.14 300.39 1161.5 300.642C1161.86 300.891 1162.11 301.23 1162.25 301.661H1162.33C1162.5 301.237 1162.79 300.899 1163.19 300.647C1163.59 300.392 1164.07 300.264 1164.62 300.264C1165.33 300.264 1165.9 300.486 1166.34 300.93C1166.79 301.375 1167.01 302.022 1167.01 302.874V308H1165.21V303.153C1165.21 302.679 1165.08 302.332 1164.83 302.114C1164.58 301.892 1164.27 301.781 1163.9 301.781C1163.47 301.781 1163.13 301.916 1162.88 302.188C1162.64 302.457 1162.52 302.806 1162.52 303.237V308H1160.76V303.078C1160.76 302.684 1160.64 302.369 1160.4 302.134C1160.16 301.898 1159.86 301.781 1159.47 301.781C1159.22 301.781 1158.98 301.847 1158.77 301.979C1158.56 302.109 1158.39 302.293 1158.26 302.531C1158.14 302.767 1158.07 303.042 1158.07 303.357V308H1156.27ZM1172.22 308.149C1171.45 308.149 1170.79 307.99 1170.23 307.672C1169.68 307.35 1169.25 306.896 1168.96 306.31C1168.66 305.72 1168.51 305.025 1168.51 304.227C1168.51 303.441 1168.66 302.752 1168.96 302.158C1169.26 301.562 1169.68 301.098 1170.22 300.766C1170.76 300.432 1171.39 300.264 1172.12 300.264C1172.59 300.264 1173.04 300.34 1173.46 300.493C1173.88 300.642 1174.25 300.874 1174.57 301.189C1174.89 301.504 1175.15 301.905 1175.33 302.392C1175.52 302.876 1175.61 303.453 1175.61 304.122V304.674H1169.35V303.461H1173.89C1173.88 303.116 1173.81 302.81 1173.66 302.541C1173.52 302.269 1173.31 302.056 1173.05 301.9C1172.79 301.744 1172.49 301.666 1172.15 301.666C1171.78 301.666 1171.46 301.756 1171.18 301.935C1170.9 302.11 1170.68 302.342 1170.53 302.631C1170.37 302.916 1170.3 303.229 1170.29 303.57V304.629C1170.29 305.073 1170.37 305.455 1170.54 305.773C1170.7 306.088 1170.93 306.33 1171.22 306.499C1171.51 306.664 1171.85 306.747 1172.24 306.747C1172.5 306.747 1172.74 306.711 1172.95 306.638C1173.17 306.562 1173.35 306.451 1173.51 306.305C1173.66 306.159 1173.78 305.978 1173.86 305.763L1175.54 305.952C1175.43 306.396 1175.23 306.784 1174.93 307.115C1174.64 307.443 1174.26 307.698 1173.8 307.881C1173.34 308.06 1172.81 308.149 1172.22 308.149ZM1178.94 303.526V308H1177.14V300.364H1178.86V301.661H1178.95C1179.12 301.234 1179.4 300.894 1179.79 300.642C1180.17 300.39 1180.65 300.264 1181.22 300.264C1181.75 300.264 1182.21 300.377 1182.6 300.602C1182.99 300.828 1183.3 301.154 1183.51 301.582C1183.73 302.009 1183.84 302.528 1183.84 303.138V308H1182.04V303.416C1182.04 302.906 1181.91 302.506 1181.64 302.218C1181.38 301.93 1181.02 301.786 1180.55 301.786C1180.24 301.786 1179.96 301.855 1179.71 301.994C1179.47 302.13 1179.28 302.327 1179.14 302.586C1179 302.844 1178.94 303.158 1178.94 303.526ZM1189.48 300.364V301.756H1185.09V300.364H1189.48ZM1186.17 298.534H1187.97V305.703C1187.97 305.945 1188.01 306.131 1188.08 306.26C1188.16 306.386 1188.26 306.472 1188.38 306.518C1188.5 306.565 1188.64 306.588 1188.79 306.588C1188.9 306.588 1189 306.58 1189.1 306.563C1189.19 306.547 1189.27 306.532 1189.32 306.518L1189.62 307.925C1189.52 307.959 1189.39 307.995 1189.21 308.035C1189.03 308.075 1188.82 308.098 1188.56 308.104C1188.11 308.118 1187.7 308.05 1187.34 307.901C1186.98 307.748 1186.69 307.513 1186.48 307.195C1186.27 306.876 1186.17 306.479 1186.17 306.001V298.534ZM1196.91 302.382L1195.27 302.561C1195.22 302.395 1195.14 302.24 1195.03 302.094C1194.91 301.948 1194.76 301.83 1194.57 301.741C1194.38 301.651 1194.14 301.607 1193.86 301.607C1193.49 301.607 1193.17 301.688 1192.92 301.85C1192.67 302.013 1192.54 302.223 1192.55 302.482C1192.54 302.704 1192.62 302.884 1192.79 303.023C1192.96 303.163 1193.24 303.277 1193.63 303.366L1194.93 303.645C1195.65 303.801 1196.19 304.048 1196.54 304.386C1196.89 304.724 1197.07 305.166 1197.08 305.713C1197.07 306.194 1196.93 306.618 1196.65 306.986C1196.38 307.35 1195.99 307.635 1195.5 307.841C1195.01 308.046 1194.45 308.149 1193.81 308.149C1192.88 308.149 1192.13 307.954 1191.56 307.562C1190.99 307.168 1190.65 306.62 1190.54 305.917L1192.29 305.748C1192.37 306.093 1192.54 306.353 1192.8 306.528C1193.06 306.704 1193.39 306.792 1193.81 306.792C1194.24 306.792 1194.58 306.704 1194.84 306.528C1195.1 306.353 1195.23 306.136 1195.23 305.877C1195.23 305.658 1195.15 305.478 1194.98 305.335C1194.81 305.193 1194.55 305.083 1194.2 305.007L1192.9 304.734C1192.17 304.581 1191.62 304.324 1191.27 303.963C1190.92 303.598 1190.75 303.138 1190.75 302.581C1190.75 302.11 1190.88 301.703 1191.13 301.358C1191.4 301.01 1191.76 300.741 1192.22 300.553C1192.69 300.36 1193.23 300.264 1193.84 300.264C1194.73 300.264 1195.44 300.455 1195.95 300.836C1196.47 301.217 1196.79 301.732 1196.91 302.382Z" fill="black"/>
<path d="M7.47727 5.81818H9.32173V12.4702C9.32173 13.1993 9.14938 13.8407 8.80469 14.3942C8.46331 14.9477 7.98272 15.3802 7.36293 15.6918C6.74313 16 6.01894 16.1541 5.19034 16.1541C4.35843 16.1541 3.63258 16 3.01278 15.6918C2.39299 15.3802 1.91241 14.9477 1.57102 14.3942C1.22964 13.8407 1.05895 13.1993 1.05895 12.4702V5.81818H2.90341V12.3161C2.90341 12.7403 2.99621 13.1181 3.18182 13.4496C3.37074 13.781 3.63589 14.0412 3.97727 14.2301C4.31866 14.4157 4.72301 14.5085 5.19034 14.5085C5.65767 14.5085 6.06203 14.4157 6.40341 14.2301C6.74811 14.0412 7.01326 13.781 7.19886 13.4496C7.38447 13.1181 7.47727 12.7403 7.47727 12.3161V5.81818ZM16.8599 8.61719C16.8135 8.183 16.618 7.84493 16.2733 7.60298C15.9319 7.36103 15.4877 7.24006 14.9409 7.24006C14.5564 7.24006 14.2266 7.29806 13.9515 7.41406C13.6764 7.53007 13.466 7.6875 13.3201 7.88636C13.1743 8.08523 13.0997 8.31226 13.0964 8.56747C13.0964 8.77959 13.1445 8.96354 13.2406 9.11932C13.34 9.27509 13.4743 9.40767 13.6433 9.51705C13.8123 9.62311 13.9996 9.71259 14.2051 9.78551C14.4106 9.85843 14.6177 9.91974 14.8265 9.96946L15.7811 10.2081C16.1655 10.2976 16.5351 10.4186 16.8897 10.571C17.2477 10.7235 17.5675 10.9157 17.8493 11.1477C18.1343 11.3797 18.3597 11.6598 18.5254 11.9879C18.6911 12.3161 18.774 12.7005 18.774 13.1413C18.774 13.7379 18.6215 14.2633 18.3166 14.7173C18.0117 15.1681 17.5708 15.5211 16.9941 15.7763C16.4208 16.0282 15.7264 16.1541 14.911 16.1541C14.1189 16.1541 13.4312 16.0315 12.8478 15.7862C12.2678 15.541 11.8137 15.183 11.4856 14.7124C11.1608 14.2417 10.9851 13.6683 10.9586 12.9922H12.7733C12.7998 13.3468 12.9092 13.6418 13.1014 13.8771C13.2936 14.1125 13.5439 14.2881 13.8521 14.4041C14.1636 14.5201 14.5117 14.5781 14.8961 14.5781C15.2972 14.5781 15.6485 14.5185 15.9501 14.3991C16.255 14.2765 16.4937 14.1075 16.666 13.892C16.8384 13.6733 16.9262 13.4181 16.9295 13.1264C16.9262 12.8613 16.8483 12.6425 16.6958 12.4702C16.5434 12.2945 16.3296 12.1487 16.0545 12.0327C15.7827 11.9134 15.4645 11.8073 15.1 11.7145L13.9416 11.4162C13.103 11.2008 12.4402 10.8743 11.9529 10.4368C11.469 9.99598 11.2271 9.41098 11.2271 8.68182C11.2271 8.08191 11.3895 7.55658 11.7143 7.10582C12.0424 6.65507 12.4882 6.3054 13.0517 6.05682C13.6151 5.80492 14.2531 5.67898 14.9657 5.67898C15.6883 5.67898 16.3213 5.80492 16.8649 6.05682C17.4118 6.3054 17.841 6.65175 18.1525 7.09588C18.4641 7.53669 18.6248 8.0438 18.6348 8.61719H16.8599ZM23.6001 17.2727V4.54545H24.4155V17.2727H23.6001ZM25.9517 8.61719C25.9053 8.183 25.7098 7.84493 25.3651 7.60298C25.0237 7.36103 24.5795 7.24006 24.0327 7.24006C23.6482 7.24006 23.3184 7.29806 23.0433 7.41406C22.7682 7.53007 22.5578 7.6875 22.4119 7.88636C22.2661 8.08523 22.1915 8.31226 22.1882 8.56747C22.1882 8.77959 22.2363 8.96354 22.3324 9.11932C22.4318 9.27509 22.5661 9.40767 22.7351 9.51705C22.9041 9.62311 23.0914 9.71259 23.2969 9.78551C23.5024 9.85843 23.7095 9.91974 23.9183 9.96946L24.8729 10.2081C25.2573 10.2976 25.6269 10.4186 25.9815 10.571C26.3395 10.7235 26.6593 10.9157 26.9411 11.1477C27.2261 11.3797 27.4515 11.6598 27.6172 11.9879C27.7829 12.3161 27.8658 12.7005 27.8658 13.1413C27.8658 13.7379 27.7133 14.2633 27.4084 14.7173C27.1035 15.1681 26.6626 15.5211 26.0859 15.7763C25.5125 16.0282 24.8182 16.1541 24.0028 16.1541C23.2107 16.1541 22.523 16.0315 21.9396 15.7862C21.3596 15.541 20.9055 15.183 20.5774 14.7124C20.2526 14.2417 20.0769 13.6683 20.0504 12.9922H21.8651C21.8916 13.3468 22.0009 13.6418 22.1932 13.8771C22.3854 14.1125 22.6357 14.2881 22.9439 14.4041C23.2554 14.5201 23.6035 14.5781 23.9879 14.5781C24.389 14.5781 24.7403 14.5185 25.0419 14.3991C25.3468 14.2765 25.5855 14.1075 25.7578 13.892C25.9302 13.6733 26.018 13.4181 26.0213 13.1264C26.018 12.8613 25.9401 12.6425 25.7876 12.4702C25.6352 12.2945 25.4214 12.1487 25.1463 12.0327C24.8745 11.9134 24.5563 11.8073 24.1918 11.7145L23.0334 11.4162C22.1948 11.2008 21.532 10.8743 21.0447 10.4368C20.5608 9.99598 20.3189 9.41098 20.3189 8.68182C20.3189 8.08191 20.4813 7.55658 20.8061 7.10582C21.1342 6.65507 21.58 6.3054 22.1435 6.05682C22.7069 5.80492 23.3449 5.67898 24.0575 5.67898C24.7801 5.67898 25.4131 5.80492 25.9567 6.05682C26.5036 6.3054 26.9328 6.65175 27.2443 7.09588C27.5559 7.53669 27.7166 8.0438 27.7266 8.61719H25.9517ZM32.9828 5.81818H35.2399L38.2626 13.196H38.3819L41.4047 5.81818H43.6618V16H41.8919V9.00497H41.7974L38.9835 15.9702H37.661L34.8471 8.99006H34.7527V16H32.9828V5.81818ZM45.5907 16V8.36364H47.3904V16H45.5907ZM46.4956 7.27983C46.2105 7.27983 45.9653 7.18537 45.7598 6.99645C45.5543 6.80421 45.4515 6.57386 45.4515 6.3054C45.4515 6.03362 45.5543 5.80327 45.7598 5.61435C45.9653 5.42211 46.2105 5.32599 46.4956 5.32599C46.7839 5.32599 47.0292 5.42211 47.2314 5.61435C47.4368 5.80327 47.5396 6.03362 47.5396 6.3054C47.5396 6.57386 47.4368 6.80421 47.2314 6.99645C47.0292 7.18537 46.7839 7.27983 46.4956 7.27983ZM51.0408 5.81818V16H49.2411V5.81818H51.0408ZM54.6912 5.81818V16H52.8915V5.81818H54.6912ZM56.5419 16V8.36364H58.3416V16H56.5419ZM57.4467 7.27983C57.1617 7.27983 56.9164 7.18537 56.7109 6.99645C56.5054 6.80421 56.4027 6.57386 56.4027 6.3054C56.4027 6.03362 56.5054 5.80327 56.7109 5.61435C56.9164 5.42211 57.1617 5.32599 57.4467 5.32599C57.7351 5.32599 57.9804 5.42211 58.1825 5.61435C58.388 5.80327 58.4908 6.03362 58.4908 6.3054C58.4908 6.57386 58.388 6.80421 58.1825 6.99645C57.9804 7.18537 57.7351 7.27983 57.4467 7.27983ZM63.5233 16.1491C62.7775 16.1491 62.1312 15.9851 61.5843 15.657C61.0375 15.3288 60.6132 14.8698 60.3116 14.2798C60.0133 13.6899 59.8642 13.0005 59.8642 12.2116C59.8642 11.4228 60.0133 10.7318 60.3116 10.1385C60.6132 9.54522 61.0375 9.08452 61.5843 8.75639C62.1312 8.42827 62.7775 8.2642 63.5233 8.2642C64.269 8.2642 64.9153 8.42827 65.4622 8.75639C66.0091 9.08452 66.4316 9.54522 66.7299 10.1385C67.0315 10.7318 67.1824 11.4228 67.1824 12.2116C67.1824 13.0005 67.0315 13.6899 66.7299 14.2798C66.4316 14.8698 66.0091 15.3288 65.4622 15.657C64.9153 15.9851 64.269 16.1491 63.5233 16.1491ZM63.5332 14.7074C63.9376 14.7074 64.2756 14.5964 64.5474 14.3743C64.8192 14.1489 65.0214 13.8473 65.1539 13.4695C65.2898 13.0916 65.3578 12.6707 65.3578 12.2067C65.3578 11.7393 65.2898 11.3168 65.1539 10.9389C65.0214 10.5578 64.8192 10.2545 64.5474 10.0291C64.2756 9.80374 63.9376 9.69105 63.5332 9.69105C63.1189 9.69105 62.7742 9.80374 62.4991 10.0291C62.2273 10.2545 62.0235 10.5578 61.8876 10.9389C61.755 11.3168 61.6887 11.7393 61.6887 12.2067C61.6887 12.6707 61.755 13.0916 61.8876 13.4695C62.0235 13.8473 62.2273 14.1489 62.4991 14.3743C62.7742 14.5964 63.1189 14.7074 63.5332 14.7074ZM70.5096 11.5256V16H68.7099V8.36364H70.43V9.66122H70.5195C70.6952 9.23366 70.9753 8.89394 71.3597 8.64205C71.7475 8.39015 72.2264 8.2642 72.7965 8.2642C73.3235 8.2642 73.7826 8.37689 74.1737 8.60227C74.5681 8.82765 74.873 9.15412 75.0884 9.58168C75.3072 10.0092 75.4149 10.5279 75.4116 11.1378V16H73.6119V11.4162C73.6119 10.9058 73.4793 10.5064 73.2141 10.218C72.9523 9.92969 72.5894 9.78551 72.1254 9.78551C71.8105 9.78551 71.5304 9.85511 71.2852 9.99432C71.0432 10.1302 70.8526 10.3274 70.7134 10.5859C70.5775 10.8445 70.5096 11.1577 70.5096 11.5256ZM83.2766 10.3821L81.636 10.5611C81.5896 10.3954 81.5084 10.2396 81.3924 10.0938C81.2797 9.94792 81.1272 9.83026 80.935 9.74077C80.7428 9.65128 80.5075 9.60653 80.229 9.60653C79.8545 9.60653 79.5397 9.68774 79.2844 9.85014C79.0326 10.0125 78.9083 10.223 78.9116 10.4815C78.9083 10.7036 78.9895 10.8842 79.1552 11.0234C79.3242 11.1626 79.6026 11.277 79.9904 11.3665L81.293 11.6449C82.0155 11.8007 82.5524 12.0476 82.9038 12.3857C83.2584 12.7237 83.4374 13.1662 83.4407 13.7131C83.4374 14.1937 83.2965 14.6179 83.0181 14.9858C82.743 15.3504 82.3602 15.6354 81.8697 15.8409C81.3791 16.0464 80.8157 16.1491 80.1793 16.1491C79.2447 16.1491 78.4923 15.9536 77.9222 15.5625C77.3522 15.1681 77.0124 14.6196 76.9031 13.9169L78.658 13.7479C78.7376 14.0926 78.9066 14.3527 79.1651 14.5284C79.4237 14.7041 79.7601 14.7919 80.1744 14.7919C80.6019 14.7919 80.945 14.7041 81.2035 14.5284C81.4653 14.3527 81.5962 14.1357 81.5962 13.8771C81.5962 13.6584 81.5117 13.4777 81.3427 13.3352C81.177 13.1927 80.9184 13.0833 80.5671 13.0071L79.2646 12.7337C78.5321 12.5812 77.9902 12.3243 77.6388 11.9631C77.2875 11.5985 77.1135 11.1378 77.1168 10.581C77.1135 10.1103 77.2411 9.70265 77.4996 9.35795C77.7615 9.00994 78.1244 8.74148 78.5884 8.55256C79.0558 8.36032 79.5943 8.2642 80.2042 8.2642C81.0991 8.2642 81.8034 8.45478 82.3171 8.83594C82.8342 9.21709 83.154 9.73248 83.2766 10.3821Z" fill="black"/>
<path d="M1105.41 281.254H1103.55C1103.5 280.949 1103.4 280.679 1103.26 280.443C1103.12 280.205 1102.94 280.002 1102.73 279.837C1102.52 279.671 1102.27 279.547 1102 279.464C1101.73 279.378 1101.44 279.335 1101.13 279.335C1100.58 279.335 1100.09 279.474 1099.66 279.752C1099.23 280.027 1098.9 280.432 1098.66 280.965C1098.41 281.496 1098.29 282.143 1098.29 282.909C1098.29 283.688 1098.41 284.344 1098.66 284.878C1098.9 285.408 1099.24 285.809 1099.66 286.081C1100.09 286.349 1100.58 286.484 1101.13 286.484C1101.43 286.484 1101.72 286.444 1101.98 286.364C1102.25 286.281 1102.49 286.161 1102.7 286.001C1102.92 285.842 1103.1 285.647 1103.25 285.415C1103.39 285.183 1103.5 284.918 1103.55 284.619L1105.41 284.629C1105.34 285.113 1105.19 285.567 1104.96 285.991C1104.73 286.416 1104.43 286.79 1104.06 287.115C1103.69 287.437 1103.26 287.688 1102.76 287.871C1102.26 288.05 1101.71 288.139 1101.1 288.139C1100.21 288.139 1099.41 287.932 1098.71 287.518C1098 287.103 1097.45 286.505 1097.05 285.723C1096.64 284.941 1096.44 284.003 1096.44 282.909C1096.44 281.812 1096.64 280.874 1097.05 280.095C1097.46 279.313 1098.01 278.715 1098.72 278.3C1099.42 277.886 1100.21 277.679 1101.1 277.679C1101.67 277.679 1102.2 277.759 1102.68 277.918C1103.17 278.077 1103.6 278.31 1103.99 278.619C1104.37 278.924 1104.68 279.298 1104.93 279.742C1105.17 280.183 1105.34 280.687 1105.41 281.254ZM1110.35 288.149C1109.61 288.149 1108.96 287.985 1108.41 287.657C1107.87 287.329 1107.44 286.87 1107.14 286.28C1106.84 285.69 1106.69 285 1106.69 284.212C1106.69 283.423 1106.84 282.732 1107.14 282.138C1107.44 281.545 1107.87 281.085 1108.41 280.756C1108.96 280.428 1109.61 280.264 1110.35 280.264C1111.1 280.264 1111.75 280.428 1112.29 280.756C1112.84 281.085 1113.26 281.545 1113.56 282.138C1113.86 282.732 1114.01 283.423 1114.01 284.212C1114.01 285 1113.86 285.69 1113.56 286.28C1113.26 286.87 1112.84 287.329 1112.29 287.657C1111.75 287.985 1111.1 288.149 1110.35 288.149ZM1110.36 286.707C1110.77 286.707 1111.11 286.596 1111.38 286.374C1111.65 286.149 1111.85 285.847 1111.98 285.469C1112.12 285.092 1112.19 284.671 1112.19 284.207C1112.19 283.739 1112.12 283.317 1111.98 282.939C1111.85 282.558 1111.65 282.254 1111.38 282.029C1111.11 281.804 1110.77 281.691 1110.36 281.691C1109.95 281.691 1109.6 281.804 1109.33 282.029C1109.06 282.254 1108.85 282.558 1108.72 282.939C1108.59 283.317 1108.52 283.739 1108.52 284.207C1108.52 284.671 1108.59 285.092 1108.72 285.469C1108.85 285.847 1109.06 286.149 1109.33 286.374C1109.6 286.596 1109.95 286.707 1110.36 286.707ZM1115.54 288V280.364H1117.26V281.661H1117.35C1117.51 281.224 1117.77 280.882 1118.14 280.637C1118.51 280.388 1118.95 280.264 1119.46 280.264C1119.97 280.264 1120.41 280.39 1120.77 280.642C1121.12 280.891 1121.37 281.23 1121.52 281.661H1121.6C1121.77 281.237 1122.05 280.899 1122.46 280.647C1122.86 280.392 1123.34 280.264 1123.89 280.264C1124.59 280.264 1125.17 280.486 1125.61 280.93C1126.06 281.375 1126.28 282.022 1126.28 282.874V288H1124.47V283.153C1124.47 282.679 1124.35 282.332 1124.1 282.114C1123.84 281.892 1123.54 281.781 1123.17 281.781C1122.74 281.781 1122.4 281.916 1122.15 282.188C1121.91 282.457 1121.79 282.806 1121.79 283.237V288H1120.02V283.078C1120.02 282.684 1119.91 282.369 1119.67 282.134C1119.43 281.898 1119.12 281.781 1118.74 281.781C1118.48 281.781 1118.25 281.847 1118.04 281.979C1117.82 282.109 1117.65 282.293 1117.53 282.531C1117.4 282.767 1117.34 283.042 1117.34 283.357V288H1115.54ZM1128.1 288V280.364H1129.82V281.661H1129.91C1130.07 281.224 1130.34 280.882 1130.7 280.637C1131.07 280.388 1131.51 280.264 1132.02 280.264C1132.54 280.264 1132.97 280.39 1133.33 280.642C1133.69 280.891 1133.94 281.23 1134.09 281.661H1134.16C1134.33 281.237 1134.62 280.899 1135.02 280.647C1135.42 280.392 1135.9 280.264 1136.46 280.264C1137.16 280.264 1137.73 280.486 1138.18 280.93C1138.62 281.375 1138.84 282.022 1138.84 282.874V288H1137.04V283.153C1137.04 282.679 1136.91 282.332 1136.66 282.114C1136.41 281.892 1136.1 281.781 1135.74 281.781C1135.3 281.781 1134.96 281.916 1134.72 282.188C1134.47 282.457 1134.35 282.806 1134.35 283.237V288H1132.59V283.078C1132.59 282.684 1132.47 282.369 1132.23 282.134C1132 281.898 1131.69 281.781 1131.31 281.781C1131.05 281.781 1130.81 281.847 1130.6 281.979C1130.39 282.109 1130.22 282.293 1130.09 282.531C1129.97 282.767 1129.9 283.042 1129.9 283.357V288H1128.1ZM1140.67 288V280.364H1142.47V288H1140.67ZM1141.57 279.28C1141.29 279.28 1141.04 279.185 1140.84 278.996C1140.63 278.804 1140.53 278.574 1140.53 278.305C1140.53 278.034 1140.63 277.803 1140.84 277.614C1141.04 277.422 1141.29 277.326 1141.57 277.326C1141.86 277.326 1142.11 277.422 1142.31 277.614C1142.51 277.803 1142.62 278.034 1142.62 278.305C1142.62 278.574 1142.51 278.804 1142.31 278.996C1142.11 279.185 1141.86 279.28 1141.57 279.28ZM1148.13 280.364V281.756H1143.74V280.364H1148.13ZM1144.83 278.534H1146.63V285.703C1146.63 285.945 1146.66 286.131 1146.74 286.26C1146.81 286.386 1146.91 286.472 1147.03 286.518C1147.16 286.565 1147.29 286.588 1147.44 286.588C1147.55 286.588 1147.66 286.58 1147.75 286.563C1147.85 286.547 1147.92 286.532 1147.97 286.518L1148.27 287.925C1148.18 287.959 1148.04 287.995 1147.86 288.035C1147.68 288.075 1147.47 288.098 1147.21 288.104C1146.76 288.118 1146.36 288.05 1145.99 287.901C1145.63 287.748 1145.35 287.513 1145.13 287.195C1144.93 286.876 1144.82 286.479 1144.83 286.001V278.534ZM1149.64 288V280.364H1151.36V281.661H1151.45C1151.61 281.224 1151.87 280.882 1152.24 280.637C1152.61 280.388 1153.04 280.264 1153.56 280.264C1154.07 280.264 1154.51 280.39 1154.86 280.642C1155.22 280.891 1155.47 281.23 1155.62 281.661H1155.7C1155.87 281.237 1156.15 280.899 1156.55 280.647C1156.96 280.392 1157.44 280.264 1157.99 280.264C1158.69 280.264 1159.27 280.486 1159.71 280.93C1160.15 281.375 1160.38 282.022 1160.38 282.874V288H1158.57V283.153C1158.57 282.679 1158.45 282.332 1158.19 282.114C1157.94 281.892 1157.63 281.781 1157.27 281.781C1156.83 281.781 1156.5 281.916 1156.25 282.188C1156.01 282.457 1155.89 282.806 1155.89 283.237V288H1154.12V283.078C1154.12 282.684 1154 282.369 1153.76 282.134C1153.53 281.898 1153.22 281.781 1152.84 281.781C1152.58 281.781 1152.35 281.847 1152.13 281.979C1151.92 282.109 1151.75 282.293 1151.63 282.531C1151.5 282.767 1151.44 283.042 1151.44 283.357V288H1149.64ZM1165.58 288.149C1164.82 288.149 1164.16 287.99 1163.6 287.672C1163.05 287.35 1162.62 286.896 1162.32 286.31C1162.02 285.72 1161.87 285.025 1161.87 284.227C1161.87 283.441 1162.02 282.752 1162.32 282.158C1162.62 281.562 1163.04 281.098 1163.58 280.766C1164.12 280.432 1164.76 280.264 1165.49 280.264C1165.96 280.264 1166.4 280.34 1166.82 280.493C1167.24 280.642 1167.61 280.874 1167.93 281.189C1168.26 281.504 1168.51 281.905 1168.7 282.392C1168.89 282.876 1168.98 283.453 1168.98 284.122V284.674H1162.72V283.461H1167.25C1167.25 283.116 1167.18 282.81 1167.03 282.541C1166.88 282.269 1166.68 282.056 1166.42 281.9C1166.16 281.744 1165.86 281.666 1165.51 281.666C1165.15 281.666 1164.82 281.756 1164.54 281.935C1164.27 282.11 1164.05 282.342 1163.89 282.631C1163.74 282.916 1163.66 283.229 1163.66 283.57V284.629C1163.66 285.073 1163.74 285.455 1163.9 285.773C1164.06 286.088 1164.29 286.33 1164.58 286.499C1164.88 286.664 1165.22 286.747 1165.61 286.747C1165.87 286.747 1166.11 286.711 1166.32 286.638C1166.53 286.562 1166.71 286.451 1166.87 286.305C1167.03 286.159 1167.14 285.978 1167.22 285.763L1168.9 285.952C1168.8 286.396 1168.6 286.784 1168.3 287.115C1168 287.443 1167.62 287.698 1167.16 287.881C1166.7 288.06 1166.18 288.149 1165.58 288.149ZM1172.3 283.526V288H1170.5V280.364H1172.22V281.661H1172.31C1172.49 281.234 1172.77 280.894 1173.15 280.642C1173.54 280.39 1174.02 280.264 1174.59 280.264C1175.11 280.264 1175.57 280.377 1175.96 280.602C1176.36 280.828 1176.66 281.154 1176.88 281.582C1177.1 282.009 1177.21 282.528 1177.2 283.138V288H1175.4V283.416C1175.4 282.906 1175.27 282.506 1175.01 282.218C1174.74 281.93 1174.38 281.786 1173.92 281.786C1173.6 281.786 1173.32 281.855 1173.08 281.994C1172.83 282.13 1172.64 282.327 1172.5 282.586C1172.37 282.844 1172.3 283.158 1172.3 283.526ZM1182.85 280.364V281.756H1178.46V280.364H1182.85ZM1179.54 278.534H1181.34V285.703C1181.34 285.945 1181.38 286.131 1181.45 286.26C1181.52 286.386 1181.62 286.472 1181.75 286.518C1181.87 286.565 1182.01 286.588 1182.15 286.588C1182.27 286.588 1182.37 286.58 1182.46 286.563C1182.56 286.547 1182.63 286.532 1182.68 286.518L1182.98 287.925C1182.89 287.959 1182.75 287.995 1182.57 288.035C1182.4 288.075 1182.18 288.098 1181.93 288.104C1181.47 288.118 1181.07 288.05 1180.71 287.901C1180.35 287.748 1180.06 287.513 1179.85 287.195C1179.64 286.876 1179.54 286.479 1179.54 286.001V278.534ZM1190.28 282.382L1188.64 282.561C1188.59 282.395 1188.51 282.24 1188.39 282.094C1188.28 281.948 1188.13 281.83 1187.94 281.741C1187.74 281.651 1187.51 281.607 1187.23 281.607C1186.85 281.607 1186.54 281.688 1186.28 281.85C1186.03 282.013 1185.91 282.223 1185.91 282.482C1185.91 282.704 1185.99 282.884 1186.16 283.023C1186.32 283.163 1186.6 283.277 1186.99 283.366L1188.29 283.645C1189.02 283.801 1189.55 284.048 1189.9 284.386C1190.26 284.724 1190.44 285.166 1190.44 285.713C1190.44 286.194 1190.3 286.618 1190.02 286.986C1189.74 287.35 1189.36 287.635 1188.87 287.841C1188.38 288.046 1187.82 288.149 1187.18 288.149C1186.24 288.149 1185.49 287.954 1184.92 287.562C1184.35 287.168 1184.01 286.62 1183.9 285.917L1185.66 285.748C1185.74 286.093 1185.91 286.353 1186.17 286.528C1186.42 286.704 1186.76 286.792 1187.17 286.792C1187.6 286.792 1187.94 286.704 1188.2 286.528C1188.47 286.353 1188.6 286.136 1188.6 285.877C1188.6 285.658 1188.51 285.478 1188.34 285.335C1188.18 285.193 1187.92 285.083 1187.57 285.007L1186.26 284.734C1185.53 284.581 1184.99 284.324 1184.64 283.963C1184.29 283.598 1184.11 283.138 1184.12 282.581C1184.11 282.11 1184.24 281.703 1184.5 281.358C1184.76 281.01 1185.12 280.741 1185.59 280.553C1186.06 280.36 1186.59 280.264 1187.2 280.264C1188.1 280.264 1188.8 280.455 1189.32 280.836C1189.83 281.217 1190.15 281.732 1190.28 282.382Z" fill="black"/>
</svg>
