<svg width="32" height="32" viewBox="0 0 32 32" fill="none" xmlns="http://www.w3.org/2000/svg">
<g clip-path="url(#clip0_902_28369)">
<circle cx="16" cy="16" r="15.5" stroke="#FFE229"/>
<path fill-rule="evenodd" clip-rule="evenodd" d="M21.6569 10.3431C21.1362 9.82243 20.2919 9.82243 19.7712 10.3431L16 14.1144L12.2288 10.3431C11.7081 9.82243 10.8638 9.82243 10.3431 10.3431C9.82245 10.8638 9.82245 11.7081 10.3431 12.2288L14.1144 16L10.3431 19.7712C9.82245 20.2919 9.82245 21.1361 10.3431 21.6568C10.8638 22.1775 11.7081 22.1775 12.2288 21.6568L16 17.8856L19.7712 21.6568C20.2919 22.1775 21.1362 22.1775 21.6569 21.6568C22.1776 21.1361 22.1776 20.2919 21.6569 19.7712L17.8856 16L21.6569 12.2288C22.1776 11.7081 22.1776 10.8638 21.6569 10.3431Z" fill="#FFE229"/>
</g>
<defs>
<clipPath id="clip0_902_28369">
<rect width="32" height="32" fill="white"/>
</clipPath>
</defs>
</svg>
