<svg width="22" height="21" viewBox="0 0 22 21" fill="none" xmlns="http://www.w3.org/2000/svg">
<path d="M5.45062 20.9995H1.09688V6.97922H5.45062V20.9995ZM3.27141 5.06672C1.87922 5.06672 0.75 3.91359 0.75 2.52141C0.75 1.85269 1.01565 1.21136 1.4885 0.738503C1.96136 0.265647 2.60269 0 3.27141 0C3.94012 0 4.58145 0.265647 5.05431 0.738503C5.52716 1.21136 5.79281 1.85269 5.79281 2.52141C5.79281 3.91359 4.66313 5.06672 3.27141 5.06672ZM21.7453 20.9995H17.4009V14.1745C17.4009 12.548 17.3681 10.462 15.1373 10.462C12.8737 10.462 12.5269 12.2292 12.5269 14.0573V20.9995H8.17781V6.97922H12.3534V8.89172H12.4144C12.9956 7.79016 14.4155 6.62766 16.5338 6.62766C20.94 6.62766 21.75 9.52922 21.75 13.298V20.9995H21.7453Z" fill="white"/>
</svg>
