<svg width="24" height="20" viewBox="0 0 24 20" xmlns="http://www.w3.org/2000/svg">
  <path
    d="M21.283 4.85784C21.2982 5.07103 21.2982 5.28427 21.2982 5.49745C21.2982 12 16.349 19.4924 7.3033 19.4924C4.51648 19.4924 1.92767 18.6852 -0.25 17.2843C0.145953 17.3299 0.526625 17.3452 0.937812 17.3452C3.23727 17.3452 5.35405 16.5685 7.04441 15.2437C4.88197 15.198 3.06978 13.7817 2.44541 11.8325C2.75 11.8781 3.05455 11.9086 3.37437 11.9086C3.81598 11.9086 4.25764 11.8477 4.66878 11.7411C2.41498 11.2842 0.724578 9.30455 0.724578 6.91369V6.8528C1.37937 7.21828 2.14086 7.4467 2.94791 7.47712C1.62303 6.59386 0.755047 5.08627 0.755047 3.38067C0.755047 2.46698 0.998656 1.62942 1.42508 0.898453C3.84641 3.88322 7.48602 5.83242 11.5672 6.04566C11.4911 5.68017 11.4454 5.2995 11.4454 4.91878C11.4454 2.20809 13.6383 0 16.3641 0C17.7804 0 19.0595 0.593906 19.958 1.5533C21.0697 1.34011 22.1357 0.928922 23.0799 0.365484C22.7143 1.50764 21.9377 2.46703 20.9174 3.07613C21.9073 2.96958 22.8667 2.69541 23.7499 2.31473C23.08 3.28931 22.2424 4.1573 21.283 4.85784Z"
    fill="white" />
</svg>