<svg width="56" height="56" viewBox="0 0 56 56" fill="none" xmlns="http://www.w3.org/2000/svg">
<circle cx="28" cy="28" r="27.5" stroke="#FFE229"/>
<mask id="path-2-inside-1_634_1532" fill="white">
<path fill-rule="evenodd" clip-rule="evenodd" d="M36.4561 36.456C36.8466 36.0655 36.8466 35.4323 36.4561 35.0418L29.3851 27.9707L36.4561 20.8996C36.8466 20.5091 36.8467 19.8759 36.4561 19.4854C36.0656 19.0949 35.4324 19.0949 35.0419 19.4854L27.9708 26.5565L20.8998 19.4854C20.5093 19.0949 19.8761 19.0949 19.4856 19.4854C19.095 19.8759 19.095 20.5091 19.4856 20.8996L26.5566 27.9707L19.4856 35.0418C19.095 35.4323 19.095 36.0655 19.4856 36.456C19.8761 36.8465 20.5093 36.8465 20.8998 36.456L27.9708 29.3849L35.0419 36.456C35.4324 36.8465 36.0656 36.8465 36.4561 36.456Z"/>
</mask>
<path fill-rule="evenodd" clip-rule="evenodd" d="M36.4561 36.456C36.8466 36.0655 36.8466 35.4323 36.4561 35.0418L29.3851 27.9707L36.4561 20.8996C36.8466 20.5091 36.8467 19.8759 36.4561 19.4854C36.0656 19.0949 35.4324 19.0949 35.0419 19.4854L27.9708 26.5565L20.8998 19.4854C20.5093 19.0949 19.8761 19.0949 19.4856 19.4854C19.095 19.8759 19.095 20.5091 19.4856 20.8996L26.5566 27.9707L19.4856 35.0418C19.095 35.4323 19.095 36.0655 19.4856 36.456C19.8761 36.8465 20.5093 36.8465 20.8998 36.456L27.9708 29.3849L35.0419 36.456C35.4324 36.8465 36.0656 36.8465 36.4561 36.456Z" fill="#FC1A80"/>
<path d="M29.3851 27.9707L28.678 27.2636L27.9708 27.9707L28.678 28.6778L29.3851 27.9707ZM27.9708 26.5565L27.2637 27.2636L27.9708 27.9707L28.678 27.2636L27.9708 26.5565ZM20.8998 19.4854L21.6069 18.7783L20.8998 19.4854ZM26.5566 27.9707L27.2637 28.6778L27.9708 27.9707L27.2637 27.2636L26.5566 27.9707ZM27.9708 29.3849L28.678 28.6778L27.9708 27.9707L27.2637 28.6778L27.9708 29.3849ZM35.749 35.7489L35.749 35.7489L37.1632 37.1631C37.9443 36.382 37.9443 35.1157 37.1632 34.3347L35.749 35.7489ZM28.678 28.6778L35.749 35.7489L37.1632 34.3347L30.0922 27.2636L28.678 28.6778ZM35.749 20.1925L28.678 27.2636L30.0922 28.6778L37.1632 21.6067L35.749 20.1925ZM35.749 20.1925L37.1632 21.6067C37.9443 20.8257 37.9443 19.5594 37.1632 18.7783L35.749 20.1925ZM35.749 20.1925L35.749 20.1925L37.1632 18.7783C36.3822 17.9973 35.1159 17.9973 34.3348 18.7783L35.749 20.1925ZM28.678 27.2636L35.749 20.1925L34.3348 18.7783L27.2637 25.8494L28.678 27.2636ZM20.1927 20.1925L27.2637 27.2636L28.678 25.8494L21.6069 18.7783L20.1927 20.1925ZM20.1927 20.1925L21.6069 18.7783C20.8258 17.9973 19.5595 17.9973 18.7785 18.7783L20.1927 20.1925ZM20.1927 20.1925L18.7785 18.7783C17.9974 19.5594 17.9974 20.8257 18.7785 21.6067L20.1927 20.1925ZM27.2637 27.2636L20.1927 20.1925L18.7785 21.6067L25.8495 28.6778L27.2637 27.2636ZM20.1927 35.7489L27.2637 28.6778L25.8495 27.2636L18.7785 34.3347L20.1927 35.7489ZM20.1927 35.7489L18.7785 34.3347C17.9974 35.1157 17.9974 36.382 18.7785 37.1631L20.1927 35.7489ZM20.1927 35.7489L18.7785 37.1631C19.5595 37.9441 20.8258 37.9441 21.6069 37.1631L20.1927 35.7489ZM27.2637 28.6778L20.1927 35.7489L21.6069 37.1631L28.678 30.092L27.2637 28.6778ZM35.749 35.7489L28.678 28.6778L27.2637 30.092L34.3348 37.1631L35.749 35.7489ZM35.749 35.7489L34.3348 37.1631C35.1159 37.9441 36.3822 37.9441 37.1632 37.1631L35.749 35.7489Z" fill="#FFE229" mask="url(#path-2-inside-1_634_1532)"/>
</svg>
